<svg id="Layer_1" xmlns="http://www.w3.org/2000/svg" viewBox="0 0 90.8 90.8"><style>.st0{fill:#fff}.st1{fill:#4c417d}</style><path id="XMLID_410_" class="st0" d="M45.4 0C20.4 0 0 20.4 0 45.4s20.4 45.4 45.4 45.4 45.4-20.4 45.4-45.4S70.4 0 45.4 0z"/><g id="XMLID_415_"><path id="XMLID_412_" class="st1" d="M45.4 5.4c-21.8 0-40 17.8-40 40s17.7 39.9 39.9 39.9c21.8 0 39.9-17.7 39.9-39.9s-18-40-39.8-40z"/><g id="XMLID_413_"><path id="XMLID_427_" class="st0" d="M59.6 33.3l-2.4-.9v-.1c.1-.4-.1-.7-.5-.8l-6.5-1.6v-.1c-.1-.4-.1-.7-.2-1.1l-.1-.2v-.2c-.1-.2-.1-.3-.2-.5-.2-.6-.5-1.2-.9-1.7 0-.1-.1-.1-.1-.2.2-.4.3-.8.3-1.3 0-.8-.3-1.5-.8-2l3.1-8.6c.2-.5 0-1.1-.4-1.4-.6-.4-1.5-.1-1.7.6l-2.8 8-2.4-6.7c-.2-.5-.7-.9-1.3-.8-.7.1-1.1.8-.9 1.5l2.6 7.3c-.6.6-1 1.6-.8 2.6.2 1 .9 1.7 1.9 2 .7.2 1.4.1 2-.2.1.4.2.8.3 1.3 0 .3.1.6.1.8l-.1.1-1.9-.5-.3-.1-.3-.1-.3.5-1.9 1.6c-.3-.3-.5-.6-.7-.8-.4-.5-.6-.7-.6-.7l-.1-.1c-.1 0-.2 0-.2.1 0 0 0 .1-.1.3 0 .2-.1.4-.1.7 0 .4 0 1.1.2 1.8L22.6 47c.5.3 14.3 8.1 14.3 8.1l34.6-17.9-11.9-3.9zM46 30.2l1.7.6c0 .2-.1.3-.2.4-.1.2-.2.2-.3.3H47l-.1.1h-.2c-.4.1-.7.1-1.1.1l-.2-.2.6-1.3zM41.7 39l-16.8 7.9L42.1 33c.3.4.7.8 1.2 1.2L41.7 39zm1.7-.8l1.1-3.4c.4.1.8.2 1.2.2.9.1 1.8-.2 2.6-.6.1-.1.2-.1.3-.2l.2-.1c.1 0 .1-.1.1-.1l.2-.2.3-.3c.4-.4.6-.9.7-1.4.1-.2.1-.4.1-.6l4.3 1.4-11.1 5.3z"/><path id="XMLID_420_" class="st0" d="M36.8 56.6l-14.6-8.2v21l14.6 9.1V56.6z"/><path id="XMLID_435_" class="st0" d="M44.2 31.3c0 .1 0 .1 0 0z"/><path id="XMLID_440_" class="st0" d="M36.9 78.5l34.4-20V38.7L36.9 56.6v21.9zm29.9-35.4c0-.6.5-1.1 1.1-1.1s1.1.5 1.1 1.1v14.5c0 .6-.5 1.1-1.1 1.1s-1.1-.5-1.1-1.1V43.1zm-7 4c0-.6.5-1.1 1.1-1.1s1.1.5 1.1 1.1v14.5c0 .6-.5 1.1-1.1 1.1s-1.1-.5-1.1-1.1V47.1zm-6.9 3.6c0-.6.5-1.1 1.1-1.1.6 0 1.1.5 1.1 1.1v14.5c0 .6-.5 1.1-1.1 1.1-.6 0-1.1-.5-1.1-1.1V50.7zM46 55.1c0-.6.5-1.1 1.1-1.1s1.1.5 1.1 1.1v14.5c0 .6-.5 1.1-1.1 1.1s-1.1-.5-1.1-1.1V55.1zm-6.9 4.5c0-.6.5-1.1 1.1-1.1.6 0 1.1.5 1.1 1.1v14.5c0 .6-.5 1.1-1.1 1.1-.6 0-1.1-.5-1.1-1.1V59.6z"/></g></g></svg>