<?xml version="1.0" encoding="utf-8"?>
<!-- Generator: Adobe Illustrator 22.1.0, SVG Export Plug-In . SVG Version: 6.00 Build 0)  -->
<svg version="1.1" id="Layer_1" xmlns="http://www.w3.org/2000/svg" xmlns:xlink="http://www.w3.org/1999/xlink" x="0px" y="0px"
	 viewBox="0 0 90.8 90.8" style="enable-background:new 0 0 90.8 90.8;" xml:space="preserve">
<style type="text/css">
	.st0{fill:#FFFFFF;}
</style>
<g>
	<path class="st0" d="M59.6,33.3l-2.4-0.9v-0.1c0.1-0.4-0.1-0.7-0.5-0.8l-6.5-1.6v-0.1c-0.1-0.4-0.1-0.7-0.2-1.1l-0.1-0.2v-0.1v-0.1
		c-0.1-0.2-0.1-0.3-0.2-0.5c-0.2-0.6-0.5-1.2-0.9-1.7c0-0.1-0.1-0.1-0.1-0.2c0.2-0.4,0.3-0.8,0.3-1.3c0-0.8-0.3-1.5-0.8-2l3.1-8.6
		c0.2-0.5,0-1.1-0.4-1.4c-0.6-0.4-1.5-0.1-1.7,0.6l-2.8,8L44,14.5c-0.2-0.5-0.7-0.9-1.3-0.8c-0.7,0.1-1.1,0.8-0.9,1.5l2.6,7.3
		c-0.6,0.6-1,1.6-0.8,2.6s0.9,1.7,1.9,2c0.7,0.2,1.4,0.1,2-0.2c0.1,0.4,0.2,0.8,0.3,1.3c0,0.3,0.1,0.6,0.1,0.8
		c-0.1,0.1-0.1,0.1-0.1,0.1l-1.9-0.5l-0.3-0.1l-0.3-0.1L45,28.9l-1.9,1.6c-0.3-0.3-0.5-0.6-0.7-0.8C42,29.2,41.8,29,41.8,29
		l-0.1-0.1c-0.1,0-0.2,0-0.2,0.1c0,0,0,0.1-0.1,0.3c0,0.2-0.1,0.4-0.1,0.7c0,0.4,0,1.1,0.2,1.8L22.6,47c0.5,0.3,14.3,8.1,14.3,8.1
		l34.6-17.9L59.6,33.3z M46,30.2l1.7,0.6c0,0.2-0.1,0.3-0.2,0.4c-0.1,0.2-0.2,0.2-0.3,0.3h-0.1H47l-0.1,0.1h-0.1h-0.1
		c-0.4,0.1-0.7,0.1-1.1,0.1c-0.1-0.1-0.1-0.1-0.2-0.2L46,30.2z M41.7,39l-16.8,7.9L42.1,33c0.3,0.4,0.7,0.8,1.2,1.2L41.7,39z
		 M43.4,38.2l1.1-3.4c0.4,0.1,0.8,0.2,1.2,0.2c0.9,0.1,1.8-0.2,2.6-0.6c0.1-0.1,0.2-0.1,0.3-0.2l0.2-0.1c0.1,0,0.1-0.1,0.1-0.1
		l0.2-0.2l0.3-0.3c0.4-0.4,0.6-0.9,0.7-1.4c0.1-0.2,0.1-0.4,0.1-0.6l4.3,1.4L43.4,38.2z"/>
	<path class="st0" d="M36.8,56.6l-14.6-8.2v21l14.6,9.1V56.6z"/>
	<path class="st0" d="M44.2,31.3C44.2,31.4,44.2,31.4,44.2,31.3z"/>
	<path class="st0" d="M36.9,78.5l34.4-20V38.7L36.9,56.6V78.5z M66.8,43.1c0-0.6,0.5-1.1,1.1-1.1s1.1,0.5,1.1,1.1v14.5
		c0,0.6-0.5,1.1-1.1,1.1s-1.1-0.5-1.1-1.1V43.1z M59.8,47.1c0-0.6,0.5-1.1,1.1-1.1s1.1,0.5,1.1,1.1v14.5c0,0.6-0.5,1.1-1.1,1.1
		s-1.1-0.5-1.1-1.1V47.1z M52.9,50.7c0-0.6,0.5-1.1,1.1-1.1s1.1,0.5,1.1,1.1v14.5c0,0.6-0.5,1.1-1.1,1.1s-1.1-0.5-1.1-1.1V50.7z
		 M46,55.1c0-0.6,0.5-1.1,1.1-1.1s1.1,0.5,1.1,1.1v14.5c0,0.6-0.5,1.1-1.1,1.1S46,70.2,46,69.6V55.1z M39.1,59.6
		c0-0.6,0.5-1.1,1.1-1.1s1.1,0.5,1.1,1.1v14.5c0,0.6-0.5,1.1-1.1,1.1s-1.1-0.5-1.1-1.1V59.6z"/>
</g>
</svg>
