<svg id="Layer_1" xmlns="http://www.w3.org/2000/svg" viewBox="-104 391 20 20"><style>.st0{fill:#fff}.st1{fill:#f9b192}</style><g id="XMLID_287_"><circle id="XMLID_286_" class="st0" cx="-94" cy="401" r="10"/><g id="XMLID_31_"><path id="XMLID_224_" class="st1" d="M-98 405.2c0 .3.2.5.5.5h6.9c.3 0 .5-.2.5-.5V400H-98v5.2zm5.9-4.6h1.2v1.2h-1.2v-1.2zm0 1.7h1.2v1.2h-1.2v-1.2zm-1.7-1.7h1.2v1.2h-1.2v-1.2zm0 1.7h1.2v1.2h-1.2v-1.2zm0 1.6h1.2v1.2h-1.2v-1.2zm-1.6-3.3h1.2v1.2h-1.2v-1.2zm0 1.7h1.2v1.2h-1.2v-1.2zm0 1.6h1.2v1.2h-1.2v-1.2zm-1.7-1.6h1.2v1.2h-1.2v-1.2zm0 1.6h1.2v1.2h-1.2v-1.2z"/><path id="XMLID_247_" class="st1" d="M-94 392.2c-4.8 0-8.8 3.9-8.8 8.8s3.9 8.8 8.8 8.8 8.8-3.9 8.8-8.8-4-8.8-8.8-8.8zm1.6 3.9c0-.2.2-.4.4-.4s.4.2.4.4v1.9c0 .2-.2.4-.4.4s-.4-.2-.4-.4v-1.9zm-4.1 0c0-.2.2-.4.4-.4s.4.2.4.4v1.9c0 .2-.2.4-.4.4s-.4-.2-.4-.4v-1.9zm7.2 9.7c0 .3-.3.6-.6.6h-8.2c-.3 0-.6-.3-.6-.6v-8.2c0-.3.3-.6.6-.6h1.4v1c0 .4.3.7.7.7s.7-.3.7-.7v-1h2.7v1c0 .4.3.7.7.7s.7-.3.7-.7v-1h1.4c.3 0 .6.3.6.6v8.2z"/><path id="XMLID_253_" class="st1" d="M-93.5 402.5h.7v.7h-.7z"/></g></g></svg>