<svg xmlns="http://www.w3.org/2000/svg" viewBox="-134 376.1 50 50"><circle fill="#FFF" cx="-109" cy="401.1" r="25"/><path fill="#A4D2CD" d="M-96.69 408.29c-.857-2.619-2.905-5.452-7.167-6.69.881-.929 2.167-1.738 4-2.214.286.738 1.69 1.31 3.357 1.31 1.738 0 3.167-.619 3.381-1.405.262.048.405.071.405.071 3.095.762 4.595 2.548 5.333 4.19.095-.81.143-1.643.143-2.476 0-12.024-9.738-21.762-21.762-21.762s-21.762 9.738-21.762 21.762c0 .833.048 1.667.143 2.476.738-1.643 2.238-3.429 5.333-4.19.286.738 1.69 1.31 3.357 1.31 1.738 0 3.167-.619 3.381-1.405.262.048.405.071.405.071 1.857.452 3.143 1.262 4.024 2.214-4.262 1.238-6.31 4.071-7.167 6.69-2.619.048-5.571-.143-8.548-.881 2.714 8.952 11 15.476 20.833 15.476 9.857 0 18.167-6.548 20.857-15.5-1.737.406-4.856.953-8.546.953zm.404-19.476c2.429 0 4.405 1.357 4.405 5.143 0 2.833-1.976 5.143-4.405 5.143-2.429 0-4.405-2.31-4.405-5.143.001-3.786 1.977-5.143 4.405-5.143zm-25.428 10.286c-2.452 0-4.429-2.31-4.429-5.143 0-3.786 1.976-5.143 4.405-5.143 2.429 0 4.405 1.357 4.405 5.143.023 2.833-1.953 5.143-4.381 5.143zm7.5-2.69c0-4.476 2.333-6.095 5.214-6.095s5.214 1.619 5.214 6.095c0 3.357-2.333 6.095-5.214 6.095s-5.214-2.715-5.214-6.095zm16.547 15.476s-11.476 3.429-22.667 0c0 0-.548-7.119 7.095-9 .357.881 2 1.548 3.976 1.548 2.048 0 3.738-.714 4.024-1.643.31.048.476.095.476.095 7.668 1.857 7.096 9 7.096 9z"/></svg>