<svg xmlns="http://www.w3.org/2000/svg" viewBox="-134 376 50 50"><circle fill="#FFF" cx="-109" cy="401" r="25"/><path fill="#4D8D8E" d="M-109 379.048c-12.119 0-21.952 9.833-21.952 21.952s9.833 21.952 21.952 21.952 21.952-9.833 21.952-21.952-9.833-21.952-21.952-21.952zm0 7.476c3.619 0 6.548 2.024 6.548 7.643 0 4.214-2.929 7.643-6.548 7.643s-6.548-3.429-6.548-7.643c0-5.596 2.929-7.643 6.548-7.643zm14.214 27.024s-14.381 4.31-28.429 0c0 0-.69-8.929 8.905-11.286.452 1.119 2.5 1.952 5 1.952 2.571 0 4.69-.905 5.024-2.071.381.071.595.119.595.119 9.596 2.357 8.905 11.286 8.905 11.286z"/></svg>