<?xml version="1.0" encoding="utf-8"?>
<!-- Generator: Adobe Illustrator 23.0.1, SVG Export Plug-In . SVG Version: 6.00 Build 0)  -->
<svg version="1.1" id="Layer_1" xmlns="http://www.w3.org/2000/svg" xmlns:xlink="http://www.w3.org/1999/xlink" x="0px" y="0px"
	 viewBox="0 0 90.8 90.8" style="enable-background:new 0 0 90.8 90.8;" xml:space="preserve">
<style type="text/css">
	.st0{fill:#FFFFFF;}
</style>
<path class="st0" d="M78.3,60.4h-8.2c-0.7,0-1.2-0.6-1.2-1.2V42.6c0-0.7,0.6-1.2,1.2-1.2h8.2c0.7,0,1.2,0.6,1.2,1.2v16.6
	C79.5,59.8,79,60.4,78.3,60.4z M25.8,59.2V42.6c0-0.7-0.6-1.2-1.2-1.2h-8.2c-0.7,0-1.2,0.6-1.2,1.2v16.6c0,0.7,0.6,1.2,1.2,1.2h8.2
	C25.3,60.4,25.8,59.8,25.8,59.2z M54.8,42.7v-3c0-0.4-0.3-0.7-0.7-0.7H40.6c-0.4,0-0.7,0.3-0.7,0.7v3H28.2v16.4h38.4V42.7H54.8z
	 M58,32.1v-2.6H36.7v2.6h9.2v2.9h-2.3v2.6h7.4v-2.6h-2.3v-2.9H58z"/>
</svg>
