<?xml version="1.0" encoding="utf-8"?>
<!-- Generator: Adobe Illustrator 23.0.1, SVG Export Plug-In . SVG Version: 6.00 Build 0)  -->
<svg version="1.1" id="Layer_1" xmlns="http://www.w3.org/2000/svg" xmlns:xlink="http://www.w3.org/1999/xlink" x="0px" y="0px"
	 viewBox="0 0 90.8 90.8" style="enable-background:new 0 0 90.8 90.8;" xml:space="preserve">
<style type="text/css">
	.st0{fill:#AB3F97;}
	.st1{fill:#FFFFFF;}
</style>
<path class="st0" d="M45.2,5.1c-21.8,0-40,17.8-40,40S22.9,85,45.1,85C66.9,85,85,67.3,85,45.1S67,5.1,45.2,5.1z"/>
<g>
	<path class="st1" d="M74,59.4h-7.6c-0.6,0-1.1-0.5-1.1-1.1V42.8c0-0.6,0.5-1.1,1.1-1.1H74c0.6,0,1.1,0.5,1.1,1.1v15.4
		C75.1,58.9,74.6,59.4,74,59.4z"/>
	<path class="st1" d="M23.9,59.4h-7.6c-0.6,0-1.1-0.5-1.1-1.1V42.8c0-0.6,0.5-1.1,1.1-1.1h7.6c0.6,0,1.1,0.5,1.1,1.1v15.4
		C25.1,58.9,24.6,59.4,23.9,59.4z"/>
	<path class="st1" d="M52.1,42.9v-2.8c0-0.3-0.3-0.6-0.7-0.6H38.9c-0.4,0-0.7,0.3-0.7,0.6v2.8H27.3v15.3H63V42.9H52.1z"/>
	<polygon class="st1" points="55.1,33.1 55.1,30.6 35.2,30.6 35.2,33.1 43.8,33.1 43.8,35.8 41.7,35.8 41.7,38.2 48.6,38.2 
		48.6,35.8 46.5,35.8 46.5,33.1 	"/>
</g>
</svg>
