<svg xmlns="http://www.w3.org/2000/svg" viewBox="-134 376.3 50 50"><circle fill="#FFF" cx="-109" cy="401.3" r="25"/><path fill="#7E3C22" d="M-109 379.348c-12.119 0-21.952 9.833-21.952 21.952s9.833 21.952 21.952 21.952 21.952-9.833 21.952-21.952-9.833-21.952-21.952-21.952zm17.19 29h-4.81a.701.701 0 0 1-.714-.714v-.619h-6.262a6.192 6.192 0 0 1-.524.595 6.884 6.884 0 0 1-9.738 0 6.332 6.332 0 0 1-.524-.595h-6.429v.619c0 .405-.31.714-.714.714h-4.667a.701.701 0 0 1-.714-.714v-9.81c0-.405.31-.714.714-.714h4.667c.405 0 .714.31.714.714v.619h6.405c.167-.214.333-.405.524-.595 1.048-1.048 2.333-1.69 3.69-1.905v-3.595h-4.524c-.333 0-.595-.643-.595-.952a.59.59 0 0 1 .595-.595h4.69c.024-.524.476-.952 1.024-.952s.976.429 1.024.952h4.69a.59.59 0 0 1 .595.595c0 .333-.262.952-.595.952h-4.548v3.619a6.829 6.829 0 0 1 3.69 1.905c.19.19.357.381.524.595h6.286v-.619c0-.405.31-.714.714-.714h4.81c.405 0 .714.31.714.714v9.81c.003.356-.307.69-.712.69z"/><path fill="#7E3C22" d="M-91.81 397.109c.405 0 .714.31.714.714v9.81c0 .405-.31.714-.714.714h-4.81a.701.701 0 0 1-.714-.714v-9.81c0-.405.31-.714.714-.714h4.81m0-.523h-4.81a1.23 1.23 0 0 0-1.238 1.238v9.81c0 .69.548 1.238 1.238 1.238h4.81a1.23 1.23 0 0 0 1.238-1.238v-9.81a1.228 1.228 0 0 0-1.238-1.238zM-121.548 397.109c.405 0 .714.31.714.714v9.81c0 .405-.31.714-.714.714h-4.833a.701.701 0 0 1-.714-.714v-9.81c0-.405.31-.714.714-.714h4.833m0-.523h-4.833a1.23 1.23 0 0 0-1.238 1.238v9.81c0 .69.548 1.238 1.238 1.238h4.81a1.23 1.23 0 0 0 1.238-1.238v-9.81c0-.691-.548-1.238-1.215-1.238z"/><path fill="none" stroke="#7E3C22" stroke-width=".52" stroke-miterlimit="10" d="M-107.738 395.943a6.868 6.868 0 0 1 3.69 1.929 6.884 6.884 0 0 1 0 9.738 6.884 6.884 0 0 1-9.738 0 6.884 6.884 0 0 1 0-9.738 6.963 6.963 0 0 1 3.69-1.929"/></svg>