<?xml version="1.0" encoding="utf-8"?>
<!-- Generator: Adobe Illustrator 22.1.0, SVG Export Plug-In . SVG Version: 6.00 Build 0)  -->
<svg version="1.1" id="Layer_1" xmlns="http://www.w3.org/2000/svg" xmlns:xlink="http://www.w3.org/1999/xlink" x="0px" y="0px"
	 viewBox="0 0 50 50" style="enable-background:new 0 0 50 50;" xml:space="preserve">
<style type="text/css">
	.st0{fill:#FFFFFF;}
</style>
<g>
	<path class="st0" d="M28.6,13.2c0.6,0,1.1-0.1,1.6-0.4c0.4,0.4,0.9,0.6,1.4,0.6c0.2,0.7,0.8,1.2,1.5,1.2c0.8,0,1.5-0.6,1.5-1.4
		c0-0.4-0.2-0.8-0.6-1.1c0.1-0.3,0.2-0.6,0.2-0.9c0-1.3-1.1-2.3-2.4-2.3c-0.5-1.3-1.8-2.1-3.2-2.1c-1.9-0.1-3.4,1.4-3.4,3.1
		C25.3,11.8,26.8,13.2,28.6,13.2z"/>
	<path class="st0" d="M37.1,16.1h-7.5v11.6l-4.9-2.6v2.6l-4.9-2.5v2.5l-5-2.8v11.3h22.3V16.1z M22.8,35.3h-2.7v-2.6h2.7V35.3z
		 M25.4,35.3v-2.6H28l0.1,2.6H25.4z M33.6,35.3H31v-2.6h2.6V35.3z"/>
	<rect x="13.7" y="37" class="st0" width="24.8" height="2.5"/>
</g>
</svg>
