<svg id="Layer_1" xmlns="http://www.w3.org/2000/svg" viewBox="0 0 210 210"><style>.st0{fill:#fff}.st1{fill:#749769}</style><g id="XMLID_281_"><circle id="XMLID_280_" class="st0" cx="105" cy="105" r="105"/><g id="XMLID_232_"><g id="XMLID_275_"><path id="XMLID_292_" class="st1" d="M63.4 72.4l-.9 23.8 22.1-.1-2.2-23.7z"/><path id="XMLID_286_" class="st1" d="M126.6 120.5H59.4c-6.7 0-12.2 5.5-12.2 12.2 0 6.7 5.5 12.2 12.2 12.2h67.2c6.7 0 12.2-5.5 12.2-12.2 0-6.7-5.5-12.2-12.2-12.2zm-65.8 17.6c-2.7 0-4.9-2.2-4.9-4.9s2.2-4.9 4.9-4.9 4.9 2.2 4.9 4.9c.1 2.7-2.1 4.9-4.9 4.9zm21.8 0c-2.7 0-4.9-2.2-4.9-4.9s2.2-4.9 4.9-4.9 4.9 2.2 4.9 4.9c.1 2.7-2.2 4.9-4.9 4.9zm21.8 0c-2.7 0-4.9-2.2-4.9-4.9s2.2-4.9 4.9-4.9 4.9 2.2 4.9 4.9c.1 2.7-2.2 4.9-4.9 4.9zm21.8 0c-2.7 0-4.9-2.2-4.9-4.9s2.2-4.9 4.9-4.9 4.9 2.2 4.9 4.9c.1 2.7-2.2 4.9-4.9 4.9z"/><path id="XMLID_277_" class="st1" d="M105 12.8c-50.9 0-92.2 41.3-92.2 92.2 0 50.9 41.3 92.2 92.2 92.2s92.2-41.3 92.2-92.2c0-50.9-41.3-92.2-92.2-92.2zM48.5 66.4c0-3.4 2.9-6.2 6.4-6.2h34.3c3.5 0 6.3 2.7 6.4 6.1l1 13.3h11.1v-9c0-.1.1-.3.1-.4 0-.1 0-.3.1-.4l2.3-6.1c.5-1.2 1.9-1.9 3.1-1.4 1.2.5 1.9 1.9 1.4 3.1l-2.2 5.7v8.6h18.1c3.5 0 6.4 2.8 6.4 6.2v28.2c0 1.3-1.1 2.4-2.4 2.4-1.3 0-2.4-1.1-2.4-2.4V85.8c0-.8-.7-1.4-1.5-1.4H94.3c-1.3 0-2.3-1-2.4-2.2l-1.2-15.6v-.2c0-.8-.7-1.4-1.6-1.4H54.9c-.9 0-1.5.6-1.5 1.4v.1l-1.7 47c0 1.3-1.2 2.3-2.5 2.3s-2.4-1.2-2.3-2.5l1.6-46.9zm75 29.4h-15.8c-1.3 0-2.4-1.1-2.4-2.4 0-1.3 1.1-2.4 2.4-2.4h15.8c1.3 0 2.4 1.1 2.4 2.4 0 1.3-1 2.4-2.4 2.4zm2.1 6.9c0 1.3-1.1 2.4-2.4 2.4h-15.8c-1.3 0-2.4-1.1-2.4-2.4s1.1-2.4 2.4-2.4h15.8c1.3 0 2.4 1 2.4 2.4zm-35.9-4.5c.1.7-.2 1.3-.6 1.8-.5.5-1.1.8-1.8.8l-27.3.3c-.7 0-1.3-.3-1.7-.7-.5-.5-.7-1.1-.7-1.8l1-26.5c0-2.5 2.1-4.5 4.6-4.5h19.3c2.5 0 4.6 2 4.6 4.4l2.6 26.2zm74.8 51.6c-8.8 0-15.9-7.5-17.6-18.2l-3.3-.1c0 .4.1.8.1 1.2 0 9.4-7.6 17-17 17H59.4c-9.4 0-17-7.6-17-17s7.6-17 17-17h67.2c3.6 0 6.9 1.1 9.6 3l11.4.1c2.6-8.9 9.1-14.7 16.8-14.7 4.2 0 7.6 3.4 7.6 7.6 0 4.1-3.4 7.5-7.5 7.6-.8.3-2.9 3-2.9 7.7 0 4.6 2 7.4 2.9 7.7 4.1 0 7.5 3.4 7.5 7.6 0 4.1-3.4 7.5-7.5 7.5z"/><path id="XMLID_276_" class="st1" d="M164.5 139.4c-3.7 0-7.6-5-7.6-12.5s3.9-12.5 7.6-12.5c1.5 0 2.8-1.2 2.8-2.8 0-1.5-1.2-2.8-2.8-2.8-5.9 0-10.9 5.1-12.6 12.8-.2 1.1-1.2 1.9-2.4 1.9l-8.6-.1c.7 1 1.2 2.1 1.6 3.3.3-.1.5-.2.8-.2l5.7.1c1.2 0 2.3 1 2.4 2.2.7 9.1 6.3 15.9 13 15.9 1.5 0 2.8-1.2 2.8-2.8 0-1.2-1.2-2.5-2.7-2.5z"/></g></g></g></svg>