<?xml version="1.0" encoding="utf-8"?>
<!-- Generator: Adobe Illustrator 22.1.0, SVG Export Plug-In . SVG Version: 6.00 Build 0)  -->
<svg version="1.1" id="Layer_1" xmlns="http://www.w3.org/2000/svg" xmlns:xlink="http://www.w3.org/1999/xlink" x="0px" y="0px"
	 viewBox="0 0 50 50" style="enable-background:new 0 0 50 50;" xml:space="preserve">
<style type="text/css">
	.st0{fill:#FFFFFF;}
</style>
<path class="st0" d="M34.4,12.7c0-0.8,0.6-1.4,1.4-1.4h2.4c0.8,0,1.4,0.6,1.4,1.4v3.5h-1.3v-3.5c0-0.1,0-0.1-0.1-0.1h-2.4
	c-0.1,0-0.1,0-0.1,0.1v3.5h-1.3L34.4,12.7z M22.9,12.7c0-0.8,0.6-1.4,1.4-1.4h2.4c0.8,0,1.4,0.6,1.4,1.4v3.5h-1.3v-3.5
	c0-0.1,0-0.1-0.1-0.1h-2.4c-0.1,0-0.1,0-0.1,0.1v3.5h-1.3V12.7z M11.5,12.7c0-0.8,0.6-1.4,1.4-1.4h2.4c0.8,0,1.4,0.6,1.4,1.4v3.5
	h-1.3v-3.5c0-0.1,0-0.1-0.1-0.1h-2.4c-0.1,0-0.1,0-0.1,0.1v3.5h-1.3L11.5,12.7z M16.7,38.1c0,0.7-0.6,1.3-1.4,1.3h-2.4
	c-0.8,0-1.4-0.6-1.4-1.3v-4.4h1.3v4.4c0,0.1,0,0.1,0.1,0.1h2.4c0.1,0,0.1,0,0.1-0.1v-4.4h1.3L16.7,38.1z M28.1,38.1
	c0,0.7-0.6,1.3-1.4,1.3h-2.4c-0.8,0-1.4-0.6-1.4-1.3v-4.4h1.3v4.4c0,0.1,0,0.1,0.1,0.1h2.4c0.1,0,0.1,0,0.1-0.1v-4.4h1.3V38.1z
	 M39.6,38.1c0,0.7-0.6,1.3-1.4,1.3h-2.4c-0.8,0-1.4-0.6-1.4-1.3v-4.4h1.3v4.4c0,0.1,0,0.1,0.1,0.1h2.4c0.1,0,0.1,0,0.1-0.1v-4.4h1.3
	L39.6,38.1z M40.6,33.2h-1h-1.3h-2.6h-1.3h-6.2h-1.3h-2.6H23h-6.2h-1.3h-2.6h-1.3h-1v-2.6h1h1.3h2.6h1.3H23h1.3h2.6h1.3h6.2h1.3h2.6
	h1.3h1V33.2z M11.5,29.8v-9.9h1.3v9.9H11.5z M15.4,29.8v-9.9h1.3v9.9H15.4z M22.9,29.8v-9.9h1.3v9.9H22.9z M26.8,29.8v-9.9h1.3v9.9
	H26.8z M34.4,29.8v-9.9h1.3v9.9H34.4z M38.3,29.8v-9.9h1.3v9.9H38.3z M40.6,19.1h-1h-1.3h-2.6h-1.3h-6.2h-1.3h-2.6H23h-6.2h-1.3
	h-2.6h-1.3h-1v-2.3h1h1.3h2.6h1.3H23h1.3h2.6h1.3h6.2h1.3h2.6h1.3h1V19.1z"/>
</svg>
