<svg xmlns="http://www.w3.org/2000/svg" viewBox="-134 376 50 50"><circle fill="#FFF" cx="-109" cy="401" r="25"/><path fill="#C34242" d="M-109 379.048c-12.119 0-21.952 9.833-21.952 21.952s9.833 21.952 21.952 21.952 21.952-9.833 21.952-21.952-9.833-21.952-21.952-21.952zm9.381 9.69c0-.762.619-1.405 1.405-1.405h2.405c.762 0 1.405.619 1.405 1.405v3.548h-1.31v-3.5a.113.113 0 0 0-.119-.119h-2.357a.113.113 0 0 0-.119.119v3.524h-1.31v-3.572zm-11.452 0c0-.762.619-1.405 1.405-1.405h2.405c.762 0 1.405.619 1.405 1.405v3.548h-1.31v-3.5a.113.113 0 0 0-.119-.119h-2.357a.113.113 0 0 0-.119.119v3.524h-1.31v-3.572zm-11.453 0c0-.762.619-1.405 1.405-1.405h2.405c.762 0 1.405.619 1.405 1.405v3.548h-1.31v-3.5a.113.113 0 0 0-.119-.119h-2.357a.113.113 0 0 0-.119.119v3.524h-1.31v-3.572zm5.214 25.357c0 .738-.619 1.333-1.405 1.333h-2.405c-.762 0-1.405-.595-1.405-1.333v-4.381h1.31v4.357c0 .071.048.071.119.071h2.357c.071 0 .119 0 .119-.071v-4.357h1.31v4.381zm11.429 0c0 .738-.619 1.333-1.405 1.333h-2.405c-.762 0-1.405-.595-1.405-1.333v-4.381h1.31v4.357c0 .071.048.071.119.071h2.357c.071 0 .119 0 .119-.071v-4.357h1.31v4.381zm11.452 0c0 .738-.619 1.333-1.405 1.333h-2.405c-.762 0-1.405-.595-1.405-1.333v-4.381h1.31v4.357c0 .071.048.071.119.071h2.357c.071 0 .119 0 .119-.071v-4.357h1.31v4.381zm1.048-4.905H-123.574v-2.595h30.217v2.595h-.024zm-29.143-3.38v-9.881h1.31v9.881h-1.31zm3.905 0v-9.881h1.31v9.881h-1.31zm7.548 0v-9.881h1.31v9.881h-1.31zm3.904 0v-9.881h1.31v9.881h-1.31zm7.548 0v-9.881h1.31v9.881h-1.31zm3.905 0v-9.881h1.31v9.881h-1.31zm2.333-10.667H-123.574v-2.333h30.217v2.333h-.024z"/></svg>