<svg xmlns="http://www.w3.org/2000/svg" viewBox="-134 376 50 50"><circle fill="#FFF" cx="-109" cy="401" r="25"/><g fill="#F68B3F"><path d="M-106.74 399.81h3.48v1.79h-3.48zM-114.69 399.81h3.48v1.79h-3.48zM-122.64 399.81h3.48v1.79h-3.48z"/><path stroke="#FDFDFE" stroke-width=".52" stroke-miterlimit="10" d="M-109 379.048c-12.119 0-21.952 9.833-21.952 21.952s9.833 21.952 21.952 21.952 21.952-9.833 21.952-21.952-9.833-21.952-21.952-21.952zm15.429 32.547h-30.857v-2.143h30.857v2.143zm0-3.952h-30.857v-12.857h30.857v12.857zm0-14.667h-30.857v-2.571h30.857v2.571z"/><path d="M-98.76 399.81h3.48v1.79h-3.48z"/></g></svg>