<svg xmlns="http://www.w3.org/2000/svg" viewBox="-419 376 50 50"><path fill="#FFF" d="M-394 376c-13.75 0-25 11.25-25 25s11.25 25 25 25 25-11.25 25-25-11.25-25-25-25zm0 47c-12 0-22-9.75-22-22s10-22 22-22 22 9.75 22 22-10 22-22 22z"/><circle fill="#008CC4" cx="-394" cy="385.75" r="1.25"/><path fill="#008CC4" d="M-394 379c-12 0-22 9.75-22 22s9.75 22 22 22c12 0 22-9.75 22-22s-10-22-22-22z"/><path fill="#FFF" d="M-384.54 407.068c-.394-.135-.771-.244-1.132-.39-1.055-.426-1.316-1.566-.498-2.354a262.8 262.8 0 0 1 4.931-4.627c.822-.751 1.996-.33 2.183.771.367 2.153.716 4.31 1.034 6.472.179 1.215-.743 1.962-1.913 1.602-.308-.095-.613-.202-.928-.306-2.422 5.902-6.676 9.396-13.147 9.393-6.45-.004-10.697-3.481-13.125-9.383-.342.108-.694.231-1.052.33-1.018.282-1.944-.418-1.801-1.451a178.38 178.38 0 0 1 1.074-6.776c.174-.977 1.35-1.373 2.087-.704a200.591 200.591 0 0 1 5.075 4.77c.717.699.462 1.786-.454 2.199-.401.181-.827.307-1.238.457.344 2.695 4.928 6.575 7.706 6.491v-.55c-.003-6.781-.009-13.562.001-20.342.001-.392-.108-.601-.465-.792-2.072-1.109-3.007-3.609-2.201-5.796.835-2.262 3.127-3.527 5.504-3.037 2.283.471 3.886 2.58 3.737 4.945-.112 1.779-.986 3.078-2.523 3.963-.166.096-.345.346-.345.525-.019 6.934-.017 13.869-.017 20.803 0 .083.017.167.026.248 2.68.023 6.754-3.474 7.481-6.461zm-9.39-17.377a1.984 1.984 0 0 0 1.99-1.93 1.972 1.972 0 0 0-1.947-2.02 1.959 1.959 0 0 0-1.985 1.924 1.975 1.975 0 0 0 1.942 2.026z"/></svg>