<?xml version="1.0" encoding="utf-8"?>
<!-- Generator: Adobe Illustrator 22.1.0, SVG Export Plug-In . SVG Version: 6.00 Build 0)  -->
<svg version="1.1" id="Layer_1" xmlns="http://www.w3.org/2000/svg" xmlns:xlink="http://www.w3.org/1999/xlink" x="0px" y="0px"
	 viewBox="0 0 50 50" style="enable-background:new 0 0 50 50;" xml:space="preserve">
<style type="text/css">
	.st0{fill:#008CC4;}
	.st1{fill:#FFFFFF;}
</style>
<circle class="st0" cx="25" cy="9.8" r="1.2"/>
<path class="st1" d="M34.5,31.1c-0.4-0.1-0.8-0.2-1.1-0.4c-1.1-0.4-1.3-1.6-0.5-2.4c1.6-1.6,3.3-3.1,4.9-4.6c0.8-0.8,2-0.3,2.2,0.8
	c0.4,2.2,0.7,4.3,1,6.5c0.2,1.2-0.7,2-1.9,1.6c-0.3-0.1-0.6-0.2-0.9-0.3c-2.4,5.9-6.7,9.4-13.1,9.4c-6.5,0-10.7-3.5-13.1-9.4
	c-0.3,0.1-0.7,0.2-1.1,0.3c-1,0.3-1.9-0.4-1.8-1.5c0.3-2.3,0.7-4.5,1.1-6.8c0.2-1,1.4-1.4,2.1-0.7c1.7,1.6,3.4,3.2,5.1,4.8
	c0.7,0.7,0.5,1.8-0.5,2.2c-0.4,0.2-0.8,0.3-1.2,0.5c0.3,2.7,4.9,6.6,7.7,6.5c0-0.2,0-0.4,0-0.5c0-6.8,0-13.6,0-20.3
	c0-0.4-0.1-0.6-0.5-0.8c-2.1-1.1-3-3.6-2.2-5.8c0.8-2.3,3.1-3.5,5.5-3c2.3,0.5,3.9,2.6,3.7,4.9c-0.1,1.8-1,3.1-2.5,4
	C27.1,16,27,16.3,27,16.5v20.8v0.2C29.7,37.6,33.7,34.1,34.5,31.1z M25.1,13.7c1.1,0,2-0.9,2-1.9c0-1.1-0.8-2-1.9-2s-2,0.8-2,1.9
	C23.1,12.8,24,13.7,25.1,13.7z"/>
</svg>
