<svg id="Layer_1" xmlns="http://www.w3.org/2000/svg" viewBox="0 0 215.5 26.1"><style>.st0{fill:#58595b}</style><path class="st0" d="M16.5 4.2c.9.1 2 .6 2.5.6.2 0 .5.2.5 1 0 .7.2 2.1.2 2.9 0 .7-.2 1.1-.5 1.1-.2 0-.4-.4-.5-.9-.3-1.2-.9-2.1-1.4-2.5C15.5 5 13.8 4.7 12 4.7c-5.3 0-8.7 4.4-8.7 9.4 0 2.2.4 4 1.2 5.4 1.8 3.8 5.7 5.3 8.4 5.3.6 0 2.2-.1 3.6-.9 1.5-.8 2.3-1.8 3.1-3.2.4-.7.6-.9.7-.9.3 0 .4.7.3 1.1-.1.8-.9 2.6-1.3 3.3-.1.3-.7.7-1 .9-.5.2-3.2.9-6 .9-4.7 0-8.1-2.3-9.4-3.9C1.5 20.8 0 18.4 0 14.7c0-3.8 2.2-6.8 3.6-7.9 2.8-2.3 5.9-3 8.9-3 1.2-.1 2.7.1 4 .4zM34.7 4.3c.2.1.4.6.4.6.1.6.3 2.5.3 2.7 0 .6 0 .9-.2.9-.3 0-.7-.2-.8-.7-.4-1.2-1.3-2.2-1.6-2.4-.6-.5-1.4-.8-2.3-.8-2.2 0-3.8 1.7-3.8 3.9 0 2.3 1.7 3.4 4.6 5.3 2.5 1.7 4.6 3.4 4.6 6.4 0 1.7-.9 3.5-2.7 4.7-1.1.7-3 1.2-4.5 1.2-1.1 0-3.3-.4-4.3-.9-.3-.2-.8-.9-.8-1.1-.3-1.1-.6-2.5-.6-3 0-.1.3-.6.5-.6.3 0 .8.9 1.2 1.9.9 1.8 3 2.6 4.3 2.6 2.3 0 4-1.6 4-4 0-1.4-.7-2.9-4.1-5.1C26 14.1 24 12.1 24 9.3c0-1.6.7-3 1.8-4 1-.9 2.6-1.6 4.9-1.6 1.7 0 3.4.5 4 .6zM41.7 7.5c-.1-1.5-.1-2-1.9-2.3-.7-.1-.9-.4-.9-.6 0-.3.4-.4.8-.4.9 0 2.5.1 3.6.1 1.6 0 2.4-.1 3.5-.1.5 0 .8.1.8.4 0 .3-.3.5-.9.6-1.9.4-1.9 1.2-2 2.1-.2 1.1-.2 3.2-.2 9.7 0 1.8 0 3.9.1 4.9.1 1.8.3 2.4 2.4 2.8.6.1.9.3.9.6s-.5.4-.9.4c-1.7 0-4-.2-4.9-.2-1 0-1.3.1-2.5.1-.6 0-.9-.2-.9-.5 0-.2.3-.4 1-.6 1.7-.4 1.8-.9 1.9-2.4.1-1.2.2-4.6.2-7.4 0-2 0-6.1-.1-7.2zM62.1 4.3c.2.1.4.6.4.6.1.6.3 2.5.3 2.7 0 .6 0 .9-.2.9-.3 0-.7-.2-.8-.7-.4-1.2-1.3-2.2-1.6-2.4-.6-.5-1.4-.8-2.3-.8-2.2 0-3.8 1.7-3.8 3.9 0 2.3 1.7 3.4 4.6 5.3 2.5 1.7 4.6 3.4 4.6 6.4 0 1.7-.9 3.5-2.7 4.7-1.1.7-3 1.2-4.5 1.2-1.1 0-3.3-.4-4.3-.9-.3-.2-.8-.9-.8-1.1-.2-1.1-.5-2.6-.5-3.1 0-.1.3-.6.5-.6.3 0 .8.9 1.2 1.9.9 1.8 3 2.6 4.3 2.6 2.3 0 4-1.6 4-4 0-1.4-.7-2.9-4.1-5.1-2.8-1.8-4.8-3.7-4.8-6.5 0-1.6.7-3 1.8-4 1-.9 2.6-1.6 4.9-1.6 1.5 0 3.2.5 3.8.6zM75.2 29.5V.5c0-.3.2-.5.5-.5s.5.2.5.5v29c0 .3-.2.5-.5.5s-.5-.2-.5-.5z"/><g><path class="st0" d="M91.2 12.9c-1.6 0-2.9-.9-2.9-3.4 0-2.1 1.3-3.3 2.9-3.3h1.9c.1 0 .1 0 .1.1l-.1.7c0 .1-.1.1-.2.1-.6-.2-.8-.3-1.8-.3s-1.5 1-1.5 2.8c0 2.2.9 2.8 1.9 2.8.5 0 1-.3 1.4-.7h.1l.3.3v.1c-.5.5-1.3.8-2.1.8zM99.2 12.8H95c-.1 0-.1 0-.1-.1V6.3c0-.1 0-.1.1-.1h4c.1 0 .2 0 .2.1v.5c0 .1-.1.1-.2.1 0 0-1.2-.2-1.7-.2h-.9c-.1 0-.3.1-.3.3v2s0 .1.1.1l2-.1c.1 0 .1 0 .1.1v.5c0 .1-.1.1-.1.1l-2-.1s-.1 0-.1.1V12c0 .1.1.3.3.3h.9c.6 0 1.9-.2 1.9-.2.1 0 .2 0 .2.1v.6h-.2zM106.1 11v1.8c0 .2-.6.2-.6.1L102 8.1c-.1-.1-.1 0-.1 0l.1 4.5c0 .1 0 .2-.1.2h-.9c-.1 0-.1-.1-.1-.2L101 8V6.4c0-.1 0-.1.1-.1h.6c.1 0 .2 0 .2.1l3.1 4.3c.1.1.2.1.2 0l-.1-4.1c0-.1 0-.2.1-.2h.7c.1 0 .1.1.1.2l.1 4.4zM112.9 6.8c0 .1-.1.1-.1.1s-1.1-.1-1.7-.1c-.1 0-.2.1-.2.2V12.8c0 .1 0 .1-.1.1h-1c-.1 0-.1 0-.1-.1V7c0-.1-.1-.2-.2-.2-.6 0-1.7.1-1.7.1-.1 0-.1 0-.1-.1v-.5c0-.1.1-.1.2-.1h4.9c.1 0 .2 0 .2.1l-.1.5zM118.7 12.8h-4.1c-.1 0-.1 0-.1-.1V6.3c0-.1 0-.1.1-.1h4c.1 0 .2 0 .2.1v.5c0 .1-.1.1-.2.1 0 0-1.2-.2-1.7-.2h-.9c-.1 0-.3.1-.3.3v2s0 .1.1.1l2-.1c.1 0 .1 0 .1.1v.5c0 .1-.1.1-.1.1l-2-.1s-.1 0-.1.1V12c0 .1.1.3.3.3h.9c.6 0 1.9-.2 1.9-.2.1 0 .2 0 .2.1v.6h-.3zM125.7 12.8h-1.2c-.1 0-.1-.1-.2-.1l-1.4-2.5c-.2-.3-.4-.4-.6-.4h-.4c-.1 0-.2.1-.2.2v2.8c0 .1 0 .1-.1.1h-1c-.1 0-.1 0-.1-.1V6.4c0-.1 0-.1.1-.1h2.9c1 0 1.8.7 1.8 1.6 0 .9-.7 1.6-1.6 1.8-.1 0-.1.1 0 .1.1.1.2.2.4.5l1.5 2.1.3.4h-.2zm-3-6.2h-.7c-.1 0-.3.1-.3.3v2.2c0 .1.1.2.2.2h.4c1 0 1.6-.4 1.6-1.4 0-.8-.5-1.3-1.2-1.3zM134.6 6.9s-1.3-.2-1.7-.2h-.8c-.1 0-.3.1-.3.3v2s0 .1.1.1l1.9-.1c.1 0 .1 0 .1.1v.5c0 .1-.1.1-.1.1l-1.9-.1s-.1 0-.1.1v3c0 .1 0 .1-.1.1h-1c-.1 0-.1 0-.1-.1V6.3c0-.1 0-.1.1-.1h3.9c.1 0 .2 0 .2.1v.5c0 .1-.1.1-.2.1zM138.7 13c-2.2 0-2.9-1.7-2.9-3.5s.7-3.5 2.9-3.5 2.9 1.7 2.9 3.5c0 1.7-.7 3.5-2.9 3.5zm0-6.5c-1.3 0-1.5 1.6-1.5 2.9 0 1.2.1 3.2 1.6 3.2 1.3 0 1.5-1.6 1.5-2.9 0-1.3-.1-3.2-1.6-3.2zM148.7 12.8h-1.2c-.1 0-.1-.1-.2-.1l-1.4-2.5c-.2-.3-.4-.4-.6-.4h-.4c-.1 0-.2.1-.2.2v2.8c0 .1 0 .1-.1.1h-1c-.1 0-.1 0-.1-.1V6.4c0-.1 0-.1.1-.1h2.9c1 0 1.8.7 1.8 1.6 0 .9-.7 1.6-1.6 1.8-.1 0-.1.1 0 .1.1.1.2.2.4.5l1.5 2.1.3.4h-.2zm-3-6.2h-.7c-.1 0-.3.1-.3.3v2.2c0 .1.1.2.2.2h.4c1 0 1.6-.4 1.6-1.4 0-.8-.5-1.3-1.2-1.3zM155.7 12.9c-1 0-1.7-.2-2.3-.5-.1 0-.1-.1-.1-.2l.2-.7c0-.1.1-.1.2 0 .5.5 1.2.9 2 .9.6 0 1.3-.5 1.3-1.1 0-1.7-3.7-1-3.7-3.5 0-1.1.8-1.8 2-1.8 1 0 1.8.2 2.3.2.1 0 .1.1.1.1l-.2.7c0 .1-.1.1-.2.1-.5-.3-1-.6-2-.6-.5 0-1 .3-1 .9 0 1.8 3.7.9 3.7 3.7.1 1.3-.9 1.8-2.3 1.8zM164.5 6.8c0 .1-.1.1-.1.1s-1.1-.1-1.7-.1c-.1 0-.2.1-.2.2V12.8c0 .1 0 .1-.1.1h-1c-.1 0-.1 0-.1-.1V7c0-.1-.1-.2-.2-.2-.6 0-1.7.1-1.7.1-.1 0-.1 0-.1-.1v-.5c0-.1.1-.1.2-.1h4.9c.1 0 .2 0 .2.1l-.1.5zM171.3 12.8h-1.2c-.1 0-.1-.1-.2-.1l-1.4-2.5c-.2-.3-.4-.4-.6-.4h-.4c-.1 0-.2.1-.2.2v2.8c0 .1 0 .1-.1.1h-1c-.1 0-.1 0-.1-.1V6.4c0-.1 0-.1.1-.1h2.9c1 0 1.8.7 1.8 1.6 0 .9-.7 1.6-1.6 1.8-.1 0-.1.1 0 .1.1.1.2.2.4.5l1.5 2.1.3.4h-.2zm-2.9-6.2h-.7c-.1 0-.3.1-.3.3v2.2c0 .1.1.2.2.2h.4c1 0 1.6-.4 1.6-1.4-.1-.8-.6-1.3-1.2-1.3zM178.6 12.8h-1.2c-.1 0-.2 0-.2-.1 0 0-.2-.5-.3-.8l-.4-.9c0-.1-.1-.1-.1-.1h-2.1c-.1 0-.1 0-.1.1l-.5 1.7c0 .1-.1.1-.2.1h-.8c-.1 0-.1-.1-.1-.2l2.5-6.4c0-.1.8-.1.8 0l2.3 5.7c.1.3.4.7.4.7.1.2.1.2 0 .2zm-3.1-4.9c0-.1-.1-.1-.1 0l-.9 2.5c0 .1 0 .1.1.1h1.7c.1 0 .1-.1.1-.1l-.9-2.5zM184.2 6.8c0 .1-.1.1-.1.1s-1.1-.1-1.7-.1c-.1 0-.2.1-.2.2V12.8c0 .1 0 .1-.1.1h-1c-.1 0-.1 0-.1-.1V7c0-.1-.1-.2-.2-.2-.6 0-1.7.1-1.7.1-.1 0-.1 0-.1-.1v-.5c0-.1.1-.1.2-.1h4.9c.1 0 .2 0 .2.1l-.1.5zM190 12.8h-4.1c-.1 0-.1 0-.1-.1V6.3c0-.1 0-.1.1-.1h4c.1 0 .2 0 .2.1v.5c0 .1-.1.1-.2.1 0 0-1.2-.2-1.7-.2h-.9c-.1 0-.3.1-.3.3v2s0 .1.1.1l2-.1c.1 0 .1 0 .1.1v.5c0 .1-.1.1-.1.1l-2-.1s-.1 0-.1.1V12c0 .1.1.3.3.3h.9c.6 0 1.9-.2 1.9-.2.1 0 .2 0 .2.1v.6h-.3zM196.6 12.8c-.1 0-.4-.3-.4-.3h-.2c-.4.2-1 .4-1.7.4-1.6 0-2.9-.9-2.9-3.4 0-2.1 1.3-3.3 2.9-3.3h1.9c.1 0 .1 0 .1.1l-.1.7c0 .1-.1.1-.2.1-.6-.2-.8-.3-1.8-.3s-1.5 1-1.5 2.8c0 2.2.9 2.9 1.9 2.9.4 0 1-.3 1-.7 0-.1-.1-1.8-.1-1.8v-.3c0-.1.1-.2.1-.2h1s.1 0 .1.1v3.2h-.1zM199.8 12.8h-1c-.1 0-.1 0-.1-.1V6.3c0-.1 0-.1.1-.1h1c.1 0 .1 0 .1.1v6.4c0 .1 0 .1-.1.1zM204.7 12.9c-1.6 0-2.9-.9-2.9-3.4 0-2.1 1.3-3.3 2.9-3.3h1.9c.1 0 .1 0 .1.1l-.1.7c0 .1-.1.1-.2.1-.6-.2-.8-.3-1.8-.3s-1.5 1-1.5 2.8c0 2.2.9 2.8 1.9 2.8.5 0 1-.3 1.4-.7h.1l.3.3v.1c-.5.5-1.3.8-2.1.8zM215.5 10.2h-.8v2.5c0 .1-.1.1-.1.1H212c-1.2 0-1.8-.8-1.8-1.5s.5-1.3 1.3-1.5c-.5-.2-.8-.7-.8-1.2 0-.9.7-1.4 1.7-1.4h1c.1 0 .2 0 .2.1v.4c0 .1-.1.1-.1.1s-.4-.2-.6-.2c-.5 0-.9.3-.9 1 0 .6.4 1.1 1 1.1h.8V9c0-.1.1-.1.1-.1l.8.1c.1 0 .1 0 .1.1v.6h.8c.1 0 .1 0 .1.1v.3c-.2 0-.2.1-.2.1zm-1.9-.1h-1c-.7 0-1 .5-1 1.1 0 .6.4 1.2.9 1.2s.8 0 1.1-.1v-2.2zM89.6 25.7h-1c-.1 0-.1 0-.1-.1v-6.4c0-.1 0-.1.1-.1h1c.1 0 .1 0 .1.1v6.4c0 .1 0 .1-.1.1zM96.9 23.9v1.8c0 .2-.6.2-.6.1L92.8 21c-.1-.1-.1 0-.1 0l.1 4.5c0 .1 0 .2-.1.2h-.8c-.1 0-.1-.1-.1-.2l.1-4.7v-1.6c0-.1 0-.1.1-.1h.6c.1 0 .2 0 .2.1l3.1 4.3c.1.1.2.1.2 0l-.1-4.1c0-.1 0-.2.1-.2h.7c.1 0 .1.1.1.2v4.5zM103.8 19.7c0 .1-.1.1-.1.1s-1.1-.1-1.7-.1c-.1 0-.2.1-.2.2V25.7c0 .1 0 .1-.1.1h-1c-.1 0-.1 0-.1-.1V19.9c0-.1-.1-.2-.2-.2-.6 0-1.7.1-1.7.1-.1 0-.1 0-.1-.1v-.5c0-.1.1-.1.2-.1h4.9c.1 0 .2 0 .2.1l-.1.5zM109.6 25.7h-4.1c-.1 0-.1 0-.1-.1v-6.4c0-.1 0-.1.1-.1h4c.1 0 .2 0 .2.1v.5c0 .1-.1.1-.2.1 0 0-1.2-.2-1.7-.2h-.9c-.1 0-.3.1-.3.3v2s0 .1.1.1l2-.1c.1 0 .1 0 .1.1v.5c0 .1-.1.1-.1.1l-2-.1s-.1 0-.1.1v2.3c0 .1.1.3.3.3h.9c.6 0 1.9-.2 1.9-.2.1 0 .2 0 .2.1v.6h-.3zM116.6 25.7h-1.2c-.1 0-.1-.1-.2-.1l-1.4-2.5c-.2-.3-.4-.4-.6-.4h-.4c-.1 0-.2.1-.2.2v2.8c0 .1 0 .1-.1.1h-1c-.1 0-.1 0-.1-.1v-6.4c0-.1 0-.1.1-.1h2.9c1 0 1.8.7 1.8 1.6 0 .9-.7 1.6-1.6 1.8-.1 0-.1.1 0 .1.1.1.2.2.4.5l1.5 2.1.3.4c-.1-.1-.1 0-.2 0zm-3-6.2h-.7c-.1 0-.3.1-.3.3V22c0 .1.1.2.2.2h.4c1 0 1.6-.4 1.6-1.4 0-.8-.5-1.3-1.2-1.3zM123.4 23.9v1.8c0 .2-.6.2-.6.1l-3.5-4.8c-.1-.1-.1 0-.1 0l.1 4.5c0 .1 0 .2-.1.2h-.8c-.1 0-.1-.1-.1-.2l.1-4.7v-1.6c0-.1 0-.1.1-.1h.6c.1 0 .2 0 .2.1l3.1 4.3c.1.1.2.1.2 0l-.1-4.1c0-.1 0-.2.1-.2h.7c.1 0 .1.1.1.2v4.5zM130.9 25.7h-1.2c-.1 0-.2 0-.2-.1 0 0-.2-.5-.3-.8l-.4-.9c0-.1-.1-.1-.1-.1h-2.1c-.1 0-.1 0-.1.1l-.5 1.7c0 .1-.1.1-.2.1h-.8c-.1 0-.1-.1-.1-.2l2.5-6.4c0-.1.8-.1.8 0l2.3 5.7c.1.3.4.7.4.7.1.2.1.2 0 .2zm-3.2-4.9c0-.1-.1-.1-.1 0l-.9 2.5c0 .1 0 .1.1.1h1.7c.1 0 .1-.1.1-.1l-.9-2.5zM136.4 19.7c0 .1-.1.1-.1.1s-1.1-.1-1.7-.1c-.1 0-.2.1-.2.2V25.7c0 .1 0 .1-.1.1h-1c-.1 0-.1 0-.1-.1V19.9c0-.1-.1-.2-.2-.2-.6 0-1.7.1-1.7.1-.1 0-.1 0-.1-.1v-.5c0-.1.1-.1.2-.1h4.9c.1 0 .2 0 .2.1l-.1.5zM139.1 25.7h-1c-.1 0-.1 0-.1-.1v-6.4c0-.1 0-.1.1-.1h1c.1 0 .1 0 .1.1v6.4c0 .1 0 .1-.1.1zM143.9 25.9c-2.2 0-2.9-1.7-2.9-3.5s.7-3.5 2.9-3.5 2.9 1.7 2.9 3.5c.1 1.7-.6 3.5-2.9 3.5zm0-6.5c-1.3 0-1.5 1.6-1.5 2.9 0 1.2.1 3.2 1.6 3.2 1.3 0 1.5-1.6 1.5-2.9 0-1.3-.1-3.2-1.6-3.2zM153.8 23.9v1.8c0 .2-.6.2-.6.1l-3.5-4.8c-.1-.1-.1 0-.1 0l.1 4.5c0 .1 0 .2-.1.2h-.8c-.1 0-.1-.1-.1-.2l.1-4.7v-1.6c0-.1 0-.1.1-.1h.6c.1 0 .2 0 .2.1l3.1 4.3c.1.1.2.1.2 0l-.1-4.1c0-.1 0-.2.1-.2h.7c.1 0 .1.1.1.2v4.5zM161.3 25.7h-1.2c-.1 0-.2 0-.2-.1 0 0-.2-.5-.3-.8l-.4-.9c0-.1-.1-.1-.1-.1H157c-.1 0-.1 0-.1.1l-.5 1.7c0 .1-.1.1-.2.1h-.8c-.1 0-.1-.1-.1-.2l2.5-6.4c0-.1.8-.1.8 0l2.3 5.7c.1.3.4.7.4.7.1.2.1.2 0 .2zm-3.2-4.9c0-.1-.1-.1-.1 0l-.9 2.5c0 .1 0 .1.1.1h1.7c.1 0 .1-.1.1-.1l-.9-2.5zM166.9 25.7H163c-.1 0-.1 0-.1-.1v-6.4c0-.1 0-.1.1-.1h1c.1 0 .1 0 .1.1v5.7c0 .1.1.3.3.3h.8c.6 0 1.7-.2 1.7-.2.1 0 .2 0 .2.1v.6h-.2zM173.9 25.8c-1 0-1.7-.2-2.3-.5-.1 0-.1-.1-.1-.2l.2-.7c0-.1.1-.1.2 0 .5.5 1.2.9 2 .9.6 0 1.3-.5 1.3-1.1 0-1.7-3.7-1-3.7-3.5 0-1.1.8-1.8 2-1.8 1 0 1.8.2 2.3.2.1 0 .1.1.1.1l-.2.7c0 .1-.1.1-.2.1-.5-.3-1-.6-2-.6-.5 0-1 .3-1 .9 0 1.8 3.7.9 3.7 3.7.1 1.3-.9 1.8-2.3 1.8zM182.8 19.7c0 .1-.1.1-.1.1s-1.1-.1-1.7-.1c-.1 0-.2.1-.2.2V25.7c0 .1 0 .1-.1.1h-1c-.1 0-.1 0-.1-.1V19.9c0-.1-.1-.2-.2-.2-.6 0-1.7.1-1.7.1-.1 0-.1 0-.1-.1v-.5c0-.1.1-.1.2-.1h4.9c.1 0 .2 0 .2.1l-.1.5zM189.4 20l-.1 3.7c0 1.4-.8 2.2-2.3 2.2-1.7 0-2.6-.7-2.6-2.2v-4.5c0-.1 0-.1.1-.1h1c.1 0 .1 0 .1.1v4.4c0 1 .7 1.6 1.4 1.6s1.4-.4 1.4-1.5V20v-.8c0-.1 0-.2.1-.2h.9c.1 0 .1.1.1.2-.1 0-.1.5-.1.8zM193.6 25.7c-1.2 0-1.3-.1-1.6-.1-.3 0-.3.1-.5.1-.1 0-.1 0-.1-.1v-6.4c0-.1 0-.1.1-.1h2.4c1.4 0 2.7 1.1 2.7 3.2 0 1.8-1 3.4-3 3.4zm0-6.2h-.7c-.1 0-.2.1-.2.2v4.9c0 .4.3.6.8.6 1.6 0 1.8-1.9 1.8-3.1 0-1.9-.9-2.6-1.7-2.6zM199.5 25.7h-1c-.1 0-.1 0-.1-.1v-6.4c0-.1 0-.1.1-.1h1c.1 0 .1 0 .1.1v6.4c.1.1 0 .1-.1.1zM206 25.7h-4.1c-.1 0-.1 0-.1-.1v-6.4c0-.1 0-.1.1-.1h4c.1 0 .2 0 .2.1v.5c0 .1-.1.1-.2.1 0 0-1.2-.2-1.7-.2h-.9c-.1 0-.3.1-.3.3v2s0 .1.1.1l2-.1c.1 0 .1 0 .1.1v.5c0 .1-.1.1-.1.1l-2-.1s-.1 0-.1.1v2.3c0 .1.1.3.3.3h.9c.6 0 1.9-.2 1.9-.2.1 0 .2 0 .2.1v.6h-.3zM210 25.8c-1 0-1.7-.2-2.3-.5-.1 0-.1-.1-.1-.2l.2-.7c0-.1.1-.1.2 0 .5.5 1.2.9 2 .9.6 0 1.3-.5 1.3-1.1 0-1.7-3.7-1-3.7-3.5 0-1.1.8-1.8 2-1.8 1 0 1.8.2 2.3.2.1 0 .1.1.1.1l-.2.7c0 .1-.1.1-.2.1-.5-.3-1-.6-2-.6-.5 0-1 .3-1 .9 0 1.8 3.7.9 3.7 3.7.1 1.3-.9 1.8-2.3 1.8z"/></g></svg>