<svg height="15" viewBox="0 0 15 15" width="15" xmlns="http://www.w3.org/2000/svg"><path d="m7.5 0c1.03516143 0 2.0068314.19531055 2.9150391.5859375.9082076.39062695 1.7040981.92773096 2.3876953 1.61132812.6835971.68359717 1.2207011 1.47948765 1.6113281 2.38769532.390627.90820766.5859375 1.87987763.5859375 2.91503906s-.1953105 2.0068314-.5859375 2.9150391c-.390627.9082076-.927731 1.7040981-1.6113281 2.3876953-.6835972.6835971-1.4794877 1.2207011-2.3876953 1.6113281-.9082077.390627-1.87987767.5859375-2.9150391.5859375s-2.0068314-.1953105-2.91503906-.5859375c-.90820767-.390627-1.70409815-.927731-2.38769532-1.6113281-.68359716-.6835972-1.22070117-1.4794877-1.61132812-2.3876953-.39062695-.9082077-.5859375-1.87987767-.5859375-2.9150391s.19531055-2.0068314.5859375-2.91503906c.39062695-.90820767.92773096-1.70409815 1.61132812-2.38769532.68359717-.68359716 1.47948765-1.22070117 2.38769532-1.61132812.90820766-.39062695 1.87987763-.5859375 2.91503906-.5859375zm1.02539062 10.78125c0 .1171881-.02441381.2343744-.07324218.3515625s-.1123043.2148434-.19042969.2929687c-.07812539.0781254-.17578066.1416014-.29296875.1904297-.11718809.0488284-.23437441.0732422-.3515625.0732422-.13671943 0-.25878853-.0244138-.36621094-.0732422-.10742241-.0488283-.20019492-.1123043-.27832031-.1904297-.07812539-.0781253-.14160132-.1757806-.19042969-.2929687s-.07324218-.2343744-.07324218-.3515625.02441381-.2343744.07324218-.3515625.1123043-.2148434.19042969-.2929687c.07812539-.0781254.1708979-.14160137.27832031-.19042974s.22949151-.07324218.36621094-.07324218c.11718809 0 .23437441.02441381.3515625.07324218s.21484336.11230434.29296875.19042974c.07812539.0781253.14160132.1757806.19042969.2929687s.07324218.2343744.07324218.3515625zm.87890626-7.06054688c.09765673.11718809.18554648.24902271.26367187.39550782.07812539.1464851.13671855.29296802.17578125.43945312.0390627.14648511.06347651.28808526.07324219.42480469.00976567.13671943.00488291.26367129-.01464844.38085937-.05859404.21484483-.1318355.41503814-.21972656.60058594-.08789107.18554781-.18554634.34667901-.29296875.48339844s-.22460874.26367129-.3515625.38085938c-.12695376.11718808-.24902285.22460888-.36621094.32226562-.11718809.11718809-.22460889.22460889-.32226562.32226562-.09765674.09765674-.18554649.20019478-.26367188.30761719s-.13671855.22949151-.17578125.36621094-.05859375.29296787-.05859375.46875h-.87890625c0-.27343887.03417935-.51757705.10253906-.73242187.06835972-.21484483.15624947-.40527261.26367188-.57128907.10742241-.16601645.2294915-.31249936.36621093-.43945312.13671944-.12695376.26367129-.24902285.38085938-.36621094.09765674-.09765674.19531201-.19042925.29296875-.27832031.09765674-.08789107.19042925-.18554634.27832031-.29296875.08789107-.10742241.16113252-.22460874.21972656-.3515625.05859405-.12695376.10742168-.26855391.14648438-.42480469.01953135-.0390627.02441411-.08789033.01464844-.14648438-.00976568-.05859404-.02441397-.12695273-.04394532-.20507812-.01953134-.07812539-.05371069-.16601514-.10253906-.26367188-.04882837-.09765673-.11230429-.18554648-.19042968-.26367187-.05859405-.09765674-.12695274-.17578096-.20507813-.234375s-.16601514-.11230444-.26367187-.16113281c-.09765674-.04882837-.19531202-.08300772-.29296876-.10253906-.09765673-.01953135-.20507753-.02929688-.32226562-.02929688-.39062695 0-.69824106.06835869-.92285156.20507812-.2246105.13671944-.39062447.28808511-.49804688.45410157-.10742241.16601645-.17089834.32714765-.19042968.48339843-.01953135.15625079-.03906241.24414053-.05859376.26367188h-.87890624c.01953134-.19531348.06835898-.42480337.14648437-.68847656.07812539-.2636732.21484277-.51269414.41015625-.74707032.19531348-.23437617.45409995-.43456948.77636719-.60058593.32226723-.16601646.72753662-.24902344 1.21582031-.24902344.17578213 0 .34667886.01953105.51269531.05859375.16601646.0390627.32714766.0927731.48339844.16113281.15625078.06835972.30273369.15624947.43945313.26367188.13671943.10742241.25390576.2294915.3515625.36621093z" fill-rule="evenodd"/></svg>