<svg height="16" viewBox="0 0 16 16" width="16" xmlns="http://www.w3.org/2000/svg"><path d="m8 0c1.10417219 0 2.1406202.20833125 3.109375.625s1.8177047.98957969 2.546875 1.71875 1.3020812 1.57812016 1.71875 2.546875.625 2.00520281.625 3.109375-.2083312 2.1406202-.625 3.109375-.9895797 1.8177047-1.71875 2.546875-1.5781202 1.3020812-2.546875 1.71875-2.00520281.625-3.109375.625-2.14062016-.2083312-3.109375-.625-1.81770469-.9895797-2.546875-1.71875-1.30208125-1.5781202-1.71875-2.546875-.625-2.00520281-.625-3.109375.20833125-2.14062016.625-3.109375.98957969-1.81770469 1.71875-2.546875 1.57812016-1.30208125 2.546875-1.71875 2.00520281-.625 3.109375-.625zm0 15.0625c.97917156 0 1.89582906-.1874981 2.75-.5625.8541709-.3750019 1.5989552-.8802052 2.234375-1.515625s1.1406231-1.3802041 1.515625-2.234375c.3750019-.85417094.5625-1.77082844.5625-2.75s-.1874981-1.89582906-.5625-2.75-.8802052-1.59895516-1.515625-2.234375-1.3802041-1.14062313-2.234375-1.515625c-.85417094-.37500187-1.77082844-.5625-2.75-.5625s-1.89582906.18749813-2.75.5625-1.59895516.88020516-2.234375 1.515625-1.14062313 1.38020406-1.515625 2.234375-.5625 1.77082844-.5625 2.75.18749813 1.89582906.5625 2.75c.37500187.8541709.88020516 1.5989552 1.515625 2.234375s1.38020406 1.1406231 2.234375 1.515625 1.77082844.5625 2.75.5625zm1.09375-3.5625c0 .1250006-.02604141.2499994-.078125.375s-.11979125.2291662-.203125.3125-.18749937.1510414-.3125.203125-.24999937.078125-.375.078125c-.14583406 0-.27604109-.0260414-.390625-.078125s-.21354125-.1197912-.296875-.203125-.15104141-.1874994-.203125-.3125-.078125-.2499994-.078125-.375.02604141-.2499994.078125-.375.11979125-.2291662.203125-.3125.18229109-.1510414.296875-.203125.24479094-.078125.390625-.078125c.12500063 0 .24999937.0260414.375.078125s.22916625.1197912.3125.203125.15104141.1874994.203125.3125.078125.2499994.078125.375zm.9375-7.53125c.1041672.12500062.1979163.26562422.28125.421875s.1458331.31249922.1875.46875.0677083.30729094.078125.453125.0052084.28124938-.015625.40625c-.0625003.22916781-.1406245.44270734-.234375.640625s-.1979161.36979094-.3125.515625c-.11458391.14583406-.23958266.28124938-.375.40625s-.26562437.23958281-.390625.34375c-.12500063.12500062-.23958281.23958281-.34375.34375s-.19791625.21354109-.28125.328125-.14583312.24479094-.1875.390625-.0625.31249906-.0625.5h-.9375c0-.29166812.03645797-.55208219.109375-.78125s.16666609-.43229078.28125-.609375.24479094-.33333266.390625-.46875.28124937-.26562438.40625-.390625c.10416719-.10416719.20833281-.20312453.3125-.296875s.20312453-.19791609.296875-.3125.17187469-.23958266.234375-.375.11458312-.2864575.15625-.453125c.02083344-.04166687.02604172-.09374969.015625-.15625s-.02604156-.13541625-.046875-.21875-.05729141-.17708281-.109375-.28125-.11979125-.19791625-.203125-.28125c-.06250031-.10416719-.13541625-.18749969-.21875-.25s-.17708281-.11979141-.28125-.171875-.20833281-.08854156-.3125-.109375-.21874937-.03125-.34375-.03125c-.41666875 0-.74479047.07291594-.984375.21875s-.41666609.30729078-.53125.484375-.18229156.3489575-.203125.515625-.04166656.26041656-.0625.28125h-.9375c.02083344-.20833438.07291625-.45312359.15625-.734375s.22916562-.54687375.4375-.796875.48437328-.46354078.828125-.640625.77603906-.265625 1.296875-.265625c.18750094 0 .36979078.02083313.546875.0625s.3489575.09895797.515625.171875.32291594.16666609.46875.28125.27083281.24479094.375.390625z" fill-rule="evenodd" fill="#323c49"/></svg>