<svg id="Layer_1" xmlns="http://www.w3.org/2000/svg" viewBox="0 0 210 210"><style>.st0{fill:#fff}.st1{fill:#65bc46}</style><g id="XMLID_279_"><circle id="XMLID_278_" class="st0" cx="105" cy="105" r="105"/><g id="XMLID_31_"><path id="XMLID_195_" class="st1" d="M156.7 65.1H56.5c-2.2 0-4 1.8-4 4V129c0 2.2 1.8 4 4 4h100.1c2.2 0 4-1.8 4-4V69.1c.1-2.2-1.7-4-3.9-4zm-42.9 56.2c-2.7 2.7-7.2 2.7-9.9 0s-2.7-7.2 0-9.9 7.2-2.7 9.9 0c2.7 2.8 2.7 7.2 0 9.9zm12.4-16.3c-1.7 1.7-4.3 1.7-6 0-3.2-3.2-7.3-4.7-11.4-4.7-4.1 0-8.2 1.6-11.4 4.7-1.7 1.7-4.4 1.7-6 0-1.7-1.7-1.7-4.3 0-6 4.8-4.8 11.1-7.2 17.4-7.2 6.3 0 12.6 2.4 17.4 7.2 1.7 1.7 1.7 4.3 0 6zm12.2-12.2c-1.7 1.7-4.4 1.7-6 0-6.5-6.5-15-9.8-23.5-9.8s-17 3.2-23.6 9.8c-1.7 1.7-4.3 1.7-6 0-1.7-1.7-1.7-4.3 0-6 8.2-8.2 18.9-12.3 29.6-12.3 10.7 0 21.4 4.1 29.6 12.3 1.6 1.7 1.6 4.4-.1 6z"/><path id="XMLID_214_" class="st1" d="M114.2 140.9H97.9c-1.4 0-2.6 1.2-2.6 2.6 0 1.4 1.2 2.6 2.6 2.6h16.3c1.4 0 2.6-1.2 2.6-2.6 0-1.4-1.2-2.6-2.6-2.6z"/><path id="XMLID_218_" class="st1" d="M105 12.8c-50.9 0-92.2 41.3-92.2 92.2 0 50.9 41.3 92.2 92.2 92.2s92.2-41.3 92.2-92.2c0-50.9-41.3-92.2-92.2-92.2zm60.5 138.4H48.9c-5.3 0-9.6-4.4-9.6-9.8v-3.3h7.3V67.7c0-4.9 4-8.9 8.9-8.9h102.8c4.9 0 8.9 4 8.9 8.9v70.4h7.8v3.3c.1 5.4-4.2 9.8-9.5 9.8z"/></g></g></svg>