<svg xmlns="http://www.w3.org/2000/svg" viewBox="-134 376.1 50 50"><circle fill="#FFF" cx="-109" cy="401.1" r="25"/><g fill="#788CA8"><path d="M-109 379.171c-12.119 0-21.952 9.833-21.952 21.952s9.833 21.952 21.952 21.952 21.952-9.833 21.952-21.952c0-12.142-9.833-21.952-21.952-21.952zm4.833 10.667l1.881-3.262c.262-.476.786-.69 1.143-.476.357.214.429.762.143 1.214l-1.881 3.262c-.262.476-.786.69-1.143.476-.357-.19-.428-.738-.143-1.214zm-5.762-4.952c0-.548.333-.976.738-.976s.738.452.738.976v3.762c0 .548-.333.976-.738.976s-.738-.452-.738-.976v-3.762zm-7.095 1.143c.357-.214.857.024 1.143.476l1.881 3.262c.262.476.214 1.024-.143 1.214-.357.214-.857-.024-1.143-.476l-1.881-3.262c-.285-.453-.214-1 .143-1.214zm-3.047 14.333l-3.762.024c-.548 0-.976-.333-.976-.738 0-.405.429-.738.976-.738l3.762-.024c.548 0 .976.333.976.738.024.405-.429.738-.976.738zm1.071-5.572l-3.262-1.881c-.476-.262-.69-.786-.476-1.119.214-.333.762-.429 1.214-.143l3.262 1.881c.476.262.69.786.476 1.119-.19.358-.738.429-1.214.143zm13.952 21.31a.98.98 0 0 1-.976.976h-.405v.714c0 .262-.214.5-.5.5h-4.524a.503.503 0 0 1-.5-.5v-.714h-.405a.98.98 0 0 1-.976-.976v-.619a.98.98 0 0 1 .976-.976h6.333a.98.98 0 0 1 .976.976v.619zm4.262-11.548l-.071.071c-.238.286-1.071 1.405-1.952 2.833-1 1.643-2.048 3.69-2.214 5.405h-8.31c-.167-1.69-1.19-3.714-2.167-5.357-1.024-1.667-2.024-2.905-2.048-2.952a8.961 8.961 0 0 1-.738-3.571c0-5.024 4.071-9.095 9.095-9.095s9.095 4.071 9.095 9.095a8.957 8.957 0 0 1-.738 3.571h.048zm.524-9.666c-.214-.357.024-.857.476-1.119l3.262-1.881c.476-.262 1.024-.214 1.214.143.214.357-.024.857-.476 1.119l-3.262 1.881c-.476.261-1.023.19-1.214-.143zm6.095 5.928h-3.762c-.548 0-.976-.333-.976-.738s.452-.738.976-.738h3.762c.548 0 .976.333.976.738.024.405-.428.738-.976.738z"/><path d="M-116.31 400.957c0 .881.167 1.762.476 2.595.214.286.595.786 1.048 1.452-.071-1.143-.048-2.476.262-3.857.595-2.762 2.262-5.643 6.238-7.238a5.531 5.531 0 0 0-.905-.071 7.124 7.124 0 0 0-7.119 7.119z"/></g></svg>