<svg height="14" viewBox="0 0 10 14" width="10" xmlns="http://www.w3.org/2000/svg"><path d="m4.9 7.182c-.41066872 0-.78866494-.10266564-1.134-.308s-.62066564-.48299825-.826-.833-.308-.73033128-.308-1.141.10033233-.79099825.301-1.141.47599825-.62766564.826-.833.73033128-.308 1.141-.308.79099825.10266564 1.141.308.62766564.48299825.833.833.308.73033128.308 1.141-.10266564.79099825-.308 1.141-.48299825.62766564-.833.833-.73033128.308-1.141.308zm-.308 6.58-.434-.49c-.35466844-.4200021-.70466494-.8539978-1.05-1.302-.47600238-.6440032-.90533142-1.2739969-1.288-1.89-.466669-.78400392-.84933184-1.53066312-1.148-2.24-.34533506-.83067082-.55533296-1.60532974-.63-2.324-.02800014-.19600098-.042-.40133226-.042-.616 0-.8866711.22399776-1.71266284.672-2.478.42933548-.73733702 1.01266298-1.32066452 1.75-1.75.76533716-.44800224 1.5913289-.672 2.478-.672s1.71266284.22399776 2.478.672c.7466704.42933548 1.33466452 1.01266298 1.764 1.75.44800224.76533716.672 1.5913289.672 2.478 0 .20533436-.01399986.40599902-.042.602-.07466704.71867026-.27999832 1.4979958-.616 2.338-.28933478.70933688-.667331 1.45132946-1.134 2.226-.3733352.6253365-.79799762 1.2553302-1.274 1.89-.33600168.4573356-.68133156.8959979-1.036 1.316l-.42.49c-.06533366.0840004-.13533296.1399999-.21.168-.05600028.0280001-.10499979.042-.147.042s-.0863331-.0139999-.133-.042c-.06533366-.0280001-.13533296-.0839996-.21-.168z" fill="#3C8183" fill-rule="evenodd"/></svg>