<svg id="レイヤー_1" data-name="レイヤー 1" xmlns="http://www.w3.org/2000/svg" viewBox="0 0 486.76 87.05"><defs><style>.cls-1{fill:#1b4472}.cls-2{fill:#3b3b3c}</style></defs><path class="cls-1" d="M104 36.84v3.33c-.47-.73-1-1.48-1.51-2.25L94.83 26.8h-5.24v23.49H95V40.06v-3.63c.54.84 1.14 1.74 1.8 2.7l7.69 11.16h5V26.8H104z" transform="translate(-29.44 -26.8)"/><path class="cls-1" d="M85.38 0h5.59v23.49h-5.59zM116.17 0h-7.28l-7.04 7.86V0h-5.57v23.49h5.57v-8.74l.75-.79 7.03 9.53h6.77l-9.85-13.23L116.17 0zM138.65 0h-7.28l-7.03 7.85V0h-5.59v23.49h5.59v-8.74l.74-.79 7.03 9.53h6.78l-9.86-13.23L138.65 0zM146.81 13.7h8.93V8.86h-8.93V4.87h9.45V0h-15.03v23.49h15.54v-4.87h-9.96V13.7zM160.51 0h5.58v23.49h-5.58z"/><path class="cls-2" d="M68.82 95L75 113h10.9l-5-12L61 46.15l-6.67 1.3L29.44 113h9.28l6.34-18zM56.51 64.57l.86-2.9.91 3.53 8 22.2H47.79z" transform="translate(-29.44 -26.8)"/><path class="cls-2" d="M97.63 86.16h9.01l-.94-6.27-.01-46.58h-9.27l1.2 7.5.01 45.35z"/><path class="cls-2" d="M172.65 98.64l5.27 14.36h9.52l-4.56-10.24L165.93 59l-4.84 1.08L139.54 113h7.61l5.46-14.33zm-10.48-23.36l.71-2 7.27 18.68h-14.94z" transform="translate(-29.44 -26.8)"/><path class="cls-2" d="M200.81 86.16h5.17l-.57-6.15v-46.7h-8.93l1.12 7.41v29.55l-3.05-4.24-28.42-32.72h-5.33l1.12 7.41.01 45.44h8.75l-.94-6.27-.01-30.01 2.48 3.09 28.6 33.19z"/><path class="cls-2" d="M280.82 87.75h.47l17.15 25.23h11.61L290 85.22l.86-.45C298 81 302.4 74.17 302.4 66.84c0-13.41-10.63-19.41-21.17-19.41H263l1.28 9v56.49h10l-1-8.54V87.81h.84c4.15 0 5.7 0 6.7-.06zm-7.57-32.89h6.22c6.69 0 13.45 3.7 13.45 12a13.85 13.85 0 0 1-13.45 13.54h-6.22z" transform="translate(-29.44 -26.8)"/><path class="cls-2" d="M354.25 33.3l-13.32 34.43-1.86 5.66-1.48-5.4-12.82-34.69h-11l5.15 9.14 16.26 43.63 6.21.98 21.23-53.75h-8.37zM367.71 86.17h9.31l-.96-6.27-.01-46.6h-9.6l1.25 7.5.01 45.37zM391.93 79.55V62.18h16.13l2.08-6.61h-18.21V39.91h19.51l-3.51-6.61h-25.6l1.25 7.5.01 45.37h28.01l2.07-6.62h-21.74zM293.03 79.55V62.18h16.13l2.08-6.61h-18.21V39.91h19.51l-3.51-6.61h-25.6l1.25 7.5.01 45.37h28.01l2.07-6.62h-21.74zM478.34 33.3l-12.93 34.41-1.56 5.58-1.71-5.23-12.22-34.76h-8.62l5.37 13.96-7.55 20.45-1.84 5.87-1.46-5.61-12.2-34.67H412.7l5 9.16 15.48 43.61 5.47.96 10.08-26.51 1.18-4.38 1.27 3.92 9.28 26.01 5.74.97 20.56-53.74h-8.42z"/><path class="cls-2" d="M88.89 109.91l.77-8.66.86.68a25.5 25.5 0 0 0 6.73 3.58 17 17 0 0 0 6.39 1 12.1 12.1 0 0 0 5.49-1.55 9.35 9.35 0 0 0 3.63-3.59 6.64 6.64 0 0 0-2.07-8.37 16.37 16.37 0 0 0-1.69-1.13q-.89-.53-2.27-1.18l-1.73-.84-4.14-1.73a51.38 51.38 0 0 1-4.69-2.18A23.15 23.15 0 0 1 93.2 84a12.5 12.5 0 0 1-3.42-4.15A12.1 12.1 0 0 1 88.51 75a12.33 12.33 0 0 1 1.84-7 15 15 0 0 1 6.16-5.52 21.41 21.41 0 0 1 8.89-2.42 30.83 30.83 0 0 1 10.23 1.41l2.09.7 2 .8-2.49 8.03-2.41-1.6a19.92 19.92 0 0 0-5-2.19 15.19 15.19 0 0 0-4.73-.55 10.15 10.15 0 0 0-5.79 2 5 5 0 0 0-2.3 4.06c-.47 4.64 3.91 6.72 5.91 7.63l1.15.52 5.28 2.13a49.9 49.9 0 0 1 4.54 2.18 21.52 21.52 0 0 1 3 2 12.65 12.65 0 0 1 3.43 4.44 14.18 14.18 0 0 1 1.29 5.35 14.6 14.6 0 0 1-1.91 7.87 14.89 14.89 0 0 1-6 5.91 22.26 22.26 0 0 1-9.58 2.46l-1.2.06a11.07 11.07 0 0 1-1.17 0h-.94a27.38 27.38 0 0 1-4.12-.58 37.11 37.11 0 0 1-4.91-1.48l-1.22-.44-.95-.5z" transform="translate(-29.44 -26.8)"/></svg>