<svg height="12" viewBox="0 0 12 12" width="12" xmlns="http://www.w3.org/2000/svg"><path d="m.62 6.24c-.1733342 0-.3199994-.0599994-.44-.18s-.18-.2666658-.18-.44.0599994-.3199994.18-.44.2666658-.18.44-.18h4.38v-4.38c0-.1733342.0599994-.3199994.18-.44s.2666658-.18.44-.18.3233327.0599994.45.18.19.2666658.19.44v4.38h4.36c.1733342 0 .3233327.0599994.45.18s.19.2666658.19.44-.0633327.3199994-.19.44-.2766658.18-.45.18h-4.36v4.38c0 .1733342-.0633327.3199994-.19.44s-.2766658.18-.45.18-.3199994-.0599994-.44-.18-.18-.2666658-.18-.44v-4.38z" fill-rule="evenodd" fill="#6ca4a5"/></svg>