<svg xmlns="http://www.w3.org/2000/svg" viewBox="0 0 25 25"><path fill="#353D4E" d="M0 0v25h25V0H0zm14.125 20.844c-.093.212-.22.397-.378.555-.16.16-.348.284-.563.374a1.803 1.803 0 0 1-.689.133c-.242 0-.473-.044-.688-.133a1.618 1.618 0 0 1-.555-.374 1.73 1.73 0 0 1-.366-.555 1.782 1.782 0 0 1-.133-.695 1.787 1.787 0 0 1 .499-1.251 1.733 1.733 0 0 1 1.243-.52c.244 0 .474.047.689.14.215.095.402.221.563.38.159.16.285.346.378.563.095.215.142.445.142.688 0 .253-.048.485-.142.695zm3.774-11.34a5.14 5.14 0 0 1-.801 1.356 6.272 6.272 0 0 1-1.055 1.011c-.378.287-.737.555-1.075.808a6.73 6.73 0 0 0-.863.759 1.466 1.466 0 0 0-.415.843l-.007 1.105a1.053 1.053 0 0 1-2.104.014l-.025-1.301c-.038-.421.043-.788.239-1.103a3.98 3.98 0 0 1 .772-.886c.319-.276.671-.548 1.055-.814a8.224 8.224 0 0 0 1.075-.894c.332-.328.612-.7.836-1.116.226-.418.337-.916.337-1.497 0-.403-.079-.769-.238-1.097a2.535 2.535 0 0 0-.647-.836 2.87 2.87 0 0 0-.963-.528 3.793 3.793 0 0 0-1.187-.182c-.572 0-1.061.07-1.468.211-.409.14-.753.294-1.034.464l-.564.341a.947.947 0 0 1-1.038-1.584c.515-.359 1.143-.765 1.399-.88a6.961 6.961 0 0 1 1.348-.442 7.176 7.176 0 0 1 1.568-.162c.74 0 1.426.108 2.059.323.633.215 1.179.52 1.638.914.459.393.819.871 1.081 1.433.262.563.393 1.194.393 1.897 0 .713-.105 1.327-.316 1.843z"/><path fill="#D7E0D5" d="M16.74 4.331a4.906 4.906 0 0 0-1.638-.914 6.362 6.362 0 0 0-2.059-.323 7.03 7.03 0 0 0-2.916.604c-.256.115-.884.52-1.399.88a.945.945 0 0 0-.254 1.277.947.947 0 0 0 1.293.307l.564-.341a5.48 5.48 0 0 1 1.034-.464c.407-.14.897-.211 1.468-.211.421 0 .817.061 1.187.182.371.122.691.297.964.528.271.23.486.508.647.836.159.328.238.694.238 1.097 0 .581-.111 1.08-.337 1.497a4.682 4.682 0 0 1-.836 1.116 8.304 8.304 0 0 1-1.075.894c-.384.267-.737.539-1.055.814a4.005 4.005 0 0 0-.772.886c-.197.314-.278.682-.239 1.103l.025 1.301a1.052 1.052 0 0 0 2.104-.014l.007-1.105c.037-.31.175-.59.415-.843a6.73 6.73 0 0 1 .863-.759c.338-.253.697-.522 1.075-.808.38-.285.732-.622 1.055-1.011.323-.389.59-.842.801-1.356.211-.516.316-1.13.316-1.842 0-.703-.131-1.334-.393-1.897a4.22 4.22 0 0 0-1.083-1.434zM13.747 18.899a1.85 1.85 0 0 0-.563-.38 1.718 1.718 0 0 0-.689-.14 1.72 1.72 0 0 0-1.243.52 1.802 1.802 0 0 0-.499 1.251 1.764 1.764 0 0 0 .499 1.25c.154.16.339.284.555.374.215.088.445.133.688.133a1.743 1.743 0 0 0 1.63-1.062c.095-.21.142-.442.142-.695a1.804 1.804 0 0 0-.52-1.251z"/></svg>