<svg id="Layer_1" xmlns="http://www.w3.org/2000/svg" viewBox="0 0 375.8 27.9"><style>.st0{fill:#788ca8}.st1{fill:#50726b}.st2{fill:#353d4e}</style><g id="XMLID_151_"><path class="st0" d="M21.5 27.9h-4.6c-.9 0-1.5-.3-1.9-1L9.2 18c-.2-.3-.5-.6-.7-.7-.3-.1-.6-.2-1.2-.2H5.1v10.8H0V.3h8.4c1.9 0 3.5.2 4.8.6 1.3.4 2.4.9 3.3 1.6.9.7 1.5 1.6 1.9 2.5.4 1 .6 2 .6 3.2 0 .9-.1 1.8-.4 2.6-.3.8-.7 1.6-1.2 2.3-.5.7-1.2 1.3-1.9 1.8-.8.5-1.6.9-2.6 1.2.3.2.6.4.9.7.3.3.5.6.8.9l6.9 10.2zM8.3 13.4c1 0 1.8-.1 2.5-.4.7-.2 1.3-.6 1.8-1s.8-.9 1-1.5c.3-.5.4-1.2.4-1.9 0-1.4-.5-2.5-1.4-3.2-.9-.8-2.3-1.1-4.2-1.1H5.1v9.2h3.2z"/><path class="st1" d="M317 27.9h-4c-.4 0-.8-.1-1.1-.3-.3-.2-.5-.5-.6-.8l-2.1-5.6h-11.4l-2.1 5.6c-.1.3-.3.6-.6.8-.3.2-.7.4-1.1.4h-4L301 .3h5.2L317 27.9zm-9-10.4l-3.4-9.2c-.2-.4-.3-.9-.5-1.5s-.4-1.2-.5-1.8c-.2.6-.3 1.3-.5 1.8-.2.6-.4 1.1-.5 1.5l-3.3 9.1h8.7zM334.6 5.3c-.2.3-.3.5-.5.6s-.4.2-.6.2c-.3 0-.6-.1-.9-.3-.3-.2-.7-.4-1.1-.7-.4-.2-.9-.5-1.5-.7-.6-.2-1.3-.3-2.1-.3-.7 0-1.3.1-1.9.3-.5.2-1 .4-1.3.7-.4.3-.6.7-.8 1.1-.2.4-.3.9-.3 1.4 0 .6.2 1.2.5 1.6.4.4.8.8 1.4 1.1.6.3 1.3.6 2 .8.8.2 1.5.5 2.3.8.8.3 1.6.6 2.3 1s1.4.8 2 1.4c.6.6 1.1 1.2 1.4 2 .4.8.5 1.8.5 2.9 0 1.2-.2 2.4-.6 3.5-.4 1.1-1 2-1.9 2.8-.8.8-1.8 1.4-3 1.9s-2.5.7-4.1.7c-.9 0-1.7-.1-2.6-.3-.9-.2-1.7-.4-2.5-.7-.8-.3-1.5-.7-2.2-1.1-.7-.4-1.3-.9-1.8-1.5l1.5-2.5c.1-.2.3-.3.5-.4.2-.1.4-.2.6-.2.3 0 .7.1 1 .4.4.3.8.6 1.3.9.5.3 1.1.6 1.8.9.7.3 1.5.4 2.5.4 1.5 0 2.6-.3 3.4-1 .8-.7 1.2-1.7 1.2-3 0-.7-.2-1.3-.5-1.8-.4-.5-.8-.8-1.4-1.2-.6-.3-1.3-.6-2-.8-.8-.2-1.5-.5-2.3-.7-.8-.3-1.6-.6-2.3-.9-.8-.4-1.4-.8-2-1.4-.6-.6-1.1-1.3-1.4-2.1-.4-.9-.5-1.9-.5-3.2 0-1 .2-2 .6-2.9s1-1.8 1.7-2.5c.8-.7 1.7-1.3 2.8-1.8 1.1-.4 2.4-.7 3.9-.7 1.6 0 3.1.3 4.5.8s2.5 1.2 3.5 2.1l-1.1 2.4zM346 27.9h-5.2V.3h5.2v27.6zM375.8 27.9h-4c-.4 0-.8-.1-1.1-.3s-.5-.5-.6-.8l-2.1-5.6h-11.4l-2.1 5.6c-.1.3-.3.6-.6.8-.3.2-.7.4-1.1.4h-4L359.7.4h5.2l10.9 27.5zm-9.1-10.4l-3.4-9.2c-.2-.4-.3-.9-.5-1.5s-.4-1.2-.5-1.8c-.2.6-.3 1.3-.5 1.8-.2.6-.4 1.1-.5 1.5l-3.3 9.1h8.7z"/><path class="st0" d="M29.7 23.8v-5.2l4.2-4.6-4.2-3.7V4.4h10.7L41.9.3H24.5v27.6h17.4l-1.5-4.1z"/><path class="st2" d="M64.7 21.7c-.2-.2-.5-.3-.7-.3-.2 0-.3 0-.4.1-.1.1-.3.2-.4.3-.4.4-.8.7-1.3 1-.4.3-.9.5-1.4.6s-1 .3-1.6.4c-.6.1-1.2.1-1.9.1-1.2 0-2.3-.2-3.3-.7-1-.4-1.9-1.1-2.7-1.9-.8-.8-1.3-1.8-1.8-3.1-.4-1.2-.7-2.6-.7-4.1 0-1.5.2-2.9.6-4.1.4-1.2 1-2.2 1.7-3.1.7-.8 1.6-1.5 2.6-1.9 1-.4 2.2-.7 3.4-.7.7 0 1.4.1 1.9.2.6.1 1 .2 1.5.4.4.2.8.3 1.1.5.3.2.6.4.8.5.2.2.5.3.7.4.2.1.4.2.6.2.3 0 .5-.1.7-.2.2-.1.3-.2.4-.4l1.7-2.4c-1.1-1.1-2.4-1.9-4-2.6C60.8.3 59 0 57 0s-3.9.3-5.5 1c-1.7.7-3.1 1.7-4.3 2.9-1.2 1.2-2.1 2.7-2.8 4.5-.3.7-.5 1.5-.7 2.3l3.7 3.3-3.6 4c.1.6.3 1.2.5 1.8.6 1.7 1.5 3.2 2.7 4.5 1.2 1.2 2.6 2.2 4.2 2.9 1.6.7 3.5 1 5.5 1 2.3 0 4.3-.4 5.9-1.1 1.6-.7 3-1.8 4.1-3.2l-2-2.2zM95.5 10.2c-.3-1.2-.7-2.4-1.3-3.4-.6-1-1.3-2-2.1-2.8-.8-.8-1.7-1.6-2.8-2.2-1-.6-2.2-1-3.4-1.4C84.7.2 83.4 0 82 0c-2.1 0-4 .4-5.7 1.1-1.7.7-3.2 1.7-4.4 2.9-1.2 1.3-2.2 2.8-2.9 4.5-.3.7-.5 1.5-.7 2.2L72 14l-3.6 3.9c.2.6.3 1.2.6 1.8.7 1.7 1.6 3.2 2.9 4.5 1.2 1.3 2.7 2.2 4.4 2.9 1.7.7 3.6 1.1 5.7 1.1s4-.4 5.7-1.1c1.7-.7 3.2-1.7 4.4-2.9 1.2-1.3 2.2-2.8 2.8-4.5.7-1.7 1-3.6 1-5.6.1-1.3-.1-2.6-.4-3.9zm-5.4 8.1c-.4 1.1-1 2.1-1.7 2.9-.8.8-1.7 1.5-2.7 1.9-1.1.4-2.3.7-3.6.7-1.3 0-2.6-.2-3.6-.7-1.1-.4-2-1.1-2.7-1.9-.8-.8-1.3-1.9-1.7-3.1-.4-1.2-.6-2.6-.6-4.1 0-1.5.2-2.9.6-4.1.4-1.2 1-2.2 1.7-3.1.8-.8 1.7-1.5 2.7-1.9 1.1-.4 2.3-.7 3.6-.7 1.3 0 2.6.2 3.6.7 1.1.4 2 1.1 2.7 1.9.8.8 1.3 1.9 1.7 3.1.1.2.1.5.2.7L94 14l-3.9 4.3zM136.9.3v10.1l4 3.6-4 4.4c0 .4.1.8.1 1.2L122.6 1.1c-.1-.2-.3-.3-.4-.4-.1-.1-.2-.2-.4-.2-.1-.1-.3-.1-.4-.1H118v10.5l3.5 3.1-3.5 3.9v.4c0 .4.1.9.1 1.3L103.8 1.1c-.1-.2-.3-.3-.4-.4-.1-.1-.2-.2-.4-.2-.1-.1-.3-.1-.4-.1H99.3v10.3l3.8 3.4-3.8 4.2V28h4.5V11c0-.7 0-1.5-.1-2.3L118.2 27c.3.3.5.5.8.7.3.1.6.2 1 .2h2.7V11c0-.7 0-1.5-.1-2.3L137 27c.3.3.5.5.8.7.3.1.6.2 1 .2h2.6V.3h-4.5zM150.9 23.8v-5.3L155 14l-4.1-3.7V4.4h10.7l1.5-4.1h-17.4v27.6h17.4l-1.5-4.1zM186.8 21.7c-.2-.2-.5-.3-.7-.3-.2 0-.3 0-.4.1-.1.1-.3.2-.4.3-.4.4-.8.7-1.3 1-.4.3-.9.5-1.4.6-.5.2-1 .3-1.6.4-.6.1-1.2.1-1.9.1-1.2 0-2.3-.2-3.3-.7-1-.4-1.9-1.1-2.7-1.9-.8-.8-1.3-1.8-1.8-3.1-.4-1.2-.7-2.6-.7-4.1 0-1.5.2-2.9.6-4.1.4-1.2 1-2.2 1.7-3.1.7-.8 1.6-1.5 2.6-1.9 1-.4 2.2-.7 3.4-.7.7 0 1.4.1 1.9.2.6.1 1 .2 1.5.4.4.2.8.3 1.1.5.3.2.6.4.8.5.2.2.5.3.7.4.2.1.4.2.6.2.3 0 .5-.1.7-.2.2-.1.3-.2.4-.4l1.7-2.4c-1.1-1.1-2.4-1.9-4-2.6-1.6-.7-3.3-1-5.4-1-2 0-3.9.3-5.5 1-1.7.7-3.1 1.7-4.3 2.9-1.2 1.2-2.1 2.7-2.8 4.5-.3.7-.5 1.4-.6 2.1l3.9 3.4-3.8 4.2c.1.5.3 1.1.5 1.6.6 1.7 1.5 3.2 2.7 4.5 1.2 1.2 2.6 2.2 4.2 2.9 1.6.7 3.5 1 5.5 1 2.3 0 4.3-.4 5.9-1.1 1.6-.7 3-1.8 4.1-3.2l-1.9-2zM189.8.3v4.2h8.3v5.9l4.1 3.6-4.1 4.5v9.4h5.2V4.5h8.3V.3zM215.2.3v10l4.1 3.7-4.1 4.5v9.4h5.2V.3zM245.3.3v10l4.1 3.7-4.1 4.5c0 .4 0 .7.1 1.1L230.9 1.1c-.1-.2-.3-.3-.4-.4-.1-.1-.2-.2-.4-.2-.1-.1-.3-.1-.4-.1H226.4v10.1l4 3.6-4 4.4V28h4.5V11c0-.7 0-1.5-.1-2.3L245.3 27c.3.3.5.5.8.7.3.1.6.2 1 .2h2.6V.3h-4.4zM269.5 14.1V17c0 .3.1.5.3.7.2.2.4.3.8.3h3.5v5c-.8.4-1.5.7-2.3.9-.8.2-1.7.3-2.7.3-1.4 0-2.7-.2-3.9-.7-1.2-.5-2.1-1.1-3-2-.8-.9-1.5-1.9-1.9-3.1-.5-1.2-.7-2.6-.7-4.2 0-1.5.2-2.8.6-4 .4-1.2 1-2.2 1.8-3.1.8-.9 1.7-1.5 2.8-2 1.1-.5 2.3-.7 3.7-.7.8 0 1.6.1 2.2.2.6.1 1.2.3 1.7.4.5.2 1 .4 1.4.6.4.2.8.5 1.3.7.4.3.8.4 1.2.3.4-.1.7-.3.9-.7l1.5-2.3c-.6-.5-1.2-1-1.9-1.5-.7-.4-1.4-.8-2.3-1.1-.8-.3-1.7-.6-2.7-.7-1-.2-2-.3-3.1-.3-2.2 0-4.2.3-6 1-1.8.7-3.3 1.7-4.5 2.9-1.2 1.2-2.2 2.7-2.9 4.5-.3.7-.5 1.4-.6 2.1l3.9 3.4-3.7 4.1c.1.6.3 1.1.5 1.7.7 1.7 1.7 3.2 3 4.5 1.3 1.2 2.9 2.2 4.7 2.9 1.8.7 3.9 1 6.1 1 1.8 0 3.5-.2 5.1-.7 1.6-.5 3.1-1.2 4.5-2.3v-11h-9.3z"/></g></svg>