<svg xmlns="http://www.w3.org/2000/svg" width="25.14" height="20.95" viewBox="0 0 25.14 20.95"><defs><style>.a{fill:#58595b}</style></defs><path class="a" d="M25.14 2.48a10.08 10.08 0 0 1-3 .83A5.28 5.28 0 0 0 24.45.39a10.16 10.16 0 0 1-3.28 1.28A5.09 5.09 0 0 0 17.41 0a5.22 5.22 0 0 0-5.16 5.29 5.4 5.4 0 0 0 .13 1.2A14.52 14.52 0 0 1 1.75 1a5.39 5.39 0 0 0-.7 2.66A5.32 5.32 0 0 0 3.35 8 5.06 5.06 0 0 1 1 7.37v.07a5.26 5.26 0 0 0 4.14 5.19 4.92 4.92 0 0 1-1.36.19 5 5 0 0 1-1-.09A5.18 5.18 0 0 0 7.6 16.4a10.19 10.19 0 0 1-6.41 2.27A10.32 10.32 0 0 1 0 18.58 14.36 14.36 0 0 0 7.91 21c9.49 0 14.68-8.06 14.68-15v-.69a10.59 10.59 0 0 0 2.57-2.74"/></svg>