<svg height="11" viewBox="0 0 10 11" width="10" xmlns="http://www.w3.org/2000/svg"><path d="m2.232 8.32 1.392-1.392v3.504l-3.312-.192 1.056-1.032c-.92800464-.97600488-1.38400008-2.13599328-1.368-3.48s.49599528-2.4959952 1.44-3.456c.800004-.800004 1.7599944-1.26399936 2.88-1.392l.048 1.224c-.800004.12800064-1.48799712.47999712-2.064 1.056-.70400352.70400352-1.06399992 1.555995-1.08 2.556s.31999656 1.86799632 1.008 2.604zm3.984-7.176 3.312.192-1.056 1.032c.92800464.97600488 1.38400008 2.13599328 1.368 3.48s-.49599528 2.4959952-1.44 3.456c-.76800384.7840039-1.72799424 1.2559992-2.88 1.416l-.024-1.248c.78400392-.12800064 1.46399712-.47999712 2.04-1.056.70400352-.70400352 1.06399992-1.555995 1.08-2.556s-.31999656-1.86799632-1.008-2.604l-1.368 1.392z" fill-rule="evenodd" fill="#737373"/></svg>