<svg height="20" viewBox="0 0 45 20" width="45" xmlns="http://www.w3.org/2000/svg"><g fill="#747474" fill-rule="evenodd"><path d="m11.82 0c1.466674 0 2.833327.366663 4.1 1.1 1.2133394.7200036 2.1799964 1.6933272 2.9 2.92.733337 1.2533396 1.1 2.613326 1.1 4.08s-.366663 2.8266604-1.1 4.08c-.7200036 1.2133394-1.6866606 2.1799964-2.9 2.9-1.266673.733337-2.633326 1.1-4.1 1.1-.9466714 0-1.8599956-.1599984-2.74-.48-.8400042-.3066682-1.6133298-.7466638-2.32-1.32l-5.28 5.28c-.1733342.1733342-.3766655.26-.61.26s-.4366658-.0866658-.61-.26-.26-.3766655-.26-.61.0866658-.4366658.26-.61l5.26-5.28c-.5733362-.7066702-1.0133318-1.4899957-1.32-2.35s-.46-1.7633286-.46-2.71c0-1.466674.366663-2.833327 1.1-4.1.7200036-1.2133394 1.6866606-2.1799964 2.9-2.9 1.2533396-.733337 2.613326-1.1 4.08-1.1zm0 14.94c1.2400062 0 2.393328-.3133302 3.46-.94 1.0400052-.600003 1.859997-1.4133282 2.46-2.44.6266698-1.066672.94-2.2199938.94-3.46s-.3133302-2.393328-.94-3.46c-.6133364-1.0266718-1.4399948-1.8466636-2.48-2.46-1.0533386-.6266698-2.1966605-.94-3.43-.94s-2.383328.3133302-3.45.94c-1.0400052.6133364-1.859997 1.4399948-2.46 2.48-.6266698 1.066672-.94 2.2133272-.94 3.44s.3133302 2.373328.94 3.44c.600003 1.0400052 1.4199948 1.859997 2.46 2.46 1.066672.6266698 2.2133272.94 3.44.94zm3.74-7.48c.1733342 0 .3199994.0633327.44.19s.18.2766658.18.45-.0599994.3199994-.18.44-.2666658.18-.44.18h-3.12v3.1c0 .1733342-.0599994.3199994-.18.44s-.2666658.18-.44.18-.3199994-.0599994-.44-.18-.18-.2666658-.18-.44v-3.1h-3.1c-.1733342 0-.3233327-.0599994-.45-.18s-.19-.2699991-.19-.45.0633327-.3299994.19-.45.2766658-.18.45-.18h3.1v-3.1c0-.1733342.0599994-.3199994.18-.44s.2666658-.18.44-.18.3199994.0599994.44.18.18.2666658.18.44v3.1z"/></g></svg>
