<?xml version="1.0" encoding="utf-8"?>
<!-- Generator: Adobe Illustrator 21.0.0, SVG Export Plug-In . SVG Version: 6.00 Build 0)  -->
<svg version="1.1" baseProfile="tiny" id="Layer_1" xmlns="http://www.w3.org/2000/svg" xmlns:xlink="http://www.w3.org/1999/xlink"
	 x="0px" y="0px" viewBox="0 0 215.5 26.1" xml:space="preserve">
<path fill="#FFFFFF" d="M16.5,4.2c0.9,0.1,2,0.6,2.5,0.6c0.2,0,0.5,0.2,0.5,1c0,0.7,0.2,2.1,0.2,2.9c0,0.7-0.2,1.1-0.5,1.1
	c-0.2,0-0.4-0.4-0.5-0.9c-0.3-1.2-0.9-2.1-1.4-2.5C15.5,5,13.8,4.7,12,4.7c-5.3,0-8.7,4.4-8.7,9.4c0,2.2,0.4,4,1.2,5.4
	c1.8,3.8,5.7,5.3,8.4,5.3c0.6,0,2.2-0.1,3.6-0.9c1.5-0.8,2.3-1.8,3.1-3.2c0.4-0.7,0.6-0.9,0.7-0.9c0.3,0,0.4,0.7,0.3,1.1
	c-0.1,0.8-0.9,2.6-1.3,3.3c-0.1,0.3-0.7,0.7-1,0.9c-0.5,0.2-3.2,0.9-6,0.9c-4.7,0-8.1-2.3-9.4-3.9C1.5,20.8,0,18.4,0,14.7
	c0-3.8,2.2-6.8,3.6-7.9c2.8-2.3,5.9-3,8.9-3C13.7,3.7,15.2,3.9,16.5,4.2z M34.7,4.3c0.2,0.1,0.4,0.6,0.4,0.6
	c0.1,0.6,0.3,2.5,0.3,2.7c0,0.6,0,0.9-0.2,0.9c-0.3,0-0.7-0.2-0.8-0.7c-0.4-1.2-1.3-2.2-1.6-2.4c-0.6-0.5-1.4-0.8-2.3-0.8
	c-2.2,0-3.8,1.7-3.8,3.9c0,2.3,1.7,3.4,4.6,5.3c2.5,1.7,4.6,3.4,4.6,6.4c0,1.7-0.9,3.5-2.7,4.7c-1.1,0.7-3,1.2-4.5,1.2
	c-1.1,0-3.3-0.4-4.3-0.9c-0.3-0.2-0.8-0.9-0.8-1.1c-0.3-1.1-0.6-2.5-0.6-3c0-0.1,0.3-0.6,0.5-0.6c0.3,0,0.8,0.9,1.2,1.9
	c0.9,1.8,3,2.6,4.3,2.6c2.3,0,4-1.6,4-4c0-1.4-0.7-2.9-4.1-5.1C26,14.1,24,12.1,24,9.3c0-1.6,0.7-3,1.8-4c1-0.9,2.6-1.6,4.9-1.6
	C32.4,3.7,34.1,4.2,34.7,4.3z M41.7,7.5c-0.1-1.5-0.1-2-1.9-2.3c-0.7-0.1-0.9-0.4-0.9-0.6c0-0.3,0.4-0.4,0.8-0.4
	c0.9,0,2.5,0.1,3.6,0.1c1.6,0,2.4-0.1,3.5-0.1c0.5,0,0.8,0.1,0.8,0.4s-0.3,0.5-0.9,0.6c-1.9,0.4-1.9,1.2-2,2.1
	c-0.2,1.1-0.2,3.2-0.2,9.7c0,1.8,0,3.9,0.1,4.9c0.1,1.8,0.3,2.4,2.4,2.8c0.6,0.1,0.9,0.3,0.9,0.6s-0.5,0.4-0.9,0.4
	c-1.7,0-4-0.2-4.9-0.2c-1,0-1.3,0.1-2.5,0.1c-0.6,0-0.9-0.2-0.9-0.5c0-0.2,0.3-0.4,1-0.6c1.7-0.4,1.8-0.9,1.9-2.4
	c0.1-1.2,0.2-4.6,0.2-7.4C41.8,12.7,41.8,8.6,41.7,7.5z M62.1,4.3c0.2,0.1,0.4,0.6,0.4,0.6c0.1,0.6,0.3,2.5,0.3,2.7
	c0,0.6,0,0.9-0.2,0.9c-0.3,0-0.7-0.2-0.8-0.7c-0.4-1.2-1.3-2.2-1.6-2.4c-0.6-0.5-1.4-0.8-2.3-0.8c-2.2,0-3.8,1.7-3.8,3.9
	c0,2.3,1.7,3.4,4.6,5.3c2.5,1.7,4.6,3.4,4.6,6.4c0,1.7-0.9,3.5-2.7,4.7c-1.1,0.7-3,1.2-4.5,1.2c-1.1,0-3.3-0.4-4.3-0.9
	C51.5,25,51,24.3,51,24.1c-0.2-1.1-0.5-2.6-0.5-3.1c0-0.1,0.3-0.6,0.5-0.6c0.3,0,0.8,0.9,1.2,1.9c0.9,1.8,3,2.6,4.3,2.6
	c2.3,0,4-1.6,4-4c0-1.4-0.7-2.9-4.1-5.1c-2.8-1.8-4.8-3.7-4.8-6.5c0-1.6,0.7-3,1.8-4c1-0.9,2.6-1.6,4.9-1.6
	C59.8,3.7,61.5,4.2,62.1,4.3z M75.2,29.5v-29c0-0.3,0.2-0.5,0.5-0.5s0.5,0.2,0.5,0.5v29c0,0.3-0.2,0.5-0.5,0.5S75.2,29.8,75.2,29.5z
	"/>
<g>
	<path fill="#FFFFFF" d="M91.2,12.9c-1.6,0-2.9-0.9-2.9-3.4c0-2.1,1.3-3.3,2.9-3.3h1.9c0.1,0,0.1,0,0.1,0.1L93.1,7
		c0,0.1-0.1,0.1-0.2,0.1c-0.6-0.2-0.8-0.3-1.8-0.3s-1.5,1-1.5,2.8c0,2.2,0.9,2.8,1.9,2.8c0.5,0,1-0.3,1.4-0.7H93l0.3,0.3v0.1
		C92.8,12.6,92,12.9,91.2,12.9z M99.2,12.8H95c-0.1,0-0.1,0-0.1-0.1V6.3c0-0.1,0-0.1,0.1-0.1h4c0.1,0,0.2,0,0.2,0.1v0.5
		c0,0.1-0.1,0.1-0.2,0.1c0,0-1.2-0.2-1.7-0.2h-0.9c-0.1,0-0.3,0.1-0.3,0.3v2c0,0,0,0.1,0.1,0.1l2-0.1c0.1,0,0.1,0,0.1,0.1v0.5
		c0,0.1-0.1,0.1-0.1,0.1l-2-0.1c0,0-0.1,0-0.1,0.1V12c0,0.1,0.1,0.3,0.3,0.3h0.9c0.6,0,1.9-0.2,1.9-0.2c0.1,0,0.2,0,0.2,0.1v0.6
		C99.4,12.8,99.2,12.8,99.2,12.8z M106.1,11v1.8c0,0.2-0.6,0.2-0.6,0.1L102,8.1c-0.1-0.1-0.1,0-0.1,0l0.1,4.5c0,0.1,0,0.2-0.1,0.2
		H101c-0.1,0-0.1-0.1-0.1-0.2L101,8V6.4c0-0.1,0-0.1,0.1-0.1h0.6c0.1,0,0.2,0,0.2,0.1l3.1,4.3c0.1,0.1,0.2,0.1,0.2,0l-0.1-4.1
		c0-0.1,0-0.2,0.1-0.2h0.7c0.1,0,0.1,0.1,0.1,0.2L106.1,11L106.1,11z M112.9,6.8C112.9,6.9,112.8,6.9,112.9,6.8
		c-0.1,0.1-1.2,0-1.8,0c-0.1,0-0.2,0.1-0.2,0.2v5.8c0,0.1,0,0.1-0.1,0.1h-1c-0.1,0-0.1,0-0.1-0.1V7c0-0.1-0.1-0.2-0.2-0.2
		c-0.6,0-1.7,0.1-1.7,0.1c-0.1,0-0.1,0-0.1-0.1V6.3c0-0.1,0.1-0.1,0.2-0.1h4.9c0.1,0,0.2,0,0.2,0.1L112.9,6.8L112.9,6.8z
		 M118.7,12.8h-4.1c-0.1,0-0.1,0-0.1-0.1V6.3c0-0.1,0-0.1,0.1-0.1h4c0.1,0,0.2,0,0.2,0.1v0.5c0,0.1-0.1,0.1-0.2,0.1
		c0,0-1.2-0.2-1.7-0.2H116c-0.1,0-0.3,0.1-0.3,0.3v2c0,0,0,0.1,0.1,0.1l2-0.1c0.1,0,0.1,0,0.1,0.1v0.5c0,0.1-0.1,0.1-0.1,0.1l-2-0.1
		c0,0-0.1,0-0.1,0.1V12c0,0.1,0.1,0.3,0.3,0.3h0.9c0.6,0,1.9-0.2,1.9-0.2c0.1,0,0.2,0,0.2,0.1v0.6C119,12.8,118.7,12.8,118.7,12.8z
		 M125.7,12.8h-1.2c-0.1,0-0.1-0.1-0.2-0.1l-1.4-2.5c-0.2-0.3-0.4-0.4-0.6-0.4h-0.4c-0.1,0-0.2,0.1-0.2,0.2v2.8c0,0.1,0,0.1-0.1,0.1
		h-1c-0.1,0-0.1,0-0.1-0.1V6.4c0-0.1,0-0.1,0.1-0.1h2.9c1,0,1.8,0.7,1.8,1.6s-0.7,1.6-1.6,1.8c-0.1,0-0.1,0.1,0,0.1
		c0.1,0.1,0.2,0.2,0.4,0.5l1.5,2.1l0.3,0.4L125.7,12.8L125.7,12.8z M122.7,6.6H122c-0.1,0-0.3,0.1-0.3,0.3v2.2
		c0,0.1,0.1,0.2,0.2,0.2h0.4c1,0,1.6-0.4,1.6-1.4C123.9,7.1,123.4,6.6,122.7,6.6z M134.6,6.9c0,0-1.3-0.2-1.7-0.2h-0.8
		c-0.1,0-0.3,0.1-0.3,0.3v2c0,0,0,0.1,0.1,0.1l1.9-0.1c0.1,0,0.1,0,0.1,0.1v0.5c0,0.1-0.1,0.1-0.1,0.1l-1.9-0.1c0,0-0.1,0-0.1,0.1v3
		c0,0.1,0,0.1-0.1,0.1h-1c-0.1,0-0.1,0-0.1-0.1V6.3c0-0.1,0-0.1,0.1-0.1h3.9c0.1,0,0.2,0,0.2,0.1v0.5C134.8,6.9,134.7,6.9,134.6,6.9
		L134.6,6.9z M138.7,13c-2.2,0-2.9-1.7-2.9-3.5s0.7-3.5,2.9-3.5s2.9,1.7,2.9,3.5C141.6,11.2,140.9,13,138.7,13z M138.7,6.5
		c-1.3,0-1.5,1.6-1.5,2.9c0,1.2,0.1,3.2,1.6,3.2c1.3,0,1.5-1.6,1.5-2.9S140.2,6.5,138.7,6.5z M148.7,12.8h-1.2
		c-0.1,0-0.1-0.1-0.2-0.1l-1.4-2.5c-0.2-0.3-0.4-0.4-0.6-0.4h-0.4c-0.1,0-0.2,0.1-0.2,0.2v2.8c0,0.1,0,0.1-0.1,0.1h-1
		c-0.1,0-0.1,0-0.1-0.1V6.4c0-0.1,0-0.1,0.1-0.1h2.9c1,0,1.8,0.7,1.8,1.6s-0.7,1.6-1.6,1.8c-0.1,0-0.1,0.1,0,0.1
		c0.1,0.1,0.2,0.2,0.4,0.5l1.5,2.1l0.3,0.4C148.9,12.8,148.7,12.8,148.7,12.8z M145.7,6.6H145c-0.1,0-0.3,0.1-0.3,0.3v2.2
		c0,0.1,0.1,0.2,0.2,0.2h0.4c1,0,1.6-0.4,1.6-1.4C146.9,7.1,146.4,6.6,145.7,6.6z M155.7,12.9c-1,0-1.7-0.2-2.3-0.5
		c-0.1,0-0.1-0.1-0.1-0.2l0.2-0.7c0-0.1,0.1-0.1,0.2,0c0.5,0.5,1.2,0.9,2,0.9c0.6,0,1.3-0.5,1.3-1.1c0-1.7-3.7-1-3.7-3.5
		c0-1.1,0.8-1.8,2-1.8c1,0,1.8,0.2,2.3,0.2c0.1,0,0.1,0.1,0.1,0.1L157.5,7c0,0.1-0.1,0.1-0.2,0.1c-0.5-0.3-1-0.6-2-0.6
		c-0.5,0-1,0.3-1,0.9c0,1.8,3.7,0.9,3.7,3.7C158.1,12.4,157.1,12.9,155.7,12.9z M164.5,6.8c0,0.1-0.1,0.1-0.1,0.1s-1.1-0.1-1.7-0.1
		c-0.1,0-0.2,0.1-0.2,0.2v5.8c0,0.1,0,0.1-0.1,0.1h-1c-0.1,0-0.1,0-0.1-0.1V7c0-0.1-0.1-0.2-0.2-0.2c-0.6,0-1.7,0.1-1.7,0.1
		c-0.1,0-0.1,0-0.1-0.1V6.3c0-0.1,0.1-0.1,0.2-0.1h4.9c0.1,0,0.2,0,0.2,0.1L164.5,6.8L164.5,6.8z M171.3,12.8h-1.2
		c-0.1,0-0.1-0.1-0.2-0.1l-1.4-2.5c-0.2-0.3-0.4-0.4-0.6-0.4h-0.4c-0.1,0-0.2,0.1-0.2,0.2v2.8c0,0.1,0,0.1-0.1,0.1h-1
		c-0.1,0-0.1,0-0.1-0.1V6.4c0-0.1,0-0.1,0.1-0.1h2.9c1,0,1.8,0.7,1.8,1.6s-0.7,1.6-1.6,1.8c-0.1,0-0.1,0.1,0,0.1
		c0.1,0.1,0.2,0.2,0.4,0.5l1.5,2.1l0.3,0.4C171.5,12.8,171.3,12.8,171.3,12.8z M168.4,6.6h-0.7c-0.1,0-0.3,0.1-0.3,0.3v2.2
		c0,0.1,0.1,0.2,0.2,0.2h0.4c1,0,1.6-0.4,1.6-1.4C169.5,7.1,169,6.6,168.4,6.6z M178.6,12.8h-1.2c-0.1,0-0.2,0-0.2-0.1
		c0,0-0.2-0.5-0.3-0.8l-0.4-0.9c0-0.1-0.1-0.1-0.1-0.1h-2.1c-0.1,0-0.1,0-0.1,0.1l-0.5,1.7c0,0.1-0.1,0.1-0.2,0.1h-0.8
		c-0.1,0-0.1-0.1-0.1-0.2l2.5-6.4c0-0.1,0.8-0.1,0.8,0l2.3,5.7c0.1,0.3,0.4,0.7,0.4,0.7C178.7,12.8,178.7,12.8,178.6,12.8
		L178.6,12.8z M175.5,7.9c0-0.1-0.1-0.1-0.1,0l-0.9,2.5c0,0.1,0,0.1,0.1,0.1h1.7c0.1,0,0.1-0.1,0.1-0.1L175.5,7.9L175.5,7.9z
		 M184.2,6.8c0,0.1-0.1,0.1-0.1,0.1s-1.1-0.1-1.7-0.1c-0.1,0-0.2,0.1-0.2,0.2v5.8c0,0.1,0,0.1-0.1,0.1h-1c-0.1,0-0.1,0-0.1-0.1V7
		c0-0.1-0.1-0.2-0.2-0.2c-0.6,0-1.7,0.1-1.7,0.1c-0.1,0-0.1,0-0.1-0.1V6.3c0-0.1,0.1-0.1,0.2-0.1h4.9c0.1,0,0.2,0,0.2,0.1L184.2,6.8
		L184.2,6.8z M190,12.8h-4.1c-0.1,0-0.1,0-0.1-0.1V6.3c0-0.1,0-0.1,0.1-0.1h4c0.1,0,0.2,0,0.2,0.1v0.5c0,0.1-0.1,0.1-0.2,0.1
		c0,0-1.2-0.2-1.7-0.2h-0.9c-0.1,0-0.3,0.1-0.3,0.3v2c0,0,0,0.1,0.1,0.1l2-0.1c0.1,0,0.1,0,0.1,0.1v0.5c0,0.1-0.1,0.1-0.1,0.1
		l-2-0.1c0,0-0.1,0-0.1,0.1V12c0,0.1,0.1,0.3,0.3,0.3h0.9c0.6,0,1.9-0.2,1.9-0.2c0.1,0,0.2,0,0.2,0.1v0.6L190,12.8L190,12.8z
		 M196.6,12.8c-0.1,0-0.4-0.3-0.4-0.3H196c-0.4,0.2-1,0.4-1.7,0.4c-1.6,0-2.9-0.9-2.9-3.4c0-2.1,1.3-3.3,2.9-3.3h1.9
		c0.1,0,0.1,0,0.1,0.1L196.2,7c0,0.1-0.1,0.1-0.2,0.1c-0.6-0.2-0.8-0.3-1.8-0.3s-1.5,1-1.5,2.8c0,2.2,0.9,2.9,1.9,2.9
		c0.4,0,1-0.3,1-0.7c0-0.1-0.1-1.8-0.1-1.8V9.7c0-0.1,0.1-0.2,0.1-0.2h1c0,0,0.1,0,0.1,0.1v3.2H196.6z M199.8,12.8h-1
		c-0.1,0-0.1,0-0.1-0.1V6.3c0-0.1,0-0.1,0.1-0.1h1c0.1,0,0.1,0,0.1,0.1v6.4C199.9,12.8,199.9,12.8,199.8,12.8z M204.7,12.9
		c-1.6,0-2.9-0.9-2.9-3.4c0-2.1,1.3-3.3,2.9-3.3h1.9c0.1,0,0.1,0,0.1,0.1L206.6,7c0,0.1-0.1,0.1-0.2,0.1c-0.6-0.2-0.8-0.3-1.8-0.3
		s-1.5,1-1.5,2.8c0,2.2,0.9,2.8,1.9,2.8c0.5,0,1-0.3,1.4-0.7h0.1l0.3,0.3v0.1C206.3,12.6,205.5,12.9,204.7,12.9L204.7,12.9z
		 M215.5,10.2h-0.8v2.5c0,0.1-0.1,0.1-0.1,0.1H212c-1.2,0-1.8-0.8-1.8-1.5s0.5-1.3,1.3-1.5c-0.5-0.2-0.8-0.7-0.8-1.2
		c0-0.9,0.7-1.4,1.7-1.4h1c0.1,0,0.2,0,0.2,0.1v0.4c0,0.1-0.1,0.1-0.1,0.1s-0.4-0.2-0.6-0.2c-0.5,0-0.9,0.3-0.9,1
		c0,0.6,0.4,1.1,1,1.1h0.8V9c0-0.1,0.1-0.1,0.1-0.1l0.8,0.1c0.1,0,0.1,0,0.1,0.1v0.6h0.8c0.1,0,0.1,0,0.1,0.1v0.3
		C215.5,10.1,215.5,10.2,215.5,10.2L215.5,10.2z M213.6,10.1h-1c-0.7,0-1,0.5-1,1.1s0.4,1.2,0.9,1.2s0.8,0,1.1-0.1V10.1z M89.6,25.7
		h-1c-0.1,0-0.1,0-0.1-0.1v-6.4c0-0.1,0-0.1,0.1-0.1h1c0.1,0,0.1,0,0.1,0.1v6.4C89.7,25.7,89.7,25.7,89.6,25.7z M96.9,23.9v1.8
		c0,0.2-0.6,0.2-0.6,0.1L92.8,21c-0.1-0.1-0.1,0-0.1,0l0.1,4.5c0,0.1,0,0.2-0.1,0.2h-0.8c-0.1,0-0.1-0.1-0.1-0.2l0.1-4.7v-1.6
		c0-0.1,0-0.1,0.1-0.1h0.6c0.1,0,0.2,0,0.2,0.1l3.1,4.3c0.1,0.1,0.2,0.1,0.2,0L96,19.4c0-0.1,0-0.2,0.1-0.2h0.7
		c0.1,0,0.1,0.1,0.1,0.2L96.9,23.9L96.9,23.9z M103.8,19.7c0,0.1-0.1,0.1-0.1,0.1s-1.1-0.1-1.7-0.1c-0.1,0-0.2,0.1-0.2,0.2v5.8
		c0,0.1,0,0.1-0.1,0.1h-1c-0.1,0-0.1,0-0.1-0.1v-5.8c0-0.1-0.1-0.2-0.2-0.2c-0.6,0-1.7,0.1-1.7,0.1c-0.1,0-0.1,0-0.1-0.1v-0.5
		c0-0.1,0.1-0.1,0.2-0.1h4.9c0.1,0,0.2,0,0.2,0.1L103.8,19.7L103.8,19.7z M109.6,25.7h-4.1c-0.1,0-0.1,0-0.1-0.1v-6.4
		c0-0.1,0-0.1,0.1-0.1h4c0.1,0,0.2,0,0.2,0.1v0.5c0,0.1-0.1,0.1-0.2,0.1c0,0-1.2-0.2-1.7-0.2h-0.9c-0.1,0-0.3,0.1-0.3,0.3v2
		c0,0,0,0.1,0.1,0.1l2-0.1c0.1,0,0.1,0,0.1,0.1v0.5c0,0.1-0.1,0.1-0.1,0.1l-2-0.1c0,0-0.1,0-0.1,0.1v2.3c0,0.1,0.1,0.3,0.3,0.3h0.9
		c0.6,0,1.9-0.2,1.9-0.2c0.1,0,0.2,0,0.2,0.1v0.6C109.9,25.7,109.6,25.7,109.6,25.7z M116.6,25.7h-1.2c-0.1,0-0.1-0.1-0.2-0.1
		l-1.4-2.5c-0.2-0.3-0.4-0.4-0.6-0.4h-0.4c-0.1,0-0.2,0.1-0.2,0.2v2.8c0,0.1,0,0.1-0.1,0.1h-1c-0.1,0-0.1,0-0.1-0.1v-6.4
		c0-0.1,0-0.1,0.1-0.1h2.9c1,0,1.8,0.7,1.8,1.6s-0.7,1.6-1.6,1.8c-0.1,0-0.1,0.1,0,0.1c0.1,0.1,0.2,0.2,0.4,0.5l1.5,2.1l0.3,0.4
		C116.7,25.6,116.7,25.7,116.6,25.7L116.6,25.7z M113.6,19.5h-0.7c-0.1,0-0.3,0.1-0.3,0.3V22c0,0.1,0.1,0.2,0.2,0.2h0.4
		c1,0,1.6-0.4,1.6-1.4C114.8,20,114.3,19.5,113.6,19.5z M123.4,23.9v1.8c0,0.2-0.6,0.2-0.6,0.1l-3.5-4.8c-0.1-0.1-0.1,0-0.1,0
		l0.1,4.5c0,0.1,0,0.2-0.1,0.2h-0.8c-0.1,0-0.1-0.1-0.1-0.2l0.1-4.7v-1.6c0-0.1,0-0.1,0.1-0.1h0.6c0.1,0,0.2,0,0.2,0.1l3.1,4.3
		c0.1,0.1,0.2,0.1,0.2,0l-0.1-4.1c0-0.1,0-0.2,0.1-0.2h0.7c0.1,0,0.1,0.1,0.1,0.2L123.4,23.9L123.4,23.9z M130.9,25.7h-1.2
		c-0.1,0-0.2,0-0.2-0.1c0,0-0.2-0.5-0.3-0.8l-0.4-0.9c0-0.1-0.1-0.1-0.1-0.1h-2.1c-0.1,0-0.1,0-0.1,0.1l-0.5,1.7
		c0,0.1-0.1,0.1-0.2,0.1H125c-0.1,0-0.1-0.1-0.1-0.2l2.5-6.4c0-0.1,0.8-0.1,0.8,0l2.3,5.7c0.1,0.3,0.4,0.7,0.4,0.7
		C131,25.7,131,25.7,130.9,25.7z M127.7,20.8C127.7,20.7,127.6,20.7,127.7,20.8l-1,2.5c0,0.1,0,0.1,0.1,0.1h1.7
		c0.1,0,0.1-0.1,0.1-0.1S127.7,20.8,127.7,20.8z M136.4,19.7c0,0.1-0.1,0.1-0.1,0.1s-1.1-0.1-1.7-0.1c-0.1,0-0.2,0.1-0.2,0.2v5.8
		c0,0.1,0,0.1-0.1,0.1h-1c-0.1,0-0.1,0-0.1-0.1v-5.8c0-0.1-0.1-0.2-0.2-0.2c-0.6,0-1.7,0.1-1.7,0.1c-0.1,0-0.1,0-0.1-0.1v-0.5
		c0-0.1,0.1-0.1,0.2-0.1h4.9c0.1,0,0.2,0,0.2,0.1L136.4,19.7L136.4,19.7z M139.1,25.7h-1c-0.1,0-0.1,0-0.1-0.1v-6.4
		c0-0.1,0-0.1,0.1-0.1h1c0.1,0,0.1,0,0.1,0.1v6.4C139.2,25.7,139.2,25.7,139.1,25.7z M143.9,25.9c-2.2,0-2.9-1.7-2.9-3.5
		s0.7-3.5,2.9-3.5s2.9,1.7,2.9,3.5C146.9,24.1,146.2,25.9,143.9,25.9z M143.9,19.4c-1.3,0-1.5,1.6-1.5,2.9c0,1.2,0.1,3.2,1.6,3.2
		c1.3,0,1.5-1.6,1.5-2.9S145.4,19.4,143.9,19.4z M153.8,23.9v1.8c0,0.2-0.6,0.2-0.6,0.1l-3.5-4.8c-0.1-0.1-0.1,0-0.1,0l0.1,4.5
		c0,0.1,0,0.2-0.1,0.2h-0.8c-0.1,0-0.1-0.1-0.1-0.2l0.1-4.7v-1.6c0-0.1,0-0.1,0.1-0.1h0.6c0.1,0,0.2,0,0.2,0.1l3.1,4.3
		c0.1,0.1,0.2,0.1,0.2,0l-0.1-4.1c0-0.1,0-0.2,0.1-0.2h0.7c0.1,0,0.1,0.1,0.1,0.2V23.9z M161.3,25.7h-1.2c-0.1,0-0.2,0-0.2-0.1
		c0,0-0.2-0.5-0.3-0.8l-0.4-0.9c0-0.1-0.1-0.1-0.1-0.1H157c-0.1,0-0.1,0-0.1,0.1l-0.5,1.7c0,0.1-0.1,0.1-0.2,0.1h-0.8
		c-0.1,0-0.1-0.1-0.1-0.2l2.5-6.4c0-0.1,0.8-0.1,0.8,0l2.3,5.7c0.1,0.3,0.4,0.7,0.4,0.7C161.4,25.7,161.4,25.7,161.3,25.7
		L161.3,25.7z M158.1,20.8c0-0.1-0.1-0.1-0.1,0l-0.9,2.5c0,0.1,0,0.1,0.1,0.1h1.7c0.1,0,0.1-0.1,0.1-0.1L158.1,20.8L158.1,20.8z
		 M166.9,25.7H163c-0.1,0-0.1,0-0.1-0.1v-6.4c0-0.1,0-0.1,0.1-0.1h1c0.1,0,0.1,0,0.1,0.1v5.7c0,0.1,0.1,0.3,0.3,0.3h0.8
		c0.6,0,1.7-0.2,1.7-0.2c0.1,0,0.2,0,0.2,0.1v0.6H166.9L166.9,25.7z M173.9,25.8c-1,0-1.7-0.2-2.3-0.5c-0.1,0-0.1-0.1-0.1-0.2
		l0.2-0.7c0-0.1,0.1-0.1,0.2,0c0.5,0.5,1.2,0.9,2,0.9c0.6,0,1.3-0.5,1.3-1.1c0-1.7-3.7-1-3.7-3.5c0-1.1,0.8-1.8,2-1.8
		c1,0,1.8,0.2,2.3,0.2c0.1,0,0.1,0.1,0.1,0.1l-0.2,0.7c0,0.1-0.1,0.1-0.2,0.1c-0.5-0.3-1-0.6-2-0.6c-0.5,0-1,0.3-1,0.9
		c0,1.8,3.7,0.9,3.7,3.7C176.3,25.3,175.3,25.8,173.9,25.8z M182.8,19.7c0,0.1-0.1,0.1-0.1,0.1s-1.1-0.1-1.7-0.1
		c-0.1,0-0.2,0.1-0.2,0.2v5.8c0,0.1,0,0.1-0.1,0.1h-1c-0.1,0-0.1,0-0.1-0.1v-5.8c0-0.1-0.1-0.2-0.2-0.2c-0.6,0-1.7,0.1-1.7,0.1
		c-0.1,0-0.1,0-0.1-0.1v-0.5c0-0.1,0.1-0.1,0.2-0.1h4.9c0.1,0,0.2,0,0.2,0.1L182.8,19.7L182.8,19.7z M189.4,20l-0.1,3.7
		c0,1.4-0.8,2.2-2.3,2.2c-1.7,0-2.6-0.7-2.6-2.2v-4.5c0-0.1,0-0.1,0.1-0.1h1c0.1,0,0.1,0,0.1,0.1v4.4c0,1,0.7,1.6,1.4,1.6
		s1.4-0.4,1.4-1.5V20v-0.8c0-0.1,0-0.2,0.1-0.2h0.9c0.1,0,0.1,0.1,0.1,0.2C189.4,19.2,189.4,19.7,189.4,20L189.4,20z M193.6,25.7
		c-1.2,0-1.3-0.1-1.6-0.1s-0.3,0.1-0.5,0.1c-0.1,0-0.1,0-0.1-0.1v-6.4c0-0.1,0-0.1,0.1-0.1h2.4c1.4,0,2.7,1.1,2.7,3.2
		C196.6,24.1,195.6,25.7,193.6,25.7L193.6,25.7z M193.6,19.5h-0.7c-0.1,0-0.2,0.1-0.2,0.2v4.9c0,0.4,0.3,0.6,0.8,0.6
		c1.6,0,1.8-1.9,1.8-3.1C195.3,20.2,194.4,19.5,193.6,19.5L193.6,19.5z M199.5,25.7h-1c-0.1,0-0.1,0-0.1-0.1v-6.4
		c0-0.1,0-0.1,0.1-0.1h1c0.1,0,0.1,0,0.1,0.1v6.4C199.7,25.7,199.6,25.7,199.5,25.7z M206,25.7h-4.1c-0.1,0-0.1,0-0.1-0.1v-6.4
		c0-0.1,0-0.1,0.1-0.1h4c0.1,0,0.2,0,0.2,0.1v0.5c0,0.1-0.1,0.1-0.2,0.1c0,0-1.2-0.2-1.7-0.2h-0.9c-0.1,0-0.3,0.1-0.3,0.3v2
		c0,0,0,0.1,0.1,0.1l2-0.1c0.1,0,0.1,0,0.1,0.1v0.5c0,0.1-0.1,0.1-0.1,0.1l-2-0.1c0,0-0.1,0-0.1,0.1v2.3c0,0.1,0.1,0.3,0.3,0.3h0.9
		c0.6,0,1.9-0.2,1.9-0.2c0.1,0,0.2,0,0.2,0.1v0.6L206,25.7L206,25.7z M210,25.8c-1,0-1.7-0.2-2.3-0.5c-0.1,0-0.1-0.1-0.1-0.2
		l0.2-0.7c0-0.1,0.1-0.1,0.2,0c0.5,0.5,1.2,0.9,2,0.9c0.6,0,1.3-0.5,1.3-1.1c0-1.7-3.7-1-3.7-3.5c0-1.1,0.8-1.8,2-1.8
		c1,0,1.8,0.2,2.3,0.2c0.1,0,0.1,0.1,0.1,0.1l-0.2,0.7c0,0.1-0.1,0.1-0.2,0.1c-0.5-0.3-1-0.6-2-0.6c-0.5,0-1,0.3-1,0.9
		c0,1.8,3.7,0.9,3.7,3.7C212.4,25.3,211.4,25.8,210,25.8z"/>
</g>
</svg>
