<svg xmlns="http://www.w3.org/2000/svg" viewBox="14009.419 -1432.213 54.228 72.684">
  <defs>
    <style>
      .cls-1 {
        fill: #6ca4a5;
      }
    </style>
  </defs>
  <g id="Symbol_19_4" data-name="Symbol 19 – 4" transform="translate(13985 -1445.875)">
    <path id="XMLID_427_" class="cls-1" d="M63.3,35.387l-2.64-.99v-.11a.68.68,0,0,0-.55-.88l-7.15-1.76v-.11c-.11-.44-.11-.77-.22-1.21l-.11-.22v-.22c-.11-.22-.11-.33-.22-.55a6.114,6.114,0,0,0-.99-1.87c0-.11-.11-.11-.11-.22a3.217,3.217,0,0,0-.55-3.63l3.41-9.46a1.36,1.36,0,0,0-.44-1.54,1.259,1.259,0,0,0-1.87.66l-3.08,8.8-2.64-7.37a1.334,1.334,0,0,0-1.43-.88,1.261,1.261,0,0,0-.99,1.65l2.86,8.03a3.253,3.253,0,0,0-.88,2.86,2.846,2.846,0,0,0,2.09,2.2,3.023,3.023,0,0,0,2.2-.22c.11.44.22.88.33,1.43,0,.33.11.66.11.88l-.11.11-2.09-.55-.33-.11-.33-.11-.33.55-2.09,1.76c-.33-.33-.55-.66-.77-.88-.44-.55-.66-.77-.66-.77l-.11-.11c-.11,0-.22,0-.22.11a.851.851,0,0,1-.11.33c0,.22-.11.44-.11.77a7.168,7.168,0,0,0,.22,1.98L22.6,50.456c.55.33,15.729,8.91,15.729,8.91L76.387,39.677,63.3,35.387Zm-14.959-3.41,1.87.66a.571.571,0,0,1-.22.44c-.11.22-.22.22-.33.33h-.22l-.11.11h-.22a4.512,4.512,0,0,1-1.21.11l-.22-.22Zm-4.73,9.68L25.13,50.346,44.049,35.057a7.467,7.467,0,0,0,1.32,1.32Zm1.87-.88,1.21-3.74a5.521,5.521,0,0,0,1.32.22,5.227,5.227,0,0,0,2.86-.66c.11-.11.22-.11.33-.22l.22-.11a.108.108,0,0,0,.11-.11l.22-.22.33-.33a2.933,2.933,0,0,0,.77-1.54,1.4,1.4,0,0,0,.11-.66l4.73,1.54-12.209,5.83Z" transform="translate(2.259 1.241)"/>
    <path id="XMLID_420_" class="cls-1" d="M38.259,57.42,22.2,48.4V71.5l16.059,10.01Z" transform="translate(2.219 4.838)"/>
    <path id="XMLID_440_" class="cls-1" d="M36.9,82.478l37.838-22V38.7L36.9,58.389ZM69.788,43.54a1.21,1.21,0,1,1,2.42,0V59.489a1.21,1.21,0,0,1-2.42,0Zm-7.7,4.4a1.21,1.21,0,0,1,2.42,0V63.889a1.21,1.21,0,1,1-2.42,0ZM54.5,51.9a1.21,1.21,0,0,1,2.42,0V67.849a1.21,1.21,0,0,1-2.42,0V51.9Zm-7.59,4.84a1.21,1.21,0,0,1,2.42,0V72.688a1.21,1.21,0,0,1-2.42,0Zm-7.59,4.95a1.21,1.21,0,1,1,2.42,0V77.638a1.21,1.21,0,0,1-2.42,0Z" transform="translate(3.688 3.868)"/>
  </g>
</svg>
