<?xml version="1.0" encoding="utf-8"?>
<!-- Generator: Adobe Illustrator 21.0.0, SVG Export Plug-In . SVG Version: 6.00 Build 0)  -->
<svg version="1.1" id="Layer_1" xmlns="http://www.w3.org/2000/svg" xmlns:xlink="http://www.w3.org/1999/xlink" x="0px" y="0px"
	 viewBox="0 0 55 70" style="enable-background:new 0 0 55 70;" xml:space="preserve">
<style type="text/css">
	.st0{fill:#6CA4A5;}
</style>
<g id="Symbol_19_4" transform="translate(13985 -1445.875)">
	<path id="XMLID_427_" class="st0" d="M-13944.2,1468.2l-2.5-0.9v-0.1c0.1-0.3-0.1-0.7-0.4-0.8c0,0-0.1,0-0.1,0l-6.8-1.7v-0.1
		c-0.1-0.4-0.1-0.7-0.2-1.1l-0.1-0.2v-0.2c-0.1-0.2-0.1-0.3-0.2-0.5c-0.2-0.6-0.5-1.2-0.9-1.8c0-0.1-0.1-0.1-0.1-0.2
		c0.6-1.1,0.4-2.5-0.5-3.4l3.2-8.9c0.2-0.5,0-1.1-0.4-1.5c-0.6-0.4-1.3-0.2-1.6,0.4c-0.1,0.1-0.1,0.2-0.1,0.3l-2.9,8.3l-2.5-7
		c-0.2-0.6-0.8-0.9-1.4-0.8c-0.6,0.1-1.1,0.7-1,1.4c0,0.1,0,0.1,0,0.2l2.7,7.6c-0.7,0.7-1,1.7-0.8,2.7c0.2,1,1,1.8,2,2.1
		c0.7,0.2,1.4,0.1,2.1-0.2c0.1,0.4,0.2,0.8,0.3,1.4c0,0.3,0.1,0.6,0.1,0.8l-0.1,0.1l-2-0.5l-0.3-0.1l-0.3-0.1l-0.3,0.5l-2,1.7
		c-0.3-0.3-0.5-0.6-0.7-0.8c-0.4-0.5-0.6-0.7-0.6-0.7l-0.1-0.1c-0.1,0-0.2,0-0.2,0.1c0,0.1,0,0.2-0.1,0.3c0,0.2-0.1,0.4-0.1,0.7
		c0,0.6,0.1,1.3,0.2,1.9l-19.6,15.8c0.5,0.3,14.9,8.4,14.9,8.4l36-18.6L-13944.2,1468.2z M-13958.4,1465l1.8,0.6
		c0,0.2-0.1,0.3-0.2,0.4c-0.1,0.2-0.2,0.2-0.3,0.3h-0.2l-0.1,0.1h-0.2c-0.4,0.1-0.8,0.1-1.1,0.1l-0.2-0.2L-13958.4,1465z
		 M-13962.8,1474.2l-17.5,8.2l17.9-14.4c0.4,0.5,0.8,0.9,1.2,1.2L-13962.8,1474.2z M-13961.1,1473.3l1.1-3.5
		c0.4,0.1,0.8,0.2,1.2,0.2c0.9,0.1,1.9-0.2,2.7-0.6c0.1-0.1,0.2-0.1,0.3-0.2l0.2-0.1c0.1,0,0.1,0,0.1-0.1c0,0,0,0,0,0l0.2-0.2
		l0.3-0.3c0.4-0.4,0.6-0.9,0.7-1.5c0.1-0.2,0.1-0.4,0.1-0.6l4.5,1.5L-13961.1,1473.3L-13961.1,1473.3z"/>
	<path id="XMLID_420_" class="st0" d="M-13967.9,1492.5l-15.2-8.5v21.8l15.2,9.5V1492.5z"/>
	<path id="XMLID_440_" class="st0" d="M-13967.8,1515.2l35.7-20.8v-20.6l-35.7,18.6V1515.2z M-13936.8,1478.4c0-0.6,0.5-1.1,1.1-1.1
		c0.6,0,1.1,0.5,1.1,1.1c0,0,0,0,0,0v15.1c0,0.6-0.5,1.1-1.1,1.1c-0.6,0-1.1-0.5-1.1-1.1V1478.4z M-13944,1482.6
		c0-0.6,0.5-1.1,1.1-1.1c0.6,0,1.1,0.5,1.1,1.1v15.1c0,0.6-0.5,1.1-1.1,1.1c-0.6,0-1.1-0.5-1.1-1.1c0,0,0,0,0,0V1482.6z
		 M-13951.2,1486.3c0-0.6,0.5-1.1,1.1-1.1c0.6,0,1.1,0.5,1.1,1.1v15.1c0,0.6-0.5,1.1-1.1,1.1c-0.6,0-1.1-0.5-1.1-1.1V1486.3z
		 M-13958.4,1490.9c0-0.6,0.5-1.1,1.1-1.1c0.6,0,1.1,0.5,1.1,1.1v15.1c0,0.6-0.5,1.1-1.1,1.1c-0.6,0-1.1-0.5-1.1-1.1V1490.9z
		 M-13965.6,1495.6c0-0.6,0.5-1.1,1.1-1.1c0.6,0,1.1,0.5,1.1,1.1c0,0,0,0,0,0v15.1c0,0.6-0.5,1.1-1.1,1.1c-0.6,0-1.1-0.5-1.1-1.1
		V1495.6z"/>
</g>
</svg>
