<svg xmlns="http://www.w3.org/2000/svg" viewBox="14119 -3667 18.738 18.738">
  <defs>
    <style>
      .cls-1 {
        fill: #95989a;
      }
    </style>
  </defs>
  <g id="Symbol_11_1" data-name="Symbol 11 – 1" transform="translate(13032 -3723)">
    <path id="facebook-facebook" class="cls-1" d="M45.864,28.16H29.194a1.034,1.034,0,0,0-1.034,1.034v16.67A1.034,1.034,0,0,0,29.194,46.9h8.974V39.642H35.727V36.814h2.442V34.729a3.407,3.407,0,0,1,3.637-3.738,20.021,20.021,0,0,1,2.182.111v2.529h-1.5c-1.174,0-1.4.558-1.4,1.377v1.806h2.8l-.365,2.828H41.089V46.9h4.775A1.034,1.034,0,0,0,46.9,45.864V29.194A1.034,1.034,0,0,0,45.864,28.16Z" transform="translate(1058.84 27.84)"/>
  </g>
</svg>
