<svg enable-background="new 0 0 54.2 72.7" viewBox="0 0 54.2 72.7" xmlns="http://www.w3.org/2000/svg"><g fill="#6ca4a5"><path d="m43.9 12.2c.3-.6.4-1.3.4-1.9 0-2.8-2.4-5.1-5.2-5.1-1.1-2.8-3.9-4.7-6.9-4.6-4-.1-7.3 3.1-7.4 7.2.1 4 3.4 7.2 7.4 7.2 1.2 0 2.4-.3 3.5-.8.9.7 1.9 1.2 3.1 1.3.3 1.5 1.7 2.6 3.2 2.5 1.8 0 3.2-1.4 3.3-3.1-.1-1.2-.6-2.1-1.4-2.7z"/><path d="m-.4 66.6h54.2v5.5h-54.2z"/><path d="m34.4 21v25.3l-10.7-5.7v5.7l-10.7-5.5v5.5l-11-6.2v24.8h48.7v-43.9zm-15 42h-5.8v-5.7h5.8zm11.6 0h-5.8v-5.7h5.8zm12.1 0h-5.8v-5.7h5.8z"/></g></svg>