<?xml version="1.0" encoding="utf-8"?>
<!-- Generator: Adobe Illustrator 19.1.0, SVG Export Plug-In . SVG Version: 6.00 Build 0)  -->
<svg version="1.1" id="Layer_1" xmlns="http://www.w3.org/2000/svg" xmlns:xlink="http://www.w3.org/1999/xlink" x="0px" y="0px"
	 viewBox="0 0 20 20" enable-background="new 0 0 20 20" xml:space="preserve">
<g id="XMLID_276_">
	<circle id="XMLID_267_" fill="#FFFFFF" cx="10" cy="10" r="10"/>
	<path id="XMLID_198_" fill="#C34242" d="M10,1.2c-4.8,0-8.8,3.9-8.8,8.8s3.9,8.8,8.8,8.8s8.8-3.9,8.8-8.8S14.8,1.2,10,1.2z
		 M13.7,5.1c0-0.3,0.3-0.6,0.6-0.6h1c0.3,0,0.6,0.3,0.6,0.6v1.4h-0.5V5.1c0,0,0-0.1-0.1-0.1h-0.9c0,0-0.1,0-0.1,0.1v1.4h-0.5V5.1z
		 M9.2,5.1c0-0.3,0.3-0.6,0.6-0.6h1c0.3,0,0.6,0.3,0.6,0.6v1.4h-0.5V5.1c0,0,0-0.1-0.1-0.1H9.7c0,0-0.1,0-0.1,0.1v1.4H9.2V5.1z
		 M4.6,5.1c0-0.3,0.3-0.6,0.6-0.6h1c0.3,0,0.6,0.3,0.6,0.6v1.4H6.2V5.1c0,0,0-0.1-0.1-0.1H5.2c0,0-0.1,0-0.1,0.1v1.4H4.6V5.1z
		 M6.7,15.2c0,0.3-0.3,0.5-0.6,0.5h-1c-0.3,0-0.6-0.2-0.6-0.5v-1.8h0.5v1.7c0,0,0,0,0.1,0h0.9c0,0,0.1,0,0.1,0v-1.7h0.5V15.2z
		 M11.3,15.2c0,0.3-0.3,0.5-0.6,0.5h-1c-0.3,0-0.6-0.2-0.6-0.5v-1.8h0.5v1.7c0,0,0,0,0.1,0h0.9c0,0,0.1,0,0.1,0v-1.7h0.5V15.2z
		 M15.8,15.2c0,0.3-0.3,0.5-0.6,0.5h-1c-0.3,0-0.6-0.2-0.6-0.5v-1.8h0.5v1.7c0,0,0,0,0.1,0h0.9c0,0,0.1,0,0.1,0v-1.7h0.5V15.2z
		 M16.2,13.3h-0.4h-0.5h-1h-0.5h-2.5h-0.5h-1H9.2H6.7H6.2h-1H4.6H4.2v-1h0.4h0.5h1h0.5h2.5h0.5h1h0.5h2.5h0.5h1h0.5h0.4V13.3z
		 M4.6,11.9V8h0.5v4H4.6z M6.2,11.9V8h0.5v4H6.2z M9.2,11.9V8h0.5v4H9.2z M10.7,11.9V8h0.5v4H10.7z M13.7,11.9V8h0.5v4H13.7z
		 M15.3,11.9V8h0.5v4H15.3z M16.2,7.7h-0.4h-0.5h-1h-0.5h-2.5h-0.5h-1H9.2H6.7H6.2h-1H4.6H4.2V6.7h0.4h0.5h1h0.5h2.5h0.5h1h0.5h2.5
		h0.5h1h0.5h0.4V7.7z"/>
</g>
</svg>
