<?xml version="1.0" encoding="utf-8"?>
<!-- Generator: Adobe Illustrator 21.0.0, SVG Export Plug-In . SVG Version: 6.00 Build 0)  -->
<svg version="1.1" id="Layer_1" xmlns="http://www.w3.org/2000/svg" xmlns:xlink="http://www.w3.org/1999/xlink" x="0px" y="0px"
	 viewBox="0 0 55 70" style="enable-background:new 0 0 55 70;" xml:space="preserve">
<style type="text/css">
	.st0{fill:#6CA4A5;}
</style>
<g id="Symbol_6_3" transform="translate(13461 -1445.875)">
	<path id="Subtraction_131" class="st0" d="M-13410.7,1505h-4.3c-1.4,0-2.5-1-2.5-2.4v-7.9h2.4v7.9c0,0.1,0.1,0.1,0.2,0.1h4.3
		c0.1,0,0.2,0,0.2-0.1v-7.9h2.4v7.9C-13408.2,1504-13409.4,1505.1-13410.7,1505z M-13431.4,1505h-4.3c-1.4,0-2.5-1-2.5-2.4v-7.9h2.4
		v7.9c0,0.1,0.1,0.1,0.2,0.1h4.3c0.1,0,0.2,0,0.2-0.1v-7.9h2.4v7.9C-13428.9,1504-13430,1505.1-13431.4,1505
		C-13431.3,1505-13431.4,1505-13431.4,1505L-13431.4,1505z M-13452,1505h-4.3c-1.4,0-2.5-1-2.5-2.4v-7.9h2.4v7.9
		c0,0.1,0.1,0.1,0.2,0.1h4.3c0.1,0,0.2,0,0.2-0.1v-7.9h2.4v7.9C-13449.5,1504-13450.6,1505.1-13452,1505
		C-13451.9,1505-13452,1505-13452,1505L-13452,1505z M-13406.3,1493.8h-54.5v-4.7h54.5V1493.8z M-13408.1,1487.7h-2.4v-17.8h2.4
		L-13408.1,1487.7L-13408.1,1487.7z M-13415.2,1487.7h-2.4v-17.8h2.4L-13415.2,1487.7L-13415.2,1487.7z M-13428.8,1487.7h-2.4v-17.8
		h2.4C-13428.8,1469.9-13428.8,1487.7-13428.8,1487.7z M-13435.8,1487.7h-2.4v-17.8h2.4
		C-13435.8,1469.9-13435.8,1487.7-13435.8,1487.7z M-13449.5,1487.7h-2.4v-17.8h2.4C-13449.5,1469.9-13449.5,1487.7-13449.5,1487.7z
		 M-13456.5,1487.7h-2.4v-17.8h2.4C-13456.5,1469.9-13456.5,1487.7-13456.5,1487.7z M-13406.2,1468.4h-54.5v-4.2h54.5
		L-13406.2,1468.4L-13406.2,1468.4z M-13415.2,1463.3h-2.4v-6.4c0-1.4,1.1-2.5,2.5-2.5h4.3c1.4,0,2.5,1.1,2.5,2.5v6.4h-2.4v-6.3
		l-0.2-0.2h-4.2l-0.2,0.2L-13415.2,1463.3L-13415.2,1463.3z M-13435.8,1463.3h-2.4v-6.4c0-1.4,1.1-2.5,2.5-2.5h4.3
		c1.4,0,2.5,1.1,2.5,2.5l0,0v6.4h-2.4v-6.3l-0.2-0.2h-4.2l-0.2,0.2L-13435.8,1463.3L-13435.8,1463.3z M-13456.5,1463.3h-2.4v-6.4
		c0-1.4,1.1-2.5,2.5-2.5l0,0h4.3c1.4,0,2.5,1.1,2.5,2.5l0,0v6.4h-2.4v-6.3l-0.2-0.2h-4.2l-0.2,0.2L-13456.5,1463.3L-13456.5,1463.3z
		"/>
</g>
</svg>
