<svg xmlns="http://www.w3.org/2000/svg" viewBox="13461 -1445.875 55.859 67.342">
  <defs>
    <style>
      .cls-1 {
        fill: #6ca4a5;
      }
    </style>
  </defs>
  <g id="Symbol_6_3" data-name="Symbol 6 – 3" transform="translate(13461 -1445.875)">
    <path id="Subtraction_131" data-name="Subtraction 131" class="cls-1" d="M51.281,67.342H46.834a2.534,2.534,0,0,1-2.594-2.464v-8.1H46.66v8.054c0,.13.092.13.219.13h4.358c.128,0,.22,0,.22-.13V56.78h2.422v8.1A2.536,2.536,0,0,1,51.281,67.342Zm-21.168,0H25.664a2.536,2.536,0,0,1-2.6-2.464v-8.1H25.49v8.054c0,.13.091.13.219.13h4.359c.126,0,.219,0,.219-.13V56.78h2.419v8.1A2.5,2.5,0,0,1,30.112,67.342Zm-21.129,0H4.536a2.536,2.536,0,0,1-2.6-2.464v-8.1H4.361v8.054c0,.13.092.13.22.13H8.939c.128,0,.22,0,.22-.13V56.78h2.419v8.1A2.5,2.5,0,0,1,8.983,67.342Zm46.875-11.53H0v-4.8H55.859v4.8Zm-1.935-6.249H51.5V31.3h2.419V49.563Zm-7.218,0H44.284V31.3h2.423V49.561Zm-13.956,0H30.331V31.3H32.75V49.563Zm-7.216,0H23.116V31.3h2.418V49.563Zm-13.953,0H9.159V31.3h2.422V49.563Zm-7.22,0H1.941V31.3H4.361V49.563Zm51.5-19.721H0V25.528H55.859v4.314ZM46.708,24.6H44.284V18a2.6,2.6,0,0,1,2.6-2.6h4.444a2.6,2.6,0,0,1,2.6,2.6V24.56H51.5V18.091l-.224-.224H46.926l-.22.225V24.6Zm-21.173,0H23.116V18a2.6,2.6,0,0,1,2.593-2.6h4.448a2.6,2.6,0,0,1,2.6,2.6V24.56H30.331V18.091l-.22-.224H25.754l-.22.225V24.6Zm-21.173,0H1.941V18a2.6,2.6,0,0,1,2.6-2.6H8.983a2.6,2.6,0,0,1,2.6,2.6V24.56H9.159V18.091l-.22-.224H4.585l-.224.225V24.6ZM14.324,2.087v0a38.9,38.9,0,0,1,22.431-.812A40.954,40.954,0,0,0,26.94.085,40.516,40.516,0,0,0,14.324,2.087Z"/>
  </g>
</svg>
