<?xml version="1.0" encoding="utf-8"?>
<!-- Generator: Adobe Illustrator 21.0.0, SVG Export Plug-In . SVG Version: 6.00 Build 0)  -->
<svg version="1.1" id="Layer_1" xmlns="http://www.w3.org/2000/svg" xmlns:xlink="http://www.w3.org/1999/xlink" x="0px" y="0px"
	 viewBox="0 0 329.9 25" style="enable-background:new 0 0 329.9 25;" xml:space="preserve">
<style type="text/css">
	.st0{fill:#B4D0D0;}
	.st1{fill:#FFFFFF;}
</style>
<path id="Path_2135" class="st0" d="M18.8,24.8h-4.1C14,24.9,13.4,24.5,13,24l-5.1-7.8c-0.2-0.3-0.4-0.5-0.6-0.6
	c-0.3-0.1-0.7-0.2-1-0.2H4.5v9.5H0V0.6h7.3c1.4,0,2.8,0.2,4.2,0.5c1,0.3,2,0.8,2.9,1.4c0.8,0.6,1.3,1.3,1.7,2.2s0.6,1.9,0.5,2.9
	c0,0.8-0.1,1.6-0.3,2.3s-0.6,1.4-1,2c-0.5,0.6-1,1.2-1.7,1.6c-0.7,0.5-1.5,0.8-2.3,1c0.3,0.2,0.6,0.4,0.8,0.6
	c0.3,0.3,0.4,0.5,0.7,0.8L18.8,24.8z M7.3,12c0.7,0,1.5-0.1,2.2-0.3c0.6-0.2,1.1-0.5,1.6-0.8c0.4-0.3,0.7-0.8,0.8-1.4
	c0.3-0.5,0.4-1.1,0.3-1.7c0.1-1.1-0.4-2.1-1.3-2.8c-0.7-0.7-2-0.9-3.7-0.9H4.4v8.1L7.3,12L7.3,12z"/>
<g id="Group_10595" transform="translate(447.393 26)">
	<path id="Path_2136" class="st0" d="M-169.2-1.2h-3.6c-0.3,0-0.7-0.1-0.9-0.3c-0.3-0.2-0.4-0.4-0.5-0.7l-1.9-4.9h-10l-1.9,4.9
		c-0.1,0.3-0.3,0.5-0.5,0.7c-0.3,0.2-0.6,0.3-0.9,0.3h-3.6l9.6-24.3h4.6L-169.2-1.2z M-177-10.3l-3-8.2c-0.2-0.4-0.4-0.9-0.4-1.4
		c-0.1-0.5-0.3-1-0.4-1.6c-0.2,0.5-0.3,1-0.4,1.6c-0.2,0.4-0.3,0.9-0.4,1.4l-2.9,7.9L-177-10.3L-177-10.3z"/>
	<path id="Path_2137" class="st0" d="M-153.7-21.1c-0.1,0.2-0.3,0.4-0.4,0.5c-0.2,0.1-0.3,0.2-0.5,0.2c-0.3,0-0.6-0.1-0.8-0.3
		c-0.3-0.2-0.7-0.4-0.9-0.6c-0.4-0.2-0.9-0.5-1.4-0.6c-0.6-0.2-1.2-0.3-1.9-0.3c-0.6,0-1.1,0.1-1.7,0.3c-0.4,0.1-0.8,0.4-1.2,0.6
		c-0.3,0.3-0.5,0.6-0.7,0.9c-0.2,0.4-0.3,0.8-0.3,1.3s0.2,1,0.4,1.4c0.4,0.4,0.8,0.7,1.3,0.9s1.2,0.5,1.8,0.7c0.7,0.2,1.3,0.4,2,0.7
		s1.4,0.5,2,0.8c0.7,0.3,1.3,0.7,1.8,1.3c0.5,0.5,1,1.1,1.3,1.8c0.3,0.8,0.5,1.7,0.4,2.5c0,1-0.2,2.1-0.5,3c-0.3,1-0.9,1.8-1.7,2.4
		c-0.7,0.7-1.6,1.3-2.6,1.7c-1.1,0.4-2.3,0.7-3.6,0.6c-0.8,0-1.6-0.1-2.3-0.3c-0.8-0.1-1.5-0.4-2.2-0.6c-0.6-0.3-1.3-0.6-1.9-0.9
		c-0.6-0.3-1.1-0.8-1.6-1.4l1.4-2.2c0.1-0.2,0.2-0.3,0.4-0.3c0.2-0.1,0.3-0.2,0.5-0.2c0.3,0,0.6,0.1,0.8,0.3
		c0.4,0.3,0.7,0.6,1.1,0.8c0.5,0.3,1,0.6,1.6,0.8c0.7,0.3,1.5,0.4,2.2,0.3c1.1,0.1,2.1-0.2,3-0.8c0.7-0.7,1.1-1.6,1-2.6
		c0-0.5-0.2-1.1-0.4-1.6c-0.3-0.4-0.8-0.8-1.3-1c-0.6-0.3-1.2-0.6-1.8-0.7c-0.7-0.2-1.4-0.4-2-0.6c-0.7-0.3-1.4-0.5-2-0.8
		c-0.7-0.3-1.3-0.7-1.8-1.3c-0.5-0.5-1-1.2-1.3-1.9c-0.3-0.9-0.5-1.9-0.4-2.8c0-0.9,0.2-1.7,0.5-2.5s0.8-1.6,1.5-2.2
		c0.7-0.6,1.5-1.2,2.4-1.6c1.1-0.4,2.3-0.6,3.5-0.6c1.4,0,2.7,0.3,4,0.7c1.1,0.4,2.2,1,3,1.9L-153.7-21.1z"/>
	<path id="Path_2138" class="st0" d="M-143.6-1.2h-4.6v-24.3h4.6V-1.2z"/>
	<path id="Path_2139" class="st0" d="M-117.5-1.2h-3.6c-0.3,0-0.7-0.1-0.9-0.3c-0.3-0.2-0.4-0.4-0.5-0.7l-1.9-4.9h-10l-1.9,4.9
		c-0.1,0.3-0.3,0.5-0.5,0.7c-0.3,0.2-0.6,0.3-0.9,0.3h-3.6l9.5-24.3h4.6L-117.5-1.2z M-125.5-10.3l-2.9-8.2
		c-0.2-0.4-0.4-0.9-0.4-1.4c-0.1-0.5-0.3-1-0.4-1.6c-0.2,0.5-0.3,1-0.4,1.6c-0.2,0.4-0.3,0.9-0.4,1.4l-2.9,7.9L-125.5-10.3
		L-125.5-10.3z"/>
</g>
<path id="Path_2140" class="st0" d="M26,21.2v-4.6l3.7-4.1L26,9.3V4.2h9.4l1.4-3.7H21.5v24.3h15.3l-1.4-3.6L26,21.2z"/>
<path id="Path_2141" class="st1" d="M56.8,19.4c-0.2-0.2-0.4-0.3-0.6-0.3c-0.2,0-0.3,0-0.3,0.1s-0.3,0.2-0.3,0.3
	c-0.3,0.3-0.7,0.6-1.2,0.8c-0.4,0.3-0.8,0.5-1.3,0.5c-0.4,0.2-0.9,0.3-1.4,0.3c-0.6,0.1-1.1,0.1-1.7,0.1c-1,0-2-0.2-2.9-0.6
	c-0.9-0.4-1.7-1-2.4-1.7c-0.7-0.8-1.3-1.7-1.6-2.7c-0.4-1.1-0.6-2.3-0.6-3.6c0-1.2,0.2-2.4,0.5-3.6c0.3-1,0.8-1.9,1.5-2.7
	c0.6-0.8,1.4-1.3,2.3-1.7c1-0.4,2-0.6,3-0.6c0.6,0,1.1,0.1,1.7,0.2c0.5,0.1,0.8,0.2,1.4,0.3c0.3,0.2,0.6,0.3,0.9,0.4
	c0.2,0.2,0.4,0.4,0.6,0.4c0.2,0.2,0.4,0.3,0.6,0.3c0.2,0.1,0.3,0.2,0.5,0.2s0.4-0.1,0.6-0.2c0.2,0,0.2-0.1,0.3-0.3l1.5-2.1
	c-1-1-2.2-1.8-3.6-2.3c-1.5-0.6-3-0.9-4.6-0.8c-1.6,0-3.3,0.3-4.8,0.8c-1.4,0.6-2.7,1.4-3.8,2.5s-1.9,2.5-2.4,4
	c-0.3,0.6-0.5,1.3-0.6,2l3.2,2.9l-3.1,3.6c0.1,0.5,0.3,1,0.4,1.6c0.5,1.5,1.4,2.8,2.4,4c1.1,1,2.3,1.9,3.7,2.5
	c1.5,0.6,3.2,0.9,4.8,0.8c1.8,0,3.6-0.3,5.2-0.9c1.4-0.6,2.6-1.6,3.6-2.8L56.8,19.4z"/>
<path id="Path_2142" class="st1" d="M83.8,9.2c-0.3-1-0.7-2.1-1.1-3c-0.5-0.9-1.1-1.7-1.8-2.4s-1.5-1.4-2.4-1.9c-1-0.5-2-0.9-3-1.3
	c-1.1-0.2-2.3-0.3-3.5-0.3c-1.7,0-3.4,0.3-5,0.9c-1.4,0.6-2.7,1.4-3.9,2.5c-1.1,1.2-1.9,2.5-2.5,4c-0.2,0.6-0.5,1.2-0.6,1.9l3.2,2.9
	L60.1,16c0.2,0.5,0.3,1,0.5,1.6c0.6,1.5,1.4,2.8,2.5,4c1.1,1.1,2.4,2,3.9,2.5c3.2,1.3,6.8,1.3,10,0c1.4-0.6,2.7-1.4,3.9-2.5
	c1.1-1.1,1.9-2.5,2.4-4c0.6-1.6,0.9-3.2,0.8-4.9C84.3,11.5,84.1,10.3,83.8,9.2z M79.1,16.3c-0.3,0.9-0.8,1.8-1.5,2.5
	s-1.5,1.3-2.4,1.7c-1,0.4-2.1,0.6-3.1,0.6c-1.1,0-2.2-0.2-3.1-0.6c-0.9-0.3-1.8-0.9-2.4-1.7c-0.7-0.8-1.2-1.7-1.5-2.7
	c-0.7-2.3-0.7-4.8,0-7.1c0.3-1,0.8-1.9,1.5-2.7C67.3,5.6,68.1,5,69,4.6C70,4.2,71.1,4,72.1,4c1.1,0,2.2,0.2,3.1,0.6
	c0.9,0.3,1.8,0.9,2.4,1.7C78.3,7.1,78.8,8,79.1,9c0.1,0.2,0.1,0.4,0.2,0.6l3.2,3L79.1,16.3z"/>
<path id="Path_2143" class="st1" d="M120.2,0.5v8.9l3.6,3.1l-3.6,3.9c0,0.3,0.1,0.7,0.1,1L107.6,1.2c-0.1-0.1-0.2-0.2-0.3-0.3
	s-0.2-0.2-0.3-0.2c-0.1-0.1-0.2-0.1-0.3-0.1h-3.1v9.2l3,2.7l-3,3.5v0.3c0,0.3,0.1,0.8,0.1,1.2L91.2,1.3C91.1,1.2,91,1.1,90.9,1
	c0,0-0.2-0.2-0.3-0.2c-0.1-0.1-0.2-0.1-0.3-0.1h-2.9v9l3.3,3l-3.3,3.7v8.5h4V10c0-0.7,0-1.3-0.1-2l12.8,16.1
	c0.2,0.2,0.5,0.4,0.7,0.6c0.3,0.1,0.5,0.2,0.8,0.2h2.4v-15c0-0.7,0-1.3-0.1-2l12.6,16c0.2,0.2,0.5,0.4,0.7,0.6
	c0.3,0.1,0.5,0.2,0.8,0.2h2.3V0.4h-4.1V0.5z"/>
<path id="Path_2144" class="st1" d="M132.4,21.2v-4.7l3.7-4l-3.7-3.2V4.2h9.4l1.4-3.7h-15.3v24.3h15.3l-1.4-3.6H132.4z"/>
<path id="Path_2145" class="st1" d="M164,19.4c-0.2-0.2-0.4-0.3-0.6-0.3c-0.2,0-0.3,0-0.3,0.1s-0.3,0.2-0.3,0.3
	c-0.3,0.3-0.7,0.6-1.2,0.8c-0.4,0.3-0.8,0.5-1.3,0.5c-0.4,0.2-0.9,0.3-1.4,0.3c-0.6,0.1-1.1,0.1-1.7,0.1c-1,0-2-0.2-2.9-0.6
	c-0.9-0.4-1.7-1-2.4-1.7c-0.7-0.8-1.3-1.7-1.6-2.7c-0.4-1.1-0.6-2.3-0.6-3.6c0-1.2,0.2-2.4,0.5-3.6c0.3-1,0.8-1.9,1.5-2.7
	c0.6-0.8,1.4-1.3,2.3-1.7c1-0.4,2-0.6,3-0.6c0.6,0,1.1,0.1,1.7,0.2c0.5,0.1,0.8,0.2,1.4,0.3c0.3,0.2,0.6,0.3,0.9,0.4
	c0.2,0.1,0.5,0.3,0.7,0.4c0.2,0.2,0.4,0.3,0.6,0.3c0.2,0.1,0.3,0.2,0.5,0.2s0.4-0.1,0.6-0.2c0.2-0.1,0.3-0.2,0.3-0.3l1.5-2.1
	c-1-1-2.2-1.8-3.6-2.3c-1.5-0.6-3.1-0.9-4.7-0.8c-1.6,0-3.3,0.3-4.8,0.8c-1.4,0.6-2.7,1.4-3.8,2.5s-1.9,2.5-2.4,4
	c-0.3,0.6-0.4,1.2-0.5,1.9l3.5,3l-3.4,3.7c0.1,0.4,0.3,0.9,0.4,1.4c0.5,1.5,1.4,2.8,2.4,4c1.1,1,2.3,1.9,3.7,2.5
	c1.5,0.6,3.2,0.9,4.8,0.8c1.8,0,3.6-0.3,5.2-0.9c1.4-0.6,2.6-1.6,3.6-2.8L164,19.4z"/>
<path id="Path_2146" class="st1" d="M166.6,0.5v3.8h7.3v5.1l3.6,3.1l-3.6,4v8.3h4.5V4.3h7.3V0.5L166.6,0.5L166.6,0.5z"/>
<path id="Path_2147" class="st1" d="M188.9,0.5v8.8l3.6,3.2l-3.6,4v8.3h4.6V0.5H188.9z"/>
<path id="Path_2148" class="st1" d="M215.4,0.5v8.8l3.6,3.2l-3.6,4c0,0.3,0,0.6,0.1,0.9L202.7,1.2c-0.1-0.1-0.2-0.2-0.3-0.3
	s-0.2-0.2-0.3-0.2c-0.1-0.1-0.2-0.1-0.3-0.1h-3v8.9l3.6,3.1l-3.6,3.9v8.4h4v-15c0-0.7,0-1.3-0.1-2L215.5,24c0.2,0.2,0.5,0.4,0.7,0.6
	c0.3,0.1,0.5,0.2,0.8,0.2h2.3V0.4h-3.9V0.5z"/>
<path id="Path_2149" class="st1" d="M236.6,12.7v2.5c0,0.2,0.1,0.5,0.3,0.6c0.2,0.2,0.5,0.3,0.7,0.3h3v4.4c-0.7,0.3-1.4,0.6-2,0.8
	c-0.8,0.2-1.6,0.3-2.4,0.3c-1.2,0-2.4-0.2-3.5-0.6c-1-0.4-1.9-1-2.6-1.8c-0.7-0.8-1.3-1.7-1.7-2.7c-0.4-1.2-0.7-2.4-0.6-3.7
	c0-1.2,0.2-2.4,0.5-3.6c0.3-1,0.8-1.9,1.6-2.7c0.7-0.8,1.5-1.4,2.4-1.8c1-0.4,2.1-0.7,3.2-0.6c0.6,0,1.3,0.1,1.9,0.2
	c0.5,0.1,1,0.2,1.5,0.3c0.4,0.2,0.8,0.3,1.3,0.5c0.4,0.2,0.8,0.4,1.2,0.6c0.3,0.2,0.7,0.4,1,0.3c0.3-0.1,0.6-0.3,0.8-0.6l1.4-2
	c-0.5-0.4-1-0.8-1.7-1.4c-0.6-0.4-1.3-0.7-2-0.9c-0.8-0.3-1.6-0.5-2.4-0.6c-0.9-0.2-1.8-0.3-2.7-0.3c-1.8,0-3.5,0.3-5.2,0.8
	c-1.5,0.6-2.8,1.4-4,2.5c-1.1,1.1-1.9,2.5-2.5,4c-0.3,0.6-0.4,1.2-0.5,1.9l3.5,3l-3.2,3.6c0.1,0.5,0.3,0.9,0.4,1.5
	c0.6,1.5,1.5,2.8,2.6,4c1.2,1.1,2.6,1.9,4.1,2.5c1.7,0.6,3.5,0.9,5.3,0.8c1.5,0,3-0.2,4.5-0.6c1.4-0.4,2.8-1.1,4-2v-9.6h-8.2V12.7z"
	/>
</svg>
