<svg xmlns="http://www.w3.org/2000/svg" viewBox="13193 -3667 329.916 25">
  <defs>
    <style>
      .cls-1 {
        fill: #3d8182;
      }

      .cls-2 {
        fill: #6c6e6f;
      }
    </style>
  </defs>
  <g id="Symbol_9_1" data-name="Symbol 9 – 1" transform="translate(13000 -3693)">
    <path id="Path_2135" data-name="Path 2135" class="cls-1" d="M18.828,24.568H14.749a1.782,1.782,0,0,1-1.674-.837L7.95,15.886a1.776,1.776,0,0,0-.628-.628,2.625,2.625,0,0,0-1.046-.209H4.5v9.519H0V.3H7.322a15.709,15.709,0,0,1,4.184.523,10.836,10.836,0,0,1,2.929,1.36,4.778,4.778,0,0,1,1.674,2.2,6.938,6.938,0,0,1,.523,2.929,8.157,8.157,0,0,1-.314,2.3A7.234,7.234,0,0,1,15.272,11.6,5.988,5.988,0,0,1,13.6,13.166a7.734,7.734,0,0,1-2.3,1.046,4.366,4.366,0,0,1,.837.628c.314.314.418.523.732.837ZM7.322,11.806a6.954,6.954,0,0,0,2.2-.314,5.544,5.544,0,0,0,1.569-.837,2.325,2.325,0,0,0,.837-1.36,2.839,2.839,0,0,0,.314-1.674A3.305,3.305,0,0,0,10.983,4.8C10.251,4.066,9,3.856,7.322,3.856H4.5v8.054l2.824-.1Z" transform="translate(193 26.223)"/>
    <g id="Group_10595" data-name="Group 10595" transform="translate(447.393 26)">
      <path id="Path_2136" data-name="Path 2136" class="cls-1" d="M267.049,24.568h-3.557a1.46,1.46,0,0,1-.941-.314,1.21,1.21,0,0,1-.523-.732l-1.883-4.916H250.1l-1.883,4.916a1.877,1.877,0,0,1-.523.732,1.687,1.687,0,0,1-.941.314H243.2L252.823.3h4.6Zm-7.845-9.1-3.033-8.159a4.175,4.175,0,0,1-.418-1.36c-.1-.523-.314-1.046-.418-1.569a11.845,11.845,0,0,0-.418,1.569,6.062,6.062,0,0,0-.418,1.36l-2.929,7.95,7.636.209Z" transform="translate(-243.2 0.223)"/>
      <path id="Path_2137" data-name="Path 2137" class="cls-1" d="M281.472,4.716a2.865,2.865,0,0,1-.418.523c-.209.1-.314.209-.523.209a1.391,1.391,0,0,1-.837-.314,4.914,4.914,0,0,1-.941-.628,8.466,8.466,0,0,0-1.36-.628,5.067,5.067,0,0,0-1.883-.314,4.336,4.336,0,0,0-1.674.314,4.06,4.06,0,0,0-1.151.628,5.755,5.755,0,0,0-.732.941,2.484,2.484,0,0,0-.314,1.255,2.616,2.616,0,0,0,.418,1.36,3.952,3.952,0,0,0,1.255.941c.523.209,1.151.523,1.778.732a11.157,11.157,0,0,1,1.987.732c.732.314,1.36.523,1.987.837a6.87,6.87,0,0,1,1.778,1.255A5.468,5.468,0,0,1,282.1,14.34a6.329,6.329,0,0,1,.418,2.51A9.721,9.721,0,0,1,282,19.884a4.819,4.819,0,0,1-1.674,2.406,7.49,7.49,0,0,1-2.615,1.674,9.382,9.382,0,0,1-3.556.628,8.713,8.713,0,0,1-2.3-.314,13.471,13.471,0,0,1-2.2-.628,15.738,15.738,0,0,1-1.883-.941,4.926,4.926,0,0,1-1.569-1.36l1.36-2.2a.56.56,0,0,1,.418-.314c.209-.1.314-.209.523-.209a1.188,1.188,0,0,1,.837.314,10.966,10.966,0,0,0,1.15.837,10.665,10.665,0,0,0,1.569.837,4.873,4.873,0,0,0,2.2.314,4.987,4.987,0,0,0,3.034-.837,3.18,3.18,0,0,0,1.046-2.615,3.467,3.467,0,0,0-.418-1.569,4.186,4.186,0,0,0-1.255-1.046,9.049,9.049,0,0,0-1.778-.732c-.732-.209-1.36-.418-1.987-.628-.732-.314-1.36-.523-1.987-.837a5.469,5.469,0,0,1-1.778-1.255,5.936,5.936,0,0,1-1.255-1.883,7.656,7.656,0,0,1-.418-2.824,6.732,6.732,0,0,1,.523-2.51A7.332,7.332,0,0,1,269.443,2,9.548,9.548,0,0,1,271.849.428,10.707,10.707,0,0,1,275.3-.2a12.731,12.731,0,0,1,3.975.732,7.476,7.476,0,0,1,3.034,1.883Z" transform="translate(-242.141 0.2)"/>
      <path id="Path_2138" data-name="Path 2138" class="cls-1" d="M290.6,24.568H286V.3h4.6Z" transform="translate(-241.23 0.223)"/>
      <path id="Path_2139" data-name="Path 2139" class="cls-1" d="M316.449,24.568h-3.556a1.46,1.46,0,0,1-.941-.314,1.21,1.21,0,0,1-.523-.732l-1.883-4.916H299.5l-1.883,4.916a1.876,1.876,0,0,1-.523.732,1.687,1.687,0,0,1-.941.314H292.6L302.119.3h4.6Zm-8.054-9.1-2.929-8.159a4.173,4.173,0,0,1-.419-1.36c-.1-.523-.314-1.046-.418-1.569a11.839,11.839,0,0,0-.418,1.569,9.713,9.713,0,0,0-.418,1.36l-2.929,7.95,7.531.209Z" transform="translate(-240.926 0.223)"/>
    </g>
    <path id="Path_2140" data-name="Path 2140" class="cls-1" d="M25.1,21.011v-4.6l3.661-4.08L25.1,9.087V3.961h9.414L35.872.3H20.6V24.568H35.872l-1.36-3.556Z" transform="translate(193.948 26.223)"/>
    <path id="Path_2141" data-name="Path 2141" class="cls-2" d="M55.115,19.142a.9.9,0,0,0-.628-.314c-.209,0-.314,0-.314.1s-.314.209-.314.314a4.644,4.644,0,0,1-1.151.837,2.685,2.685,0,0,1-1.255.523,5.19,5.19,0,0,1-1.36.314,8.455,8.455,0,0,1-1.674.1,7.019,7.019,0,0,1-2.929-.628,7.166,7.166,0,0,1-2.406-1.674A6.907,6.907,0,0,1,41.516,16a12.64,12.64,0,0,1-.628-3.556,12.684,12.684,0,0,1,.523-3.556,8.54,8.54,0,0,1,1.464-2.72,5.259,5.259,0,0,1,2.3-1.674,8.664,8.664,0,0,1,3.033-.628,7.279,7.279,0,0,1,1.674.209c.523.1.837.209,1.36.314a6.6,6.6,0,0,0,.941.418c.209.209.418.418.628.418a.9.9,0,0,0,.628.314c.209.1.314.209.523.209a1.122,1.122,0,0,0,.628-.209c.209,0,.209-.1.314-.314L56.37,3.138a11,11,0,0,0-3.556-2.3A12.055,12.055,0,0,0,48.211,0,13.623,13.623,0,0,0,43.4.837a11.872,11.872,0,0,0-3.766,2.51,10.145,10.145,0,0,0-2.406,3.975A14.532,14.532,0,0,0,36.6,9.31l3.243,2.929L36.7,15.795c.1.523.314,1.046.418,1.569a11.913,11.913,0,0,0,2.406,3.975,12.668,12.668,0,0,0,3.661,2.51A11.627,11.627,0,0,0,48,24.686a13.343,13.343,0,0,0,5.23-.941,9.286,9.286,0,0,0,3.557-2.824Z" transform="translate(194.685 26.209)"/>
    <path id="Path_2142" data-name="Path 2142" class="cls-2" d="M81.149,8.991A15.124,15.124,0,0,0,80,5.958a11.846,11.846,0,0,0-1.778-2.406,10.648,10.648,0,0,0-2.406-1.883A16.569,16.569,0,0,0,72.781.414,17.632,17.632,0,0,0,69.329.1a12.642,12.642,0,0,0-5.021.941,12.362,12.362,0,0,0-3.87,2.51,12.867,12.867,0,0,0-2.51,3.975A19.81,19.81,0,0,0,57.3,9.41l3.243,2.929L57.4,15.79c.209.523.314,1.046.523,1.569a12.2,12.2,0,0,0,2.51,3.975,10.768,10.768,0,0,0,3.87,2.51,13.86,13.86,0,0,0,10.042,0,12.362,12.362,0,0,0,3.87-2.51,10.958,10.958,0,0,0,2.406-3.975,12.463,12.463,0,0,0,.837-4.916A7.786,7.786,0,0,0,81.149,8.991ZM76.442,16.1a6.636,6.636,0,0,1-1.464,2.51,6.27,6.27,0,0,1-2.406,1.674,9.844,9.844,0,0,1-3.138.628,7.3,7.3,0,0,1-3.138-.628,5.576,5.576,0,0,1-2.406-1.674,6.244,6.244,0,0,1-1.464-2.72,12.353,12.353,0,0,1,0-7.113,8.54,8.54,0,0,1,1.464-2.72A6.27,6.27,0,0,1,66.3,4.389a9.844,9.844,0,0,1,3.138-.628,7.3,7.3,0,0,1,3.138.628,5.576,5.576,0,0,1,2.406,1.674,6.245,6.245,0,0,1,1.464,2.72c.1.209.1.418.209.628l3.243,3.033Z" transform="translate(195.637 26.213)"/>
    <path id="Path_2143" data-name="Path 2143" class="cls-2" d="M116.35.3V9.191l3.556,3.138L116.35,16.2c0,.314.1.732.1,1.046L103.8,1.032a.781.781,0,0,0-.314-.314c-.1-.1-.209-.209-.314-.209a.517.517,0,0,0-.314-.1H99.718V9.61l3.033,2.72-3.033,3.452v.314c0,.314.1.837.1,1.151L87.27,1.032a.781.781,0,0,0-.314-.314s-.209-.209-.314-.209a.516.516,0,0,0-.314-.1H83.4v9l3.347,3.033L83.4,16.095v8.473h3.975V9.714a12.662,12.662,0,0,0-.1-1.987l12.761,16.109a3.908,3.908,0,0,0,.732.628,2.462,2.462,0,0,0,.837.209h2.406V9.714a12.66,12.66,0,0,0-.1-1.987l12.552,16a3.908,3.908,0,0,0,.732.628,2.462,2.462,0,0,0,.837.209h2.3V.3Z" transform="translate(196.838 26.223)"/>
    <path id="Path_2144" data-name="Path 2144" class="cls-2" d="M126.8,21.011V16.3l3.661-3.975L126.8,9.087V3.961h9.414L137.572.3H122.3V24.568h15.272l-1.36-3.556Z" transform="translate(198.629 26.223)"/>
    <path id="Path_2145" data-name="Path 2145" class="cls-2" d="M157.61,19.142a.9.9,0,0,0-.628-.314c-.209,0-.314,0-.314.1s-.314.209-.314.314a4.642,4.642,0,0,1-1.151.837,2.685,2.685,0,0,1-1.255.523,2.9,2.9,0,0,1-1.36.314,8.455,8.455,0,0,1-1.674.1,7.019,7.019,0,0,1-2.929-.628,7.165,7.165,0,0,1-2.406-1.674A6.907,6.907,0,0,1,144.012,16a12.641,12.641,0,0,1-.628-3.556,12.686,12.686,0,0,1,.523-3.556,8.54,8.54,0,0,1,1.464-2.72,5.259,5.259,0,0,1,2.3-1.674,8.665,8.665,0,0,1,3.033-.628,7.278,7.278,0,0,1,1.674.209c.523.1.837.209,1.36.314a6.6,6.6,0,0,0,.941.418c.209.1.523.314.732.418a.9.9,0,0,0,.628.314c.209.1.314.209.523.209a1.122,1.122,0,0,0,.628-.209q.314-.157.314-.314l1.464-2.092a11,11,0,0,0-3.556-2.3A11.129,11.129,0,0,0,150.706,0a13.623,13.623,0,0,0-4.812.837,11.872,11.872,0,0,0-3.766,2.51,10.145,10.145,0,0,0-2.406,3.975,6.349,6.349,0,0,0-.523,1.883l3.452,3.033L139.3,15.9c.1.418.314.941.418,1.36a11.912,11.912,0,0,0,2.406,3.975,12.669,12.669,0,0,0,3.661,2.51,11.628,11.628,0,0,0,4.812.837,13.343,13.343,0,0,0,5.23-.941,8.571,8.571,0,0,0,3.556-2.824Z" transform="translate(199.407 26.209)"/>
    <path id="Path_2146" data-name="Path 2146" class="cls-2" d="M159.3.3V4.066h7.322V9.191l3.556,3.138L166.622,16.3v8.264h4.5V4.066h7.322V.3Z" transform="translate(200.332 26.223)"/>
    <path id="Path_2147" data-name="Path 2147" class="cls-2" d="M180.6.3V9.087l3.556,3.243L180.6,16.3v8.264h4.6V.3Z" transform="translate(201.312 26.223)"/>
    <path id="Path_2148" data-name="Path 2148" class="cls-2" d="M206.632.3V9.087l3.557,3.243L206.632,16.3a2.9,2.9,0,0,0,.1.941L193.975,1.032a.781.781,0,0,0-.314-.314c-.1-.1-.209-.209-.314-.209a.517.517,0,0,0-.314-.1H190V9.3l3.556,3.138L190,16.3v8.368h3.975V9.714a12.656,12.656,0,0,0-.1-1.987l12.761,16.109a3.909,3.909,0,0,0,.732.628,2.461,2.461,0,0,0,.837.209h2.3V.3Z" transform="translate(201.745 26.223)"/>
    <path id="Path_2149" data-name="Path 2149" class="cls-2" d="M226.771,12.443v2.51a.745.745,0,0,0,.314.628.814.814,0,0,0,.732.314h3.033v4.393c-.732.314-1.36.628-1.987.837a7.9,7.9,0,0,1-2.406.314A9.214,9.214,0,0,1,223,20.811a6.478,6.478,0,0,1-2.615-1.778,7.382,7.382,0,0,1-1.674-2.72,9.948,9.948,0,0,1-.628-3.661,12.688,12.688,0,0,1,.523-3.556,7.124,7.124,0,0,1,1.569-2.72A6.558,6.558,0,0,1,222.587,4.6a7.8,7.8,0,0,1,3.243-.628,9.383,9.383,0,0,1,1.883.209,9.282,9.282,0,0,0,1.464.314c.418.209.837.314,1.255.523a11.4,11.4,0,0,0,1.151.628,1.374,1.374,0,0,0,1.046.314,1.626,1.626,0,0,0,.837-.628l1.36-1.987c-.523-.418-1.046-.837-1.674-1.36a11.592,11.592,0,0,0-1.987-.941,8.1,8.1,0,0,0-2.406-.628A11.4,11.4,0,0,0,226.038.1a16.61,16.61,0,0,0-5.23.837,11.743,11.743,0,0,0-3.975,2.51,11.743,11.743,0,0,0-2.51,3.975,6.348,6.348,0,0,0-.523,1.883l3.452,3.033-3.243,3.556c.1.523.314.941.418,1.464a12.5,12.5,0,0,0,2.615,3.975,13.389,13.389,0,0,0,4.08,2.51,14.649,14.649,0,0,0,5.335.837,16.111,16.111,0,0,0,4.5-.628,12.883,12.883,0,0,0,3.975-1.987V12.443h-8.159Z" transform="translate(202.84 26.213)"/>
  </g>
</svg>
