<?xml version="1.0" encoding="utf-8"?>
<!-- Generator: Adobe Illustrator 21.0.0, SVG Export Plug-In . SVG Version: 6.00 Build 0)  -->
<svg version="1.1" id="Layer_1" xmlns="http://www.w3.org/2000/svg" xmlns:xlink="http://www.w3.org/1999/xlink" x="0px" y="0px"
	 viewBox="0 0 50 50" style="enable-background:new 0 0 50 50;" xml:space="preserve">
<style type="text/css">
	.st0{fill:#FFFFFF;}
	.st1{fill:#F68B3F;}
	.st2{fill:#FDFDFE;}
</style>
<g>
	<circle class="st0" cx="25" cy="25" r="25"/>
</g>
<g>
	<g>
		<path class="st1" d="M27.3,23.8h3.5v1.8h-3.5V23.8z M19.3,23.8h3.5v1.8h-3.5V23.8z M11.4,23.8h3.5v1.8h-3.5V23.8z"/>
	</g>
	<g>
		<path class="st1" d="M25,3C12.9,3,3,12.9,3,25s9.8,22,22,22s22-9.8,22-22S37.1,3,25,3z M40.4,35.6H9.6v-2.1h30.9V35.6z M40.4,31.6
			H9.6V18.8h30.9V31.6z M40.4,17H9.6v-2.6h30.9V17z"/>
		<path class="st2" d="M25,47.2c-12.2,0-22.2-10-22.2-22.2S12.8,2.8,25,2.8s22.2,10,22.2,22.2S37.2,47.2,25,47.2z M25,3.3
			C13,3.3,3.3,13,3.3,25S13,46.7,25,46.7S46.7,37,46.7,25S37,3.3,25,3.3z M40.7,35.9H9.3v-2.7h31.4V35.9z M9.8,35.3h30.3v-1.6H9.8
			V35.3z M40.7,31.9H9.3V18.5h31.4V31.9z M9.8,31.4h30.3V19H9.8V31.4z M40.7,17.2H9.3v-3.1h31.4V17.2z M9.8,16.7h30.3v-2.1H9.8V16.7
			z"/>
	</g>
	<g>
		<path class="st1" d="M35.2,23.8h3.5v1.8h-3.5V23.8z"/>
	</g>
</g>
</svg>
