<svg xmlns="http://www.w3.org/2000/svg" viewBox="13738.435 -1428.97 54.895 59.502">
  <defs>
    <style>
      .cls-1 {
        fill: #6ca4a5;
      }
    </style>
  </defs>
  <g id="Symbol_7_3" data-name="Symbol 7 – 3" transform="translate(13723 -1440.875)">
    <path id="Path_1799" data-name="Path 1799" class="cls-1" d="M-366.327,424.327c-.676-.232-1.322-.418-1.942-.669a2.349,2.349,0,0,1-.854-4.038q4.178-4.023,8.458-7.937a2.2,2.2,0,0,1,3.744,1.323c.629,3.693,1.228,7.393,1.774,11.1a2.384,2.384,0,0,1-3.281,2.748c-.528-.163-1.052-.346-1.592-.525-4.154,10.123-11.451,16.117-22.551,16.112-11.064-.007-18.348-5.971-22.513-16.095-.587.185-1.19.4-1.8.566a2.308,2.308,0,0,1-3.089-2.489q.809-5.829,1.842-11.623a2.154,2.154,0,0,1,3.58-1.208q4.423,4.015,8.705,8.182a2.272,2.272,0,0,1-.779,3.772c-.688.31-1.419.527-2.124.784.59,4.623,8.453,11.278,13.218,11.134v-.943q-.008-17.447,0-34.892a1.307,1.307,0,0,0-.8-1.359,8.14,8.14,0,0,1-3.776-9.942,8.177,8.177,0,0,1,9.441-5.209,8.118,8.118,0,0,1,6.41,8.482,8.044,8.044,0,0,1-4.328,6.8,1.283,1.283,0,0,0-.592.9q-.049,17.841-.029,35.683a3.889,3.889,0,0,0,.045.425c4.6.039,11.585-5.959,12.832-11.083Zm-16.107-29.807a3.4,3.4,0,0,0,3.413-3.311,3.382,3.382,0,0,0-.946-2.43,3.381,3.381,0,0,0-2.394-1.035,3.36,3.36,0,0,0-3.4,3.3,3.387,3.387,0,0,0,.941,2.432A3.388,3.388,0,0,0-382.433,394.52Z" transform="translate(425.437 -371.036)"/>
  </g>
</svg>
