<?xml version="1.0" encoding="utf-8"?>
<!-- Generator: Adobe Illustrator 21.0.0, SVG Export Plug-In . SVG Version: 6.00 Build 0)  -->
<svg version="1.1" id="Layer_1" xmlns="http://www.w3.org/2000/svg" xmlns:xlink="http://www.w3.org/1999/xlink" x="0px" y="0px"
	 viewBox="0 0 55 70" style="enable-background:new 0 0 55 70;" xml:space="preserve">
<style type="text/css">
	.st0{fill:#6CA4A5;}
</style>
<g id="Symbol_7_3" transform="translate(13723 -1440.875)">
	<path id="Path_1799" class="st0" d="M-13679.3,1487.5c-0.7-0.2-1.3-0.4-1.9-0.7c-1.2-0.4-2-1.7-1.6-2.9c0.1-0.4,0.4-0.8,0.7-1.1
		c2.8-2.7,5.6-5.3,8.5-7.9c0.9-0.9,2.3-0.9,3.1,0c0.4,0.4,0.6,0.8,0.6,1.3c0.6,3.7,1.2,7.4,1.8,11.1c0.3,1.3-0.5,2.6-1.7,2.9
		c-0.5,0.1-1.1,0.1-1.5-0.1c-0.5-0.2-1.1-0.3-1.6-0.5c-4.2,10.1-11.5,16.1-22.6,16.1c-11.1,0-18.3-6-22.5-16.1
		c-0.6,0.2-1.2,0.4-1.8,0.6c-1.2,0.4-2.5-0.2-3-1.4c-0.1-0.4-0.2-0.7-0.1-1.1c0.5-3.9,1.2-7.8,1.8-11.6c0.2-1.2,1.3-2,2.5-1.7
		c0.4,0.1,0.8,0.3,1.1,0.5c2.9,2.7,5.9,5.4,8.7,8.2c0.9,0.9,0.9,2.3,0.1,3.2c-0.2,0.2-0.5,0.4-0.9,0.6c-0.7,0.3-1.4,0.5-2.1,0.8
		c0.6,4.6,8.5,11.3,13.2,11.1v-0.9c0-11.6,0-23.3,0-34.9c0.1-0.6-0.3-1.1-0.8-1.4c-3.5-1.9-5.2-6.2-3.8-9.9c1.4-3.9,5.4-6.1,9.4-5.2
		c3.9,0.8,6.7,4.5,6.4,8.5c-0.1,2.9-1.8,5.5-4.3,6.8c-0.3,0.2-0.5,0.5-0.6,0.9c0,11.9,0,23.8,0,35.7c0,0.1,0,0.3,0,0.4
		C-13687.5,1498.6-13680.5,1492.6-13679.3,1487.5L-13679.3,1487.5z M-13695.4,1457.7c1.8,0,3.4-1.5,3.4-3.3c0-0.9-0.3-1.8-0.9-2.4
		c-0.6-0.7-1.5-1-2.4-1c-1.8,0-3.4,1.5-3.4,3.3c0,0.9,0.3,1.8,0.9,2.4C-13697.1,1457.3-13696.3,1457.7-13695.4,1457.7
		L-13695.4,1457.7z"/>
</g>
</svg>
