<svg xmlns="http://www.w3.org/2000/svg" viewBox="0 0 11.78 12.01"><defs><style>.cls-1{fill:#747474;}</style></defs><title>Asset 1</title><g id="Layer_2" data-name="Layer 2"><g id="Layer_1-2" data-name="Layer 1"><g id="Layer_2-2" data-name="Layer 2"><g id="Layer_1-2-2" data-name="Layer 1-2"><path class="cls-1" d="M11.78,10.21,8.86,7.28A4.49,4.49,0,0,0,8.3,1.37a5,5,0,0,0-6.88,0,4.5,4.5,0,0,0-.21,6.36l.21.21A5,5,0,0,0,4.86,9.3a5.07,5.07,0,0,0,2-.41L10,12Zm-9-3.62a2.65,2.65,0,0,1-.12-3.75l.12-.12a3,3,0,0,1,4.05,0A2.65,2.65,0,0,1,7,6.47l-.12.12a3,3,0,0,1-4,0Z"/></g></g></g></g></svg>