<?xml version="1.0" encoding="utf-8"?>
<!-- Generator: Adobe Illustrator 21.0.0, SVG Export Plug-In . SVG Version: 6.00 Build 0)  -->
<svg version="1.1" id="Layer_1" xmlns="http://www.w3.org/2000/svg" xmlns:xlink="http://www.w3.org/1999/xlink" x="0px" y="0px"
	 viewBox="0 0 70.7 70.7" style="enable-background:new 0 0 70.7 70.7;" xml:space="preserve">
<style type="text/css">
	.st0{fill:#FFFFFF;}
</style>
<path class="st0" d="M69.5,63.5L49.7,43.7C53,39.2,55,33.6,55,27.5C55,12.3,42.7,0,27.5,0S0,12.3,0,27.5S12.3,55,27.5,55
	c6.1,0,11.7-2,16.2-5.3l19.8,19.8c0.8,0.8,1.9,1.2,3,1.2s2.2-0.4,3-1.2C71.1,67.8,71.1,65.1,69.5,63.5z M27.5,45.4
	c-9.9,0-17.9-8-17.9-17.9c0-9.9,8-17.9,17.9-17.9c9.9,0,17.9,8,17.9,17.9C45.4,37.4,37.4,45.4,27.5,45.4z"/>
</svg>
