<svg xmlns="http://www.w3.org/2000/svg" viewBox="14088 -3665 18.738 15.228">
  <defs>
    <style>
      .cls-1 {
        fill: #95989a;
      }
    </style>
  </defs>
  <g id="Symbol_10_1" data-name="Symbol 10 – 1" transform="translate(13032 -3723)">
    <path id="twitter-twitter" class="cls-1" d="M46.9,36.677a7.68,7.68,0,0,1-2.208.605,3.856,3.856,0,0,0,1.69-2.127,7.7,7.7,0,0,1-2.441.933,3.848,3.848,0,0,0-6.551,3.506,10.914,10.914,0,0,1-7.924-4.017,3.849,3.849,0,0,0,1.19,5.133,3.828,3.828,0,0,1-1.741-.481c0,.016,0,.032,0,.048A3.847,3.847,0,0,0,32,44.047a3.855,3.855,0,0,1-1.736.066,3.849,3.849,0,0,0,3.591,2.67,7.713,7.713,0,0,1-4.775,1.646,7.818,7.818,0,0,1-.917-.054,10.933,10.933,0,0,0,16.831-9.211q0-.25-.011-.5A7.807,7.807,0,0,0,46.9,36.677Z" transform="translate(1027.84 23.126)"/>
  </g>
</svg>
