<svg width="50" height="50" enable-background="new 0 0 90.8 90.8" viewBox="0 0 90.8 90.8" xmlns="http://www.w3.org/2000/svg"><path d="m45.4 5.4c-21.8 0-40 17.8-40 40s17.7 39.9 39.9 39.9c21.8 0 39.9-17.7 39.9-39.9s-18-40-39.8-40z" fill="#4c417d"/><g fill="#fff"><path d="m59.6 33.3-2.4-.9v-.1c.1-.4-.1-.7-.5-.8l-6.5-1.6v-.1c-.1-.4-.1-.7-.2-1.1l-.1-.2v-.1-.1c-.1-.2-.1-.3-.2-.5-.2-.6-.5-1.2-.9-1.7 0-.1-.1-.1-.1-.2.2-.4.3-.8.3-1.3 0-.8-.3-1.5-.8-2l3.1-8.6c.2-.5 0-1.1-.4-1.4-.6-.4-1.5-.1-1.7.6l-2.8 8-2.4-6.7c-.2-.5-.7-.9-1.3-.8-.7.1-1.1.8-.9 1.5l2.6 7.3c-.6.6-1 1.6-.8 2.6s.9 1.7 1.9 2c.7.2 1.4.1 2-.2.1.4.2.8.3 1.3 0 .3.1.6.1.8-.1.1-.1.1-.1.1l-1.9-.5-.3-.1-.3-.1-.3.5-1.9 1.6c-.3-.3-.5-.6-.7-.8-.4-.5-.6-.7-.6-.7l-.1-.1c-.1 0-.2 0-.2.1 0 0 0 .1-.1.3 0 .2-.1.4-.1.7 0 .4 0 1.1.2 1.8l-18.9 15.2c.5.3 14.3 8.1 14.3 8.1l34.6-17.9zm-13.6-3.1 1.7.6c0 .2-.1.3-.2.4-.1.2-.2.2-.3.3h-.1-.1l-.1.1h-.1-.1c-.4.1-.7.1-1.1.1-.1-.1-.1-.1-.2-.2zm-4.3 8.8-16.8 7.9 17.2-13.9c.3.4.7.8 1.2 1.2zm1.7-.8 1.1-3.4c.4.1.8.2 1.2.2.9.1 1.8-.2 2.6-.6.1-.1.2-.1.3-.2l.2-.1c.1 0 .1-.1.1-.1l.2-.2.3-.3c.4-.4.6-.9.7-1.4.1-.2.1-.4.1-.6l4.3 1.4z"/><path d="m36.8 56.6-14.6-8.2v21l14.6 9.1z"/><path d="m44.2 31.3c0 .1 0 .1 0 0z"/><path d="m36.9 78.5 34.4-20v-19.8l-34.4 17.9zm29.9-35.4c0-.6.5-1.1 1.1-1.1s1.1.5 1.1 1.1v14.5c0 .6-.5 1.1-1.1 1.1s-1.1-.5-1.1-1.1zm-7 4c0-.6.5-1.1 1.1-1.1s1.1.5 1.1 1.1v14.5c0 .6-.5 1.1-1.1 1.1s-1.1-.5-1.1-1.1zm-6.9 3.6c0-.6.5-1.1 1.1-1.1s1.1.5 1.1 1.1v14.5c0 .6-.5 1.1-1.1 1.1s-1.1-.5-1.1-1.1zm-6.9 4.4c0-.6.5-1.1 1.1-1.1s1.1.5 1.1 1.1v14.5c0 .6-.5 1.1-1.1 1.1s-1.1-.5-1.1-1.1zm-6.9 4.5c0-.6.5-1.1 1.1-1.1s1.1.5 1.1 1.1v14.5c0 .6-.5 1.1-1.1 1.1s-1.1-.5-1.1-1.1z"/></g></svg>