<?xml version="1.0" encoding="utf-8"?>
<!-- Generator: Adobe Illustrator 19.0.0, SVG Export Plug-In . SVG Version: 6.00 Build 0)  -->
<svg version="1.1" id="Layer_1" xmlns="http://www.w3.org/2000/svg" xmlns:xlink="http://www.w3.org/1999/xlink" x="0px" y="0px"
	 viewBox="0 0 210 210" style="enable-background:new 0 0 210 210;" xml:space="preserve">
<style type="text/css">
	.st0{fill:#FFFFFF;}
	.st1{fill:#65BC46;}
</style>
<g id="XMLID_279_">
	<circle id="XMLID_278_" class="st0" cx="105" cy="105" r="105"/>
	<g id="XMLID_31_">
		<path id="XMLID_195_" class="st1" d="M156.7,65.1H56.5c-2.2,0-4,1.8-4,4V129c0,2.2,1.8,4,4,4h100.1c2.2,0,4-1.8,4-4V69.1
			C160.7,66.9,158.9,65.1,156.7,65.1z M113.8,121.3c-2.7,2.7-7.2,2.7-9.9,0c-2.7-2.7-2.7-7.2,0-9.9c2.7-2.7,7.2-2.7,9.9,0
			C116.5,114.2,116.5,118.6,113.8,121.3z M126.2,105c-1.7,1.7-4.3,1.7-6,0c-3.2-3.2-7.3-4.7-11.4-4.7c-4.1,0-8.2,1.6-11.4,4.7
			c-1.7,1.7-4.4,1.7-6,0c-1.7-1.7-1.7-4.3,0-6c4.8-4.8,11.1-7.2,17.4-7.2c6.3,0,12.6,2.4,17.4,7.2
			C127.9,100.7,127.9,103.3,126.2,105z M138.4,92.8c-1.7,1.7-4.4,1.7-6,0c-6.5-6.5-15-9.8-23.5-9.8c-8.5,0-17,3.2-23.6,9.8
			c-1.7,1.7-4.3,1.7-6,0c-1.7-1.7-1.7-4.3,0-6c8.2-8.2,18.9-12.3,29.6-12.3c10.7,0,21.4,4.1,29.6,12.3
			C140.1,88.5,140.1,91.2,138.4,92.8z"/>
		<path id="XMLID_214_" class="st1" d="M114.2,140.9H97.9c-1.4,0-2.6,1.2-2.6,2.6c0,1.4,1.2,2.6,2.6,2.6h16.3c1.4,0,2.6-1.2,2.6-2.6
			C116.8,142.1,115.6,140.9,114.2,140.9z"/>
		<path id="XMLID_218_" class="st1" d="M105,12.8c-50.9,0-92.2,41.3-92.2,92.2c0,50.9,41.3,92.2,92.2,92.2s92.2-41.3,92.2-92.2
			C197.2,54.1,155.9,12.8,105,12.8z M165.5,151.2H48.9c-5.3,0-9.6-4.4-9.6-9.8v-3.3h7.3V67.7c0-4.9,4-8.9,8.9-8.9h102.8
			c4.9,0,8.9,4,8.9,8.9v70.4h7.8v3.3C175.1,146.8,170.8,151.2,165.5,151.2z"/>
	</g>
</g>
</svg>
