<?xml version="1.0" encoding="utf-8"?>
<!-- Generator: Adobe Illustrator 19.0.0, SVG Export Plug-In . SVG Version: 6.00 Build 0)  -->
<svg version="1.1" id="Layer_1" xmlns="http://www.w3.org/2000/svg" xmlns:xlink="http://www.w3.org/1999/xlink" x="0px" y="0px"
	 viewBox="-134 376.1 50 50" enable-background="new -134 376.1 50 50" xml:space="preserve">
<g id="XMLID_316_">
	<circle id="XMLID_304_" fill="#FFFFFF" cx="-109" cy="401.1" r="25"/>
	<g id="XMLID_156_">
		<path id="XMLID_191_" fill="#788CA8" d="M-109,379.171c-12.119,0-21.952,9.833-21.952,21.952s9.833,21.952,21.952,21.952
			s21.952-9.833,21.952-21.952C-87.048,388.981-96.881,379.171-109,379.171z M-104.167,389.838l1.881-3.262
			c0.262-0.476,0.786-0.69,1.143-0.476c0.357,0.214,0.429,0.762,0.143,1.214l-1.881,3.262c-0.262,0.476-0.786,0.69-1.143,0.476
			C-104.381,390.862-104.452,390.314-104.167,389.838z M-109.929,384.886c0-0.548,0.333-0.976,0.738-0.976s0.738,0.452,0.738,0.976
			v3.762c0,0.548-0.333,0.976-0.738,0.976s-0.738-0.452-0.738-0.976V384.886z M-117.024,386.029
			c0.357-0.214,0.857,0.024,1.143,0.476l1.881,3.262c0.262,0.476,0.214,1.024-0.143,1.214c-0.357,0.214-0.857-0.024-1.143-0.476
			l-1.881-3.262C-117.452,386.79-117.381,386.243-117.024,386.029z M-120.071,400.362l-3.762,0.024
			c-0.548,0-0.976-0.333-0.976-0.738c0-0.405,0.429-0.738,0.976-0.738l3.762-0.024c0.548,0,0.976,0.333,0.976,0.738
			C-119.071,400.029-119.524,400.362-120.071,400.362z M-119,394.79l-3.262-1.881c-0.476-0.262-0.69-0.786-0.476-1.119
			c0.214-0.333,0.762-0.429,1.214-0.143l3.262,1.881c0.476,0.262,0.69,0.786,0.476,1.119
			C-117.976,395.005-118.524,395.076-119,394.79z M-105.048,416.1c0,0.548-0.452,0.976-0.976,0.976h-0.405v0.714
			c0,0.262-0.214,0.5-0.5,0.5h-4.524c-0.262,0-0.5-0.214-0.5-0.5v-0.714h-0.405c-0.548,0-0.976-0.452-0.976-0.976v-0.619
			c0-0.548,0.452-0.976,0.976-0.976h6.333c0.548,0,0.976,0.452,0.976,0.976V416.1z M-100.786,404.552c0,0-0.024,0.024-0.071,0.071
			c-0.238,0.286-1.071,1.405-1.952,2.833c-1,1.643-2.048,3.69-2.214,5.405h-8.31c-0.167-1.69-1.19-3.714-2.167-5.357
			c-1.024-1.667-2.024-2.905-2.048-2.952l0,0l0,0c-0.476-1.095-0.738-2.31-0.738-3.571c0-5.024,4.071-9.095,9.095-9.095
			s9.095,4.071,9.095,9.095c0,1.262-0.262,2.476-0.738,3.571C-100.833,404.552-100.786,404.552-100.786,404.552z M-100.262,394.886
			c-0.214-0.357,0.024-0.857,0.476-1.119l3.262-1.881c0.476-0.262,1.024-0.214,1.214,0.143c0.214,0.357-0.024,0.857-0.476,1.119
			l-3.262,1.881C-99.524,395.29-100.071,395.219-100.262,394.886z M-94.167,400.814h-3.762c-0.548,0-0.976-0.333-0.976-0.738
			s0.452-0.738,0.976-0.738h3.762c0.548,0,0.976,0.333,0.976,0.738C-93.167,400.481-93.619,400.814-94.167,400.814z"/>
		<path id="XMLID_273_" fill="#788CA8" d="M-116.31,400.957c0,0.881,0.167,1.762,0.476,2.595c0.214,0.286,0.595,0.786,1.048,1.452
			c-0.071-1.143-0.048-2.476,0.262-3.857c0.595-2.762,2.262-5.643,6.238-7.238c-0.286-0.048-0.595-0.071-0.905-0.071
			C-113.119,393.838-116.31,397.029-116.31,400.957z"/>
	</g>
</g>
</svg>
