<?xml version="1.0" encoding="utf-8"?>
<!-- Generator: Adobe Illustrator 19.0.0, SVG Export Plug-In . SVG Version: 6.00 Build 0)  -->
<svg version="1.1" id="Layer_1" xmlns="http://www.w3.org/2000/svg" xmlns:xlink="http://www.w3.org/1999/xlink" x="0px" y="0px"
	 viewBox="-134 376.1 50 50" enable-background="new -134 376.1 50 50" xml:space="preserve">
<g id="XMLID_303_">
	<circle id="XMLID_294_" fill="#FFFFFF" cx="-109" cy="401.1" r="25"/>
	<path id="XMLID_171_" fill="#A4D2CD" d="M-96.69,408.29c-0.857-2.619-2.905-5.452-7.167-6.69c0.881-0.929,2.167-1.738,4-2.214
		c0.286,0.738,1.69,1.31,3.357,1.31c1.738,0,3.167-0.619,3.381-1.405c0.262,0.048,0.405,0.071,0.405,0.071
		c3.095,0.762,4.595,2.548,5.333,4.19c0.095-0.81,0.143-1.643,0.143-2.476c0-12.024-9.738-21.762-21.762-21.762
		s-21.762,9.738-21.762,21.762c0,0.833,0.048,1.667,0.143,2.476c0.738-1.643,2.238-3.429,5.333-4.19
		c0.286,0.738,1.69,1.31,3.357,1.31c1.738,0,3.167-0.619,3.381-1.405c0.262,0.048,0.405,0.071,0.405,0.071
		c1.857,0.452,3.143,1.262,4.024,2.214c-4.262,1.238-6.31,4.071-7.167,6.69c-2.619,0.048-5.571-0.143-8.548-0.881
		c2.714,8.952,11,15.476,20.833,15.476c9.857,0,18.167-6.548,20.857-15.5C-89.881,407.743-93,408.29-96.69,408.29z M-96.286,388.814
		c2.429,0,4.405,1.357,4.405,5.143c0,2.833-1.976,5.143-4.405,5.143c-2.429,0-4.405-2.31-4.405-5.143
		C-100.69,390.171-98.714,388.814-96.286,388.814z M-121.714,399.1c-2.452,0-4.429-2.31-4.429-5.143
		c0-3.786,1.976-5.143,4.405-5.143c2.429,0,4.405,1.357,4.405,5.143C-117.31,396.79-119.286,399.1-121.714,399.1z M-114.214,396.41
		c0-4.476,2.333-6.095,5.214-6.095s5.214,1.619,5.214,6.095c0,3.357-2.333,6.095-5.214,6.095S-114.214,399.79-114.214,396.41z
		 M-97.667,411.886c0,0-11.476,3.429-22.667,0c0,0-0.548-7.119,7.095-9c0.357,0.881,2,1.548,3.976,1.548
		c2.048,0,3.738-0.714,4.024-1.643c0.31,0.048,0.476,0.095,0.476,0.095C-97.095,404.743-97.667,411.886-97.667,411.886z"/>
</g>
</svg>
