<?xml version="1.0" encoding="utf-8"?>
<!-- Generator: Adobe Illustrator 19.0.0, SVG Export Plug-In . SVG Version: 6.00 Build 0)  -->
<svg version="1.1" id="Layer_1" xmlns="http://www.w3.org/2000/svg" xmlns:xlink="http://www.w3.org/1999/xlink" x="0px" y="0px"
	 viewBox="-134 376 50 50" enable-background="new -134 376 50 50" xml:space="preserve">
<g id="XMLID_285_">
	<circle id="XMLID_284_" fill="#FFFFFF" cx="-109" cy="401" r="25"/>
	<path id="XMLID_31_" fill="#4D8D8E" d="M-109,379.048c-12.119,0-21.952,9.833-21.952,21.952s9.833,21.952,21.952,21.952
		s21.952-9.833,21.952-21.952S-96.881,379.048-109,379.048z M-109,386.524c3.619,0,6.548,2.024,6.548,7.643
		c0,4.214-2.929,7.643-6.548,7.643s-6.548-3.429-6.548-7.643C-115.548,388.571-112.619,386.524-109,386.524z M-94.786,413.548
		c0,0-14.381,4.31-28.429,0c0,0-0.69-8.929,8.905-11.286c0.452,1.119,2.5,1.952,5,1.952c2.571,0,4.69-0.905,5.024-2.071
		c0.381,0.071,0.595,0.119,0.595,0.119C-94.095,404.619-94.786,413.548-94.786,413.548z"/>
</g>
</svg>
