<svg width="50" height="50" enable-background="new 0 0 50 50" viewBox="0 0 50 50" xmlns="http://www.w3.org/2000/svg" ><g fill="#efb744"><circle cx="26" cy="26" r="20" fill="#fff" /><path d="m31 32.7v2.6h2.6v-2.6z" /><path d="m25.4 32.7v2.6h2.7l-.1-2.6z"/><path d="m20.1 32.7h2.7v2.6h-2.7z"/><path d="m26.1 3.1c-12 0-22 9.8-22 22s9.8 22 22 22c12 0 22-9.8 22-22s-10-22-22-22zm2.5 3.7c1.4 0 2.7.8 3.2 2.1 1.3 0 2.4 1 2.4 2.3 0 .3-.1.6-.2.9.4.3.6.7.6 1.1 0 .8-.7 1.4-1.5 1.4-.7 0-1.3-.5-1.5-1.2-.5 0-1-.2-1.4-.6-.5.3-1 .4-1.6.4-1.8 0-3.3-1.4-3.4-3.3 0-1.7 1.5-3.2 3.4-3.1zm-13.8 18.1 5 2.8v-2.5l4.9 2.5v-2.6l4.9 2.6v-11.6h7.5v20.1h-22.3zm23.7 14.6h-24.8v-2.5h24.8z"/></g></svg>