<svg id="Layer_3" data-name="Layer 3" xmlns="http://www.w3.org/2000/svg" viewBox="0 0 44 44"><defs><style>.cls-1{fill:#efb744;}.cls-2{fill:#fff;}</style></defs><title>PowerplantIcon1</title><circle class="cls-1" cx="22" cy="22" r="22"/><g id="Plant"><path class="cls-2" d="M28.6,6.8a3.39,3.39,0,0,1,3.2,2.1,2.35,2.35,0,0,1,2.4,2.3,2.92,2.92,0,0,1-.2.9,1.38,1.38,0,0,1,.6,1.1,1.45,1.45,0,0,1-1.5,1.4,1.59,1.59,0,0,1-1.5-1.2,2,2,0,0,1-1.4-.6,2.93,2.93,0,0,1-1.6.4,3.41,3.41,0,0,1-3.4-3.3A3.19,3.19,0,0,1,28.6,6.8Z" transform="translate(-4.1 -3.1)"/><polygon class="cls-2" points="10.7 21.8 15.7 24.6 15.7 22.1 20.6 24.6 20.6 22 25.5 24.6 25.5 13 33 13 33 33.1 10.7 33.1 10.7 21.8"/><rect class="cls-2" x="9.6" y="33.9" width="24.8" height="2.5"/></g><path class="cls-1" d="M31,32.7v2.6h2.6V32.7Z" transform="translate(-4.1 -3.1)"/><path class="cls-1" d="M25.4,32.7v2.6h2.7L28,32.7Z" transform="translate(-4.1 -3.1)"/><path class="cls-1" d="M20.1,32.7h2.7v2.6H20.1Z" transform="translate(-4.1 -3.1)"/></svg>