<svg width="25" height="25" enable-background="new 0 0 50 50" viewBox="0 0 50 50" xmlns="http://www.w3.org/2000/svg"><path d="m25 3c-12.1 0-22 9.9-22 22s9.8 22 22 22 22-9.8 22-22-9.9-22-22-22zm9.4 9.7c0-.8.6-1.4 1.4-1.4h2.4c.8 0 1.4.6 1.4 1.4v3.5h-1.3v-3.5c0-.1 0-.1-.1-.1h-2.4c-.1 0-.1 0-.1.1v3.5h-1.3zm-11.5 0c0-.8.6-1.4 1.4-1.4h2.4c.8 0 1.4.6 1.4 1.4v3.5h-1.3v-3.5c0-.1 0-.1-.1-.1h-2.4c-.1 0-.1 0-.1.1v3.5h-1.3zm-11.4 0c0-.8.6-1.4 1.4-1.4h2.4c.8 0 1.4.6 1.4 1.4v3.5h-1.3v-3.5c0-.1 0-.1-.1-.1h-2.4c-.1 0-.1 0-.1.1v3.5h-1.3zm5.2 25.4c0 .7-.6 1.3-1.4 1.3h-2.4c-.8 0-1.4-.6-1.4-1.3v-4.4h1.3v4.4c0 .1 0 .1.1.1h2.4c.1 0 .1 0 .1-.1v-4.4h1.3zm11.4 0c0 .7-.6 1.3-1.4 1.3h-2.4c-.8 0-1.4-.6-1.4-1.3v-4.4h1.3v4.4c0 .1 0 .1.1.1h2.4c.1 0 .1 0 .1-.1v-4.4h1.3zm11.5 0c0 .7-.6 1.3-1.4 1.3h-2.4c-.8 0-1.4-.6-1.4-1.3v-4.4h1.3v4.4c0 .1 0 .1.1.1h2.4c.1 0 .1 0 .1-.1v-4.4h1.3zm1-4.9h-1-1.3-2.6-1.3-6.2-1.3-2.6-1.3-6.2-1.3-2.6-1.3-1v-2.6h1 1.3 2.6 1.3 6.2 1.3 2.6 1.3 6.2 1.3 2.6 1.3 1zm-29.1-3.4v-9.9h1.3v9.9zm3.9 0v-9.9h1.3v9.9zm7.5 0v-9.9h1.3v9.9zm3.9 0v-9.9h1.3v9.9zm7.6 0v-9.9h1.3v9.9zm3.9 0v-9.9h1.3v9.9zm2.3-10.7h-1-1.3-2.6-1.3-6.2-1.3-2.6-1.3-6.2-1.3-2.6-1.3-1v-2.3h1 1.3 2.6 1.3 6.2 1.3 2.6 1.3 6.2 1.3 2.6 1.3 1z" fill="#c34242"/></svg>