<?xml version="1.0" encoding="utf-8"?>
<!-- Generator: Adobe Illustrator 19.0.0, SVG Export Plug-In . SVG Version: 6.00 Build 0)  -->
<svg version="1.1" id="Layer_1" xmlns="http://www.w3.org/2000/svg" xmlns:xlink="http://www.w3.org/1999/xlink" x="0px" y="0px"
	 viewBox="-134 376 50 50" enable-background="new -134 376 50 50" xml:space="preserve">
<g id="XMLID_276_">
	<circle id="XMLID_267_" fill="#FFFFFF" cx="-109" cy="401" r="25"/>
	<path id="XMLID_198_" fill="#C34242" d="M-109,379.048c-12.119,0-21.952,9.833-21.952,21.952s9.833,21.952,21.952,21.952
		s21.952-9.833,21.952-21.952S-96.881,379.048-109,379.048z M-99.619,388.738c0-0.762,0.619-1.405,1.405-1.405h2.405
		c0.762,0,1.405,0.619,1.405,1.405v3.548h-1.31v-3.5c0-0.071-0.048-0.119-0.119-0.119h-2.357c-0.071,0-0.119,0.048-0.119,0.119
		v3.524h-1.31V388.738z M-111.071,388.738c0-0.762,0.619-1.405,1.405-1.405h2.405c0.762,0,1.405,0.619,1.405,1.405v3.548h-1.31v-3.5
		c0-0.071-0.048-0.119-0.119-0.119h-2.357c-0.071,0-0.119,0.048-0.119,0.119v3.524h-1.31V388.738z M-122.524,388.738
		c0-0.762,0.619-1.405,1.405-1.405h2.405c0.762,0,1.405,0.619,1.405,1.405v3.548h-1.31v-3.5c0-0.071-0.048-0.119-0.119-0.119h-2.357
		c-0.071,0-0.119,0.048-0.119,0.119v3.524h-1.31C-122.524,392.31-122.524,388.738-122.524,388.738z M-117.31,414.095
		c0,0.738-0.619,1.333-1.405,1.333h-2.405c-0.762,0-1.405-0.595-1.405-1.333v-4.381h1.31v4.357c0,0.071,0.048,0.071,0.119,0.071
		h2.357c0.071,0,0.119,0,0.119-0.071v-4.357h1.31V414.095z M-105.881,414.095c0,0.738-0.619,1.333-1.405,1.333h-2.405
		c-0.762,0-1.405-0.595-1.405-1.333v-4.381h1.31v4.357c0,0.071,0.048,0.071,0.119,0.071h2.357c0.071,0,0.119,0,0.119-0.071v-4.357
		h1.31V414.095z M-94.429,414.095c0,0.738-0.619,1.333-1.405,1.333h-2.405c-0.762,0-1.405-0.595-1.405-1.333v-4.381h1.31v4.357
		c0,0.071,0.048,0.071,0.119,0.071h2.357c0.071,0,0.119,0,0.119-0.071v-4.357h1.31V414.095z M-93.381,409.19h-1.048h-1.31h-2.595
		h-1.31h-6.238h-1.31h-2.595h-1.31h-6.214h-1.31h-2.595h-1.31h-1.048v-2.595h1.048h1.31h2.595h1.31h6.238h1.31h2.595h1.31h6.238
		h1.31h2.595h1.31h1.048v2.595H-93.381z M-122.524,405.81v-9.881h1.31v9.881H-122.524z M-118.619,405.81v-9.881h1.31v9.881H-118.619
		z M-111.071,405.81v-9.881h1.31v9.881H-111.071z M-107.167,405.81v-9.881h1.31v9.881H-107.167z M-99.619,405.81v-9.881h1.31v9.881
		H-99.619z M-95.714,405.81v-9.881h1.31v9.881H-95.714z M-93.381,395.143h-1.048h-1.31h-2.595h-1.31h-6.238h-1.31h-2.595h-1.31
		h-6.214h-1.31h-2.595h-1.31h-1.048v-2.333h1.048h1.31h2.595h1.31h6.238h1.31h2.595h1.31h6.238h1.31h2.595h1.31h1.048v2.333H-93.381
		z"/>
</g>
</svg>
