<svg width="25" height="25" enable-background="new 0 0 50 50" viewBox="0 0 50 50" xmlns="http://www.w3.org/2000/svg"><g fill="#f68b3f"><path d="m27.3 23.8h3.5v1.8h-3.5z"/><path d="m19.3 23.8h3.5v1.8h-3.5z"/><path d="m11.4 23.8h3.5v1.8h-3.5z"/><path d="m25 3c-12.1 0-22 9.9-22 22s9.8 22 22 22 22-9.8 22-22-9.9-22-22-22zm15.4 32.6h-30.8v-2.1h30.9v2.1zm0-4h-30.8v-12.8h30.9v12.8zm0-14.6h-30.8v-2.6h30.9v2.6z" stroke="#fdfdfe" stroke-miterlimit="10" stroke-width=".5239"/><path d="m35.2 23.8h3.5v1.8h-3.5z"/></g></svg>