<svg width="25" height="25" enable-background="new 0 0 50 50" viewBox="0 0 50 50" xmlns="http://www.w3.org/2000/svg"><circle cx="25" cy="9.8" fill="#008cc4" r="1.2"/><path d="m25 3c-12 0-22 9.8-22 22s9.8 22 22 22c12 0 22-9.8 22-22s-10-22-22-22z" fill="#008cc4"/><path d="m34.5 31.1c-.4-.1-.8-.2-1.1-.4-1.1-.4-1.3-1.6-.5-2.4 1.6-1.6 3.3-3.1 4.9-4.6.8-.8 2-.3 2.2.8.4 2.2.7 4.3 1 6.5.2 1.2-.7 2-1.9 1.6-.3-.1-.6-.2-.9-.3-2.4 5.9-6.7 9.4-13.1 9.4-6.5 0-10.7-3.5-13.1-9.4-.3.1-.7.2-1.1.3-1 .3-1.9-.4-1.8-1.5.3-2.3.7-4.5 1.1-6.8.2-1 1.4-1.4 2.1-.7 1.7 1.6 3.4 3.2 5.1 4.8.7.7.5 1.8-.5 2.2-.4.2-.8.3-1.2.5.3 2.7 4.9 6.6 7.7 6.5 0-.2 0-.4 0-.5 0-6.8 0-13.6 0-20.3 0-.4-.1-.6-.5-.8-2.1-1.1-3-3.6-2.2-5.8.8-2.3 3.1-3.5 5.5-3 2.3.5 3.9 2.6 3.7 4.9-.1 1.8-1 3.1-2.5 4-.3-.1-.4.2-.4.4v20.8.2c2.7.1 6.7-3.4 7.5-6.4zm-9.4-17.4c1.1 0 2-.9 2-1.9 0-1.1-.8-2-1.9-2s-2 .8-2 1.9c-.1 1.1.8 2 1.9 2z" fill="#fff"/></svg>