<?xml version="1.0" encoding="utf-8"?>
<!-- Generator: Adobe Illustrator 19.0.0, SVG Export Plug-In . SVG Version: 6.00 Build 0)  -->
<svg version="1.1" id="Layer_1" xmlns="http://www.w3.org/2000/svg" xmlns:xlink="http://www.w3.org/1999/xlink" x="0px" y="0px"
	 viewBox="0 0 25.3 25.3" style="enable-background:new 0 0 25.3 25.3;" xml:space="preserve">
<style type="text/css">
	.st0{fill:#D7E1D4;}
</style>
<path class="st0" d="M12.5,0C5.5,0.1-0.1,5.8,0,12.7c0.1,7,5.8,12.6,12.7,12.5c7-0.1,12.6-5.8,12.5-12.7C25.2,5.5,19.5-0.1,12.5,0z
	 M10.4,22.6C10.2,22.8,9.9,23,9.5,23c-0.3,0-0.6-0.1-0.9-0.4c-0.5-0.5-0.5-1.3,0-1.8l8.1-8.2L8.5,4.5C8,4,8,3.2,8.5,2.7
	c0.5-0.5,1.3-0.5,1.8,0l10,9.8L10.4,22.6z"/>
</svg>
