<?xml version="1.0" encoding="utf-8"?>
<!-- Generator: Adobe Illustrator 19.0.0, SVG Export Plug-In . SVG Version: 6.00 Build 0)  -->
<svg version="1.1" id="Layer_1" xmlns="http://www.w3.org/2000/svg" xmlns:xlink="http://www.w3.org/1999/xlink" x="0px" y="0px"
	 viewBox="0 0 215.5 26.1" style="enable-background:new 0 0 215.5 26.1;" xml:space="preserve">
<style type="text/css">
	.st0{fill:#58595B;}
</style>
<g>
	<path class="st0" d="M16.5,4.2c0.9,0.1,2,0.6,2.5,0.6c0.2,0,0.5,0.2,0.5,1c0,0.7,0.2,2.1,0.2,2.9c0,0.7-0.2,1.1-0.5,1.1
		c-0.2,0-0.4-0.4-0.5-0.9c-0.3-1.2-0.9-2.1-1.4-2.5c-1.8-1.4-3.5-1.7-5.3-1.7c-5.3,0-8.7,4.4-8.7,9.4c0,2.2,0.4,4,1.2,5.4
		c1.8,3.8,5.7,5.3,8.4,5.3c0.6,0,2.2-0.1,3.6-0.9c1.5-0.8,2.3-1.8,3.1-3.2c0.4-0.7,0.6-0.9,0.7-0.9c0.3,0,0.4,0.7,0.3,1.1
		c-0.1,0.8-0.9,2.6-1.3,3.3c-0.1,0.3-0.7,0.7-1,0.9c-0.5,0.2-3.2,0.9-6,0.9c-4.7,0-8.1-2.3-9.4-3.9C1.5,20.8,0,18.4,0,14.7
		c0-3.8,2.2-6.8,3.6-7.9c2.8-2.3,5.9-3,8.9-3C13.7,3.7,15.2,3.9,16.5,4.2z"/>
	<path class="st0" d="M34.7,4.3c0.2,0.1,0.4,0.6,0.4,0.6c0.1,0.6,0.3,2.5,0.3,2.7c0,0.6,0,0.9-0.2,0.9c-0.3,0-0.7-0.2-0.8-0.7
		c-0.4-1.2-1.3-2.2-1.6-2.4c-0.6-0.5-1.4-0.8-2.3-0.8c-2.2,0-3.8,1.7-3.8,3.9c0,2.3,1.7,3.4,4.6,5.3c2.5,1.7,4.6,3.4,4.6,6.4
		c0,1.7-0.9,3.5-2.7,4.7c-1.1,0.7-3,1.2-4.5,1.2c-1.1,0-3.3-0.4-4.3-0.9c-0.3-0.2-0.8-0.9-0.8-1.1C23.3,23,23,21.6,23,21.1
		c0-0.1,0.3-0.6,0.5-0.6c0.3,0,0.8,0.9,1.2,1.9c0.9,1.8,3,2.6,4.3,2.6c2.3,0,4-1.6,4-4c0-1.4-0.7-2.9-4.1-5.1
		C26,14.1,24,12.1,24,9.3c0-1.6,0.7-3,1.8-4c1-0.9,2.6-1.6,4.9-1.6C32.4,3.7,34.1,4.2,34.7,4.3z"/>
	<path class="st0" d="M41.7,7.5c-0.1-1.5-0.1-2-1.9-2.3c-0.7-0.1-0.9-0.4-0.9-0.6c0-0.3,0.4-0.4,0.8-0.4c0.9,0,2.5,0.1,3.6,0.1
		c1.6,0,2.4-0.1,3.5-0.1c0.5,0,0.8,0.1,0.8,0.4c0,0.3-0.3,0.5-0.9,0.6c-1.9,0.4-1.9,1.2-2,2.1c-0.2,1.1-0.2,3.2-0.2,9.7
		c0,1.8,0,3.9,0.1,4.9c0.1,1.8,0.3,2.4,2.4,2.8c0.6,0.1,0.9,0.3,0.9,0.6c0,0.3-0.5,0.4-0.9,0.4c-1.7,0-4-0.2-4.9-0.2
		c-1,0-1.3,0.1-2.5,0.1c-0.6,0-0.9-0.2-0.9-0.5c0-0.2,0.3-0.4,1-0.6c1.7-0.4,1.8-0.9,1.9-2.4c0.1-1.2,0.2-4.6,0.2-7.4
		C41.8,12.7,41.8,8.6,41.7,7.5z"/>
	<path class="st0" d="M62.1,4.3c0.2,0.1,0.4,0.6,0.4,0.6c0.1,0.6,0.3,2.5,0.3,2.7c0,0.6,0,0.9-0.2,0.9c-0.3,0-0.7-0.2-0.8-0.7
		c-0.4-1.2-1.3-2.2-1.6-2.4c-0.6-0.5-1.4-0.8-2.3-0.8c-2.2,0-3.8,1.7-3.8,3.9c0,2.3,1.7,3.4,4.6,5.3c2.5,1.7,4.6,3.4,4.6,6.4
		c0,1.7-0.9,3.5-2.7,4.7c-1.1,0.7-3,1.2-4.5,1.2c-1.1,0-3.3-0.4-4.3-0.9c-0.3-0.2-0.8-0.9-0.8-1.1c-0.2-1.1-0.5-2.6-0.5-3.1
		c0-0.1,0.3-0.6,0.5-0.6c0.3,0,0.8,0.9,1.2,1.9c0.9,1.8,3,2.6,4.3,2.6c2.3,0,4-1.6,4-4c0-1.4-0.7-2.9-4.1-5.1
		c-2.8-1.8-4.8-3.7-4.8-6.5c0-1.6,0.7-3,1.8-4c1-0.9,2.6-1.6,4.9-1.6C59.8,3.7,61.5,4.2,62.1,4.3z"/>
</g>
<path class="st0" d="M75.2,29.5v-29c0-0.3,0.2-0.5,0.5-0.5l0,0c0.3,0,0.5,0.2,0.5,0.5l0,0v29c0,0.3-0.2,0.5-0.5,0.5l0,0
	C75.4,30,75.2,29.8,75.2,29.5L75.2,29.5z"/>
<g>
	<path class="st0" d="M91.2,12.9c-1.6,0-2.9-0.9-2.9-3.4c0-2.1,1.3-3.3,2.9-3.3h1.9c0.1,0,0.1,0,0.1,0.1l-0.1,0.7
		c0,0.1-0.1,0.1-0.2,0.1c-0.6-0.2-0.8-0.3-1.8-0.3c-1,0-1.5,1-1.5,2.8c0,2.2,0.9,2.8,1.9,2.8c0.5,0,1-0.3,1.4-0.7c0,0,0.1,0,0.1,0
		l0.3,0.3c0,0,0,0.1,0,0.1C92.8,12.6,92,12.9,91.2,12.9z"/>
	<path class="st0" d="M99.2,12.8H95c-0.1,0-0.1,0-0.1-0.1l0-3.2l0-3.2c0-0.1,0-0.1,0.1-0.1h4c0.1,0,0.2,0,0.2,0.1v0.5
		c0,0.1-0.1,0.1-0.2,0.1c0,0-1.2-0.2-1.7-0.2h-0.9c-0.1,0-0.3,0.1-0.3,0.3l0,2c0,0,0,0.1,0.1,0.1l2-0.1c0.1,0,0.1,0,0.1,0.1v0.5
		c0,0.1-0.1,0.1-0.1,0.1l-2-0.1c0,0-0.1,0-0.1,0.1l0,2.3c0,0.1,0.1,0.3,0.3,0.3h0.9c0.6,0,1.9-0.2,1.9-0.2c0.1,0,0.2,0,0.2,0.1v0.6
		C99.3,12.8,99.2,12.8,99.2,12.8z"/>
	<path class="st0" d="M106.1,11v1.8c0,0.2-0.6,0.2-0.6,0.1l-3.5-4.8c-0.1-0.1-0.1,0-0.1,0l0.1,4.5c0,0.1,0,0.2-0.1,0.2H101
		c-0.1,0-0.1-0.1-0.1-0.2L101,8l0-1.6c0-0.1,0-0.1,0.1-0.1h0.6c0.1,0,0.2,0,0.2,0.1l3.1,4.3c0.1,0.1,0.2,0.1,0.2,0l-0.1-4.1
		c0-0.1,0-0.2,0.1-0.2h0.7c0.1,0,0.1,0.1,0.1,0.2L106.1,11z"/>
	<path class="st0" d="M112.9,6.8c0,0.1-0.1,0.1-0.1,0.1c0,0-1.1-0.1-1.7-0.1c-0.1,0-0.2,0.1-0.2,0.2l0,2.6l0,3.2
		c0,0.1,0,0.1-0.1,0.1h-1c-0.1,0-0.1,0-0.1-0.1l0-3.2l0-2.6c0-0.1-0.1-0.2-0.2-0.2c-0.6,0-1.7,0.1-1.7,0.1c-0.1,0-0.1,0-0.1-0.1
		l0-0.5c0-0.1,0.1-0.1,0.2-0.1h4.9c0.1,0,0.2,0,0.2,0.1L112.9,6.8z"/>
	<path class="st0" d="M118.7,12.8h-4.1c-0.1,0-0.1,0-0.1-0.1l0-3.2l0-3.2c0-0.1,0-0.1,0.1-0.1h4c0.1,0,0.2,0,0.2,0.1v0.5
		c0,0.1-0.1,0.1-0.2,0.1c0,0-1.2-0.2-1.7-0.2H116c-0.1,0-0.3,0.1-0.3,0.3l0,2c0,0,0,0.1,0.1,0.1l2-0.1c0.1,0,0.1,0,0.1,0.1v0.5
		c0,0.1-0.1,0.1-0.1,0.1l-2-0.1c0,0-0.1,0-0.1,0.1l0,2.3c0,0.1,0.1,0.3,0.3,0.3h0.9c0.6,0,1.9-0.2,1.9-0.2c0.1,0,0.2,0,0.2,0.1v0.6
		C118.9,12.8,118.8,12.8,118.7,12.8z"/>
	<path class="st0" d="M125.7,12.8h-1.2c-0.1,0-0.1-0.1-0.2-0.1l-1.4-2.5c-0.2-0.3-0.4-0.4-0.6-0.4h-0.4c-0.1,0-0.2,0.1-0.2,0.2
		l0,2.8c0,0.1,0,0.1-0.1,0.1h-1c-0.1,0-0.1,0-0.1-0.1l0-3.2l0-3.2c0-0.1,0-0.1,0.1-0.1h2.9c1,0,1.8,0.7,1.8,1.6
		c0,0.9-0.7,1.6-1.6,1.8c-0.1,0-0.1,0.1,0,0.1c0.1,0.1,0.2,0.2,0.4,0.5l1.5,2.1l0.3,0.4C125.9,12.8,125.8,12.8,125.7,12.8z
		 M122.7,6.6H122c-0.1,0-0.3,0.1-0.3,0.3l0,2.2c0,0.1,0.1,0.2,0.2,0.2h0.4c1,0,1.6-0.4,1.6-1.4C123.9,7.1,123.4,6.6,122.7,6.6z"/>
	<path class="st0" d="M134.6,6.9c0,0-1.3-0.2-1.7-0.2h-0.8c-0.1,0-0.3,0.1-0.3,0.3l0,2c0,0,0,0.1,0.1,0.1l1.9-0.1
		c0.1,0,0.1,0,0.1,0.1v0.5c0,0.1-0.1,0.1-0.1,0.1l-1.9-0.1c0,0-0.1,0-0.1,0.1l0,3c0,0.1,0,0.1-0.1,0.1h-1c-0.1,0-0.1,0-0.1-0.1
		l0-3.2l0-3.2c0-0.1,0-0.1,0.1-0.1h3.9c0.1,0,0.2,0,0.2,0.1v0.5C134.8,6.9,134.7,6.9,134.6,6.9z"/>
	<path class="st0" d="M138.7,13c-2.2,0-2.9-1.7-2.9-3.5c0-1.8,0.7-3.5,2.9-3.5c2.2,0,2.9,1.7,2.9,3.5C141.6,11.2,140.9,13,138.7,13z
		 M138.7,6.5c-1.3,0-1.5,1.6-1.5,2.9c0,1.2,0.1,3.2,1.6,3.2c1.3,0,1.5-1.6,1.5-2.9C140.3,8.4,140.2,6.5,138.7,6.5z"/>
	<path class="st0" d="M148.7,12.8h-1.2c-0.1,0-0.1-0.1-0.2-0.1l-1.4-2.5c-0.2-0.3-0.4-0.4-0.6-0.4h-0.4c-0.1,0-0.2,0.1-0.2,0.2
		l0,2.8c0,0.1,0,0.1-0.1,0.1h-1c-0.1,0-0.1,0-0.1-0.1l0-3.2l0-3.2c0-0.1,0-0.1,0.1-0.1h2.9c1,0,1.8,0.7,1.8,1.6
		c0,0.9-0.7,1.6-1.6,1.8c-0.1,0-0.1,0.1,0,0.1c0.1,0.1,0.2,0.2,0.4,0.5l1.5,2.1l0.3,0.4C148.9,12.8,148.8,12.8,148.7,12.8z
		 M145.7,6.6H145c-0.1,0-0.3,0.1-0.3,0.3l0,2.2c0,0.1,0.1,0.2,0.2,0.2h0.4c1,0,1.6-0.4,1.6-1.4C146.9,7.1,146.4,6.6,145.7,6.6z"/>
	<path class="st0" d="M155.7,12.9c-1,0-1.7-0.2-2.3-0.5c-0.1,0-0.1-0.1-0.1-0.2l0.2-0.7c0-0.1,0.1-0.1,0.2,0c0.5,0.5,1.2,0.9,2,0.9
		c0.6,0,1.3-0.5,1.3-1.1c0-1.7-3.7-1-3.7-3.5c0-1.1,0.8-1.8,2-1.8c1,0,1.8,0.2,2.3,0.2c0.1,0,0.1,0.1,0.1,0.1l-0.2,0.7
		c0,0.1-0.1,0.1-0.2,0.1c-0.5-0.3-1-0.6-2-0.6c-0.5,0-1,0.3-1,0.9c0,1.8,3.7,0.9,3.7,3.7C158.1,12.4,157.1,12.9,155.7,12.9z"/>
	<path class="st0" d="M164.5,6.8c0,0.1-0.1,0.1-0.1,0.1c0,0-1.1-0.1-1.7-0.1c-0.1,0-0.2,0.1-0.2,0.2l0,2.6l0,3.2
		c0,0.1,0,0.1-0.1,0.1h-1c-0.1,0-0.1,0-0.1-0.1l0-3.2l0-2.6c0-0.1-0.1-0.2-0.2-0.2c-0.6,0-1.7,0.1-1.7,0.1c-0.1,0-0.1,0-0.1-0.1
		l0-0.5c0-0.1,0.1-0.1,0.2-0.1h4.9c0.1,0,0.2,0,0.2,0.1L164.5,6.8z"/>
	<path class="st0" d="M171.3,12.8h-1.2c-0.1,0-0.1-0.1-0.2-0.1l-1.4-2.5c-0.2-0.3-0.4-0.4-0.6-0.4h-0.4c-0.1,0-0.2,0.1-0.2,0.2
		l0,2.8c0,0.1,0,0.1-0.1,0.1h-1c-0.1,0-0.1,0-0.1-0.1l0-3.2l0-3.2c0-0.1,0-0.1,0.1-0.1h2.9c1,0,1.8,0.7,1.8,1.6
		c0,0.9-0.7,1.6-1.6,1.8c-0.1,0-0.1,0.1,0,0.1c0.1,0.1,0.2,0.2,0.4,0.5l1.5,2.1l0.3,0.4C171.5,12.8,171.4,12.8,171.3,12.8z
		 M168.4,6.6h-0.7c-0.1,0-0.3,0.1-0.3,0.3l0,2.2c0,0.1,0.1,0.2,0.2,0.2h0.4c1,0,1.6-0.4,1.6-1.4C169.5,7.1,169,6.6,168.4,6.6z"/>
	<path class="st0" d="M178.6,12.8h-1.2c-0.1,0-0.2,0-0.2-0.1c0,0-0.2-0.5-0.3-0.8l-0.4-0.9c0-0.1-0.1-0.1-0.1-0.1h-2.1
		c-0.1,0-0.1,0-0.1,0.1l-0.5,1.7c0,0.1-0.1,0.1-0.2,0.1h-0.8c-0.1,0-0.1-0.1-0.1-0.2l2.5-6.4c0-0.1,0.8-0.1,0.8,0l2.3,5.7
		c0.1,0.3,0.4,0.7,0.4,0.7C178.7,12.8,178.7,12.8,178.6,12.8z M175.5,7.9c0-0.1-0.1-0.1-0.1,0l-0.9,2.5c0,0.1,0,0.1,0.1,0.1h1.7
		c0.1,0,0.1-0.1,0.1-0.1L175.5,7.9z"/>
	<path class="st0" d="M184.2,6.8c0,0.1-0.1,0.1-0.1,0.1c0,0-1.1-0.1-1.7-0.1c-0.1,0-0.2,0.1-0.2,0.2l0,2.6l0,3.2
		c0,0.1,0,0.1-0.1,0.1h-1c-0.1,0-0.1,0-0.1-0.1l0-3.2l0-2.6c0-0.1-0.1-0.2-0.2-0.2c-0.6,0-1.7,0.1-1.7,0.1c-0.1,0-0.1,0-0.1-0.1
		l0-0.5c0-0.1,0.1-0.1,0.2-0.1h4.9c0.1,0,0.2,0,0.2,0.1L184.2,6.8z"/>
	<path class="st0" d="M190,12.8h-4.1c-0.1,0-0.1,0-0.1-0.1l0-3.2l0-3.2c0-0.1,0-0.1,0.1-0.1h4c0.1,0,0.2,0,0.2,0.1v0.5
		c0,0.1-0.1,0.1-0.2,0.1c0,0-1.2-0.2-1.7-0.2h-0.9c-0.1,0-0.3,0.1-0.3,0.3l0,2c0,0,0,0.1,0.1,0.1l2-0.1c0.1,0,0.1,0,0.1,0.1v0.5
		c0,0.1-0.1,0.1-0.1,0.1l-2-0.1c0,0-0.1,0-0.1,0.1l0,2.3c0,0.1,0.1,0.3,0.3,0.3h0.9c0.6,0,1.9-0.2,1.9-0.2c0.1,0,0.2,0,0.2,0.1v0.6
		C190.1,12.8,190.1,12.8,190,12.8z"/>
	<path class="st0" d="M196.6,12.8c-0.1,0-0.4-0.3-0.4-0.3c-0.1,0-0.1,0-0.2,0c-0.4,0.2-1,0.4-1.7,0.4c-1.6,0-2.9-0.9-2.9-3.4
		c0-2.1,1.3-3.3,2.9-3.3h1.9c0.1,0,0.1,0,0.1,0.1l-0.1,0.7c0,0.1-0.1,0.1-0.2,0.1c-0.6-0.2-0.8-0.3-1.8-0.3c-1,0-1.5,1-1.5,2.8
		c0,2.2,0.9,2.9,1.9,2.9c0.4,0,1-0.3,1-0.7c0-0.1-0.1-1.8-0.1-1.8s0-0.2,0-0.3c0-0.1,0.1-0.2,0.1-0.2h1c0,0,0.1,0,0.1,0.1v3.2
		C196.7,12.8,196.6,12.8,196.6,12.8z"/>
	<path class="st0" d="M199.8,12.8h-1c-0.1,0-0.1,0-0.1-0.1l0-3.2l0-3.2c0-0.1,0-0.1,0.1-0.1h1c0.1,0,0.1,0,0.1,0.1l0,3.2l0,3.2
		C199.9,12.8,199.9,12.8,199.8,12.8z"/>
	<path class="st0" d="M204.7,12.9c-1.6,0-2.9-0.9-2.9-3.4c0-2.1,1.3-3.3,2.9-3.3h1.9c0.1,0,0.1,0,0.1,0.1l-0.1,0.7
		c0,0.1-0.1,0.1-0.2,0.1c-0.6-0.2-0.8-0.3-1.8-0.3c-1,0-1.5,1-1.5,2.8c0,2.2,0.9,2.8,1.9,2.8c0.5,0,1-0.3,1.4-0.7c0,0,0.1,0,0.1,0
		l0.3,0.3c0,0,0,0.1,0,0.1C206.3,12.6,205.5,12.9,204.7,12.9z"/>
	<path class="st0" d="M215.5,10.2l-0.8,0v2.5c0,0.1-0.1,0.1-0.1,0.1H212c-1.2,0-1.8-0.8-1.8-1.5c0-0.7,0.5-1.3,1.3-1.5
		c-0.5-0.2-0.8-0.7-0.8-1.2c0-0.9,0.7-1.4,1.7-1.4h1c0.1,0,0.2,0,0.2,0.1l0,0.4c0,0.1-0.1,0.1-0.1,0.1c0,0-0.4-0.2-0.6-0.2
		c-0.5,0-0.9,0.3-0.9,1c0,0.6,0.4,1.1,1,1.1h0.8V9c0-0.1,0.1-0.1,0.1-0.1l0.8,0.1c0.1,0,0.1,0,0.1,0.1v0.6h0.8c0.1,0,0.1,0,0.1,0.1
		v0.3C215.5,10.1,215.5,10.2,215.5,10.2z M213.6,10.1l-1,0c-0.7,0-1,0.5-1,1.1c0,0.6,0.4,1.2,0.9,1.2c0.5,0,0.8,0,1.1-0.1V10.1z"/>
	<path class="st0" d="M89.6,25.7h-1c-0.1,0-0.1,0-0.1-0.1l0-3.2l0-3.2c0-0.1,0-0.1,0.1-0.1h1c0.1,0,0.1,0,0.1,0.1l0,3.2l0,3.2
		C89.7,25.7,89.7,25.7,89.6,25.7z"/>
	<path class="st0" d="M96.9,23.9v1.8c0,0.2-0.6,0.2-0.6,0.1L92.8,21c-0.1-0.1-0.1,0-0.1,0l0.1,4.5c0,0.1,0,0.2-0.1,0.2h-0.8
		c-0.1,0-0.1-0.1-0.1-0.2l0.1-4.7l0-1.6c0-0.1,0-0.1,0.1-0.1h0.6c0.1,0,0.2,0,0.2,0.1l3.1,4.3c0.1,0.1,0.2,0.1,0.2,0l-0.1-4.1
		c0-0.1,0-0.2,0.1-0.2h0.7c0.1,0,0.1,0.1,0.1,0.2L96.9,23.9z"/>
	<path class="st0" d="M103.8,19.7c0,0.1-0.1,0.1-0.1,0.1c0,0-1.1-0.1-1.7-0.1c-0.1,0-0.2,0.1-0.2,0.2l0,2.6l0,3.2
		c0,0.1,0,0.1-0.1,0.1h-1c-0.1,0-0.1,0-0.1-0.1l0-3.2l0-2.6c0-0.1-0.1-0.2-0.2-0.2c-0.6,0-1.7,0.1-1.7,0.1c-0.1,0-0.1,0-0.1-0.1
		l0-0.5c0-0.1,0.1-0.1,0.2-0.1h4.9c0.1,0,0.2,0,0.2,0.1L103.8,19.7z"/>
	<path class="st0" d="M109.6,25.7h-4.1c-0.1,0-0.1,0-0.1-0.1l0-3.2l0-3.2c0-0.1,0-0.1,0.1-0.1h4c0.1,0,0.2,0,0.2,0.1v0.5
		c0,0.1-0.1,0.1-0.2,0.1c0,0-1.2-0.2-1.7-0.2h-0.9c-0.1,0-0.3,0.1-0.3,0.3l0,2c0,0,0,0.1,0.1,0.1l2-0.1c0.1,0,0.1,0,0.1,0.1v0.5
		c0,0.1-0.1,0.1-0.1,0.1l-2-0.1c0,0-0.1,0-0.1,0.1l0,2.3c0,0.1,0.1,0.3,0.3,0.3h0.9c0.6,0,1.9-0.2,1.9-0.2c0.1,0,0.2,0,0.2,0.1v0.6
		C109.7,25.7,109.7,25.7,109.6,25.7z"/>
	<path class="st0" d="M116.6,25.7h-1.2c-0.1,0-0.1-0.1-0.2-0.1l-1.4-2.5c-0.2-0.3-0.4-0.4-0.6-0.4h-0.4c-0.1,0-0.2,0.1-0.2,0.2
		l0,2.8c0,0.1,0,0.1-0.1,0.1h-1c-0.1,0-0.1,0-0.1-0.1l0-3.2l0-3.2c0-0.1,0-0.1,0.1-0.1h2.9c1,0,1.8,0.7,1.8,1.6
		c0,0.9-0.7,1.6-1.6,1.8c-0.1,0-0.1,0.1,0,0.1c0.1,0.1,0.2,0.2,0.4,0.5l1.5,2.1l0.3,0.4C116.7,25.6,116.7,25.7,116.6,25.7z
		 M113.6,19.5h-0.7c-0.1,0-0.3,0.1-0.3,0.3l0,2.2c0,0.1,0.1,0.2,0.2,0.2h0.4c1,0,1.6-0.4,1.6-1.4C114.8,20,114.3,19.5,113.6,19.5z"
		/>
	<path class="st0" d="M123.4,23.9v1.8c0,0.2-0.6,0.2-0.6,0.1l-3.5-4.8c-0.1-0.1-0.1,0-0.1,0l0.1,4.5c0,0.1,0,0.2-0.1,0.2h-0.8
		c-0.1,0-0.1-0.1-0.1-0.2l0.1-4.7l0-1.6c0-0.1,0-0.1,0.1-0.1h0.6c0.1,0,0.2,0,0.2,0.1l3.1,4.3c0.1,0.1,0.2,0.1,0.2,0l-0.1-4.1
		c0-0.1,0-0.2,0.1-0.2h0.7c0.1,0,0.1,0.1,0.1,0.2L123.4,23.9z"/>
	<path class="st0" d="M130.9,25.7h-1.2c-0.1,0-0.2,0-0.2-0.1c0,0-0.2-0.5-0.3-0.8l-0.4-0.9c0-0.1-0.1-0.1-0.1-0.1h-2.1
		c-0.1,0-0.1,0-0.1,0.1l-0.5,1.7c0,0.1-0.1,0.1-0.2,0.1h-0.8c-0.1,0-0.1-0.1-0.1-0.2l2.5-6.4c0-0.1,0.8-0.1,0.8,0l2.3,5.7
		c0.1,0.3,0.4,0.7,0.4,0.7C131,25.7,131,25.7,130.9,25.7z M127.7,20.8c0-0.1-0.1-0.1-0.1,0l-0.9,2.5c0,0.1,0,0.1,0.1,0.1h1.7
		c0.1,0,0.1-0.1,0.1-0.1L127.7,20.8z"/>
	<path class="st0" d="M136.4,19.7c0,0.1-0.1,0.1-0.1,0.1c0,0-1.1-0.1-1.7-0.1c-0.1,0-0.2,0.1-0.2,0.2l0,2.6l0,3.2
		c0,0.1,0,0.1-0.1,0.1h-1c-0.1,0-0.1,0-0.1-0.1l0-3.2l0-2.6c0-0.1-0.1-0.2-0.2-0.2c-0.6,0-1.7,0.1-1.7,0.1c-0.1,0-0.1,0-0.1-0.1
		l0-0.5c0-0.1,0.1-0.1,0.2-0.1h4.9c0.1,0,0.2,0,0.2,0.1L136.4,19.7z"/>
	<path class="st0" d="M139.1,25.7h-1c-0.1,0-0.1,0-0.1-0.1l0-3.2l0-3.2c0-0.1,0-0.1,0.1-0.1h1c0.1,0,0.1,0,0.1,0.1l0,3.2l0,3.2
		C139.2,25.7,139.2,25.7,139.1,25.7z"/>
	<path class="st0" d="M143.9,25.9c-2.2,0-2.9-1.7-2.9-3.5c0-1.8,0.7-3.5,2.9-3.5c2.2,0,2.9,1.7,2.9,3.5
		C146.9,24.1,146.2,25.9,143.9,25.9z M143.9,19.4c-1.3,0-1.5,1.6-1.5,2.9c0,1.2,0.1,3.2,1.6,3.2c1.3,0,1.5-1.6,1.5-2.9
		C145.5,21.3,145.4,19.4,143.9,19.4z"/>
	<path class="st0" d="M153.8,23.9v1.8c0,0.2-0.6,0.2-0.6,0.1l-3.5-4.8c-0.1-0.1-0.1,0-0.1,0l0.1,4.5c0,0.1,0,0.2-0.1,0.2h-0.8
		c-0.1,0-0.1-0.1-0.1-0.2l0.1-4.7l0-1.6c0-0.1,0-0.1,0.1-0.1h0.6c0.1,0,0.2,0,0.2,0.1l3.1,4.3c0.1,0.1,0.2,0.1,0.2,0l-0.1-4.1
		c0-0.1,0-0.2,0.1-0.2h0.7c0.1,0,0.1,0.1,0.1,0.2L153.8,23.9z"/>
	<path class="st0" d="M161.3,25.7h-1.2c-0.1,0-0.2,0-0.2-0.1c0,0-0.2-0.5-0.3-0.8l-0.4-0.9c0-0.1-0.1-0.1-0.1-0.1h-2.1
		c-0.1,0-0.1,0-0.1,0.1l-0.5,1.7c0,0.1-0.1,0.1-0.2,0.1h-0.8c-0.1,0-0.1-0.1-0.1-0.2l2.5-6.4c0-0.1,0.8-0.1,0.8,0l2.3,5.7
		c0.1,0.3,0.4,0.7,0.4,0.7C161.4,25.7,161.4,25.7,161.3,25.7z M158.1,20.8c0-0.1-0.1-0.1-0.1,0l-0.9,2.5c0,0.1,0,0.1,0.1,0.1h1.7
		c0.1,0,0.1-0.1,0.1-0.1L158.1,20.8z"/>
	<path class="st0" d="M166.9,25.7H163c-0.1,0-0.1,0-0.1-0.1l0-3.2l0-3.2c0-0.1,0-0.1,0.1-0.1h1c0.1,0,0.1,0,0.1,0.1l0,3.2l0,2.5
		c0,0.1,0.1,0.3,0.3,0.3h0.8c0.6,0,1.7-0.2,1.7-0.2c0.1,0,0.2,0,0.2,0.1v0.6C167,25.7,166.9,25.7,166.9,25.7z"/>
	<path class="st0" d="M173.9,25.8c-1,0-1.7-0.2-2.3-0.5c-0.1,0-0.1-0.1-0.1-0.2l0.2-0.7c0-0.1,0.1-0.1,0.2,0c0.5,0.5,1.2,0.9,2,0.9
		c0.6,0,1.3-0.5,1.3-1.1c0-1.7-3.7-1-3.7-3.5c0-1.1,0.8-1.8,2-1.8c1,0,1.8,0.2,2.3,0.2c0.1,0,0.1,0.1,0.1,0.1l-0.2,0.7
		c0,0.1-0.1,0.1-0.2,0.1c-0.5-0.3-1-0.6-2-0.6c-0.5,0-1,0.3-1,0.9c0,1.8,3.7,0.9,3.7,3.7C176.3,25.3,175.3,25.8,173.9,25.8z"/>
	<path class="st0" d="M182.8,19.7c0,0.1-0.1,0.1-0.1,0.1c0,0-1.1-0.1-1.7-0.1c-0.1,0-0.2,0.1-0.2,0.2l0,2.6l0,3.2
		c0,0.1,0,0.1-0.1,0.1h-1c-0.1,0-0.1,0-0.1-0.1l0-3.2l0-2.6c0-0.1-0.1-0.2-0.2-0.2c-0.6,0-1.7,0.1-1.7,0.1c-0.1,0-0.1,0-0.1-0.1
		l0-0.5c0-0.1,0.1-0.1,0.2-0.1h4.9c0.1,0,0.2,0,0.2,0.1L182.8,19.7z"/>
	<path class="st0" d="M189.4,20l-0.1,3.7c0,1.4-0.8,2.2-2.3,2.2c-1.7,0-2.6-0.7-2.6-2.2l0-3.8l0-0.7c0-0.1,0-0.1,0.1-0.1h1
		c0.1,0,0.1,0,0.1,0.1l0,0.7v3.7c0,1,0.7,1.6,1.4,1.6c0.7,0,1.4-0.4,1.4-1.5l0-3.7c0-0.3,0-0.8,0-0.8c0-0.1,0-0.2,0.1-0.2h0.9
		c0.1,0,0.1,0.1,0.1,0.2C189.4,19.2,189.4,19.7,189.4,20z"/>
	<path class="st0" d="M193.6,25.7c-1.2,0-1.3-0.1-1.6-0.1c-0.3,0-0.3,0.1-0.5,0.1c-0.1,0-0.1,0-0.1-0.1l0-3.2l0-3.2
		c0-0.1,0-0.1,0.1-0.1h2.4c1.4,0,2.7,1.1,2.7,3.2C196.6,24.1,195.6,25.7,193.6,25.7z M193.6,19.5h-0.7c-0.1,0-0.2,0.1-0.2,0.2l0,2.6
		l0,2.3c0,0.4,0.3,0.6,0.8,0.6c1.6,0,1.8-1.9,1.8-3.1C195.3,20.2,194.4,19.5,193.6,19.5z"/>
	<path class="st0" d="M199.5,25.7h-1c-0.1,0-0.1,0-0.1-0.1l0-3.2l0-3.2c0-0.1,0-0.1,0.1-0.1h1c0.1,0,0.1,0,0.1,0.1l0,3.2l0,3.2
		C199.7,25.7,199.6,25.7,199.5,25.7z"/>
	<path class="st0" d="M206,25.7h-4.1c-0.1,0-0.1,0-0.1-0.1l0-3.2l0-3.2c0-0.1,0-0.1,0.1-0.1h4c0.1,0,0.2,0,0.2,0.1v0.5
		c0,0.1-0.1,0.1-0.2,0.1c0,0-1.2-0.2-1.7-0.2h-0.9c-0.1,0-0.3,0.1-0.3,0.3l0,2c0,0,0,0.1,0.1,0.1l2-0.1c0.1,0,0.1,0,0.1,0.1v0.5
		c0,0.1-0.1,0.1-0.1,0.1l-2-0.1c0,0-0.1,0-0.1,0.1l0,2.3c0,0.1,0.1,0.3,0.3,0.3h0.9c0.6,0,1.9-0.2,1.9-0.2c0.1,0,0.2,0,0.2,0.1v0.6
		C206.2,25.7,206.1,25.7,206,25.7z"/>
	<path class="st0" d="M210,25.8c-1,0-1.7-0.2-2.3-0.5c-0.1,0-0.1-0.1-0.1-0.2l0.2-0.7c0-0.1,0.1-0.1,0.2,0c0.5,0.5,1.2,0.9,2,0.9
		c0.6,0,1.3-0.5,1.3-1.1c0-1.7-3.7-1-3.7-3.5c0-1.1,0.8-1.8,2-1.8c1,0,1.8,0.2,2.3,0.2c0.1,0,0.1,0.1,0.1,0.1l-0.2,0.7
		c0,0.1-0.1,0.1-0.2,0.1c-0.5-0.3-1-0.6-2-0.6c-0.5,0-1,0.3-1,0.9c0,1.8,3.7,0.9,3.7,3.7C212.4,25.3,211.4,25.8,210,25.8z"/>
</g>
</svg>
