<?xml version="1.0" encoding="utf-8"?>
<!-- Generator: Adobe Illustrator 19.0.0, SVG Export Plug-In . SVG Version: 6.00 Build 0)  -->
<svg version="1.1" id="Layer_1" xmlns="http://www.w3.org/2000/svg" xmlns:xlink="http://www.w3.org/1999/xlink" x="0px" y="0px"
	 viewBox="-104 391 20 20" style="enable-background:new -104 391 20 20;" xml:space="preserve">
<style type="text/css">
	.st0{fill:#FFFFFF;}
	.st1{fill:#F9B192;}
</style>
<g id="XMLID_287_">
	<circle id="XMLID_286_" class="st0" cx="-94" cy="401" r="10"/>
	<g id="XMLID_31_">
		<path id="XMLID_224_" class="st1" d="M-98,405.2c0,0.3,0.2,0.5,0.5,0.5h6.9c0.3,0,0.5-0.2,0.5-0.5V400H-98V405.2z M-92.1,400.6
			h1.2v1.2h-1.2C-92.1,401.8-92.1,400.6-92.1,400.6z M-92.1,402.3h1.2v1.2h-1.2C-92.1,403.4-92.1,402.3-92.1,402.3z M-93.8,400.6
			h1.2v1.2h-1.2V400.6z M-93.8,402.3h1.2v1.2h-1.2V402.3z M-93.8,403.9h1.2v1.2h-1.2V403.9z M-95.4,400.6h1.2v1.2h-1.2V400.6z
			 M-95.4,402.3h1.2v1.2h-1.2V402.3z M-95.4,403.9h1.2v1.2h-1.2V403.9z M-97.1,402.3h1.2v1.2h-1.2V402.3z M-97.1,403.9h1.2v1.2h-1.2
			V403.9z"/>
		<path id="XMLID_247_" class="st1" d="M-94,392.2c-4.8,0-8.8,3.9-8.8,8.8s3.9,8.8,8.8,8.8s8.8-3.9,8.8-8.8S-89.2,392.2-94,392.2z
			 M-92.4,396.1c0-0.2,0.2-0.4,0.4-0.4s0.4,0.2,0.4,0.4v1.9c0,0.2-0.2,0.4-0.4,0.4s-0.4-0.2-0.4-0.4V396.1z M-96.5,396.1
			c0-0.2,0.2-0.4,0.4-0.4s0.4,0.2,0.4,0.4v1.9c0,0.2-0.2,0.4-0.4,0.4s-0.4-0.2-0.4-0.4V396.1z M-89.3,405.8c0,0.3-0.3,0.6-0.6,0.6
			h-8.2c-0.3,0-0.6-0.3-0.6-0.6v-8.2c0-0.3,0.3-0.6,0.6-0.6h1.4v1c0,0.4,0.3,0.7,0.7,0.7s0.7-0.3,0.7-0.7v-1h2.7v1
			c0,0.4,0.3,0.7,0.7,0.7s0.7-0.3,0.7-0.7v-1h1.4c0.3,0,0.6,0.3,0.6,0.6V405.8z"/>
		<rect id="XMLID_253_" x="-93.5" y="402.5" class="st1" width="0.7" height="0.7"/>
	</g>
</g>
</svg>
