<svg xmlns="http://www.w3.org/2000/svg" width="25.14" height="25.14" viewBox="0 0 25.14 25.14">
  <defs>
    <style>
      .a {
        fill: #58595b;
      }
    </style>
  </defs>
  <title>Asset 1</title>
  <path class="a" d="M13.43,25.14h-12A1.39,1.39,0,0,1,0,23.75V1.39A1.39,1.39,0,0,1,1.39,0H23.76a1.39,1.39,0,0,1,1.39,1.39V23.75a1.39,1.39,0,0,1-1.39,1.39H17.35V15.41h3.27l.49-3.79H17.35V9.19c0-1.1.31-1.85,1.88-1.85h2V3.95a26.86,26.86,0,0,0-2.93-.15c-2.9,0-4.88,1.77-4.88,5v2.8H10.15v3.79h3.28v9.74Z"/>
</svg>
