<svg height="16" viewBox="0 0 36 16" width="36" xmlns="http://www.w3.org/2000/svg"><g fill="#323c49" fill-rule="evenodd"><path d="m8 0c1.10417219 0 2.1406202.20833125 3.109375.625s1.8177047.98957969 2.546875 1.71875 1.3020812 1.57812016 1.71875 2.546875.625 2.00520281.625 3.109375-.2083312 2.1406202-.625 3.109375-.9895797 1.8177047-1.71875 2.546875-1.5781202 1.3020812-2.546875 1.71875-2.00520281.625-3.109375.625-2.14062016-.2083312-3.109375-.625-1.81770469-.9895797-2.546875-1.71875-1.30208125-1.5781202-1.71875-2.546875-.625-2.00520281-.625-3.109375.20833125-2.14062016.625-3.109375.98957969-1.81770469 1.71875-2.546875 1.57812016-1.30208125 2.546875-1.71875 2.00520281-.625 3.109375-.625zm0 15.0625c.97917156 0 1.89582906-.1874981 2.75-.5625.8541709-.3750019 1.5989552-.8802052 2.234375-1.515625s1.1406231-1.3802041 1.515625-2.234375c.3750019-.85417094.5625-1.77082844.5625-2.75s-.1874981-1.89582906-.5625-2.75-.8802052-1.59895516-1.515625-2.234375-1.3802041-1.14062313-2.234375-1.515625c-.85417094-.37500187-1.77082844-.5625-2.75-.5625s-1.89582906.18749813-2.75.5625-1.59895516.88020516-2.234375 1.515625-1.14062313 1.38020406-1.515625 2.234375-.5625 1.77082844-.5625 2.75.18749813 1.89582906.5625 2.75c.37500187.8541709.88020516 1.5989552 1.515625 2.234375s1.38020406 1.1406231 2.234375 1.515625 1.77082844.5625 2.75.5625zm1.09375-3.5625c0 .1250006-.02604141.2499994-.078125.375s-.11979125.2291662-.203125.3125-.18749937.1510414-.3125.203125-.24999937.078125-.375.078125c-.14583406 0-.27604109-.0260414-.390625-.078125s-.21354125-.1197912-.296875-.203125-.15104141-.1874994-.203125-.3125-.078125-.2499994-.078125-.375.02604141-.2499994.078125-.375.11979125-.2291662.203125-.3125.18229109-.1510414.296875-.203125.24479094-.078125.390625-.078125c.12500063 0 .24999937.0260414.375.078125s.22916625.1197912.3125.203125.15104141.1874994.203125.3125.078125.2499994.078125.375zm.9375-7.53125c.1041672.12500062.1979163.26562422.28125.421875s.1458331.31249922.1875.46875.0677083.30729094.078125.453125.0052084.28124938-.015625.40625c-.0625003.22916781-.1406245.44270734-.234375.640625s-.1979161.36979094-.3125.515625c-.11458391.14583406-.23958266.28124938-.375.40625s-.26562437.23958281-.390625.34375c-.12500063.12500062-.23958281.23958281-.34375.34375s-.19791625.21354109-.28125.328125-.14583312.24479094-.1875.390625-.0625.31249906-.0625.5h-.9375c0-.29166812.03645797-.55208219.109375-.78125s.16666609-.43229078.28125-.609375.24479094-.33333266.390625-.46875.28124937-.26562438.40625-.390625c.10416719-.10416719.20833281-.20312453.3125-.296875s.20312453-.19791609.296875-.3125.17187469-.23958266.234375-.375.11458312-.2864575.15625-.453125c.02083344-.04166687.02604172-.09374969.015625-.15625s-.02604156-.13541625-.046875-.21875-.05729141-.17708281-.109375-.28125-.11979125-.19791625-.203125-.28125c-.06250031-.10416719-.13541625-.18749969-.21875-.25s-.17708281-.11979141-.28125-.171875-.20833281-.08854156-.3125-.109375-.21874937-.03125-.34375-.03125c-.41666875 0-.74479047.07291594-.984375.21875s-.41666609.30729078-.53125.484375-.18229156.3489575-.203125.515625-.04166656.26041656-.0625.28125h-.9375c.02083344-.20833438.07291625-.45312359.15625-.734375s.22916562-.54687375.4375-.796875.48437328-.46354078.828125-.640625.77603906-.265625 1.296875-.265625c.18750094 0 .36979078.02083313.546875.0625s.3489575.09895797.515625.171875.32291594.16666609.46875.28125.27083281.24479094.375.390625z"/><path d="m28.5 0c1.0351614 0 2.0068314.19531055 2.9150391.5859375.9082076.39062695 1.7040981.92773096 2.3876953 1.61132812.6835971.68359717 1.2207011 1.47948765 1.6113281 2.38769532.390627.90820766.5859375 1.87987763.5859375 2.91503906s-.1953105 2.0068314-.5859375 2.9150391c-.390627.9082076-.927731 1.7040981-1.6113281 2.3876953-.6835972.6835971-1.4794877 1.2207011-2.3876953 1.6113281-.9082077.390627-1.8798777.5859375-2.9150391.5859375s-2.0068314-.1953105-2.9150391-.5859375c-.9082076-.390627-1.7040981-.927731-2.3876953-1.6113281-.6835971-.6835972-1.2207011-1.4794877-1.6113281-2.3876953-.390627-.9082077-.5859375-1.87987767-.5859375-2.9150391s.1953105-2.0068314.5859375-2.91503906c.390627-.90820767.927731-1.70409815 1.6113281-2.38769532.6835972-.68359716 1.4794877-1.22070117 2.3876953-1.61132812.9082077-.39062695 1.8798777-.5859375 2.9150391-.5859375zm1.0253906 10.78125c0 .1171881-.0244138.2343744-.0732422.3515625-.0488283.1171881-.1123043.2148434-.1904296.2929687-.0781254.0781254-.1757807.1416014-.2929688.1904297-.1171881.0488284-.2343744.0732422-.3515625.0732422-.1367194 0-.2587885-.0244138-.3662109-.0732422-.1074224-.0488283-.200195-.1123043-.2783204-.1904297-.0781253-.0781253-.1416013-.1757806-.1904296-.2929687-.0488284-.1171881-.0732422-.2343744-.0732422-.3515625s.0244138-.2343744.0732422-.3515625c.0488283-.1171881.1123043-.2148434.1904296-.2929687.0781254-.0781254.170898-.14160137.2783204-.19042974s.2294915-.07324218.3662109-.07324218c.1171881 0 .2343744.02441381.3515625.07324218s.2148434.11230434.2929688.19042974c.0781253.0781253.1416013.1757806.1904296.2929687.0488284.1171881.0732422.2343744.0732422.3515625zm.8789063-7.06054688c.0976567.11718809.1855465.24902271.2636719.39550782.0781253.1464851.1367185.29296802.1757812.43945312.0390627.14648511.0634765.28808526.0732422.42480469s.0048829.26367129-.0146484.38085937c-.0585941.21484483-.1318355.41503814-.2197266.60058594-.0878911.18554781-.1855464.34667901-.2929688.48339844s-.2246087.26367129-.3515625.38085938c-.1269537.11718808-.2490228.22460888-.3662109.32226562-.1171881.11718809-.2246089.22460889-.3222656.32226562-.0976568.09765674-.1855465.20019478-.2636719.30761719s-.1367186.22949151-.1757813.36621094c-.0390626.13671943-.0585937.29296787-.0585937.46875h-.8789063c0-.27343887.0341794-.51757705.1025391-.73242187.0683597-.21484483.1562495-.40527261.2636719-.57128907.1074224-.16601645.2294915-.31249936.3662109-.43945312.1367195-.12695376.2636713-.24902285.3808594-.36621094.0976567-.09765674.195312-.19042925.2929687-.27832031.0976568-.08789107.1904293-.18554634.2783204-.29296875.087891-.10742241.1611325-.22460874.2197265-.3515625.0585941-.12695376.1074217-.26855391.1464844-.42480469.0195313-.0390627.0244141-.08789033.0146484-.14648438-.0097656-.05859404-.0244139-.12695273-.0439453-.20507812-.0195313-.07812539-.0537107-.16601514-.102539-.26367188-.0488284-.09765673-.1123043-.18554648-.1904297-.26367187-.0585941-.09765674-.1269528-.17578096-.2050781-.234375-.0781254-.05859404-.1660152-.11230444-.2636719-.16113281-.0976568-.04882837-.195312-.08300772-.2929688-.10253906-.0976567-.01953135-.2050775-.02929688-.3222656-.02929688-.390627 0-.6982411.06835869-.9228516.20507812-.2246105.13671944-.3906244.28808511-.4980468.45410157-.1074224.16601645-.1708984.32714765-.1904297.48339843-.0195314.15625079-.0390624.24414053-.0585938.26367188h-.8789062c.0195313-.19531348.068359-.42480337.1464844-.68847656.0781253-.2636732.2148427-.51269414.4101562-.74707032.1953135-.23437617.4541-.43456948.7763672-.60058593.3222672-.16601646.7275366-.24902344 1.2158203-.24902344.1757821 0 .3466789.01953105.5126953.05859375.1660165.0390627.3271477.0927731.4833984.16113281.1562508.06835972.3027337.15624947.4394532.26367188.1367194.10742241.2539057.2294915.3515625.36621093z"/></g></svg>