<svg id="レイヤー_1" data-name="レイヤー 1" xmlns="http://www.w3.org/2000/svg" viewBox="0 0 486.76 87.05"><defs><style>.cls-1{fill:#1b4472;}.cls-2{fill:#3b3b3c;}</style></defs><title>Nikkei_Asian_Logo</title><path class="cls-1" d="M104,36.84c0,1.16,0,2.26,0,3.33-.47-.73-1-1.48-1.51-2.25L94.83,26.8H89.59V50.29H95V40.06c0-1.34,0-2.53,0-3.63.54.84,1.14,1.74,1.8,2.7l7.69,11.16h5V26.8H104Z" transform="translate(-29.44 -26.8)"/><rect class="cls-1" x="85.38" width="5.59" height="23.49"/><polygon class="cls-1" points="116.17 0 108.89 0 101.85 7.86 101.85 0 96.28 0 96.28 23.49 101.85 23.49 101.85 14.75 102.6 13.96 109.63 23.49 116.4 23.49 106.55 10.26 116.17 0"/><polygon class="cls-1" points="138.65 0 131.37 0 124.34 7.85 124.34 0 118.75 0 118.75 23.49 124.34 23.49 124.34 14.75 125.08 13.96 132.11 23.49 138.89 23.49 129.03 10.26 138.65 0"/><polygon class="cls-1" points="146.81 13.7 155.74 13.7 155.74 8.86 146.81 8.86 146.81 4.87 156.26 4.87 156.26 0 141.23 0 141.23 23.49 156.77 23.49 156.77 18.62 146.81 18.62 146.81 13.7"/><rect class="cls-1" x="160.51" width="5.58" height="23.49"/><path class="cls-2" d="M68.82,95,75,113h10.9l-5-12L61,46.15l-6.67,1.3L29.44,113h9.28L45.06,95ZM56.51,64.57l.86-2.9.91,3.53,8,22.2H47.79Z" transform="translate(-29.44 -26.8)"/><polygon class="cls-2" points="97.63 86.16 106.64 86.16 105.7 79.89 105.69 33.31 96.42 33.31 97.62 40.81 97.63 86.16"/><path class="cls-2" d="M172.65,98.64,177.92,113h9.52l-4.56-10.24L165.93,59l-4.84,1.08L139.54,113h7.61l5.46-14.33ZM162.17,75.28l.71-2,7.27,18.68H155.21Z" transform="translate(-29.44 -26.8)"/><polygon class="cls-2" points="200.81 86.16 205.98 86.16 205.41 80.01 205.41 33.31 196.48 33.31 197.6 40.72 197.6 70.27 194.55 66.03 166.13 33.31 160.8 33.31 161.92 40.72 161.93 86.16 170.68 86.16 169.74 79.89 169.73 49.88 172.21 52.97 200.81 86.16"/><path class="cls-2" d="M280.82,87.75l.47,0,17.15,25.23h11.61L290,85.22l.86-.45C298,81,302.4,74.17,302.4,66.84c0-13.41-10.63-19.41-21.17-19.41H263l1.28,9v56.49h10l-1-8.54V87.81h.84C278.27,87.81,279.82,87.81,280.82,87.75Zm-7.57-32.89h6.22c6.69,0,13.45,3.7,13.45,12a13.85,13.85,0,0,1-13.45,13.54h-6.22Z" transform="translate(-29.44 -26.8)"/><polygon class="cls-2" points="354.25 33.3 340.93 67.73 339.07 73.39 337.59 67.99 324.77 33.3 313.77 33.3 318.92 42.44 335.18 86.07 341.39 87.05 362.62 33.3 354.25 33.3"/><polygon class="cls-2" points="367.71 86.17 377.02 86.17 376.06 79.9 376.05 33.3 366.45 33.3 367.7 40.8 367.71 86.17"/><polygon class="cls-2" points="391.93 79.55 391.93 62.18 408.06 62.18 410.14 55.57 391.93 55.57 391.93 39.91 411.44 39.91 407.93 33.3 382.33 33.3 383.58 40.8 383.59 86.17 411.6 86.17 413.67 79.55 391.93 79.55"/><polygon class="cls-2" points="293.03 79.55 293.03 62.18 309.16 62.18 311.24 55.57 293.03 55.57 293.03 39.91 312.54 39.91 309.03 33.3 283.43 33.3 284.68 40.8 284.69 86.17 312.7 86.17 314.77 79.55 293.03 79.55"/><polygon class="cls-2" points="478.34 33.3 465.41 67.71 463.85 73.29 462.14 68.06 449.92 33.3 441.3 33.3 446.67 47.26 439.12 67.71 437.28 73.58 435.82 67.97 423.62 33.3 412.7 33.3 417.7 42.46 433.18 86.07 438.65 87.03 448.73 60.52 449.91 56.14 451.18 60.06 460.46 86.07 466.2 87.04 486.76 33.3 478.34 33.3"/><path class="cls-2" d="M88.89,109.91l.77-8.66.86.68a25.5,25.5,0,0,0,6.73,3.58,17,17,0,0,0,6.39,1,12.1,12.1,0,0,0,5.49-1.55,9.35,9.35,0,0,0,3.63-3.59A6.64,6.64,0,0,0,110.69,93,16.37,16.37,0,0,0,109,91.87q-.89-.53-2.27-1.18L105,89.85l-4.14-1.73a51.38,51.38,0,0,1-4.69-2.18A23.15,23.15,0,0,1,93.2,84a12.5,12.5,0,0,1-3.42-4.15A12.1,12.1,0,0,1,88.51,75a12.33,12.33,0,0,1,1.84-7,15,15,0,0,1,6.16-5.52,21.41,21.41,0,0,1,8.89-2.42,30.83,30.83,0,0,1,10.23,1.41l2.09.7,2,.8L117.23,71l-2.41-1.6a19.92,19.92,0,0,0-5-2.19,15.19,15.19,0,0,0-4.73-.55,10.15,10.15,0,0,0-5.79,2A5,5,0,0,0,97,72.72c-.47,4.64,3.91,6.72,5.91,7.63l1.15.52L109.34,83a49.9,49.9,0,0,1,4.54,2.18,21.52,21.52,0,0,1,3,2,12.65,12.65,0,0,1,3.43,4.44,14.18,14.18,0,0,1,1.29,5.35,14.6,14.6,0,0,1-1.91,7.87,14.89,14.89,0,0,1-6,5.91,22.26,22.26,0,0,1-9.58,2.46l-1.2.06a11.07,11.07,0,0,1-1.17,0c-.43,0-.74,0-.94,0a27.38,27.38,0,0,1-4.12-.58,37.11,37.11,0,0,1-4.91-1.48l-1.22-.44-.95-.5Z" transform="translate(-29.44 -26.8)"/></svg>