<?xml version="1.0" encoding="utf-8"?>
<!-- Generator: Adobe Illustrator 19.0.0, SVG Export Plug-In . SVG Version: 6.00 Build 0)  -->
<svg version="1.1" id="Layer_1" xmlns="http://www.w3.org/2000/svg" xmlns:xlink="http://www.w3.org/1999/xlink" x="0px" y="0px"
	 viewBox="-134 376.3 50 50" enable-background="new -134 376.3 50 50" xml:space="preserve">
<g id="XMLID_31_">
	<circle id="XMLID_155_" fill="#FFFFFF" cx="-109" cy="401.3" r="25"/>
	<g id="XMLID_117_">
		<g id="XMLID_149_">
			<path id="XMLID_153_" fill="#7E3C22" d="M-109,379.348c-12.119,0-21.952,9.833-21.952,21.952s9.833,21.952,21.952,21.952
				s21.952-9.833,21.952-21.952S-96.881,379.348-109,379.348z M-91.81,408.348h-4.81c-0.405,0-0.714-0.31-0.714-0.714v-0.619h-6.262
				c-0.167,0.214-0.333,0.405-0.524,0.595c-2.69,2.69-7.048,2.69-9.738,0c-0.19-0.19-0.357-0.381-0.524-0.595h-6.429v0.619
				c0,0.405-0.31,0.714-0.714,0.714h-4.667c-0.405,0-0.714-0.31-0.714-0.714v-9.81c0-0.405,0.31-0.714,0.714-0.714h4.667
				c0.405,0,0.714,0.31,0.714,0.714v0.619h6.405c0.167-0.214,0.333-0.405,0.524-0.595c1.048-1.048,2.333-1.69,3.69-1.905v-3.595
				h-4.524c-0.333,0-0.595-0.643-0.595-0.952l0,0c0-0.333,0.262-0.595,0.595-0.595h4.69c0.024-0.524,0.476-0.952,1.024-0.952l0,0
				c0.548,0,0.976,0.429,1.024,0.952h4.69c0.333,0,0.595,0.262,0.595,0.595l0,0c0,0.333-0.262,0.952-0.595,0.952h-4.548v3.619
				c1.357,0.238,2.643,0.857,3.69,1.905c0.19,0.19,0.357,0.381,0.524,0.595h6.286v-0.619c0-0.405,0.31-0.714,0.714-0.714h4.81
				c0.405,0,0.714,0.31,0.714,0.714v9.81C-91.095,408.014-91.405,408.348-91.81,408.348z"/>
			<g id="XMLID_151_">
				<path id="XMLID_172_" fill="#7E3C22" d="M-91.81,397.109c0.405,0,0.714,0.31,0.714,0.714v9.81c0,0.405-0.31,0.714-0.714,0.714
					h-4.81c-0.405,0-0.714-0.31-0.714-0.714v-9.81c0-0.405,0.31-0.714,0.714-0.714H-91.81 M-91.81,396.586h-4.81
					c-0.69,0-1.238,0.548-1.238,1.238v9.81c0,0.69,0.548,1.238,1.238,1.238h4.81c0.69,0,1.238-0.548,1.238-1.238v-9.81
					C-90.571,397.133-91.119,396.586-91.81,396.586L-91.81,396.586z"/>
			</g>
			<g id="XMLID_150_">
				<path id="XMLID_168_" fill="#7E3C22" d="M-121.548,397.109c0.405,0,0.714,0.31,0.714,0.714v9.81c0,0.405-0.31,0.714-0.714,0.714
					h-4.833c-0.405,0-0.714-0.31-0.714-0.714v-9.81c0-0.405,0.31-0.714,0.714-0.714H-121.548 M-121.548,396.586h-4.833
					c-0.69,0-1.238,0.548-1.238,1.238v9.81c0,0.69,0.548,1.238,1.238,1.238h4.81c0.69,0,1.238-0.548,1.238-1.238v-9.81
					C-120.333,397.133-120.881,396.586-121.548,396.586L-121.548,396.586z"/>
			</g>
		</g>
		<path id="XMLID_148_" fill="none" stroke="#7E3C22" stroke-width="0.5239" stroke-miterlimit="10" d="M-107.738,395.943
			c1.357,0.238,2.643,0.881,3.69,1.929c2.69,2.69,2.69,7.048,0,9.738c-2.69,2.69-7.048,2.69-9.738,0c-2.69-2.69-2.69-7.048,0-9.738
			c1.048-1.048,2.357-1.69,3.69-1.929"/>
		<path id="XMLID_147_" fill="none" stroke="#7E3C22" stroke-width="0.5239" stroke-miterlimit="10" d="M-105.19,395.943"/>
		<path id="XMLID_138_" fill="none" stroke="#7E3C22" stroke-width="0.5239" stroke-miterlimit="10" d="M-107.548,395.943"/>
	</g>
</g>
</svg>
