<?xml version="1.0" encoding="utf-8"?>
<!-- Generator: Adobe Illustrator 19.0.0, SVG Export Plug-In . SVG Version: 6.00 Build 0)  -->
<svg version="1.1" id="Layer_1" xmlns="http://www.w3.org/2000/svg" xmlns:xlink="http://www.w3.org/1999/xlink" x="0px" y="0px"
	 viewBox="0 0 88.1 109.4" style="enable-background:new 0 0 88.1 109.4;" xml:space="preserve">
<style type="text/css">
	.st0{fill:none;stroke:#58595B;stroke-width:3.1043;stroke-miterlimit:10;}
	.st1{fill:#58595B;}
	.st2{font-family:'Lato-Semibold';}
	.st3{font-size:15.5213px;}
</style>
<g>
	<path id="XMLID_266_" class="st0" d="M72.7,86.6H15.4c-7.7,0-13.9-6.2-13.9-13.9V15.4c0-7.7,6.2-13.9,13.9-13.9h57.3
		c7.7,0,13.9,6.2,13.9,13.9v57.3C86.6,80.4,80.4,86.6,72.7,86.6z"/>
	<path id="XMLID_265_" class="st1" d="M38.3,16.6l23.5,23.5c2.2,2.2,2.2,5.7,0,7.9L38.3,71.5c-3.5,3.5-9.6,1-9.6-4v-47
		C28.8,15.6,34.8,13.1,38.3,16.6z"/>
	<g id="XMLID_264_">
		<text id="XMLID_464_" transform="matrix(1 0 0 1 23.953 105.1183)" class="st1 st2 st3">PLAY</text>
	</g>
</g>
</svg>
