<?xml version="1.0" encoding="utf-8"?>
<!-- Generator: Adobe Illustrator 19.0.0, SVG Export Plug-In . SVG Version: 6.00 Build 0)  -->
<svg version="1.1" id="Layer_1" xmlns="http://www.w3.org/2000/svg" xmlns:xlink="http://www.w3.org/1999/xlink" x="0px" y="0px"
	 viewBox="0 0 210 210" style="enable-background:new 0 0 210 210;" xml:space="preserve">
<style type="text/css">
	.st0{fill:#FFFFFF;}
	.st1{fill:#749769;}
</style>
<g id="XMLID_281_">
	<circle id="XMLID_280_" class="st0" cx="105" cy="105" r="105"/>
	<g id="XMLID_232_">
		<g id="XMLID_275_">
			<polygon id="XMLID_292_" class="st1" points="63.4,72.4 62.5,96.2 84.6,96.1 82.4,72.4 			"/>
			<path id="XMLID_286_" class="st1" d="M126.6,120.5H59.4c-6.7,0-12.2,5.5-12.2,12.2c0,6.7,5.5,12.2,12.2,12.2h67.2
				c6.7,0,12.2-5.5,12.2-12.2C138.8,126,133.3,120.5,126.6,120.5z M60.8,138.1c-2.7,0-4.9-2.2-4.9-4.9c0-2.7,2.2-4.9,4.9-4.9
				c2.7,0,4.9,2.2,4.9,4.9C65.8,135.9,63.6,138.1,60.8,138.1z M82.6,138.1c-2.7,0-4.9-2.2-4.9-4.9c0-2.7,2.2-4.9,4.9-4.9
				c2.7,0,4.9,2.2,4.9,4.9C87.6,135.9,85.3,138.1,82.6,138.1z M104.4,138.1c-2.7,0-4.9-2.2-4.9-4.9c0-2.7,2.2-4.9,4.9-4.9
				c2.7,0,4.9,2.2,4.9,4.9C109.4,135.9,107.1,138.1,104.4,138.1z M126.2,138.1c-2.7,0-4.9-2.2-4.9-4.9c0-2.7,2.2-4.9,4.9-4.9
				c2.7,0,4.9,2.2,4.9,4.9C131.2,135.9,128.9,138.1,126.2,138.1z"/>
			<path id="XMLID_277_" class="st1" d="M105,12.8c-50.9,0-92.2,41.3-92.2,92.2c0,50.9,41.3,92.2,92.2,92.2s92.2-41.3,92.2-92.2
				C197.2,54.1,155.9,12.8,105,12.8z M48.5,66.4c0-3.4,2.9-6.2,6.4-6.2h34.3c3.5,0,6.3,2.7,6.4,6.1l1,13.3h11.1v-9
				c0-0.1,0.1-0.3,0.1-0.4c0-0.1,0-0.3,0.1-0.4l2.3-6.1c0.5-1.2,1.9-1.9,3.1-1.4c1.2,0.5,1.9,1.9,1.4,3.1l-2.2,5.7v8.6h18.1
				c3.5,0,6.4,2.8,6.4,6.2v28.2c0,1.3-1.1,2.4-2.4,2.4c-1.3,0-2.4-1.1-2.4-2.4V85.8c0-0.8-0.7-1.4-1.5-1.4H94.3
				c-1.3,0-2.3-1-2.4-2.2l-1.2-15.6c0-0.1,0-0.1,0-0.2c0-0.8-0.7-1.4-1.6-1.4H54.9c-0.9,0-1.5,0.6-1.5,1.4c0,0,0,0.1,0,0.1l-1.7,47
				c0,1.3-1.2,2.3-2.5,2.3c-1.3,0-2.4-1.2-2.3-2.5L48.5,66.4z M123.5,95.8h-15.8c-1.3,0-2.4-1.1-2.4-2.4c0-1.3,1.1-2.4,2.4-2.4h15.8
				c1.3,0,2.4,1.1,2.4,2.4C125.9,94.7,124.9,95.8,123.5,95.8z M125.6,102.7c0,1.3-1.1,2.4-2.4,2.4h-15.8c-1.3,0-2.4-1.1-2.4-2.4
				s1.1-2.4,2.4-2.4h15.8C124.5,100.3,125.6,101.3,125.6,102.7z M89.7,98.2c0.1,0.7-0.2,1.3-0.6,1.8c-0.5,0.5-1.1,0.8-1.8,0.8
				L60,101.1c0,0,0,0,0,0c-0.7,0-1.3-0.3-1.7-0.7c-0.5-0.5-0.7-1.1-0.7-1.8l1-26.5c0-2.5,2.1-4.5,4.6-4.5h19.3c2.5,0,4.6,2,4.6,4.4
				L89.7,98.2z M164.5,149.8c-8.8,0-15.9-7.5-17.6-18.2l-3.3-0.1c0,0.4,0.1,0.8,0.1,1.2c0,9.4-7.6,17-17,17H59.4
				c-9.4,0-17-7.6-17-17c0-9.4,7.6-17,17-17h67.2c3.6,0,6.9,1.1,9.6,3l11.4,0.1c2.6-8.9,9.1-14.7,16.8-14.7c4.2,0,7.6,3.4,7.6,7.6
				c0,4.1-3.4,7.5-7.5,7.6c-0.8,0.3-2.9,3-2.9,7.7c0,4.6,2,7.4,2.9,7.7c4.1,0,7.5,3.4,7.5,7.6C172,146.4,168.6,149.8,164.5,149.8z"
				/>
			<path id="XMLID_276_" class="st1" d="M164.5,139.4c-3.7,0-7.6-5-7.6-12.5c0-7.5,3.9-12.5,7.6-12.5c1.5,0,2.8-1.2,2.8-2.8
				c0-1.5-1.2-2.8-2.8-2.8c-5.9,0-10.9,5.1-12.6,12.8c-0.2,1.1-1.2,1.9-2.4,1.9l-8.6-0.1c0.7,1,1.2,2.1,1.6,3.3
				c0.3-0.1,0.5-0.2,0.8-0.2l5.7,0.1c1.2,0,2.3,1,2.4,2.2c0.7,9.1,6.3,15.9,13,15.9c1.5,0,2.8-1.2,2.8-2.8
				C167.2,140.7,166,139.4,164.5,139.4z"/>
		</g>
	</g>
</g>
</svg>
