<?xml version="1.0" encoding="utf-8"?>
<!-- Generator: Adobe Illustrator 19.0.0, SVG Export Plug-In . SVG Version: 6.00 Build 0)  -->
<svg version="1.1" id="Layer_1" xmlns="http://www.w3.org/2000/svg" xmlns:xlink="http://www.w3.org/1999/xlink" x="0px" y="0px"
	 viewBox="0 0 25 25" enable-background="new 0 0 25 25" xml:space="preserve">
<g>
	<path fill="#353D4E" d="M0,0v25h25V0H0z M14.125,20.844c-0.093,0.212-0.22,0.397-0.378,0.555c-0.16,0.16-0.348,0.284-0.563,0.374
		c-0.215,0.088-0.445,0.133-0.689,0.133c-0.242,0-0.473-0.044-0.688-0.133c-0.217-0.09-0.401-0.214-0.555-0.374
		c-0.156-0.159-0.278-0.343-0.366-0.555c-0.088-0.21-0.133-0.442-0.133-0.695c0-0.242,0.044-0.473,0.133-0.688
		c0.089-0.217,0.211-0.402,0.366-0.563c0.154-0.159,0.339-0.285,0.555-0.38c0.215-0.093,0.445-0.14,0.688-0.14
		c0.244,0,0.474,0.047,0.689,0.14c0.215,0.095,0.402,0.221,0.563,0.38c0.159,0.16,0.285,0.346,0.378,0.563
		c0.095,0.215,0.142,0.445,0.142,0.688C14.267,20.402,14.219,20.634,14.125,20.844z M17.899,9.504
		c-0.21,0.514-0.477,0.967-0.801,1.356c-0.323,0.389-0.676,0.726-1.055,1.011c-0.378,0.287-0.737,0.555-1.075,0.808
		c-0.337,0.253-0.625,0.506-0.863,0.759c-0.239,0.253-0.378,0.534-0.415,0.843l-0.007,1.105c-0.004,0.578-0.474,1.046-1.052,1.046
		c-0.573,0-1.041-0.459-1.052-1.032l-0.025-1.301c-0.038-0.421,0.043-0.788,0.239-1.103c0.197-0.314,0.454-0.61,0.772-0.886
		c0.319-0.276,0.671-0.548,1.055-0.814c0.384-0.268,0.743-0.566,1.075-0.894c0.332-0.328,0.612-0.7,0.836-1.116
		c0.226-0.418,0.337-0.916,0.337-1.497c0-0.403-0.079-0.769-0.238-1.097c-0.16-0.328-0.375-0.606-0.647-0.836
		C14.71,5.626,14.39,5.45,14.02,5.328c-0.369-0.121-0.766-0.182-1.187-0.182c-0.572,0-1.061,0.07-1.468,0.211
		c-0.409,0.14-0.753,0.294-1.034,0.464L9.767,6.162C9.324,6.43,8.749,6.293,8.474,5.855C8.206,5.429,8.316,4.866,8.729,4.578
		c0.515-0.359,1.143-0.765,1.399-0.88c0.416-0.188,0.866-0.334,1.348-0.442c0.483-0.108,1.005-0.162,1.568-0.162
		c0.74,0,1.426,0.108,2.059,0.323c0.633,0.215,1.179,0.52,1.638,0.914c0.459,0.393,0.819,0.871,1.081,1.433
		c0.262,0.563,0.393,1.194,0.393,1.897C18.215,8.374,18.11,8.988,17.899,9.504z"/>
	<path id="XMLID_2_" fill="#D7E0D5" d="M16.74,4.331c-0.459-0.394-1.005-0.699-1.638-0.914c-0.633-0.215-1.319-0.323-2.059-0.323
		c-0.563,0-1.084,0.053-1.568,0.162c-0.482,0.108-0.932,0.255-1.348,0.442c-0.256,0.115-0.884,0.52-1.399,0.88
		C8.316,4.866,8.206,5.429,8.474,5.855c0.275,0.438,0.85,0.575,1.293,0.307l0.564-0.341c0.281-0.169,0.625-0.323,1.034-0.464
		c0.407-0.14,0.897-0.211,1.468-0.211c0.421,0,0.817,0.061,1.187,0.182c0.371,0.122,0.691,0.297,0.964,0.528
		c0.271,0.23,0.486,0.508,0.647,0.836c0.159,0.328,0.238,0.694,0.238,1.097c0,0.581-0.111,1.08-0.337,1.497
		c-0.224,0.416-0.504,0.788-0.836,1.116c-0.332,0.328-0.691,0.625-1.075,0.894c-0.384,0.267-0.737,0.539-1.055,0.814
		c-0.317,0.276-0.575,0.572-0.772,0.886c-0.197,0.314-0.278,0.682-0.239,1.103l0.025,1.301c0.011,0.573,0.479,1.032,1.052,1.032
		c0.578,0,1.049-0.467,1.052-1.046l0.007-1.105c0.037-0.31,0.175-0.59,0.415-0.843c0.238-0.253,0.526-0.506,0.863-0.759
		c0.338-0.253,0.697-0.522,1.075-0.808c0.38-0.285,0.732-0.622,1.055-1.011c0.323-0.389,0.59-0.842,0.801-1.356
		c0.211-0.516,0.316-1.13,0.316-1.842c0-0.703-0.131-1.334-0.393-1.897C17.559,5.202,17.199,4.724,16.74,4.331z"/>
	<path id="XMLID_1_" fill="#D7E0D5" d="M13.747,18.899c-0.16-0.159-0.348-0.285-0.563-0.38c-0.215-0.093-0.445-0.14-0.689-0.14
		c-0.242,0-0.473,0.047-0.688,0.14c-0.217,0.095-0.401,0.221-0.555,0.38c-0.156,0.16-0.278,0.346-0.366,0.563
		c-0.088,0.215-0.133,0.445-0.133,0.688c0,0.253,0.044,0.485,0.133,0.695c0.089,0.212,0.211,0.397,0.366,0.555
		c0.154,0.16,0.339,0.284,0.555,0.374c0.215,0.088,0.445,0.133,0.688,0.133c0.244,0,0.474-0.044,0.689-0.133
		c0.215-0.09,0.402-0.214,0.563-0.374c0.159-0.159,0.285-0.343,0.378-0.555c0.095-0.21,0.142-0.442,0.142-0.695
		c0-0.242-0.047-0.473-0.142-0.688C14.032,19.245,13.905,19.059,13.747,18.899z"/>
</g>
</svg>
