<?xml version="1.0" encoding="utf-8"?>
<!-- Generator: Adobe Illustrator 19.0.0, SVG Export Plug-In . SVG Version: 6.00 Build 0)  -->
<svg version="1.1" id="Layer_1" xmlns="http://www.w3.org/2000/svg" xmlns:xlink="http://www.w3.org/1999/xlink" x="0px" y="0px"
	 viewBox="0 0 375.8 27.9" style="enable-background:new 0 0 375.8 27.9;" xml:space="preserve">
<style type="text/css">
	.st0{fill:#788CA8;}
	.st1{fill:#50726B;}
	.st2{fill:#353D4E;}
</style>
<g id="XMLID_151_">
	<path class="st0" d="M21.5,27.9h-4.6c-0.9,0-1.5-0.3-1.9-1L9.2,18c-0.2-0.3-0.5-0.6-0.7-0.7c-0.3-0.1-0.6-0.2-1.2-0.2H5.1v10.8H0
		V0.3h8.4c1.9,0,3.5,0.2,4.8,0.6c1.3,0.4,2.4,0.9,3.3,1.6C17.4,3.2,18,4.1,18.4,5c0.4,1,0.6,2,0.6,3.2c0,0.9-0.1,1.8-0.4,2.6
		c-0.3,0.8-0.7,1.6-1.2,2.3c-0.5,0.7-1.2,1.3-1.9,1.8c-0.8,0.5-1.6,0.9-2.6,1.2c0.3,0.2,0.6,0.4,0.9,0.7c0.3,0.3,0.5,0.6,0.8,0.9
		L21.5,27.9z M8.3,13.4c1,0,1.8-0.1,2.5-0.4c0.7-0.2,1.3-0.6,1.8-1c0.5-0.4,0.8-0.9,1-1.5C13.9,10,14,9.3,14,8.6
		c0-1.4-0.5-2.5-1.4-3.2c-0.9-0.8-2.3-1.1-4.2-1.1H5.1v9.2H8.3z"/>
	<g>
		<path class="st1" d="M317,27.9h-4c-0.4,0-0.8-0.1-1.1-0.3c-0.3-0.2-0.5-0.5-0.6-0.8l-2.1-5.6h-11.4l-2.1,5.6
			c-0.1,0.3-0.3,0.6-0.6,0.8c-0.3,0.2-0.7,0.4-1.1,0.4h-4L301,0.3h5.2L317,27.9z M308,17.5l-3.4-9.2c-0.2-0.4-0.3-0.9-0.5-1.5
			c-0.2-0.6-0.4-1.2-0.5-1.8c-0.2,0.6-0.3,1.3-0.5,1.8c-0.2,0.6-0.4,1.1-0.5,1.5l-3.3,9.1H308z"/>
		<path class="st1" d="M334.6,5.3c-0.2,0.3-0.3,0.5-0.5,0.6s-0.4,0.2-0.6,0.2c-0.3,0-0.6-0.1-0.9-0.3c-0.3-0.2-0.7-0.4-1.1-0.7
			c-0.4-0.2-0.9-0.5-1.5-0.7c-0.6-0.2-1.3-0.3-2.1-0.3c-0.7,0-1.3,0.1-1.9,0.3c-0.5,0.2-1,0.4-1.3,0.7c-0.4,0.3-0.6,0.7-0.8,1.1
			c-0.2,0.4-0.3,0.9-0.3,1.4c0,0.6,0.2,1.2,0.5,1.6c0.4,0.4,0.8,0.8,1.4,1.1c0.6,0.3,1.3,0.6,2,0.8c0.8,0.2,1.5,0.5,2.3,0.8
			c0.8,0.3,1.6,0.6,2.3,1s1.4,0.8,2,1.4c0.6,0.6,1.1,1.2,1.4,2c0.4,0.8,0.5,1.8,0.5,2.9c0,1.2-0.2,2.4-0.6,3.5c-0.4,1.1-1,2-1.9,2.8
			c-0.8,0.8-1.8,1.4-3,1.9s-2.5,0.7-4.1,0.7c-0.9,0-1.7-0.1-2.6-0.3c-0.9-0.2-1.7-0.4-2.5-0.7c-0.8-0.3-1.5-0.7-2.2-1.1
			c-0.7-0.4-1.3-0.9-1.8-1.5l1.5-2.5c0.1-0.2,0.3-0.3,0.5-0.4c0.2-0.1,0.4-0.2,0.6-0.2c0.3,0,0.7,0.1,1,0.4c0.4,0.3,0.8,0.6,1.3,0.9
			c0.5,0.3,1.1,0.6,1.8,0.9c0.7,0.3,1.5,0.4,2.5,0.4c1.5,0,2.6-0.3,3.4-1c0.8-0.7,1.2-1.7,1.2-3c0-0.7-0.2-1.3-0.5-1.8
			c-0.4-0.5-0.8-0.8-1.4-1.2c-0.6-0.3-1.3-0.6-2-0.8c-0.8-0.2-1.5-0.5-2.3-0.7c-0.8-0.3-1.6-0.6-2.3-0.9c-0.8-0.4-1.4-0.8-2-1.4
			c-0.6-0.6-1.1-1.3-1.4-2.1c-0.4-0.9-0.5-1.9-0.5-3.2c0-1,0.2-2,0.6-2.9s1-1.8,1.7-2.5c0.8-0.7,1.7-1.3,2.8-1.8
			c1.1-0.4,2.4-0.7,3.9-0.7c1.6,0,3.1,0.3,4.5,0.8c1.4,0.5,2.5,1.2,3.5,2.1L334.6,5.3z"/>
		<path class="st1" d="M346,27.9h-5.2V0.3h5.2V27.9z"/>
		<path class="st1" d="M375.8,27.9h-4c-0.4,0-0.8-0.1-1.1-0.3s-0.5-0.5-0.6-0.8l-2.1-5.6h-11.4l-2.1,5.6c-0.1,0.3-0.3,0.6-0.6,0.8
			c-0.3,0.2-0.7,0.4-1.1,0.4h-4l10.9-27.6h5.2L375.8,27.9z M366.7,17.5l-3.4-9.2c-0.2-0.4-0.3-0.9-0.5-1.5c-0.2-0.6-0.4-1.2-0.5-1.8
			c-0.2,0.6-0.3,1.3-0.5,1.8c-0.2,0.6-0.4,1.1-0.5,1.5l-3.3,9.1H366.7z"/>
	</g>
	<polygon class="st0" points="29.7,23.8 29.7,18.6 33.9,14 29.7,10.3 29.7,4.4 40.4,4.4 41.9,0.3 24.5,0.3 24.5,27.9 41.9,27.9 
		40.4,23.8 	"/>
	<path class="st2" d="M64.7,21.7c-0.2-0.2-0.5-0.3-0.7-0.3c-0.2,0-0.3,0-0.4,0.1c-0.1,0.1-0.3,0.2-0.4,0.3c-0.4,0.4-0.8,0.7-1.3,1
		c-0.4,0.3-0.9,0.5-1.4,0.6s-1,0.3-1.6,0.4c-0.6,0.1-1.2,0.1-1.9,0.1c-1.2,0-2.3-0.2-3.3-0.7c-1-0.4-1.9-1.1-2.7-1.9
		c-0.8-0.8-1.3-1.8-1.8-3.1c-0.4-1.2-0.7-2.6-0.7-4.1c0-1.5,0.2-2.9,0.6-4.1c0.4-1.2,1-2.2,1.7-3.1c0.7-0.8,1.6-1.5,2.6-1.9
		c1-0.4,2.2-0.7,3.4-0.7c0.7,0,1.4,0.1,1.9,0.2c0.6,0.1,1,0.2,1.5,0.4c0.4,0.2,0.8,0.3,1.1,0.5c0.3,0.2,0.6,0.4,0.8,0.5
		c0.2,0.2,0.5,0.3,0.7,0.4c0.2,0.1,0.4,0.2,0.6,0.2c0.3,0,0.5-0.1,0.7-0.2c0.2-0.1,0.3-0.2,0.4-0.4l1.7-2.4c-1.1-1.1-2.4-1.9-4-2.6
		C60.8,0.3,59,0,57,0c-2,0-3.9,0.3-5.5,1c-1.7,0.7-3.1,1.7-4.3,2.9c-1.2,1.2-2.1,2.7-2.8,4.5c-0.3,0.7-0.5,1.5-0.7,2.3l3.7,3.3
		l-3.6,4c0.1,0.6,0.3,1.2,0.5,1.8c0.6,1.7,1.5,3.2,2.7,4.5c1.2,1.2,2.6,2.2,4.2,2.9c1.6,0.7,3.5,1,5.5,1c2.3,0,4.3-0.4,5.9-1.1
		c1.6-0.7,3-1.8,4.1-3.2L64.7,21.7z"/>
	<path class="st2" d="M95.5,10.2c-0.3-1.2-0.7-2.4-1.3-3.4c-0.6-1-1.3-2-2.1-2.8c-0.8-0.8-1.7-1.6-2.8-2.2c-1-0.6-2.2-1-3.4-1.4
		C84.7,0.2,83.4,0,82,0c-2.1,0-4,0.4-5.7,1.1c-1.7,0.7-3.2,1.7-4.4,2.9c-1.2,1.3-2.2,2.8-2.9,4.5c-0.3,0.7-0.5,1.5-0.7,2.2L72,14
		l-3.6,3.9c0.2,0.6,0.3,1.2,0.6,1.8c0.7,1.7,1.6,3.2,2.9,4.5c1.2,1.3,2.7,2.2,4.4,2.9c1.7,0.7,3.6,1.1,5.7,1.1c2.1,0,4-0.4,5.7-1.1
		c1.7-0.7,3.2-1.7,4.4-2.9c1.2-1.3,2.2-2.8,2.8-4.5c0.7-1.7,1-3.6,1-5.6C96,12.8,95.8,11.5,95.5,10.2z M90.1,18.3
		c-0.4,1.1-1,2.1-1.7,2.9c-0.8,0.8-1.7,1.5-2.7,1.9c-1.1,0.4-2.3,0.7-3.6,0.7c-1.3,0-2.6-0.2-3.6-0.7c-1.1-0.4-2-1.1-2.7-1.9
		c-0.8-0.8-1.3-1.9-1.7-3.1c-0.4-1.2-0.6-2.6-0.6-4.1c0-1.5,0.2-2.9,0.6-4.1c0.4-1.2,1-2.2,1.7-3.1c0.8-0.8,1.7-1.5,2.7-1.9
		c1.1-0.4,2.3-0.7,3.6-0.7c1.3,0,2.6,0.2,3.6,0.7c1.1,0.4,2,1.1,2.7,1.9c0.8,0.8,1.3,1.9,1.7,3.1c0.1,0.2,0.1,0.5,0.2,0.7L94,14
		L90.1,18.3z"/>
	<path class="st2" d="M136.9,0.3v10.1l4,3.6l-4,4.4c0,0.4,0.1,0.8,0.1,1.2L122.6,1.1c-0.1-0.2-0.3-0.3-0.4-0.4
		c-0.1-0.1-0.2-0.2-0.4-0.2c-0.1-0.1-0.3-0.1-0.4-0.1c-0.2,0-0.3,0-0.6,0h-2.7h-0.1v10.5l3.5,3.1l-3.5,3.9c0,0.1,0,0.3,0,0.4
		c0,0.4,0.1,0.9,0.1,1.3L103.8,1.1c-0.1-0.2-0.3-0.3-0.4-0.4c-0.1-0.1-0.2-0.2-0.4-0.2c-0.1-0.1-0.3-0.1-0.4-0.1c-0.2,0-0.3,0-0.6,0
		h-2.7v10.3l3.8,3.4l-3.8,4.2v9.7h4.5V11c0-0.7,0-1.5-0.1-2.3L118.2,27c0.3,0.3,0.5,0.5,0.8,0.7c0.3,0.1,0.6,0.2,1,0.2h2.6h0.1V11
		c0-0.7,0-1.5-0.1-2.3L137,27c0.3,0.3,0.5,0.5,0.8,0.7c0.3,0.1,0.6,0.2,1,0.2h2.6V0.3H136.9z"/>
	<polygon class="st2" points="150.9,23.8 150.9,18.5 155,14 150.9,10.3 150.9,4.4 161.6,4.4 163.1,0.3 145.7,0.3 145.7,27.9 
		163.1,27.9 161.6,23.8 	"/>
	<path class="st2" d="M186.8,21.7c-0.2-0.2-0.5-0.3-0.7-0.3c-0.2,0-0.3,0-0.4,0.1c-0.1,0.1-0.3,0.2-0.4,0.3c-0.4,0.4-0.8,0.7-1.3,1
		c-0.4,0.3-0.9,0.5-1.4,0.6c-0.5,0.2-1,0.3-1.6,0.4c-0.6,0.1-1.2,0.1-1.9,0.1c-1.2,0-2.3-0.2-3.3-0.7c-1-0.4-1.9-1.1-2.7-1.9
		c-0.8-0.8-1.3-1.8-1.8-3.1c-0.4-1.2-0.7-2.6-0.7-4.1c0-1.5,0.2-2.9,0.6-4.1c0.4-1.2,1-2.2,1.7-3.1c0.7-0.8,1.6-1.5,2.6-1.9
		c1-0.4,2.2-0.7,3.4-0.7c0.7,0,1.4,0.1,1.9,0.2c0.6,0.1,1,0.2,1.5,0.4c0.4,0.2,0.8,0.3,1.1,0.5c0.3,0.2,0.6,0.4,0.8,0.5
		c0.2,0.2,0.5,0.3,0.7,0.4c0.2,0.1,0.4,0.2,0.6,0.2c0.3,0,0.5-0.1,0.7-0.2c0.2-0.1,0.3-0.2,0.4-0.4l1.7-2.4c-1.1-1.1-2.4-1.9-4-2.6
		c-1.6-0.7-3.3-1-5.4-1c-2,0-3.9,0.3-5.5,1c-1.7,0.7-3.1,1.7-4.3,2.9c-1.2,1.2-2.1,2.7-2.8,4.5c-0.3,0.7-0.5,1.4-0.6,2.1l3.9,3.4
		l-3.8,4.2c0.1,0.5,0.3,1.1,0.5,1.6c0.6,1.7,1.5,3.2,2.7,4.5c1.2,1.2,2.6,2.2,4.2,2.9c1.6,0.7,3.5,1,5.5,1c2.3,0,4.3-0.4,5.9-1.1
		c1.6-0.7,3-1.8,4.1-3.2L186.8,21.7z"/>
	<polygon class="st2" points="189.8,0.3 189.8,4.5 198.1,4.5 198.1,10.4 202.2,14 198.1,18.5 198.1,27.9 203.3,27.9 203.3,4.5 
		211.6,4.5 211.6,0.3 	"/>
	<polygon class="st2" points="215.2,0.3 215.2,10.3 219.3,14 215.2,18.5 215.2,27.9 220.4,27.9 220.4,0.3 	"/>
	<path class="st2" d="M245.3,0.3v10l4.1,3.7l-4.1,4.5c0,0.4,0,0.7,0.1,1.1L230.9,1.1c-0.1-0.2-0.3-0.3-0.4-0.4
		c-0.1-0.1-0.2-0.2-0.4-0.2c-0.1-0.1-0.3-0.1-0.4-0.1c-0.2,0-0.3,0-0.6,0h-2.7v10.1l4,3.6l-4,4.4v9.5h4.5V11c0-0.7,0-1.5-0.1-2.3
		L245.3,27c0.3,0.3,0.5,0.5,0.8,0.7c0.3,0.1,0.6,0.2,1,0.2h2.6V0.3H245.3z"/>
	<path class="st2" d="M269.5,14.1V17c0,0.3,0.1,0.5,0.3,0.7c0.2,0.2,0.4,0.3,0.8,0.3h3.5v5c-0.8,0.4-1.5,0.7-2.3,0.9
		c-0.8,0.2-1.7,0.3-2.7,0.3c-1.4,0-2.7-0.2-3.9-0.7c-1.2-0.5-2.1-1.1-3-2c-0.8-0.9-1.5-1.9-1.9-3.1c-0.5-1.2-0.7-2.6-0.7-4.2
		c0-1.5,0.2-2.8,0.6-4c0.4-1.2,1-2.2,1.8-3.1c0.8-0.9,1.7-1.5,2.8-2c1.1-0.5,2.3-0.7,3.7-0.7c0.8,0,1.6,0.1,2.2,0.2
		c0.6,0.1,1.2,0.3,1.7,0.4c0.5,0.2,1,0.4,1.4,0.6c0.4,0.2,0.8,0.5,1.3,0.7c0.4,0.3,0.8,0.4,1.2,0.3c0.4-0.1,0.7-0.3,0.9-0.7l1.5-2.3
		c-0.6-0.5-1.2-1-1.9-1.5c-0.7-0.4-1.4-0.8-2.3-1.1c-0.8-0.3-1.7-0.6-2.7-0.7c-1-0.2-2-0.3-3.1-0.3c-2.2,0-4.2,0.3-6,1
		c-1.8,0.7-3.3,1.7-4.5,2.9c-1.2,1.2-2.2,2.7-2.9,4.5c-0.3,0.7-0.5,1.4-0.6,2.1l3.9,3.4l-3.7,4.1c0.1,0.6,0.3,1.1,0.5,1.7
		c0.7,1.7,1.7,3.2,3,4.5c1.3,1.2,2.9,2.2,4.7,2.9c1.8,0.7,3.9,1,6.1,1c1.8,0,3.5-0.2,5.1-0.7c1.6-0.5,3.1-1.2,4.5-2.3V14.1H269.5z"
		/>
</g>
</svg>
