<?xml version="1.0" encoding="utf-8"?>
<!-- Generator: Adobe Illustrator 19.0.0, SVG Export Plug-In . SVG Version: 6.00 Build 0)  -->
<svg version="1.1" id="Layer_1" xmlns="http://www.w3.org/2000/svg" xmlns:xlink="http://www.w3.org/1999/xlink" x="0px" y="0px"
	 viewBox="-419 376 50 50" enable-background="new -419 376 50 50" xml:space="preserve">
<g>
	<path id="XMLID_120_" fill="#FFFFFF" d="M-394,376c-13.75,0-25,11.25-25,25s11.25,25,25,25s25-11.25,25-25S-380.25,376-394,376z
		 M-394,423c-12,0-22-9.75-22-22s10-22,22-22s22,9.75,22,22S-382,423-394,423z"/>
	<circle id="XMLID_107_" fill="#008CC4" cx="-394" cy="385.75" r="1.25"/>
	<path id="XMLID_121_" fill="#008CC4" d="M-394,379c-12,0-22,9.75-22,22s9.75,22,22,22c12,0,22-9.75,22-22S-382,379-394,379z"/>
	<g>
		<path fill="#FFFFFF" d="M-384.54,407.068c-0.394-0.135-0.771-0.244-1.132-0.39c-1.055-0.426-1.316-1.566-0.498-2.354
			c1.624-1.563,3.267-3.106,4.931-4.627c0.822-0.751,1.996-0.33,2.183,0.771c0.367,2.153,0.716,4.31,1.034,6.472
			c0.179,1.215-0.743,1.962-1.913,1.602c-0.308-0.095-0.613-0.202-0.928-0.306c-2.422,5.902-6.676,9.396-13.147,9.393
			c-6.45-0.004-10.697-3.481-13.125-9.383c-0.342,0.108-0.694,0.231-1.052,0.33c-1.018,0.282-1.944-0.418-1.801-1.451
			c0.313-2.265,0.674-4.524,1.074-6.776c0.174-0.977,1.35-1.373,2.087-0.704c1.719,1.561,3.412,3.151,5.075,4.77
			c0.717,0.699,0.462,1.786-0.454,2.199c-0.401,0.181-0.827,0.307-1.238,0.457c0.344,2.695,4.928,6.575,7.706,6.491
			c0-0.182,0-0.366,0-0.55c-0.003-6.781-0.009-13.562,0.001-20.342c0.001-0.392-0.108-0.601-0.465-0.792
			c-2.072-1.109-3.007-3.609-2.201-5.796c0.835-2.262,3.127-3.527,5.504-3.037c2.283,0.471,3.886,2.58,3.737,4.945
			c-0.112,1.779-0.986,3.078-2.523,3.963c-0.166,0.096-0.345,0.346-0.345,0.525c-0.019,6.934-0.017,13.869-0.017,20.803
			c0,0.083,0.017,0.167,0.026,0.248C-389.341,413.552-385.267,410.055-384.54,407.068z M-393.93,389.691
			c1.068,0.013,1.965-0.858,1.99-1.93c0.026-1.099-0.842-1.999-1.947-2.02c-1.073-0.02-1.961,0.841-1.985,1.924
			C-395.896,388.767-395.023,389.678-393.93,389.691z"/>
	</g>
</g>
</svg>
