<?xml version="1.0" encoding="utf-8"?>
<!-- Generator: Adobe Illustrator 19.2.1, SVG Export Plug-In . SVG Version: 6.00 Build 0)  -->
<svg version="1.1" id="Layer_2" xmlns="http://www.w3.org/2000/svg" xmlns:xlink="http://www.w3.org/1999/xlink" x="0px" y="0px"
	 viewBox="0 0 1000 1000" style="enable-background:new 0 0 1000 1000;" xml:space="preserve">
<style type="text/css">
	.st0{clip-path:url(#SVGID_2_);}
	.st1{fill:#C6AB9C;}
</style>
<g>
	<defs>
		<rect id="SVGID_1_" x="1.1" y="2.4" width="999.8" height="999.8"/>
	</defs>
	<clipPath id="SVGID_2_">
		<use xlink:href="#SVGID_1_"  style="overflow:visible;"/>
	</clipPath>
	<g class="st0">
		<g>
			<path class="st1" d="M927.2,770.9c-4.6,0-10.5-2-17.5-4.4c-8.7-2.9-18.5-6.2-27.7-6.2c-2.2,0-4.4,0.2-6.3,0.6
				c-5.9,1.2-12.1,1.8-18.2,1.8c-21.5,0-38.3-7.4-46.3-20.2c-11.1-18-33.9-28.1-49.6-28.4c-12.9-0.3-22.3-5.6-22.8-13
				c-0.3-3.7,1.4-7.1,3.1-10.3l0.1-0.2c3.7-7.3,13.5-20.7,37.9-28.7c13.4-4.4,25-6.6,34.5-6.6c19.5,0,30.2,9.1,31.9,27.1
				c2.7,28.2,24.4,50.2,49.5,50.2c0.9,0,1.8,0,2.7-0.1c0.9-0.1,1.8-0.1,2.6-0.1c16.3,0,27.2,9.5,31.9,18.3c3.4,6.4,3.8,12.9,1.1,17
				C932.7,769.9,930.4,770.9,927.2,770.9L927.2,770.9z M882,758.3c9.5,0,19.5,3.4,28.3,6.3c6.8,2.3,12.6,4.3,16.8,4.3h0
				c2.5,0,4.2-0.7,5.2-2.2c2.3-3.5,1.9-9.2-1.2-14.9c-4.5-8.3-14.7-17.3-30.2-17.3c-0.8,0-1.7,0-2.5,0.1c-0.9,0.1-1.9,0.1-2.8,0.1
				c-26.1,0-48.8-22.9-51.5-52c-1.6-16.8-11.6-25.3-29.9-25.3c-9.3,0-20.7,2.2-33.9,6.5c-23.7,7.8-33.2,20.7-36.7,27.7l-0.1,0.2
				c-1.5,3-3.1,6.1-2.9,9.2c0.4,6.3,9,10.9,20.9,11.2c16.3,0.3,39.8,10.7,51.3,29.3c7.6,12.2,23.8,19.2,44.6,19.2
				c6,0,12-0.6,17.8-1.8C877.4,758.6,879.7,758.3,882,758.3z"/>
		</g>
		<g>
			<path class="st1" d="M814.3,709.3c-3.1,0-6.3-1.1-9.4-2.2c-3.1-1.1-6.4-2.3-9.6-2.3c-0.5,0-1.1,0-1.6,0.1
				c-3.3,0.4-6.8,0.8-10.2,0.8c-5.7,0-9.2-1.2-10.7-3.6c-1.2-1.9-0.9-4.5,0.8-7.7l0.1-0.1c0.5-0.7,12.2-17,30-17
				c1.4,0,2.7,0.1,4.1,0.3c9.2,1.3,15.6,7.1,16.9,15.6c1,6.4-1.3,12.9-5.4,14.9C817.7,708.9,816.1,709.3,814.3,709.3
				C814.3,709.3,814.3,709.3,814.3,709.3z M795.3,702.8c3.6,0,7,1.2,10.3,2.4c3,1.1,5.9,2.1,8.7,2.1c1.5,0,2.9-0.3,4.1-0.9
				c3.3-1.7,5.2-7.3,4.3-12.8c-0.6-3.6-3.2-12.2-15.2-13.9c-1.3-0.2-2.5-0.3-3.8-0.3c-16.3,0-27.6,15.1-28.3,16.1
				c-1.3,2.5-1.6,4.4-0.8,5.7c1,1.7,4,2.6,8.9,2.6c3.2,0,6.7-0.4,9.9-0.8C794.1,702.8,794.7,702.8,795.3,702.8z"/>
		</g>
		<g>
			<path class="st1" d="M30.4,946.2c-2.3,13.6,0.9,23.8,3.8,32.9c2.1,6.8,4,12.8,3.1,18.8c-1.7,10.7-5.4,14.4-8.8,17.7
				c-2.8,2.7-5.4,5.2-5.5,11.1c-0.1,3.2,1.5,6.6,4.4,9.6c3,3.1,7,5.4,11.4,6.5h13.1c4.7-1.3,9.9-4.4,14.6-10.8
				c9.9-13.6,2.8-58.4-9.5-92c-9.6-26.2-20.9-42.6-30.9-45c-1.9-0.5-3.4-0.7-4.6-0.7c-1.7,0-2.8,0.5-3.4,1.4
				c-1.3,2.2,0.5,5.8,3.4,11.7C26,916.6,33,930.7,30.4,946.2z M19.6,896.6c0.3-0.4,1.1-0.5,1.7-0.5c1,0,2.4,0.2,4.2,0.6
				c9.3,2.3,20.3,18.6,29.5,43.8c12.1,33.2,19.3,77,9.8,90.2c-6.5,9-14.2,10.9-19.4,10.9c-6.1,0-12.4-2.6-16.5-6.8
				c-2.6-2.6-3.9-5.5-3.9-8.2c0.1-5,2.1-7,4.9-9.7c3.4-3.3,7.6-7.4,9.4-18.8c1-6.5-1-12.9-3.1-19.7c-2.8-8.8-5.9-18.9-3.7-31.9
				c2.7-16.1-4.5-30.5-9.2-40.1C20.9,902,18.8,897.8,19.6,896.6z"/>
		</g>
		<g>
			<path class="st1" d="M1022.7,644.8c-17.5-9.1-29.4-26.9-32-38.2c-3.5-14.9-16.1-22.3-27.3-28.9c-1.7-1-3.4-2-5-3
				c-1.2-0.7-2.6-1.6-4.2-2.5c-11.3-6.8-32.4-19.5-33-28.2c-0.1-1.7,0.6-3.2,2.2-4.4c2.8-2.3,5.8-3.4,9-3.4c8,0,14.7,7.1,14.8,7.3
				c10.9,10.3,17.7,15.8,44.1,18.7c11.1,1.2,21.7,5.6,31.4,11v-2.3c-9.6-5.3-20.1-9.5-31.2-10.7c-25.8-2.8-32.1-7.9-42.9-18.1
				c-0.3-0.3-7.3-7.9-16.2-7.9c-3.7,0-7.1,1.3-10.3,3.9c-2.1,1.7-3.1,3.8-2.9,6.1c0.7,9.8,21.6,22.3,34,29.8c1.6,0.9,3,1.8,4.1,2.5
				c1.6,1,3.3,2,5,3c10.8,6.4,23.1,13.6,26.4,27.6c2.7,11.4,14.8,30.8,34,40.2V644.8z"/>
		</g>
		<g>
			<path class="st1" d="M1022.7,623.8c-2.7-2.6-5-5.9-6.7-10.1c-3.8-9.6-2.3-14-1-15.9c1.1-1.6,2.7-2.4,4.7-2.4c1,0,2,0.2,3,0.6
				v-2.2c-1-0.3-2-0.5-3-0.5c-2.7,0-4.9,1.2-6.4,3.3c-1.8,2.6-3.1,7.9,0.8,17.7c2.1,5.2,5.1,9.1,8.6,12.1V623.8z"/>
		</g>
		<g>
			<path class="st1" d="M114.9,588.5c-2-0.4-4.1-0.6-6.3-0.6c-7.1,0-14.5,2-21.7,3.9c-7,1.8-13.6,3.6-19.6,3.6
				c-4.4,0-8.1-1-11.2-2.9c-3-1.9-6.4-4.3-9.9-6.7c-15-10.4-33.8-23.4-54.7-25.7c-5.5-0.6-10.2-1.3-14.2-2.2v2c4,0.8,8.5,1.5,14,2.1
				c20.4,2.2,38.9,15.1,53.8,25.4c3.6,2.5,6.9,4.8,10,6.8c3.4,2.2,7.4,3.2,12.2,3.2c6.3,0,13-1.8,20.1-3.7
				c7.1-1.9,14.4-3.8,21.2-3.8c2.1,0,4.1,0.2,5.9,0.6c9.8,2,12.7,8.6,12.2,13.7c-0.5,4.8-4.1,10-10.9,10c-0.3,0-0.7,0-1,0
				c-6.8-0.5-14.1,5.8-22.6,13.2C81,637.1,67,649.2,48.8,650.5c-1.1,0.1-2.2,0.1-3.3,0.1c-29.6,0-51.1-28.2-54.8-44
				c-2-8.7-7.2-14.8-13.4-19.8v2.6c5.3,4.5,9.7,10.1,11.4,17.6c3.6,15.4,24.6,45.5,56.7,45.5c1.1,0,2.3,0,3.5-0.1
				c18.9-1.3,33.1-13.7,44.6-23.6c8.2-7.1,15.1-13.2,21.1-12.7c8.4,0.6,13.4-5.6,14-11.8C129.3,598,125.3,590.6,114.9,588.5z"/>
		</g>
		<g>
			<path class="st1" d="M49.6,635.4c-6.4,0-27.8-1.5-35.5-21c-3.9-9.9-2.6-15.1-0.8-17.7c1.4-2.1,3.7-3.3,6.4-3.3c2,0,4.1,0.7,5.9,2
				c1.8,1.3,3.1,3,4.4,4.6c1.1,1.5,2.2,2.9,3.6,4c4.5,3.5,12.4,7.6,24.6,7.6c1.1,0,2.3,0,3.4-0.1c0.3,0,0.6,0,0.8,0
				c4.9,0,8.5,2.8,9.4,7.2c1,4.8-1.3,11.2-7.7,14.1C60.6,634.5,55.3,635.4,49.6,635.4z M19.7,595.4c-2,0-3.7,0.9-4.7,2.4
				c-1.2,1.8-2.8,6.3,1,15.9c7.2,18.3,27.6,19.7,33.6,19.7c5.3,0,10.5-0.9,13.8-2.4c5.5-2.5,7.4-7.8,6.6-11.9
				c-0.8-3.8-3.9-5.9-8.2-5.6c-1.2,0.1-2.4,0.1-3.6,0.1c-12.8,0-21.1-4.4-25.9-8c-1.6-1.2-2.8-2.8-4-4.3c-1.2-1.6-2.4-3.1-4-4.2
				C23,596,21.3,595.4,19.7,595.4z"/>
		</g>
		<g>
			<path class="st1" d="M119.3,677.7c-1.1,0-2.2-0.1-3.3-0.3c-7.5-1.4-10.5-6-10.1-10c0.3-3.2,2.7-5.3,5.7-4.9l0.2,0l0,0
				c0,0,4.4,1.1,14.5-4.2c5-2.6,8.1-3,9.8-1.2c0.8,0.9,1.2,2.2,1.1,4C136.8,666.9,130.3,677.7,119.3,677.7z M110.9,664.5
				c-1.9,0-2.9,1.6-3,3.2c-0.3,3,2.2,6.6,8.5,7.8c1,0.2,2,0.3,3,0.3c9.6,0,15.5-9.7,15.8-14.7c0.1-1.2-0.1-2.1-0.5-2.5
				c-0.9-1-3.5-0.4-7.4,1.6c-7.5,3.9-12.2,4.5-14.2,4.5c-0.9,0-1.4-0.1-1.7-0.2C111.2,664.5,111,664.5,110.9,664.5z"/>
		</g>
		<g>
			<path class="st1" d="M344.4,916.2c-1.6,0-2.8-0.5-3.5-1.4c-0.8-1-1-2.4-0.6-4.3c1.1-5,7.9-13.9,17.6-13.9c1.9,0,3.8,0.3,5.7,1
				c7.3,2.5,9.2,7.4,8.6,10.8c-0.5,2.8-2.5,4.7-5,4.7c-0.5,0-1-0.1-1.4-0.2l-0.1-0.1l0,0c0,0-1-0.4-3.2-0.4c-2.2,0-6,0.4-11.8,2.4
				C348,915.8,346,916.2,344.4,916.2z M357.9,898.6c-8.5,0-14.7,8-15.7,12.4c-0.2,0.9-0.3,2,0.2,2.6c0.8,1,3.5,0.8,7.5-0.6
				c4.8-1.7,9-2.5,12.4-2.5c2.4,0,3.6,0.4,3.9,0.6c1.8,0.5,3.5-0.8,3.9-2.9c0.4-2.6-1.2-6.5-7.3-8.6
				C361.3,898.9,359.6,898.6,357.9,898.6z"/>
		</g>
		<g>
			<path class="st1" d="M470.4,607c-5.3,0-15.2-2.4-19.7-7.7c-1.1-1.2-1.4-2.3-1-3.2c0.5-1.1,1.9-1.7,4.2-1.7
				c5.5,0,17.5,3.5,20.7,9.1c0.5,0.9,0.3,1.6,0.1,2c-0.5,0.9-1.6,1.3-3.6,1.4C471,607,470.7,607,470.4,607z M451.6,596.9
				c0,0,0,0.3,0.6,1.1c4.3,4.9,14,7,18.2,7c0.2,0,0.5,0,0.7,0c1.2-0.1,1.7-0.3,1.9-0.4c0,0,0-0.1,0-0.1c-2.5-4.5-13.2-8.1-18.9-8.1
				C452.2,596.5,451.7,596.8,451.6,596.9L451.6,596.9z"/>
		</g>
		<g>
			<path class="st1" d="M872.2,296.2c-6.2,0-17.3-3.2-20.4-8.3c-0.5-0.9-0.4-1.6-0.2-2c0.4-0.9,1.5-1.4,3.5-1.6c0.5,0,1-0.1,1.6-0.1
				c4.9,0,14.5,1.9,19.2,6.9c1.1,1.2,1.5,2.3,1.1,3.2C876.5,295.6,874.9,296.2,872.2,296.2z M853.5,286.8
				C853.5,286.8,853.5,286.8,853.5,286.8c2.7,4.5,13.1,7.4,18.7,7.4c2.3,0,2.9-0.5,3-0.6l0,0c0,0,0-0.3-0.7-1.1
				c-4.3-4.5-13.2-6.2-17.8-6.2c-0.5,0-1,0-1.4,0.1C854.1,286.5,853.7,286.7,853.5,286.8z"/>
		</g>
		<g>
			<path class="st1" d="M452.4,467c-12.1,0-26.9-4.8-44-14.3c-6.5-3.6-13.9-8-20.5-13.5c-6.4-5.4-11.2-12-14.6-20.1
				c-2.9-6.8-6.9-11.9-12.3-15.6c-2.9-2-6.1-3.7-9.2-5.4c-2.5-1.3-5.1-2.7-7.5-4.2c-7.2-4.5-13.3-10.4-18.1-17.6
				c-4.9-7.3-9.1-13.2-15.9-17.5c-5.6-3.5-12.2-5.7-19.1-6.4c-1.4-0.1-2.8-0.2-4.3-0.2c-11.5,0-23,4-31.6,10.9
				c-4.2,3.4-7.3,7.8-9.6,13.4c-0.6,1.5-1.1,3-1.6,4.5c-1,3-2.1,6.1-3.8,8.9c-5.8,9.8-18.3,11.8-27.7,11.8c-2.3,0-4.7-0.1-7.2-0.4
				c-13.4-1.3-27.2-6.3-40-14.4c-13.6-8.7-23.9-19.7-29.6-31.9c-5.3-11.2-5-23-4.7-34.3c0.1-4.3,0.2-8.7,0-13
				c-0.4-9.3-1.3-19.8-8-26.9c-2.3-2.4-5-4.4-7.7-6.3c-3.4-2.4-7-5-9.7-8.6c-6.3-8.3-7.8-17.3-3.9-24.1c6.7-11.7,23.5-14,35.8-15.7
				c1.6-0.2,3.1-0.4,4.5-0.6c13.1-2,26.4-3.6,39.3-5.2c6.7-0.8,13.6-1.7,20.3-2.6c2-0.3,3.9-0.5,5.9-0.8c12.4-1.6,25.2-3.2,36.9-7.3
				c7-2.4,13.6-3.6,20.2-3.6c4,0,7.9,0.4,12,1.3c14,3,26,10.2,33.7,20.3c6.1,8,8.7,18.3,11.2,28.3c3.6,14.3,7,27.8,19.9,35.1
				c8,4.5,17.1,7.2,25.8,9.9c4.8,1.5,9.9,3,14.6,4.7c13.6,5.1,21.2,12.8,23.8,24.3c1.3,5.6,1.7,11.3,2.2,16.8
				c0.7,8.2,1.4,16.7,4.8,24.6c5.3,12.3,16.3,20.3,27,28c1.2,0.9,2.4,1.7,3.5,2.6l0.2,0.2c10.1,7.4,20.5,15.1,28.7,24.7
				c3.9,4.6,7.5,14.4,6.5,22.3c-0.6,4.6-3.3,8.9-7.5,12.1C467.8,463.9,461.8,467,452.4,467z M286.9,350.3c1.5,0,3,0.1,4.4,0.2
				c7.2,0.6,14.1,2.9,20,6.7c7.1,4.5,11.5,10.6,16.5,18.1c4.6,7,10.5,12.7,17.5,17c2.4,1.5,4.9,2.8,7.4,4.1c3.2,1.7,6.4,3.4,9.4,5.5
				c5.7,3.9,10,9.3,13,16.4c3.3,7.8,7.9,14.1,14.1,19.3c6.4,5.4,13.8,9.8,20.2,13.3c16.8,9.3,31.3,14.1,43,14.1
				c8.9,0,14.5-2.8,17.6-5.2c3.8-2.9,6.2-6.7,6.7-10.8c0.9-7.1-2.4-16.5-6-20.8c-8-9.5-18.4-17-28.4-24.4l-0.2-0.2
				c-1.2-0.8-2.3-1.7-3.5-2.5c-10.9-7.9-22.2-16-27.7-28.9c-3.5-8.2-4.2-16.8-4.9-25.2c-0.4-5.5-0.9-11.1-2.1-16.5
				c-2.5-10.8-9.6-18.1-22.6-22.9c-4.7-1.8-9.7-3.3-14.5-4.7c-8.9-2.7-18-5.4-26.2-10c-13.7-7.7-17.3-22.3-20.9-36.4
				c-2.5-9.8-5-19.9-10.9-27.6c-7.4-9.7-19-16.7-32.5-19.5c-4-0.8-7.8-1.2-11.6-1.2c-6.4,0-12.8,1.1-19.5,3.5
				c-11.9,4.1-24.8,5.8-37.3,7.3c-2,0.3-4,0.5-5.9,0.8c-6.8,0.9-13.7,1.8-20.3,2.6c-12.9,1.6-26.2,3.3-39.2,5.2
				c-1.4,0.2-2.9,0.4-4.5,0.6c-12.5,1.7-28,3.8-34.3,14.7c-5.1,9,1.6,19,3.7,21.9c2.6,3.4,5.8,5.7,9.3,8.2c2.7,1.9,5.5,3.9,8,6.5
				c7.1,7.6,8.2,18.5,8.5,28.2c0.2,4.4,0.1,8.9,0,13.2c-0.3,11.6-0.6,22.6,4.5,33.4c5.5,11.8,15.5,22.6,28.8,31
				c12.5,8,26,12.9,39.1,14.1c2.4,0.2,4.7,0.4,7,0.4c8.9,0,20.7-1.9,26-10.8c1.6-2.6,2.6-5.6,3.6-8.6c0.5-1.5,1-3.1,1.6-4.6
				c2.4-5.9,5.7-10.6,10.2-14.2C262.9,354.4,274.9,350.3,286.9,350.3z"/>
		</g>
		<g>
			<path class="st1" d="M197.8,370.5c-7.3,0-14.8-2.8-22.8-8.7c-27.1-19.7-24.2-33-20.6-49.9c0.6-2.8,1.2-5.6,1.7-8.6
				c2.7-16.1-2.3-23.1-7.2-29.9c-4-5.6-7.7-10.9-6.4-20.5c0-1.3,1-13.9,26-13.4c2.1,0,4.2,0.1,6.3,0.1c5.8,0.1,11.8,0.3,17.6,0.3
				c15.8,0,33.7-0.9,46.6-7.3c7-3.5,14.5-5.3,21.7-5.3c14,0,24.7,7.1,29.5,19.4c4.1,10.6,4.6,18.2,5,24.9c0.4,6.8,0.7,12.6,4.7,20
				c6.3,11.8,24.5,17.9,42.1,23.7c20,6.7,39,13,35,27.5c-2.7,9.8-7.7,14.6-15.3,14.6c0,0,0,0,0,0c-7.3,0-16.2-4.4-25.6-9
				c-3.4-1.7-6.9-3.4-10.5-5l-2.9-1.3c-14.1-6.3-31.6-14.1-48.2-14.1c-10.5,0-19.3,3.1-26.8,9.3c-4.4,3.6-8.5,7.5-12.5,11.2
				C223.1,359.9,211.8,370.5,197.8,370.5z M167.1,241.5c-22.3,0-22.6,11.4-22.6,11.5l0,0.1c-1.3,8.8,2.1,13.6,6,19.1
				c4.8,6.8,10.3,14.5,7.5,31.4c-0.5,3-1.1,5.9-1.7,8.7c-3.5,16.2-6.2,29,19.8,47.9c7.7,5.6,14.8,8.3,21.7,8.3
				c13.2,0,24.3-10.4,36-21.4c4-3.8,8.2-7.7,12.6-11.3c7.8-6.5,17.3-9.8,28.1-9.8c17.1,0,34.8,7.9,49,14.3l2.9,1.3
				c3.6,1.6,7.1,3.3,10.5,5c9.2,4.5,18,8.8,24.8,8.8c0,0,0,0,0,0c6.6,0,10.9-4.2,13.3-13.2c3.5-12.7-13.7-18.4-33.7-25.1
				c-18-6-36.5-12.2-43.2-24.7c-4.2-7.7-4.5-14.1-4.9-20.8c-0.4-6.6-0.8-14-4.8-24.3c-6.1-15.7-20-18.1-27.7-18.1
				c-6.9,0-14.1,1.8-20.8,5.1c-13.2,6.6-31.4,7.5-47.5,7.5c-5.9,0-11.9-0.1-17.7-0.3c-2.1,0-4.2-0.1-6.3-0.1
				C168,241.5,167.6,241.5,167.1,241.5z"/>
		</g>
		<g>
			<path class="st1" d="M198.6,348.3c-3.4,0-6.7-0.8-10-2.5c-0.1,0-13.7-5.5-8.6-26.1c2.1-8.5-0.3-15.5-2.6-22.4
				c-3.1-9-6-17.5,1.7-28c7.4-10.1,13-11.5,18.1-11.5c1.9,0,3.8,0.2,5.9,0.5c2.3,0.3,4.7,0.5,7.4,0.5c1.9,0,3.7-0.1,5.5-0.4
				c6.1-0.9,10.7-3.1,15.1-5.2c4.7-2.2,9.2-4.3,14.6-4.3c2.7,0,5.4,0.5,8.3,1.6c7.3,2.7,13.6,10.2,16.8,20c3,9.3,2.5,18.7-1.4,24.5
				c-4.5,6.8-11.2,10.1-20.4,10.1c-3.9,0-7.6-0.6-11.1-1.2c-3.9-0.6-6.5-0.1-8,1.6c-1.7,2-2.3,5.7-1.6,11.3
				c0.6,5.5-3.2,14.3-9.2,20.9C213,344.6,205.7,348.3,198.6,348.3z M197.1,259.9c-5.2,0-10,1.8-16.5,10.7
				c-7.1,9.7-4.4,17.3-1.4,26.2c2.4,7.1,5,14.4,2.7,23.5c-4.7,18.9,7.3,23.8,7.4,23.8c3.1,1.5,6.1,2.3,9.2,2.3
				c6.6,0,13.3-3.5,19-9.9c5.6-6.3,9.2-14.4,8.7-19.4c-0.7-6.3-0.1-10.4,2.1-12.9c2-2.2,5.2-3,9.8-2.2c3.4,0.6,7.1,1.1,10.8,1.1
				c8.5,0,14.6-3,18.7-9.2c3.5-5.3,4-14,1.1-22.8c-3-9.3-8.9-16.3-15.6-18.8c-2.7-1-5.2-1.5-7.6-1.5c-4.9,0-9,1.9-13.7,4.1
				c-4.4,2-9.3,4.4-15.6,5.4c-1.9,0.3-3.8,0.4-5.8,0.4c-2.8,0-5.2-0.3-7.6-0.6C200.8,260.2,198.9,259.9,197.1,259.9z"/>
		</g>
		<g>
			<path class="st1" d="M235.2,293c-7.1,0-12.8-6.2-12.8-13.8c0-8.5,4.1-13.8,10.6-13.8c6.9,0,15,6,15,13.8
				C248,286.8,242.3,293,235.2,293z M233,267.5c-8,0-8.6,9-8.6,11.8c0,6.5,4.8,11.8,10.8,11.8c5.9,0,10.8-5.3,10.8-11.8
				C246,272.7,238.9,267.5,233,267.5z"/>
		</g>
		<g>
			<path class="st1" d="M1.5,511.3c-3.3,0-6.8-1.1-9.9-3.2c-7.7-5.1-10.6-11.2-7.5-15.9c2-3.1,6.4-5.1,11-5.1c3.1,0,6.1,0.9,8.6,2.6
				c6.9,4.6,9.8,12.4,6.4,17.5C8.5,509.8,5.3,511.3,1.5,511.3z M-4.8,489.1c-4,0-7.7,1.6-9.3,4.2c-2.9,4.4,1.6,9.7,6.9,13.2
				c2.8,1.8,5.9,2.8,8.8,2.8c3.1,0,5.7-1.2,7-3.2c2.8-4.2,0.1-10.8-5.8-14.7C0.5,489.9-2.1,489.1-4.8,489.1z"/>
		</g>
		<g>
			<path class="st1" d="M1001.5,511.3c-3.3,0-6.8-1.1-9.9-3.2c-7.7-5.1-10.6-11.2-7.5-15.9c2-3.1,6.4-5.1,11-5.1
				c3.1,0,6.1,0.9,8.6,2.6c6.9,4.6,9.8,12.4,6.4,17.5C1008.5,509.8,1005.3,511.3,1001.5,511.3z M995.2,489.1c-4,0-7.7,1.6-9.3,4.2
				c-2.9,4.4,1.6,9.7,6.9,13.2c2.8,1.8,5.9,2.8,8.8,2.8c3.1,0,5.7-1.2,7-3.2c2.8-4.2,0.1-10.8-5.8-14.7
				C1000.5,489.9,997.9,489.1,995.2,489.1z"/>
		</g>
		<g>
			<path class="st1" d="M937.3,873.1c-6,0-12.3-2.3-17.2-6.3c-10-8.1-14.2-19.6-9.3-25.6c1.9-2.4,4.9-3.6,8.8-3.6
				c5.6,0,12.4,2.8,18.2,7.5c11.2,9.1,15.3,18.2,10.9,23.7C946.3,871.5,942.2,873.1,937.3,873.1z M919.5,839.6c-3.2,0-5.7,1-7.2,2.9
				c-4.2,5.1-0.1,15.3,9,22.8c4.6,3.7,10.4,5.9,15.9,5.9c4.3,0,7.9-1.3,9.7-3.6c4.4-5.5-2.6-14.4-10.6-20.9
				C931,842.2,924.7,839.6,919.5,839.6z"/>
		</g>
		<g>
			<path class="st1" d="M53.1,230.8c-2.4-2.9-6.5-4.4-12.4-4.4c-5.3,0-11.5,1.1-16.9,2.2c-3.6,0.7-7,1.3-9.6,1.5
				c0,0-1.9,0.1-5.1,0.1c-6.9,0-19.3-0.4-31.7-3.1v2c12.5,2.6,24.8,3,31.7,3c3.2,0,5.1-0.1,5.2-0.1c2.8-0.2,6.2-0.9,9.9-1.6
				c5.3-1,11.4-2.1,16.6-2.1c5.3,0,8.9,1.2,10.9,3.6c2.1,2.5,2.6,6.7,1.4,12.2c-4.2,20.7-25.5,22.9-34.4,22.9
				c-1.7,0-2.7-0.1-2.8-0.1c-8.1,0-17.4-4.4-27.1-9c-3.7-1.7-7.4-3.5-11.2-5.1v2.2c3.5,1.5,7,3.1,10.4,4.7c10,4.7,19.4,9.2,27.9,9.2
				h0c0,0,1.1,0.1,2.9,0.1c0,0,0,0,0,0c7.4,0,31.7-1.8,36.4-24.5C56.2,238.5,55.6,233.9,53.1,230.8z"/>
		</g>
		<g>
			<path class="st1" d="M1022.7,267.1c-1.6,0.1-3,0.2-4.2,0.2c-1.7,0-2.7-0.1-2.8-0.1c-8.1,0-17.4-4.4-27.1-9
				c-7.8-3.7-15.8-7.5-24.4-9.7l-2.5-0.7c-14.8-3.8-35.1-9.1-39.3-17.1c-0.9-1.8-1-3.6-0.3-5.5c1.5-4.1,5.3-6,11.6-6
				c8.1,0,19.2,3.2,29.8,6.4c2.2,0.6,4.3,1.3,6.4,1.9c14.8,4.2,30.9,4.8,39.2,4.8c3.2,0,5.1-0.1,5.2-0.1c2.4-0.2,5.3-0.7,8.5-1.3v-2
				c-3.2,0.6-6.2,1.1-8.6,1.3c0,0-1.9,0.1-5.1,0.1c-8.2,0-24.1-0.6-38.6-4.7c-2.1-0.6-4.3-1.2-6.4-1.9c-10.8-3.2-22-6.4-30.4-6.4
				c-7.2,0-11.6,2.4-13.4,7.4c-0.9,2.5-0.7,4.9,0.4,7.1c4.6,8.8,24.5,13.9,40.5,18.1l2.5,0.7c8.4,2.2,16.3,5.9,24,9.6
				c10,4.7,19.4,9.2,27.9,9.2h0c0,0,1.1,0.1,2.9,0.1c1.1,0,2.5,0,4.2-0.2V267.1z"/>
		</g>
		<g>
			<path class="st1" d="M1022.7,462.6c-8.5-7.9-20.4-14.6-38.4-19.5c-19.2-5.3-29-12.1-38.5-18.7c-12.8-8.9-25-17.3-57.6-21.3
				c-8.4-1-14.7-4.2-18.7-9.4c-5.2-6.8-6.6-17.1-4.5-31.5c2.6-17.5,34-43.4,58.7-43.4c3.2,0,6.2,0.4,9,1.3c10.3,3,21.7,4.6,33.9,4.6
				c12,0,20.5-1.5,20.6-1.6c0.1,0,6.6-1.5,16.5-1.5c5.6,0,12,0.5,18.9,1.8v-2c-6.9-1.3-13.4-1.8-18.9-1.8c-10.2,0-16.7,1.5-16.9,1.6
				c-0.1,0-8.4,1.5-20.2,1.5c-12,0-23.3-1.5-33.3-4.5c-3-0.9-6.2-1.3-9.6-1.3c-26,0-57.9,26.5-60.7,45.1c-2.2,15-0.7,25.7,4.8,33
				c4.3,5.6,11,9.1,20,10.2c32.2,3.9,44.1,12.2,56.7,21c9.7,6.7,19.7,13.6,39.1,19c18.7,5.1,30.6,12,39,20.3V462.6z"/>
		</g>
		<g>
			<path class="st1" d="M144.3,827.9c-1,0-2.1-0.1-3.2-0.2c-19.1-1.9-26.1-11.2-35.2-26.5c-3.9-6.5-9.3-8.6-15.1-10.9
				c-7.1-2.8-14.4-5.7-18.2-17.1c-1.7-5-3.7-9.4-5.4-13.3c-5.5-11.9-9.4-20.5,1.4-33.6c0.1-0.1,3.6-5.2,14.4-5.2
				c6.2,0,13.5,1.7,21.8,4.9c6.3,2.5,13.1,3.7,20.3,3.7c23.6,0,45.1-13.1,53.2-18.7c7.3-5,14-7.6,19.8-7.6c6.2,0,11.4,2.9,14.8,8.5
				c2,3.3,7.6,6,13.5,8.9c11,5.4,23.5,11.6,19.8,23.9c-3,10-11.6,16.8-19.2,22.9c-6.4,5.1-12.5,9.9-14.1,15.8
				c-2.2,8-9.3,10-16.9,12.3c-5.9,1.7-12,3.5-16.6,8.1c-2.1,2.1-4.2,4.4-6.2,6.7C165.6,819.1,157.8,827.9,144.3,827.9z M82.8,723.1
				c-9.6,0-12.8,4.4-12.8,4.4c-10,12.2-6.5,19.9-1.2,31.6c1.8,3.9,3.8,8.4,5.5,13.5c3.5,10.5,10.1,13.1,17.1,15.9
				c5.8,2.3,11.8,4.7,16.1,11.7c8.8,14.6,15.1,23.7,33.7,25.5c1,0.1,2.1,0.2,3,0.2c12.6,0,19.8-8.1,27.4-16.7c2-2.3,4.1-4.6,6.2-6.8
				c5-5,11.6-6.9,17.5-8.6c7.3-2.1,13.6-4,15.5-10.9c1.8-6.5,8.1-11.5,14.8-16.8c7.7-6.1,15.7-12.5,18.5-21.9
				c3.2-10.8-8-16.3-18.8-21.6c-6.2-3-12-5.9-14.4-9.7c-3.1-5-7.6-7.6-13.1-7.6c-5.4,0-11.7,2.4-18.7,7.3
				c-8.3,5.7-30.1,19.1-54.3,19.1c-7.4,0-14.5-1.3-21-3.8C95.8,724.8,88.7,723.1,82.8,723.1z"/>
		</g>
		<g>
			<path class="st1" d="M142.4,791.8c-20.6,0-38.2-7.4-45.8-19.3c-4.3-6.7-4.9-14.2-1.8-21.1c3.3-7.2,7.7-10.4,14.4-10.4
				c3.8,0,8,1,12.8,2.1c6,1.4,12.8,3,20.5,3c1.3,0,2.6,0,3.9-0.1c0.1,0,14.3-1.9,26-11.3c5.9-4.7,12.3-7.4,17.7-7.4
				c7.2,0,11.7,4.7,12.3,12.9c1.2,15.8-13.5,48.2-52.9,51.3C147.2,791.7,144.8,791.8,142.4,791.8z M109.3,743
				c-5.9,0-9.7,2.8-12.6,9.2c-2.9,6.4-2.3,13,1.6,19.2c7.3,11.3,24.2,18.3,44.1,18.3c2.3,0,4.7-0.1,7.1-0.3
				c38.1-3,52.2-34,51.1-49.1c-0.6-7.2-4.1-11.1-10.3-11.1c-5,0-11,2.5-16.5,6.9c-12.2,9.7-26.5,11.6-27.1,11.7
				c-1.4,0.1-2.7,0.1-4,0.1c-7.9,0-14.9-1.6-21-3.1C116.9,743.9,112.9,743,109.3,743z"/>
		</g>
		<g>
			<path class="st1" d="M135.4,773.3c-8.5,0-9.8-4-9.8-6.4c0-0.4,0.9-8.2,16.6-9.5c3.6-0.3,7.1-0.7,10.2-1.1
				c3.7-0.5,6.9-0.9,9.3-0.9c1.8,0,4,0.2,4.9,1.7c0.6,1,0.5,2.4-0.4,4.2C163.6,766.6,146.3,773.3,135.4,773.3z M161.7,757.4
				c-2.3,0-5.4,0.4-9,0.9c-3.1,0.4-6.6,0.8-10.2,1.1c-13.9,1.1-14.8,7.5-14.8,7.6c0,2.8,2.6,4.3,7.8,4.3c10.7,0,26.9-6.7,29-10.9
				c0.5-1,0.7-1.9,0.5-2.2C164.7,757.9,164.1,757.4,161.7,757.4z"/>
		</g>
		<g>
			<path class="st1" d="M498.2,587.6c-12.3-8.1-26.3-17.2-35.4-31.4c-17-26.6-52.3-39.8-75.7-48.6c-6.4-2.4-11.9-4.5-16.1-6.4
				c-15.4-7.2-22.8-23.9-31.4-43.3c-2.3-5.3-4.7-10.7-7.4-16.2c-9.1-18.6-24.1-25.2-34.2-25.2c-5,0-9,1.6-10.8,4.4
				c-3.9,5.8-14.6,15.7-30,15.7c-2,0-4-0.2-6-0.5c-1.3-0.2-2.5-0.3-3.8-0.3c-8.5,0-14.5,5-20.8,10.3c-5.5,4.6-11.1,9.3-18.8,11
				c-2.1,0.5-4.2,0.7-6.3,0.7c-14.3,0-24.4-11.5-32.7-22.3c-6-7.8-11.7-10.7-21.1-15.4c-6.6-3.3-14.7-7.4-26.2-14.8
				c-14.1-9.1-19.1-16.9-25.4-26.9c-6.2-9.7-13.2-20.7-30.4-36c-21.3-18.8-45.4-22.8-61.9-22.8c-10.2,0-16.7,1.5-16.9,1.6
				c-0.1,0-3.7,0.7-9.5,1.1v2c6-0.5,9.8-1.1,9.9-1.2c0.1,0,6.6-1.5,16.5-1.5c16.2,0,39.8,3.9,60.6,22.3c17,15.1,24,26,30.1,35.6
				c6.2,9.8,11.6,18.2,26,27.5c11.5,7.4,19.8,11.6,26.4,14.9c9.1,4.6,14.6,7.4,20.4,14.9c8.6,11.2,19.1,23.1,34.3,23.1
				c2.2,0,4.5-0.3,6.7-0.8c8.1-1.8,14-6.7,19.6-11.4c6.1-5.1,11.8-9.9,19.6-9.9c1.1,0,2.3,0.1,3.4,0.3c2.1,0.4,4.3,0.5,6.4,0.5
				c14.2,0,26.1-8.4,31.6-16.6c1.5-2.2,4.9-3.5,9.2-3.5c10.3,0,24.3,7.5,32.4,24.1c2.7,5.5,5.1,10.9,7.4,16.2
				c8.7,19.7,16.3,36.8,32.4,44.3c4.3,2,9.8,4.1,16.2,6.5c23.1,8.7,58,21.8,74.7,47.8c9.3,14.6,23.5,23.8,36,32
				c16.3,10.7,28.1,18.4,22,32.4c-3.8,8.7-12.3,13.1-25.2,13.1c-18.1,0-41.2-8.8-54.7-17.5c-2.6-1.7-5.2-3.4-7.7-5.1
				c-16.6-11-31-20.4-48.6-20.4c-0.5,0-1.1,0-1.6,0c-16.7,0.5-28-12.8-38.9-25.6c-2.2-2.6-4.3-5-6.4-7.4c-5.7-6.3-15.5-8.1-25.9-10
				c-12.7-2.3-25.9-4.8-30.6-16.3c-3.9-9.5-11.2-14.5-21.3-14.5c-9.1,0-20.2,4.2-30.2,11.4c-9,6.5-19.4,9.9-29.9,9.9
				c-8,0-16-2.1-23-6c-7.8-4.4-13.4-6.3-18.7-6.3c-7.6,0-14.4,4.1-22.4,10.3c-5.6,4.4-15.8,7-27.4,7h0c-18.8,0-42.6-7.2-53.1-27.3
				c-3.3-6.2-5.9-12.3-8.5-18.2c-10.4-23.8-19.4-44.3-60.8-55.7c-2.5-0.7-4.8-1.4-7-2.1v2.1c2,0.7,4.2,1.3,6.4,1.9
				c40.5,11.1,48.9,30.3,59.5,54.5c2.6,5.9,5.2,12,8.5,18.3c10.9,20.9,35.5,28.4,54.9,28.4h0c12,0,22.7-2.8,28.6-7.4
				c9.1-7.1,15-9.9,21.1-9.9c4.9,0,10.2,1.8,17.7,6c7.3,4.1,15.6,6.3,24,6.3c11,0,21.7-3.6,31.1-10.3c9.6-6.9,20.4-11,29.1-11
				c9.3,0,15.9,4.5,19.4,13.3c5.1,12.6,18.8,15.1,32.1,17.5c10,1.8,19.5,3.6,24.8,9.4c2.1,2.3,4.1,4.7,6.3,7.3
				c10.6,12.6,22.7,26.9,40.5,26.3c17.7-0.6,32.2,9,49,20.1c2.5,1.7,5.1,3.4,7.8,5.1c13.7,8.9,37.3,17.8,55.8,17.8
				c13.6,0,23-4.9,27-14.3C527.7,606.9,514,597.9,498.2,587.6z"/>
		</g>
		<g>
			<path class="st1" d="M198.5,491.3c-1.8-7.4-16.3-16.1-32.3-19.3c-9.6-1.9-13.6-7.5-18.2-14.1c-4.6-6.5-9.8-13.8-21.6-17.9
				c-21.1-7.3-32.6-25.4-47.2-48.4c-1.1-1.7-2.2-3.5-3.3-5.2c-15.8-24.6-38.3-37.6-65.2-37.6c-1.9,0-3.8,0.1-5.7,0.2
				c-6.8,0.5-13.2,0.7-19.7,0.7c-2.7,0-5.3,0-7.9-0.1v2c2.6,0.1,5.2,0.1,7.9,0.1c6.6,0,13.1-0.2,19.9-0.7c1.9-0.1,3.7-0.2,5.5-0.2
				c26.2,0,48.2,12.7,63.5,36.7c1.1,1.8,2.2,3.5,3.3,5.2c14.2,22.3,26.5,41.6,48.2,49.2c11.2,3.9,16,10.7,20.7,17.2
				c4.7,6.6,9.1,12.8,19.5,14.9c15.1,3,29.2,11.2,30.8,17.8c0.5,2.1-0.2,3.8-2.2,5.4c-1.9,1.5-4.5,2.2-7.7,2.2c0,0,0,0,0,0
				c-12,0-29.6-10.1-37.9-19.1c-12.1-13.2-29.9-27.4-43.5-27.4c-0.5,0-0.9,0-1.3,0c-0.5,0-1,0.1-1.5,0.1
				c-14.5,0-39.2-12.8-45.5-26.5c-6.9-14.9-17.4-23.4-28.8-23.4c-2.1,0-4.3,0.3-6.4,0.9c-3,0.8-6.5,2.1-10.1,3.4
				c-8.4,3-17.9,6.5-27.1,6.5c-2.5,0-4.9-0.3-7.2-0.8v2.1c2.3,0.5,4.7,0.7,7.2,0.7c9.6,0,19.3-3.5,27.8-6.6c3.6-1.3,7-2.5,9.9-3.3
				c2-0.5,4-0.8,5.9-0.8c10.5,0,20.4,8.1,27,22.3c6.8,14.6,32.2,27.6,47.3,27.6c0.6,0,1.1,0,1.6-0.1c0.4,0,0.8,0,1.2,0
				c12.9,0,30.7,14.4,42,26.7c8.6,9.4,26.9,19.8,39.4,19.8h0c3.7,0,6.7-0.9,9-2.7C198.9,496.2,199,493.3,198.5,491.3z"/>
		</g>
		<g>
			<path class="st1" d="M1022.7,403.8c-0.3,0.1-0.6,0.1-0.9,0.2c-3,0.8-6.5,2.1-10.1,3.4c-8.4,3-17.9,6.5-27.1,6.5
				c-7.9,0-14.4-2.5-19.8-7.6c-15.8-14.8-31.7-19.5-43.4-22.8c-8.2-2.4-14.1-4.1-16.2-8.2c-1.4-2.7-1.1-6.5,0.8-11.9
				c0.2-0.6,6-15.3,28-14.4c6.6,0.3,12.9,0.7,18.9,1.2c10,0.7,20.4,1.5,32.3,1.5c6.6,0,13.1-0.2,19.9-0.7c1.9-0.1,3.7-0.2,5.5-0.2
				c4.1,0,8.2,0.3,12.1,0.9v-2c-3.9-0.6-7.9-0.9-12.1-0.9c-1.9,0-3.8,0.1-5.7,0.2c-6.8,0.5-13.2,0.7-19.7,0.7
				c-11.9,0-22.2-0.8-32.2-1.5c-6.1-0.4-12.4-0.9-19-1.2c-23.5-1-29.9,15.5-30,15.7c-2.1,6-2.4,10.3-0.7,13.5
				c2.5,4.9,8.7,6.7,17.4,9.2c11.5,3.3,27.1,7.9,42.5,22.4c5.8,5.5,12.8,8.2,21.2,8.2c9.6,0,19.3-3.5,27.8-6.6
				c3.6-1.3,7-2.5,9.9-3.3c0.1,0,0.3-0.1,0.4-0.1V403.8z"/>
		</g>
		<g>
			<path class="st1" d="M102.8,523.5c-9.4,0-15.3-3.3-16.8-9.2c-2.5-10.5-9-15.7-13.8-19.5c-3.6-2.8-6.4-5.1-6.3-8.4
				c0-2.4,1.9-4.4,5.2-5.5c4.1-1.4,10.4-3,17.1-3c7.1,0,13,1.8,17.5,5.4c4.6,3.7,10.7,6.7,16.5,9.7c8.7,4.4,16.2,8.2,17,13
				c0.3,1.9-0.5,3.9-2.4,5.8C130.3,518.1,114.8,523.5,102.8,523.5z M88.1,479.8c-6.4,0-12.5,1.6-16.4,2.9c-1.1,0.4-3.8,1.5-3.8,3.7
				c0,2.4,2.3,4.2,5.6,6.8c5,4,11.8,9.4,14.5,20.6c1.5,6.4,8.9,7.7,14.8,7.7c11.4,0,26.6-5.2,32.5-11.2c1.4-1.4,2-2.8,1.8-4.1
				c-0.6-3.8-8-7.6-15.9-11.6c-5.9-3-12.1-6.1-16.9-9.9C100.2,481.5,94.7,479.8,88.1,479.8z"/>
		</g>
		<g>
			<path class="st1" d="M385.8,550.7c-4.8,0-11.4-3.7-19-8c-9-5.1-19.2-10.9-27.9-10.9c-0.9,0-1.9,0.1-2.7,0.2
				c-2.3,0.4-4.6,0.5-6.8,0.5c-15,0-27.4-8.5-32.3-22.2c-3.5-9.9-15.6-16.1-24.8-16.1c-3.5,0-6.5,0.9-8.7,2.5
				c-5.7,4.4-15.6,9.1-22.6,9.1c-3.5,0-6.1-1.1-7.6-3.3c-1.5-2.2-1.8-4.7-2-7.2c-0.1-0.5-0.1-1-0.2-1.5c-1.1-8.2-1.5-27.9,18.6-31.9
				c3.9-0.8,7.3-1.2,10.4-1.2c7.7,0,12.1,2.4,16.6,4.8c4.4,2.4,9,4.9,17.2,5.3c20.2,1,25.5,9.1,35.3,23.7l0.5,0.8
				c4.2,6.3,17.8,15.3,30.9,24c16.2,10.7,30.1,19.9,30.9,26.1c0.2,1.2-0.2,2.3-1,3.2C389.5,550,387.9,550.7,385.8,550.7z
				 M338.9,529.8c9.2,0,19.6,5.9,28.9,11.2c7,4,13.7,7.8,18,7.8c1.5,0,2.6-0.5,3.5-1.4c0.4-0.5,0.6-1,0.5-1.6
				c-0.7-5.3-15.6-15.1-30-24.7c-13.3-8.8-27.1-17.9-31.5-24.5l-0.5-0.8C318,481.3,313.1,474,294,473c-8.7-0.4-13.4-3-18-5.5
				c-4.4-2.4-8.5-4.6-15.7-4.6c-3,0-6.2,0.4-10,1.1c-17.8,3.6-18.3,20.1-17,29.6c0.1,0.5,0.1,1,0.2,1.5c0.3,2.3,0.5,4.5,1.7,6.3
				c1.1,1.6,3.1,2.5,5.9,2.5c6.6,0,15.9-4.5,21.4-8.7c2.5-1.9,5.9-3,9.9-3c10,0,22.8,6.5,26.7,17.4c4.6,12.9,16.3,20.9,30.4,20.9
				c2.1,0,4.3-0.2,6.5-0.5C336.8,529.9,337.8,529.8,338.9,529.8z"/>
		</g>
		<g>
			<path class="st1" d="M514.1,563.9c-3.9,0-6.5-2.6-9.8-5.8c-1.9-1.9-4.1-4.1-7.1-6.3c-3-2.3-8-4.8-13.3-7.5
				c-10.8-5.5-21-10.7-21-16.1c0-2.1,1.6-3.9,4.7-5.5c0.6-0.3,15.1-7,29.4-7c6.8,0,12.4,1.5,16.7,4.6c9.9,7,16.2,18.3,15.8,28.1
				c-0.3,5.7-2.8,10.2-7.3,12.7C519,563,516.4,563.9,514.1,563.9z M497.1,517.8c-13.8,0-28.4,6.8-28.5,6.8c-2.4,1.2-3.6,2.4-3.6,3.7
				c0,4.1,11,9.7,19.9,14.3c5.4,2.7,10.4,5.3,13.6,7.7c3,2.3,5.3,4.5,7.3,6.4c3.2,3.1,5.3,5.2,8.4,5.2c1.9,0,4.2-0.8,7.2-2.5
				c4.9-2.8,6.1-7.5,6.3-11c0.4-9.2-5.6-19.8-14.9-26.4C508.7,519.2,503.4,517.8,497.1,517.8z"/>
		</g>
		<g>
			<path class="st1" d="M882.8,244.1c1.7,0.2,3.3,0.4,4.7,0.6c5.8,0.9,13.1,2.6,18.7,7.5c1.4,1.2,2.7,2.7,4,4
				c1.5,1.7,3.1,3.4,4.9,4.9c3.2,2.7,6.9,5,10.8,6.9c7,3.4,14.7,5.5,23.1,6.3c2.9,0.3,5.9,0.1,8.7-0.1c3-0.2,5.9-0.3,8.7,0
				c6.3,0.7,12.4,3.8,18.3,6.8c3,1.5,6.1,3.1,9.1,4.3c9,3.6,18.3,5.5,28.8,6v-2c-10.3-0.4-19.2-2.3-28.1-5.9
				c-2.9-1.2-5.8-2.7-8.9-4.2c-6.1-3.1-12.4-6.3-19-7c-3-0.3-6.1-0.2-9.1,0c-2.8,0.2-5.6,0.3-8.4,0.1c-8.1-0.8-15.6-2.8-22.4-6.1
				c-3.8-1.8-7.3-4.1-10.4-6.6c-1.7-1.4-3.2-3.1-4.7-4.7c-1.3-1.4-2.6-2.8-4.1-4.1c-6-5.3-13.7-7.1-19.7-8c-1.4-0.2-3.1-0.4-4.8-0.6
				c-6.6-0.7-14.9-1.6-18.5-6.1c-1.5-1.9-2.1-4.3-1.8-7.3c0.6-5.2,5.6-7.5,10.8-9.4c0.9-0.3,1.7-0.6,2.6-1
				c5.8-2.1,11.3-4.1,16.6-7.7c11.2-7.5,25-9.7,40.9-6.8c4.9,0.9,9.7,2.3,14.4,3.7c4.4,1.3,8.9,2.6,13.5,3.5
				c7.8,1.6,16.3,2.7,26,3.4c2.7,0.2,4.9,0.5,7.1,0.8c5.6,0.8,10.8,1.5,22.5,0c2-0.3,3.9-0.5,5.7-0.8v-2c-1.9,0.3-3.9,0.6-5.9,0.8
				c-11.4,1.5-16.5,0.8-22,0c-2.2-0.3-4.4-0.6-7.2-0.8c-9.6-0.7-18-1.8-25.7-3.3c-4.5-0.9-9-2.2-13.3-3.5c-4.7-1.4-9.6-2.8-14.6-3.7
				c-16.4-3.1-30.7-0.7-42.3,7.1c-5.1,3.4-10.4,5.3-16.1,7.4c-0.9,0.3-1.7,0.6-2.6,1c-4.2,1.6-11.3,4.2-12.1,11.1
				c-0.4,3.5,0.4,6.5,2.2,8.8C867.1,242.4,875.8,243.3,882.8,244.1z"/>
			<path class="st1" d="M1022.7,815.8c-3.9-1.5-7.8-2.8-11.6-4.1c-18.4-6.3-35.9-12.2-50.2-36.1c-0.5-1.3-7.6-19.5-6.7-30.6
				c0.5-7-3.9-16.5-10.8-23.1c-7.3-6.9-16.4-10.1-25.8-9l-1.7,0.2c-21.3,2.7-36.6,4.6-40-14.9c-0.8-4.5-1.1-9.5-1.4-14.8
				c-1.2-18.5-2.5-39.5-26.6-46.1c-12.6-3.4-77.3-18.3-110.3,26.8c-26.6,36.3-44.7,53.3-75.6,51.5c-11.4-0.7-19.6-5.7-28.4-11
				c-14.8-8.9-30-18.2-61.2-7.2c-16,5.6-27.5,10.6-36.7,14.6c-19.1,8.2-28.7,12.4-49.3,10c-12.1-1.4-30.1-11.4-47.5-21.1
				c-27.4-15.2-55.7-30.9-67.1-17.7c-4.9,5.7-7.1,11.9-6.6,18.7c1.4,17.2,20.3,35,38.6,50.1c1.8,1.5,3.6,3,5.4,4.4
				c22.9,18.8,38,31.3,38,49.4c0,5.5-1.8,10.3-3.6,14.9c-2.2,5.6-4.2,11-1.8,16.2c2.7,5.8,10.7,11,25.2,16.3
				c16.5,6,34.5,4.7,51.9,3.5c28.4-1.9,52.9-3.6,65,25l0.1,0.1c0.2,0.3,16.2,29.2-1.4,68.7c-4,9-8.4,17.6-12.7,26
				c-11.3,22-22.2,43.1-22.5,66.1h2c0.3-22.6,11-43.4,22.2-65.1c4.3-8.4,8.8-17.1,12.8-26.1c17.6-39.6,2.2-69,1.3-70.5
				c-12.7-29.9-39.1-28.1-67-26.2c-17.2,1.2-35,2.4-51.1-3.4c-14-5.1-21.7-9.9-24.1-15.2c-2.1-4.5-0.2-9.2,1.9-14.7
				c1.8-4.5,3.7-9.7,3.7-15.6c0-19.1-15.4-31.8-38.7-51c-1.7-1.4-3.5-2.9-5.4-4.4c-16.9-14-36.5-32.2-37.8-48.7
				c-0.5-6.3,1.5-11.9,6.1-17.2c10.4-12,38,3.3,64.7,18.1c18.4,10.2,35.8,19.9,48.3,21.3c21.2,2.5,30.9-1.7,50.4-10.1
				c9.2-4,20.7-8.9,36.6-14.5c30.3-10.7,45.2-1.7,59.5,7c8.6,5.2,17.5,10.6,29.3,11.3c31.9,1.9,50.3-15.4,77.3-52.3
				c32.2-44.1,95.8-29.4,108.2-26c22.8,6.2,24,25.6,25.1,44.3c0.3,5.3,0.6,10.3,1.5,15c3.7,21.3,21.6,19.1,42.2,16.5l1.7-0.2
				c8.7-1.1,17.3,1.9,24.2,8.4c6.5,6.2,10.7,15,10.2,21.5c-0.9,11.9,6.6,30.8,6.9,31.6l0.1,0.1c14.7,24.5,32.5,30.6,51.3,37
				c4.1,1.4,8.2,2.8,12.3,4.4V815.8z"/>
			<path class="st1" d="M943.2,955.4c-17.1-19.3-36.5-29.2-36.7-29.3c-63.7-32.9-57-72.6-53.5-93.9c1.2-7.2-0.3-13.1-4.4-17.4
				c-9.2-9.7-30-9.6-45.7-7.8c-25.9,3-34.8-8.6-51.1-29.6c-18.6-24.1-52-12.4-70.2-3.3c-22,11-37.1,4.5-64.1-9
				c-29.7-14.8-58.9-0.8-69.3,13.3c-1.4,2-1.8,3.9-0.9,5.8c4.4,9.9,41.6,14.9,76.2,18.8c3.2,0.4,6,0.7,8.5,1
				c24.7,3,63.2,18.5,68.1,49.2c2.7,16.6-14.7,36.6-28.2,44.7c-6.7,4-12.2,5.1-15,2.9c-2.8-2.1-3.1-7.5-0.8-15.6
				c4.6-16.4,3.2-30.5-4.1-41.9c-11.4-17.7-33-22.9-41.7-24.3c-4.8-0.8-11.1-1.4-18.3-2c-29.6-2.7-74.3-6.9-87-31.4
				c-10.5-20.4,6.5-30,18.9-37c6.1-3.4,10.9-6.1,11.2-9.5c0.1-0.9-0.2-1.8-0.9-2.5c-3.5-3.8-17.7-3.3-40.4-2.1
				c-12,0.6-24.5,1.3-32.6,0.5c-11.8-1.1-17.3,3.7-18.6,8.5c-1.5,5.8,2.2,14,14.1,19.4c20.3,9.1,31.2,24.1,28.4,38.9
				c-2.9,15.5,10.4,28.6,34.8,34.2c5.3,1.2,12.9,1.5,21.7,1.8c28.7,1.1,68.1,2.6,81.6,35.6c17.3,42.4-15.9,87.6-17.2,89.3
				c-21.2,22.1-28.9,49-22.9,80h2c-6-30.6,1.5-57,22.4-78.7l0.1-0.1c0.4-0.5,35.5-47.3,17.5-91.3c-14-34.2-55.7-35.8-83.4-36.8
				c-8.7-0.3-16.2-0.6-21.3-1.8c-23.2-5.3-35.9-17.5-33.2-31.8c3-15.8-8.4-31.6-29.6-41.1c-10.7-4.8-14.2-12.2-13-17
				c1.4-5.2,7.7-7.9,16.5-7.1c8.3,0.7,20.8,0.1,32.9-0.5c16.7-0.9,35.7-1.9,38.9,1.5c0.3,0.3,0.4,0.6,0.3,0.9
				c-0.3,2.3-5.1,5.1-10.2,8c-12.4,7-31.1,17.5-19.7,39.6c13.2,25.5,58.5,29.7,88.5,32.5c7.2,0.7,13.4,1.2,18.2,2
				c8.5,1.4,29.4,6.4,40.3,23.4c7,10.9,8.3,24.5,3.9,40.3c-2.5,9-2,15,1.6,17.7c3.5,2.7,9.7,1.7,17.2-2.8c14-8.4,32-29.3,29.2-46.8
				c-5.1-31.8-44.6-47.8-69.9-50.8c-2.4-0.3-5.3-0.6-8.5-1c-24.6-2.8-70.3-7.9-74.6-17.6c-0.5-1.2-0.3-2.5,0.7-3.8
				c10-13.6,38.1-27,66.7-12.7c17.8,8.9,30.6,14.8,43.5,14.8c7.1,0,14.3-1.8,22.4-5.8c17.7-8.8,50-20.3,67.8,2.7
				c16.7,21.6,25.9,33.5,52.9,30.4c15.3-1.8,35.4-2,44.1,7.2c3.6,3.8,4.9,9.1,3.8,15.7c-3.4,20.3-10.4,62.5,54.5,96.1
				c0.2,0.1,19.3,9.9,36.2,28.9c15.5,17.5,32.3,46.5,24,85.8l0.8,0.2h1.3C976.1,1002.7,959,973.2,943.2,955.4z"/>
		</g>
		<g>
			<path class="st1" d="M680.8,255.7c-6.8,0-9.3-5.3-12.3-11.5c-1.4-2.8-2.8-5.8-4.8-8.6c-2.5-3.7-11.2-7.7-19.5-11.6
				c-10.7-5-20.9-9.8-21.6-15c-0.2-1.7,0.5-3.2,2.1-4.7c0.2-0.1,3.6-3,9.7-3c5.1,0,10.5,2,16.1,6c5.4,3.9,11.6,6.3,17.6,8.6
				c10.8,4.2,21,8.2,23.9,20.1c2.4,10,2.6,14,1,16.4c-1.6,2.2-4.5,2.6-9,3.1l-1.4,0.2C681.8,255.6,681.3,255.7,680.8,255.7z
				 M634.3,203.1c-5.3,0-8.3,2.5-8.3,2.5c-1.1,1-1.5,1.9-1.4,2.9c0.6,4.2,11.2,9.1,20.5,13.5c9,4.2,17.4,8.2,20.3,12.3
				c2.1,3,3.6,6.1,4.9,8.9c2.9,6,5,10.4,10.5,10.4c0.4,0,0.9,0,1.4-0.1l1.4-0.2c3.9-0.4,6.5-0.7,7.6-2.2c1.2-1.8,0.9-5.8-1.3-14.8
				c-2.6-10.9-11.9-14.5-22.7-18.7c-6.1-2.4-12.4-4.9-18-8.9C644,205.1,639,203.1,634.3,203.1z"/>
		</g>
		<g>
			<path class="st1" d="M704.7,447.1c-1,0-2.1-0.1-3-0.3c-5.3-1.2-10.6-6.8-16.7-13.2c-6.3-6.6-13.4-14.1-21.5-17.5
				c-8.4-3.5-14.3-10.7-15.8-19.3c-1.4-7.5,1-14.7,6.3-19.8c11.7-11.1,34.7-36.1,37.7-50.9c1.2-5.8,0.8-11.4,0.5-16.4
				c-0.5-8-1-14.9,5.5-18.6c0.2-0.1,3.4-1.6,8-1.6c5,0,12.2,1.8,18.4,10.5c10.4,14.4,22.3,21.8,38.2,29.1
				c16,7.3,18.2,25.6,15.3,39.1c-1.7,7.7-13.1,18.7-24.2,29.3c-9.7,9.4-19.8,19.1-21.8,25.3C727.5,435.7,714.9,447.1,704.7,447.1z
				 M705.7,291.5c-4.1,0-7,1.4-7.1,1.4c-5.4,3-5,8.8-4.5,16.7c0.3,5.1,0.7,10.8-0.5,16.9c-3.1,15.3-25.5,39.9-38.3,52
				c-4.9,4.6-7,11.2-5.8,18c1.4,7.8,6.9,14.5,14.6,17.8c8.5,3.6,15.7,11.2,22.2,18c5.6,5.9,11,11.5,15.7,12.6
				c0.8,0.2,1.7,0.3,2.6,0.3c9.5,0,21.2-10.7,25.1-22.9c2.1-6.7,11.9-16.1,22.3-26.1c10.9-10.5,22.1-21.3,23.6-28.3
				c2.8-12.7,0.7-30.1-14.1-36.9c-16.2-7.4-28.4-15-39-29.7C716.8,293.1,710.2,291.5,705.7,291.5z"/>
		</g>
		<g>
			<path class="st1" d="M698.6,411.7c-5.9,0-14.4-2.2-21.5-12.5c-0.1-0.2-8.8-14.4,10.6-31.9c7-6.3,11.2-13.3,14.9-19.4
				c5.5-9.1,9.9-16.2,20.4-16.2c1.5,0,3.1,0.1,4.7,0.4c13.5,2.3,21.7,6.2,25.8,12.2c3,4.4,3.8,9.8,2.5,16.5
				c-1.8,9.4-10.1,15.7-18.1,21.7c-6,4.5-11.7,8.8-14.5,14.1C719.7,404.1,709.8,411.7,698.6,411.7z M723.1,333.6
				c-9.4,0-13.3,6.4-18.7,15.3c-3.8,6.2-8.1,13.3-15.3,19.8c-18.2,16.4-10.3,29.2-10.2,29.4c5.2,7.6,12.1,11.7,19.8,11.7
				c10.4,0,19.6-7.1,23.2-14c3-5.7,8.8-10.1,15-14.8c7.7-5.8,15.7-11.8,17.4-20.5c1.2-6.2,0.5-11.1-2.2-15
				c-3.8-5.5-11.6-9.2-24.5-11.4C725.9,333.7,724.4,333.6,723.1,333.6z"/>
		</g>
		<g>
			<path class="st1" d="M767.6,896.9c-0.9,0-1.9-0.1-2.9-0.3c-12.2-2.5-21-13.3-21.6-26.2c-0.3-6.6,2.3-12.2,7.5-16.5
				c8.2-6.8,15.7-10.3,22.1-10.3c5.9,0,11,2.8,15.3,8.4c0.5,0.7,1.1,1.4,1.6,2c7.5,9.7,7.5,10.3-0.9,21.2c-1.6,2.1-3,4.5-4.5,7.1
				C780,889.5,775.7,896.9,767.6,896.9z M772.8,845.6c-6,0-13,3.3-20.9,9.8c-4.8,3.9-7,8.9-6.8,14.9c0.5,12,8.7,22,20,24.3
				c0.9,0.2,1.7,0.3,2.5,0.3c6.9,0,11-6.9,14.9-13.6c1.5-2.5,3-5.1,4.7-7.3c4.1-5.3,5.9-7.8,6-9.9c0.1-2.1-1.6-4.4-5.1-8.8
				c-0.5-0.6-1-1.3-1.6-2C782.6,848.1,778.1,845.6,772.8,845.6z"/>
		</g>
		<g>
			<path class="st1" d="M657.5,657C657.5,657,657.5,657,657.5,657c-3.4,0-6.5-1.6-9-4.8c-0.6-0.6-5.6-5.6-5.5-12.3
				c0.1-4.3,2.2-8.3,6.3-12c12.8-11.3,16.2-13.9,33.2-17.7c2.4-0.5,4.2,0.1,5.1,1.9c2.8,5.3-2.9,19.3-9.7,29.3
				C673.9,647.2,666,657,657.5,657z M684,612c-0.3,0-0.7,0-1.1,0.1c-16.6,3.8-19.5,6-32.3,17.3c-3.7,3.2-5.6,6.8-5.6,10.5
				c-0.1,6.1,4.8,10.8,4.9,10.9l0.1,0.1c2.2,2.7,4.7,4.1,7.5,4.1c5.5,0,12.3-5.4,18.7-14.7c7.2-10.6,11.7-23.3,9.6-27.3
				C685.5,612.3,684.9,612,684,612z"/>
		</g>
		<g>
			<path class="st1" d="M932.2,895.4c-43.5-10-59.7-26.8-54.2-56.2c2.3-12.3-0.4-20.4-2.4-26.3c-2.3-6.9-3.6-10.7,3.6-15.9
				c8.5-6.1,25.5-7.6,39.5-3.5c11,3.2,18.8,9.5,22,17.6c5.1,13,14,19.7,20.5,23c6.1,3.1,12.9,3.2,19.9,3c13.3-0.4,28.2,0.3,41.5,7.4
				v-2.2c-13.5-6.8-28.3-7.5-41.6-7.1c-6.8,0.2-13.3,0.1-18.9-2.7c-6.2-3.2-14.7-9.6-19.6-22c-3.4-8.7-11.7-15.4-23.3-18.8
				c-14.6-4.3-32.4-2.7-41.3,3.8c-8.4,6.1-6.7,11.1-4.4,18.2c2,6,4.5,13.6,2.3,25.3c-5.7,30.3,11.5,48.4,55.7,58.6
				c21.2,4.9,40,19.8,52.9,42.2c13.9,24,18.5,52.6,11.8,74.6l1.9,0.6c6.8-22.5,2.2-51.7-12-76.2
				C973.2,915.7,953.9,900.4,932.2,895.4z"/>
		</g>
		<g>
			<path class="st1" d="M566.4,357.1c-11.5,0-26.6-3.7-34.8-13.9c-5.1-6.4-6.6-14.3-4.5-23.4c0.1-0.3,7.9-25,5-40.6
				c-0.6-3-1.4-6.2-2.3-9.6c-2.7-10.2-5.4-20.8-0.9-27.2c2.2-3.1,5.9-4.9,11.1-5.4c0.9-0.1,1.9-0.1,2.8-0.1
				c20.6,0,41.2,20.6,50,29.4c9.6,9.6,23.3,33.9,13.1,49.3c-2.6,3.9-4.8,8.4-7.2,13.2c-6.7,13.5-13.5,27.5-29.6,28.3
				C568.2,357,567.3,357.1,566.4,357.1z M542.7,238.9c-0.9,0-1.8,0-2.6,0.1c-4.6,0.4-7.8,1.9-9.6,4.6c-4,5.7-1.3,15.8,1.2,25.6
				c0.9,3.4,1.7,6.6,2.3,9.7c3,16.1-4.7,40.5-5,41.5c-1.9,8.4-0.5,15.7,4.2,21.6c7.7,9.7,22.2,13.2,33.3,13.2c0.9,0,1.7,0,2.6-0.1
				c14.9-0.7,21.5-14.2,27.9-27.2c2.4-4.8,4.6-9.4,7.3-13.4c9.6-14.4-3.7-37.5-12.9-46.7C582.7,259.1,562.5,238.9,542.7,238.9z"/>
		</g>
		<g>
			<path class="st1" d="M567.5,319C567.5,319,567.5,319,567.5,319c-2.4,0-4.8-1.1-7.2-3.2c-11.4-10.4-2.6-29.4-2.2-30.2
				c1.4-2.5,3.5-3.8,6.1-3.8c5.2,0,11.9,5.4,15.8,10.8c1.5,2.1,3.9,6,3,8.7C582.3,303.1,576.8,319,567.5,319z M564.2,283.8
				c-1.9,0-3.3,0.9-4.3,2.7c-0.1,0.1-8.5,18.4,1.8,27.8c2,1.8,3.9,2.7,5.8,2.7c6.4,0,11.5-10.2,13.5-16.3c0.4-1.3-0.6-4-2.7-6.9
				C574.8,288.9,568.7,283.8,564.2,283.8z"/>
		</g>
		<g>
			<path class="st1" d="M792.9,324.1c-4.5-1.6-10-3.7-16.5-6.4c-36.1-15.2-51.6-30.2-53.4-51.8c-0.5-6.1-0.4-12.8-0.2-19.2
				c0.4-18.9,0.9-38.5-14.9-50.2c-11.9-8.8-25.3-8.6-38.3-8.4c-9.8,0.2-19.1,0.3-26.5-3.7c-25.2-13.6-57.9-35-50.2-63.5
				c7.6-28.1,2.5-43.6-2.5-58.5c-0.7-2.2-1.5-4.5-2.2-6.7c-11.1-36.1-4.7-67,19.1-91.7l0.1-0.1c0-0.1,0.7-1,1.8-2.6h-2.4
				c-0.5,0.8-0.9,1.2-1,1.4C581.6-12,575,19.5,586.4,56.3c0.7,2.3,1.5,4.5,2.2,6.7c4.9,14.7,9.9,29.8,2.5,57.4
				c-9,33.4,36.3,57.8,51.2,65.8c7.8,4.2,17.4,4.1,27.4,3.9c12.7-0.2,25.8-0.4,37.1,8c14.9,11.1,14.5,30.1,14,48.5
				c-0.1,6.5-0.3,13.2,0.2,19.4c1.9,22.5,17.7,38,54.6,53.5c6.6,2.8,12.1,4.8,16.6,6.4c18.3,6.7,21.2,7.8,20.1,30.6
				c-1,21.2-18.5,42.9-52.2,64.5c-19.1,12.3-31.1,49-29.1,73.6c0.3,3.6,0.9,8,1.4,12.5c2.4,18.6,5.7,44.2-5,53.9
				c-4.5,4.1-11.4,5.2-20.5,3.1c-33.8-7.6-32.5-54.3-31.5-88.3c0.2-6.4,0.4-12.4,0.3-17.4c-0.4-16.9-13.6-22.8-27.7-29.1
				c-12.1-5.4-24.6-10.9-29.7-24c-7-17.8,11.5-38.5,29.5-58.4c10.2-11.3,20.7-23,26.5-34.1c5.6-10.8,6.5-21.3,2.6-31.3
				c-5.6-14.3-21.1-27-42.5-34.8c-13.6-4.9-18.8-11.1-25.4-19c-7.7-9.1-17.2-20.4-43.1-35c-45.6-25.6-36.7-41.6-20.6-70.5
				c0.8-1.4,1.5-2.7,2.3-4.1c6.1-11.1,9.3-22,9.3-32.5c0-7.1-2-14-4-20.7c-1.8-6-3.6-12.1-3.9-18.3c-1.1-24.2,10.2-46.1,22.2-69.4
				c2.7-5.3,5.5-10.7,8.2-16.2h-2.2c-2.5,5.2-5.2,10.3-7.7,15.3C557.3,0.1,545.9,22.4,547,47.1c0.3,6.5,2.2,12.8,4,18.8
				c1.9,6.5,3.9,13.3,3.9,20.1c-0.1,10.1-3.1,20.8-9.1,31.6c-0.8,1.4-1.5,2.8-2.3,4.1c-16.2,29.1-26,46.6,21.3,73.2
				c25.6,14.4,35,25.5,42.6,34.5c6.8,8.1,12.2,14.4,26.2,19.6c20.9,7.6,36,19.9,41.3,33.6c3.7,9.4,2.8,19.4-2.5,29.6
				c-5.7,10.9-16.1,22.5-26.2,33.7c-18.4,20.4-37.4,41.5-29.9,60.5c5.5,13.8,18.3,19.5,30.8,25.1c13.5,6,26.2,11.6,26.5,27.3
				c0.1,5-0.1,11-0.3,17.3c-1,32.8-2.4,82.3,33,90.3c9.7,2.2,17.2,1,22.3-3.6c11.5-10.5,8.1-36.6,5.7-55.7
				c-0.6-4.6-1.1-8.9-1.4-12.4c-2-24.1,9.7-59.8,28.2-71.7c34.3-22,52.1-44.3,53.1-66.1C815.4,332.4,811.6,331,792.9,324.1z"/>
			<path class="st1" d="M997.7-38.7c7.1,19.7,6.7,38.6-1.1,52.6c-4.3,7.7-4.7,17.3-5.1,26.6c-0.5,13.2-1,24.6-12.7,27.1
				c-4.6,1-8,0.3-10.2-2c-5.8-6.2-1-22.5-1-22.7c7.6-35.9-5.4-63.5-19.6-81.6h-2.6c14.3,17.8,27.8,45.2,20.2,81.1
				c-0.2,0.7-5.1,17.5,1.4,24.6c2.6,2.9,6.7,3.7,12.1,2.6c13.2-2.8,13.7-15.5,14.2-29c0.4-9,0.7-18.4,4.8-25.7
				c8.1-14.4,8.5-33.6,1.5-53.6H997.7z"/>
		</g>
		<g>
			<path class="st1" d="M881.2,23.7c2.2-33.4-31.2-41.4-66.5-49.8c-14.5-3.5-29.5-7.1-42.2-12.6h-4.8c0,0,0,0,0,0
				c13.6,6.6,30.3,10.7,46.5,14.5c34.5,8.3,67,16.1,64.9,47.8c-0.9,14,0.1,27.7,0.9,39.7c2.1,29.3,3.7,52.4-22,61
				c-5.4,1.8-10.8,2.7-15.9,2.7c-24.8,0-42-21.6-55.7-38.9c-1.4-1.7-2.7-3.4-4-5c-5.3-6.6-12.2-9.9-20.5-9.9
				c-15.9,0-33.4,12.7-41.2,21.2c-3.5,3.8-16,16.3-29.3,16.3c-2.7,0-5.3-0.5-7.8-1.6c-8.4-3.6-12.4-13.1-15-21
				c-5.3-16.1-11.6-46.4,5.9-68.2c3.8-4.7,7.5-9.7,11.5-14.9c13.2-17.5,26.8-35.5,42.9-43.9h-4.1C709.8-29.5,697-12.5,684.5,4
				c-3.9,5.2-7.6,10.2-11.4,14.9c-18.2,22.5-11.7,53.5-6.3,70c2.7,8.3,7,18.3,16.1,22.2c2.7,1.2,5.6,1.7,8.6,1.7
				c13.7,0,26.1-11.9,30.8-17c7.6-8.3,24.4-20.6,39.7-20.6c7.6,0,14,3.1,18.9,9.1c1.3,1.6,2.6,3.3,4,5c14,17.7,31.5,39.6,57.3,39.6
				c5.3,0,10.9-1,16.5-2.8c27.2-9.1,25.5-32.9,23.4-63.1C881.2,51.2,880.3,37.6,881.2,23.7z"/>
		</g>
		<g>
			<path class="st1" d="M836,95.6c-14.4,0-25.7-9.7-37.7-20c-8.5-7.3-17.3-14.8-27.4-18.9c-7-2.8-13.9-4.2-20.7-4.2
				c-20,0-31.2,11.7-34.1,15.3c-2.6,3.2-6,4.9-9.4,4.9c-6.6,0-14.4-6.7-16.1-21.4c-0.7-6.2-1.3-13.3-0.1-20.2
				c1.6-9.1,8.1-20.5,29.9-23.1c16.5-1.9,23.2-8.7,29.2-14.7c5.2-5.2,10.1-10.1,20.4-10.1c2.7,0,5.6,0.3,8.9,1
				c27.1,5.4,77.6,15.5,76.5,44.6c-0.3,7.4,0.6,15.5,1.5,23.3c2.3,20.5,4.5,39.8-15.8,43C839.3,95.4,837.6,95.6,836,95.6z
				 M750.2,50.6c7,0,14.3,1.5,21.5,4.3c10.5,4.2,19.4,11.8,28,19.2c11.7,10,22.7,19.5,36.4,19.5c1.5,0,3.1-0.1,4.6-0.4
				c18.5-2.8,16.5-20.4,14.2-40.8c-0.9-7.9-1.8-16-1.5-23.6c0.9-24-35.4-34.6-74.9-42.5c-3.2-0.6-5.9-0.9-8.5-0.9
				c-9.4,0-13.8,4.4-18.9,9.5c-6.2,6.2-13.2,13.2-30.3,15.3c-20.5,2.4-26.6,13-28.1,21.4c-1.2,6.6-0.6,13.3,0.1,19.6
				c1.5,13.5,8.3,19.6,14.1,19.6c2.9,0,5.6-1.5,7.9-4.2C722.7,56.5,736.1,50.6,750.2,50.6z"/>
		</g>
		<g>
			<path class="st1" d="M829.5,56.3c-1.4,0-2.9-0.2-4.5-0.5c-9.6-2.1-14.3-7.6-18-12c-3.3-3.8-5.8-6.9-10.7-6.9
				c-0.7,0-1.3,0.1-2.1,0.2c-0.9,0.1-1.7,0.2-2.6,0.2c-6.2,0-11.5-3.7-12.2-8.7c-0.9-5.5,3.7-10.4,12.3-13.1l0.1,0
				c0.1,0,8.6-1.4,17.9-1.4c14.2,0,22.8,3.1,25.7,9.3c4.4,9.6,7,22.1,2.8,28.7C836.4,54.8,833.5,56.3,829.5,56.3
				C829.5,56.3,829.5,56.3,829.5,56.3z M796.3,34.9c5.7,0,8.9,3.7,12.2,7.6c3.7,4.4,7.9,9.3,16.9,11.3c1.5,0.3,2.8,0.5,4.1,0.5
				c0,0,0,0,0,0c3.2,0,5.6-1.2,7.1-3.4c3.8-5.9,1.1-18-2.9-26.8c-3.1-6.7-14.7-8.1-23.9-8.1c-8.8,0-16.7,1.3-17.5,1.4
				c-7.5,2.4-11.5,6.5-10.9,10.9c0.6,4,5,7,10.3,7c0.7,0,1.5-0.1,2.3-0.2C794.8,35,795.6,34.9,796.3,34.9z"/>
		</g>
		<g>
			<path class="st1" d="M664.3,1042.7c1.6-7.9,4.7-15.6,10.3-22.5c3.8-4.7,7.5-9.7,11.5-14.9c18.1-24,36.8-48.9,61.9-48.9
				c6.4,0,13,1.7,19.8,5c13.6,6.6,30.3,10.7,46.5,14.5c34.5,8.3,67,16.1,64.9,47.8c-0.4,6.5-0.4,12.9-0.2,19.1h2
				c-0.2-6.2-0.2-12.5,0.2-18.9c2.2-33.4-31.2-41.4-66.5-49.8c-16.1-3.9-32.7-7.8-46.1-14.4c-7-3.4-14-5.2-20.7-5.2
				c-26.1,0-45.1,25.3-63.5,49.7c-3.9,5.2-7.6,10.2-11.4,14.9c-5.9,7.3-9.2,15.5-10.8,23.8H664.3z"/>
		</g>
		<g>
			<path class="st1" d="M691.9,1042.7c-0.2-3.7-0.1-7.4,0.6-11.1c1.5-8.4,7.6-19,28.1-21.4c17.2-2,24.2-9.1,30.3-15.3
				c5.1-5.1,9.5-9.5,18.9-9.5c2.5,0,5.3,0.3,8.5,0.9c24.7,4.9,75.9,15.2,74.9,42.5c-0.2,4.5,0.1,9.2,0.5,13.9h2
				c-0.4-4.7-0.7-9.3-0.5-13.8c1.1-29-49.4-39.1-76.5-44.6c-3.3-0.7-6.2-1-8.9-1c-10.3,0-15.2,4.9-20.4,10.1
				c-5.9,6-12.7,12.7-29.2,14.7c-21.7,2.6-28.2,14-29.9,23.1c-0.7,3.8-0.8,7.7-0.6,11.4H691.9z"/>
		</g>
		<g>
			<path class="st1" d="M791.7,1037.3c0.9,0,1.7-0.1,2.6-0.2c0.7-0.1,1.4-0.2,2.1-0.2c4.3,0,6.9,2.5,9.7,5.7h2.6
				c-0.1-0.1-0.1-0.1-0.2-0.2c-3.3-3.9-6.4-7.6-12.2-7.6c-0.8,0-1.6,0.1-2.4,0.2c-0.8,0.1-1.5,0.2-2.3,0.2c-5.2,0-9.7-3-10.3-7
				c-0.7-4.4,3.4-8.5,10.9-10.9c0.8-0.1,8.8-1.4,17.5-1.4c9.2,0,20.8,1.4,23.9,8.1c2.6,5.7,4.6,12.7,4.7,18.6h2
				c-0.1-6.2-2.1-13.4-4.9-19.4c-2.8-6.2-11.5-9.3-25.7-9.3c-9.4,0-17.8,1.4-17.9,1.4l-0.1,0c-8.6,2.7-13.2,7.6-12.3,13.1
				C780.2,1033.6,785.5,1037.3,791.7,1037.3z"/>
		</g>
		<g>
			<path class="st1" d="M1022.7,138.2c-22.9,5.4-43.9,1-59.5-5c-28.9-11.1-49.7-30.8-57.4-40.7c-17.4-22.3-6.9-50.8-6.8-51.1
				c14.2-41-7.2-64.1-36.8-80.1h-4.4c30.6,15.7,53.6,38.3,39.3,79.4c-0.1,0.3-11,29.8,7.1,53c7.9,10.1,29,30.1,58.3,41.4
				c15.8,6.1,37.1,10.6,60.2,5.2V138.2z"/>
			<path class="st1" d="M882.5,553.8c-0.8,6.2,1.3,11.3,5.9,15c14.8,10.9,30.6,16.9,48.2,23.1l1.2,0.5c6.7,2.8,13.6,5.8,16.3,12.9
				c1.2,3.5,2.4,7.2,3.5,10.7c4.2,13.4,8.5,27.2,19.8,37.8c5.1,4,10.2,7.1,15.2,10.1c1,0.5,2,1,2.9,1.5c2.7,1.4,5.2,2.8,8.4,3.6
				c6.8,1.2,13,3.3,18.9,5.9v-2.2c-5.7-2.5-11.8-4.5-18.4-5.6c-2.8-0.7-5.2-1.9-7.8-3.4c-0.9-0.5-1.9-1-2.9-1.5
				c-4.9-2.9-9.9-6-14.8-9.9c-10.9-10.1-14.9-23.1-19.2-36.8c-1.1-3.5-2.2-7.2-3.5-10.8c-3-8-10.6-11.2-17.4-14.1l-1.2-0.5
				c-17.5-6.2-33.1-12.1-47.7-22.8c-5.1-4-5.6-9.3-5.2-13.1c0.5-3.8,1.6-7.5,2.6-11.2c1.5-5.2,3.1-10.6,2.9-16.2
				c-0.2-6.8-0.5-14.6,1.9-21.4c0.5-1,1-2.3,1.5-3.5c0.5-1.2,1-2.5,1.4-3.4c6.7-11.6,13.7-22.7,24.8-31.7c3.4-2.8,6.9-3.7,10.6-2.8
				c6.3,1.6,11.5,8.4,13.8,14.3c2,5.4,3,11,4,16.3c1,5.4,2,11.1,4.1,16.7c8.5,18.6,29.1,22.6,47.2,26.2c4,0.8,7.8,1.5,11.4,2.4
				c4.3,1.3,8.3,3,12,4.8v-2.2c-3.6-1.7-7.4-3.2-11.5-4.5c-3.7-0.9-7.5-1.6-11.5-2.4c-18.6-3.6-37.8-7.4-45.8-25c-2-5.4-3-11-4-16.3
				c-1-5.4-2-11.1-4.1-16.7c-2.4-6-7.8-13.6-15.2-15.5c-4.3-1.1-8.4,0-12.3,3.1c-11.3,9.3-18.4,20.5-25.3,32.3c-0.5,1-1,2.3-1.5,3.6
				c-0.5,1.2-1,2.5-1.5,3.4l0,0.1c-2.6,7.2-2.3,15.1-2.1,22.2c0.2,5.3-1.3,10.2-2.8,15.5C884.1,546.1,883,549.9,882.5,553.8z"/>
			<path class="st1" d="M633.3,71.9c2.5,28.4,4.8,55.2,33.3,62.9c32.3,8.7,50.7-3.1,65.6-12.6c2.5-1.6,4.8-3.1,7.2-4.5
				c8.8-5.2,23.4-5.3,36.4-0.4c13.1,5,22.4,14.2,26.2,25.8c3.4,10.5,13.6,18.3,28.8,22c20.6,5,45.2,1.2,54.8-8.5
				c4.5-4.5,8.1-9.4,11.2-13.7c8.5-11.7,14.2-19.4,28.6-11.1c2.8,1.6,6,3.7,9.7,6.1c18.7,12.2,50,32.7,87.5,26.8v-2.1
				c-37,5.9-67.9-14.3-86.4-26.4c-3.8-2.5-7-4.6-9.8-6.2c-16-9.1-22.7,0-31.2,11.7c-3.1,4.3-6.7,9.1-11,13.5c-9.2,9.2-33,12.8-53,8
				c-14.5-3.5-24.2-10.8-27.4-20.6c-3.9-12.2-13.6-21.9-27.4-27.1c-13.5-5.2-28.8-5-38.1,0.5c-2.4,1.4-4.8,2.9-7.3,4.5
				c-15.3,9.8-32.6,20.8-64,12.3c-27.2-7.4-29.4-33.5-31.9-61.2c-0.8-9-1.6-18.4-3.3-27.1c-6.6-33.4,20.4-56,21.6-57
				c1.7-1,21.4-13.3,38-26.4h-3.3c-16.6,12.8-35.5,24.5-35.8,24.7l-0.1,0.1C652.1-13.7,623,9.8,630,45
				C631.7,53.6,632.5,62.9,633.3,71.9z"/>
			<path class="st1" d="M1006.1,187.4c-1.7-0.8-3.4-1.1-5.1-1.4c-1.2-0.2-2.5-0.5-3.7-0.9c-6.4-2.3-12.9-5-19.3-7.7
				c-20.5-8.7-41.8-17.6-63.9-13.1c-2.1,0.4-4.2,1.2-6.6,2.4c-1.7,0.8-3.9,2-5.7,3.8c-0.5,0.4-0.9,0.9-1.3,1.3
				c-1.1,1.1-2.2,2.3-3.3,3.5c-3.6,3.9-7.3,7.9-12.1,9.8c-0.1,0-0.2,0.1-0.3,0.1c-5.5,1-11.1,1.2-16.5,1.4
				c-10.2,0.4-20.8,0.7-30.8,6.7c-0.4,0.3-0.8,0.5-1.2,0.8c-5,3.7-10.5,8.3-14,14.6c-1.1,2.1-2.2,4.5-3.2,7
				c-2.2,5.1-3.5,10.6-3.9,16.6c-0.2,3,0.2,6.2,1.4,9.6c1,3,2.3,6.2,4.6,8.7c6.8,7.4,17.3,9.8,26.7,11.5c8.4,1.1,16,2.2,23.6,3.7
				c11.2,2.3,21.1,8.6,30.7,14.8c1.3,0.9,2.7,1.7,4,2.6c14.2,9,30.7,14.5,47.7,15.9c5.4,0,10.7-0.1,15.9-0.2
				c10.5-0.2,20.4-0.4,31,0.2c3,0.5,6.3,0.8,9.5,1c3.2,0.2,6.5,0.5,9.4,1c0.9,0.1,1.9,0.3,2.8,0.5v-2c-0.8-0.1-1.7-0.3-2.5-0.4
				c-3-0.5-6.4-0.8-9.6-1c-3.2-0.2-6.5-0.5-9.4-1l-0.1,0c-10.7-0.7-20.7-0.5-31.2-0.2c-5.1,0.1-10.5,0.2-15.7,0.2
				c-16.6-1.4-32.8-6.8-46.7-15.6c-1.3-0.8-2.7-1.7-4-2.6c-9.8-6.3-19.9-12.7-31.4-15.1c-7.7-1.6-15.3-2.6-23.7-3.7
				c-9-1.6-19.2-4-25.6-10.9c-2.1-2.2-3.2-5.1-4.2-8c-1-3.1-1.5-6.1-1.3-8.9c0.4-5.8,1.6-11,3.8-15.9c1-2.5,2-4.7,3.1-6.8
				c3.3-6,8.6-10.5,13.4-14c0.4-0.3,0.7-0.5,1-0.7c9.5-5.7,19.4-6.1,29.8-6.4c5.5-0.2,11.2-0.4,16.9-1.5l0.1,0
				c0.2-0.1,0.3-0.1,0.5-0.2c5.3-2.1,9.1-6.3,12.9-10.3c1-1.1,2.1-2.3,3.2-3.4c0.4-0.4,0.9-0.8,1.3-1.2c1.7-1.5,3.7-2.7,5.3-3.4
				c2.2-1.1,4.2-1.8,6.1-2.2c21.6-4.4,42.5,4.4,62.8,13c6.3,2.7,12.9,5.5,19.4,7.8c1.3,0.4,2.7,0.7,3.9,0.9c1.7,0.3,3.2,0.6,4.7,1.3
				l0.1,0.1c0.4,0.1,6.6,1.9,17.3,0.8V188C1012.7,189,1006.7,187.5,1006.1,187.4z"/>
			<path class="st1" d="M1022.7,717.7c-0.7-0.5-1.5-0.9-2.2-1.4l-0.7-0.5c-2.7-1.7-5.6-3-9-4.4c-1.1-0.5-2.3-1-3.3-1.6
				c-1.9-0.9-3.8-1.9-5.8-2.5c-2.9-0.9-5.8-1.6-8.6-2.2c-4-0.9-8.2-1.3-12.2-1.8c-2.5-0.3-5.1-0.6-7.6-0.9
				c-12.2-1.9-30.4-8.2-47.5-28.1c-11.8-13.7-18.6-26-24-35.9c-8.1-14.8-13.9-25.5-30.3-28.3c-18.4-3.2-27.7-7.5-31.1-14.2
				c-2.6-5.1-1.7-11.9,2.7-20.7c7.7-15.5,4.5-25.4,0.8-36.9c-2.2-6.8-4.5-13.9-5-23.2c-0.8-15.2,7.2-21.8,18.3-30.9
				c6.9-5.7,14.8-12.2,22.2-22.2c8.4-11.3,10.2-22.2,5-30.6c-5.4-8.8-17.9-13.3-31-11.1c-25.6,4.3-66.2,40.7-67.5,80.3
				c-0.5,14.5,1.1,24.9,2.5,34.1c2.5,16.3,4.1,27-7.7,46.8c-11.3,18.9-30.2,33.2-46.9,45.7c-10.9,8.2-21.2,16-28.3,24.1
				c-15.3,17.6-52.5,45.1-83.3,23.2c-18.2-12.9-7-37.2,2-56.6c5.7-12.3,10.2-21.9,6.9-27.1c-7.3-11.5-8.2-30.4-3.2-65.3
				c5-34.9-25.2-56.7-53.8-74.3c-24.8-15.3-24-25.8-23.2-37.9c0.2-3,0.4-6,0.3-9.3c-0.7-17-9-26.7-24.1-44.4l-0.2-0.2
				c-4.2-4.9-8-8.1-11.4-10.9c-8.9-7.4-13.4-11.1-9.1-34.9c6.4-35.5-9-94.2-26.8-124.7c-18.7-32.1-12-52.8-2-70.3
				c10.5-18.4,16.4-47.5,7.4-67.6c-4.9-10.9-3.2-30.9-1-45.8c1.6-10.6,7.7-21,18.7-31.9c3.6-3.6,7.2-7.6,10.3-11.9h-2.5
				c-2.9,3.8-6,7.3-9.2,10.5c-11.3,11.2-17.6,22-19.3,33c-2.3,15.1-3.9,35.5,1.2,46.9c8.7,19.5,2.9,47.8-7.3,65.8
				c-10.3,18.1-17.2,39.4,2,72.3c17.6,30.1,32.7,89.3,26.5,123.3c-4.5,24.9,0.6,29.2,9.8,36.8c3.3,2.8,7.1,5.9,11.1,10.7l0.2,0.2
				c15.3,17.9,22.9,26.9,23.6,43.2c0.1,3.2-0.1,6.2-0.3,9.1c-0.9,12.2-1.7,23.8,24.1,39.7c34.9,21.5,57.2,42,52.9,72.3
				c-5.1,35.9-4.2,54.6,3.5,66.7c2.7,4.2-1.8,13.9-7,25.2c-9.3,20.1-20.9,45.2-1.4,59.1c13.6,9.6,30.1,11.1,47.8,4.2
				c19.3-7.5,33.2-21.9,38.2-27.7c7-8,17.2-15.7,28-23.8c16.9-12.7,36-27.1,47.4-46.3c12.1-20.4,10.4-32,7.9-48.1
				c-1.4-9.1-2.9-19.4-2.5-33.7c0.6-17.7,9.3-36.3,24.6-52.5c12.9-13.7,29.1-23.8,41.3-25.9c12.4-2.1,24,2,29,10.1
				c4.7,7.7,3,17.8-4.9,28.4c-7.3,9.8-15.1,16.2-21.9,21.9c-11.1,9.1-19.8,16.4-19,32.5c0.5,9.5,3,17.1,5.1,23.7
				c3.8,11.5,6.7,20.6-0.6,35.4c-4.7,9.4-5.6,16.8-2.7,22.5c4.7,9.2,19.1,12.9,32.5,15.2c15.5,2.7,20.8,12.5,28.9,27.3
				c5.5,10,12.3,22.4,24.2,36.3c17.6,20.3,36.2,26.9,48.8,28.8c2.5,0.4,5.1,0.7,7.6,1c4,0.4,8.1,0.9,12,1.8c2.7,0.6,5.6,1.3,8.4,2.1
				c1.9,0.6,3.7,1.5,5.5,2.4c1.1,0.6,2.3,1.1,3.5,1.6c3.3,1.4,6.1,2.7,8.7,4.3l0.7,0.5c1.1,0.7,2.2,1.4,3.3,2.1V717.7z"/>
			<path class="st1" d="M251.9-38.7h-2c2.3,28-3.8,54-17.5,72.5C220.5,49.9,203.8,59,184,60.1c-15.5,0.9-28.1-0.3-39.2-1.3
				c-26.4-2.4-47.3-4.3-88,22.9C32.1,98.4,4.8,104.3-22.7,99.4v2c7.4,1.3,14.8,1.8,22.3,1.5c20.6-0.7,40.3-7.3,58.4-19.5
				c40.1-26.9,59.6-25.1,86.7-22.6c11.2,1,23.8,2.2,39.5,1.3c20.3-1.2,37.6-10.5,49.9-27.1C248,16.2,254.2-10.3,251.9-38.7z"/>
		</g>
		<g>
			<path class="st1" d="M472.5,380.3c-3.1-1.8-6.2-3.6-9.1-5.8c-10.8-8.1-17.1-19-19.3-33.5c-2.5-16.7-8.4-28.3-18.7-36.6
				c-8.3-6.8-18.2-9.9-27.8-12.9c-4.7-1.5-9.6-3-14.2-5c-11.8-5-21.1-12.7-27.6-23.1c-4.1-6.6-6.9-13.9-9.7-21
				c-3-7.8-6.1-15.8-10.9-23c-17.1-25.4-51.3-45.8-80.9-33.7c-26.6,10.9-55.7,13.7-83.7,16.4l-10.3,1c-12.7,1.2-25.7,2.5-38.5,4.7
				c-12.7,2.2-26.8,6.2-35.3,18.5C79.4,237,77.9,250,77,262.5c-0.1,1.1-0.1,2.2-0.2,3.3c-0.2,4.4-0.4,9-2.6,12.6
				c-2.2,3.6-6.2,6.3-11.8,8.1c-4.8,1.5-9.5,1.6-14.5,1.8c-2.4,0.1-4.9,0.1-7.4,0.4c-18.6,1.8-32.4,0.2-46-5.3
				c-2.9-1.2-5.8-2.7-8.9-4.2c-2.7-1.4-5.5-2.8-8.4-4v2.2c2.5,1.1,5,2.4,7.5,3.6c3,1.5,6.1,3.1,9.1,4.3c13.8,5.5,28.2,7.2,46.9,5.4
				c2.4-0.2,4.9-0.3,7.3-0.4c4.9-0.1,10-0.3,15.1-1.9c6.1-1.9,10.4-4.9,12.9-9c2.5-4.1,2.7-8.9,2.9-13.6c0-1.1,0.1-2.2,0.2-3.3
				c0.9-12.2,2.3-24.9,9.2-35.1c8-11.7,21.7-15.5,34-17.6c12.7-2.2,25.7-3.5,38.3-4.7l10.3-1c28.2-2.7,57.4-5.6,84.3-16.5
				c28.6-11.7,61.8,8.3,78.5,33c4.7,7,7.8,14.9,10.7,22.6c2.8,7.2,5.6,14.6,9.8,21.3c6.7,10.7,16.3,18.8,28.5,23.9
				c4.7,2,9.6,3.5,14.4,5c9.8,3.1,19.1,6,27.1,12.5c9.9,8,15.6,19.2,17.9,35.3c2.2,15,8.8,26.4,20.1,34.8c3,2.2,6.2,4.1,9.3,5.9
				c3.2,1.9,6.6,3.8,9.6,6.1c2.4,1.9,4.9,4.1,7.2,6.5c4.7,4.9,6.9,11.6,8.4,16.8c3.3,12.3,11.5,35,28.3,48c4.9,3.8,10,7.5,14.9,11
				c18.8,13.7,36.6,26.6,38.4,42c1,8.5-1.7,17.4-4.3,25.9c-3.5,11.4-6.9,22.2-1.6,31.7c0.7,1.3,1.5,2.7,2.4,4.1
				c9.7,16.8,27.7,48.2,8.5,83.4c-8.9,16.3-28.7,23.5-43.8,26.7c-32.8,7-73.9,1.7-91.7-11.8c-31.6-24.1-55.2-32.3-78.6-27.3
				c-25.1,5.3-58.4-13.1-72.6-32.8c-8.8-12.2-23.9-15.3-37.2-18c-8.4-1.7-16.4-3.4-22.3-7c-9.7-6-34.4,3.2-52.7,15.6
				c-17.1,11.5-26,23.7-24.3,33.3c0.5,3.2,1.8,5.5,3.9,6.9c4.7,3.1,12.5,1.3,22.4-1c16.3-3.8,38.6-9,57.6,7.1
				c17.3,14.6,26.8,26.6,35.3,37.2c8.6,10.8,16,20.1,29.2,29.2c14.6,10,17.5,26.4,15.2,38.4c-2.2,11.7-9.2,20.6-17.9,22.7
				c-20.6,4.9-27.5,11.5-31.7,30.8c-3.8,17.1-13,20.2-33.2,23.2c-1.1,0.2-2.3,0.3-3.4,0.5c-19.5,2.8-41.5,5.9-44.4,45.4
				c-0.6,8.7-0.6,17.7-0.6,26.4c0.1,32.2,0.3,62.7-33.7,72.7c-34.1,10.1-53.1-42-65.7-76.4c-3.4-9.3-6.3-17.3-9.1-23
				c-23.2-48-49.6-57-72.8-64.9c-11.9-4.1-23.3-8-33.8-16.6v2.6c10.3,8.1,21.5,11.9,33.1,15.9c24,8.2,48.8,16.7,71.7,63.9
				c2.7,5.6,5.6,13.6,9,22.9c11.7,32.1,28.9,79,59.1,79c2.9,0,5.9-0.4,9.1-1.4c35.4-10.5,35.3-41.6,35.2-74.6
				c0-8.7-0.1-17.6,0.6-26.2c2.8-37.9,23.1-40.8,42.7-43.6c1.2-0.2,2.3-0.3,3.4-0.5c20.6-3.1,30.8-6.5,34.8-24.8
				c3.8-17.2,9-24.2,30.3-29.2c9.5-2.3,17.1-11.8,19.4-24.2c2.3-12.6-0.7-29.8-16.1-40.4c-13-8.9-20.3-18.1-28.8-28.8
				c-8.5-10.7-18.1-22.7-35.5-37.5c-19.8-16.7-42.6-11.4-59.3-7.5c-9.1,2.1-16.9,3.9-20.9,1.3c-1.6-1.1-2.6-2.9-3.1-5.6
				c-1.5-8.7,7.3-20.4,23.5-31.3c19.6-13.2,42.8-20.4,50.6-15.6c6.2,3.8,14.3,5.5,22.9,7.2c13.6,2.8,27.6,5.7,35.9,17.2
				c14.5,20.2,48.8,39,74.6,33.6c22.9-4.8,45.9,3.3,77,27c18.2,13.8,60.1,19.3,93.3,12.2c15.5-3.3,35.9-10.8,45.1-27.7
				c19.7-36.2,1.4-68.2-8.5-85.4c-0.8-1.5-1.6-2.8-2.3-4.1c-4.9-8.8-1.7-19.2,1.7-30.2c2.7-8.8,5.5-17.8,4.4-26.8
				c-2-16.3-20.1-29.4-39.3-43.4c-4.9-3.5-9.9-7.2-14.8-11c-16.4-12.7-24.3-34.9-27.6-47c-1.5-5.5-3.8-12.4-8.8-17.7
				c-2.4-2.6-4.9-4.8-7.4-6.8C479.2,384.2,475.8,382.2,472.5,380.3z"/>
			<path class="st1" d="M-22.7,213.5c3.2,0.4,6.6,0.7,10.1,0.9c2.7,0.2,4.9,0.5,7.1,0.8c5.6,0.8,10.8,1.5,22.5,0
				c24.4-3.2,36.9-7.2,50.1-11.4c10.4-3.3,21.1-6.7,38.6-10.3c21.3-4.4,41.6-6.3,58-7.9c15.6-1.5,27.9-2.7,35.4-5.3
				c7.4-2.6,14.7-5.8,21.7-8.9c6.4-2.8,13-5.7,19.6-8.1c36.3-13.2,70.5-9.2,91.4,10.7c7.8,7.4,14,17.1,19.5,30.5
				c1.5,3.8,2.9,7.7,4.3,11.5c2.3,6.6,4.7,13.4,8.1,19.7c8.5,16.2,21.5,29.5,36.5,37.4c7.8,4.1,16.2,6.4,25.1,7
				c4.9,0.3,9.9,1.1,16.3,2.8c2.1,0.5,4.2,1.1,6.4,1.8c7.7,2.3,15.7,4.7,23.4,3.3c13.6-2.5,13-20.2,12.9-26
				c-0.6-18-7.8-32.6-18.6-49c-12.8-19.5-19.5-36.2-21.9-54.3c-3-23.1,0.1-46.5,3.1-69.1c1.7-12.9,3.5-26.2,4.1-39.4
				c0.2-3.3,0.4-6.7,0.6-10.1c1.4-23.1,2.8-47.1-7.4-67.4c-1.1-2.2-3.4-6.8-7.4-11.2h-2.7c4.6,4.6,7.1,9.7,8.3,12.1
				c10,19.9,8.6,43.5,7.2,66.4c-0.2,3.4-0.4,6.8-0.6,10.1c-0.6,13.1-2.4,26.4-4.1,39.2c-3,22.8-6.2,46.3-3.1,69.7
				c2.4,18.4,9.3,35.4,22.2,55.1c10.9,16.6,17.7,30.4,18.2,48c0.3,9.4-0.6,22-11.2,23.9c-7.2,1.3-15-1-22.5-3.2
				c-2.3-0.7-4.4-1.3-6.5-1.8c-6.6-1.7-11.7-2.5-16.7-2.8c-8.7-0.5-16.7-2.7-24.3-6.7c-14.7-7.7-27.4-20.7-35.7-36.6
				c-3.3-6.2-5.6-12.9-7.9-19.5c-1.4-3.8-2.8-7.8-4.3-11.6c-5.6-13.7-11.9-23.6-19.9-31.2c-21.5-20.4-56.5-24.5-93.5-11.1
				c-6.7,2.4-13.3,5.3-19.7,8.2c-7,3.1-14.2,6.3-21.6,8.8c-7.3,2.5-19.5,3.7-35,5.2c-16.4,1.6-36.8,3.5-58.2,7.9
				c-17.6,3.6-28.3,7.1-38.8,10.4c-13.7,4.4-25.6,8.2-49.7,11.3c-11.4,1.5-16.5,0.8-22,0c-2.2-0.3-4.4-0.6-7.2-0.8
				c-3.6-0.3-7-0.6-10.3-0.9V213.5z"/>
			<path class="st1" d="M-8.9,837.1c34.2,1.1,58.6,15.3,75.1,82.2c15.1,61.7,55.3,109.1,85.4,119.4c11.2,3.8,21.1,2.7,28.7-3.4
				c30.3-24.2,34.8-63.2,34.8-84.3c0-20.7,3-44.6,3-44.8c0.1-0.4,9.2-43.6,36.4-54.3l1.2-0.5c28.7-11.3,58.3-22.9,64.4-38.1
				c3.8-9.5,25.6-31.8,48.2-38c11.8-3.3,22-1.8,30.3,4.5c15.9,12.1,14.5,30,13.2,47.4c-1,13.3-2,25.8,5.7,33.5
				c17.2,17.2,70.4,27.4,100,19.3c13.7-3.8,27-0.5,34.8,8.7c8.8,10.3,9.2,26.4,1.1,43.9c-17.8,38.6-26.6,58.2-26.7,58.4
				c-0.1,0.3-8.8,25.9-1.6,51.7h2.1c-7.3-25.3,1.3-50.8,1.4-50.9c0.1-0.2,8.9-19.8,26.7-58.3c8.5-18.3,8-35.1-1.3-46.1
				c-8.3-9.7-22.4-13.3-36.8-9.3c-29,8-81.3-2-98-18.7c-7.1-7.1-6.1-19.2-5.1-32c1.3-17.1,2.8-36.4-14-49.1
				c-8.8-6.6-19.5-8.3-32-4.8c-23.6,6.6-45.5,29.1-49.5,39.2c-5.8,14.4-36.3,26.4-63.3,37l-1.2,0.5c-28.2,11.1-37.2,53.9-37.6,55.8
				c0,0.2-3,24.3-3,45.1c0,20.8-4.4,59.1-34,82.8c-7,5.6-16.2,6.6-26.8,3c-29.6-10.1-69.2-56.9-84.1-118
				c-7.8-32-18.2-53.8-31.5-66.7c-11.5-11.1-25.5-16.4-45.4-17c-1.4,0-2.9-0.1-4.4-0.1c-3.2-0.1-6.3-0.2-9.5-0.4v2
				c3.1,0.2,6.3,0.3,9.4,0.4C-11.8,837-10.4,837-8.9,837.1z"/>
			<path class="st1" d="M609.2,1042.7c-1.6-28.1,9.1-49.5,32.1-63.9c0.6-0.4,56.6-42,75.6-83c16.2-35.1,14.9-58.5-4.2-71.5
				c-9.5-6.5-19.1-17.2-17.9-25.3c0.7-4.4,4.6-7.6,11.5-9.6c21.6-6.3,23.8-2.6,33,12.7c0.6,0.9,1.1,1.9,1.8,2.9
				c10.4,17,19.6,26.4,39,27.2c17.6,0.7,39.6,7.3,44.1,34.3c0.6,3.3,1,6.8,1.5,10.1c3.5,24.6,7.1,50,41.7,73.1
				c23.4,15.6,62.1,45.8,57.9,72.8c-0.7,4.3-3,7.9-5.5,11.8c-1.2,1.8-2.4,3.7-3.4,5.6c-0.5,0.9-0.9,1.8-1.4,2.8h2.2
				c0.3-0.6,0.6-1.3,0.9-1.9c1-1.9,2.2-3.7,3.3-5.5c2.5-3.9,5.1-7.9,5.8-12.6c4.4-28.1-35-58.9-58.8-74.8
				c-33.8-22.6-37.4-47.5-40.8-71.7c-0.5-3.3-1-6.8-1.5-10.1c-4.7-28.3-27.6-35.2-46-36c-18.5-0.8-27.4-9.8-37.4-26.2
				c-0.6-1-1.2-2-1.8-2.9c-9.1-15.2-12.2-20.3-35.3-13.6c-7.7,2.2-12,6-12.9,11.2c-1.4,9,8.4,20.2,18.7,27.3
				c18.1,12.4,19.2,35,3.5,69c-18.8,40.5-74.4,81.8-74.9,82.2c-23.6,14.8-34.6,36.8-33,65.5H609.2z"/>
			<path class="st1" d="M-3.4,1014c-4.3,7.7-4.7,17.3-5.1,26.6c0,0.7-0.1,1.4-0.1,2.1h2c0-0.7,0.1-1.4,0.1-2.1
				c0.4-9,0.7-18.4,4.8-25.7c9.1-16.2,8.6-38.6-1.5-61.3c-4.9-11.1-11.6-21.3-19.5-30v3c7.1,8.2,13.2,17.6,17.7,27.8
				C4.8,976.6,5.4,998.3-3.4,1014z"/>
			<path class="st1" d="M380.8-38.7c-0.8,0.5-1.5,1-2.3,1.5C357.8-23.4,357-3.1,356.1,16.6c-0.8,18.8-1.6,38.3-19.7,52.7
				c-17.9,14.3-31.2,8.8-45.2,3c-14.3-5.9-29-12-47.9,6c-30.1,28.9-68.1,36.9-113,23.8c-36.1-10.5-74.7,20.9-75,21.2
				C27.2,142.8-0.9,143-22.7,137.6v2.1c22.2,5.3,50.6,5.1,79.3-14.7c0.4-0.3,38.2-31.1,73.3-20.9c45.6,13.3,84.3,5.2,115-24.2
				c17.9-17.1,31.4-11.6,45.7-5.6c14,5.8,28.4,11.7,47.2-3.3c18.8-15,19.6-35,20.4-54.2c0.8-20,1.6-38.9,21.5-52.2
				c1.7-1.1,3.4-2.2,5-3.1H380.8z"/>
			<path class="st1" d="M-22.7,160.3c22.2,7.6,49,9.5,78-7.2c1.7-0.7,37.9-15.4,66.1-8.4c28.7,7.2,88-3.7,118.4-28.1
				c26.6-21.3,71.4,1.5,104.2,18.2c2.7,1.4,5.4,2.7,7.9,4c17.2,8.6,27.4,10.4,34.1,6c7.5-4.9,10.1-18,8.5-42.2
				c-0.5-8.3-1.6-18.7-2.8-29.7c-3.7-35.2-8.7-83.4,3.3-89.5c3.7-1.9,9.1,0.4,16.1,6.7c12.1,11,9.7,43.5,6.8,81.1
				c-2.6,33.5-5.5,71.5,2,100.9c5.2,20.4,16.1,35.9,24,47.3c6.3,9,11.3,16,10.1,20.9c-0.5,2.2-2.3,4-5.5,5.5
				c-9.5,4.8-21.7,3.2-34.4-4.3c-12-7.2-23.3-19.2-31-32.9c-18.4-32.9-39.7-56.7-63.2-70.9c-25.9-15.6-67.1-12.8-104.8,7.1
				c-36.6,19.3-61.7,17-81.9,15.1c-23.1-2.1-50.2,4.2-78.2,18.2c-28.9,14.4-47.8,9.7-49,9.4c-1.7-0.8-3.4-1.1-5.1-1.4
				c-1.2-0.2-2.5-0.5-3.7-0.9c-6.4-2.3-12.9-5-19.3-7.7c-0.3-0.1-0.5-0.2-0.8-0.3v2.2c6.3,2.7,12.9,5.5,19.4,7.8
				c1.3,0.4,2.7,0.7,3.9,0.9c1.7,0.3,3.2,0.6,4.7,1.3l0.1,0.1c0.8,0.2,20,5.8,50.5-9.5c27.7-13.8,54.4-20.1,77.1-18
				c20.4,1.9,45.9,4.2,83-15.4c37.2-19.6,77.5-22.4,102.9-7.2c22.9,13.8,44.6,38,62.5,70.1c12.4,22.1,34.9,41,55,41
				c4.5,0,8.9-0.9,13-3c3.7-1.8,5.8-4.1,6.5-6.8c1.4-5.7-3.5-12.8-10.4-22.5c-7.9-11.2-18.7-26.5-23.7-46.6
				c-7.4-29.1-4.5-66.9-1.9-100.2c2.9-38.2,5.4-71.1-7.4-82.8c-7.8-7-13.8-9.3-18.4-7c-13.3,6.7-8.6,51.8-4.4,91.5
				c1.1,11,2.2,21.3,2.8,29.6c1.5,23.4-0.8,35.9-7.6,40.4c-5.9,3.9-15.8,2-32.1-6.1c-2.5-1.3-5.1-2.6-7.9-4
				c-33.2-16.9-78.7-40-106.4-18c-30,24-88.4,34.8-116.7,27.7c-29.4-7.3-67,8.3-67.4,8.5l-0.1,0.1c-28.7,16.5-55.2,14.5-77.1,6.8
				V160.3z"/>
			<path class="st1" d="M556.9,585.7c-2-7-4.1-14.1-4.9-20.9c-1.1-6.6-0.7-13.6-0.2-20.4c0.3-5.5,0.7-11.1,0.2-16.5
				c-2-26.4-28.7-36.9-53-37.9c-7,0-14.2,0.3-21,0.7c-13.7,0.7-27.9,1.3-41.8-0.7c-8.6-1-16.5-2.8-24.7-5.9c-1.2-0.7-2.4-1.4-3.6-2
				c-5.5-3.1-10.3-5.8-15.1-9.8c-3.4-3.9-6.7-7.7-9.9-11.8c-0.8-1-1.5-1.9-2.3-2.9c-7.5-9.4-15.2-19.2-25.3-26.1
				c-2.7-1.9-5.5-3.6-8.3-5.4c-11-7-21.4-13.5-27.1-24.6c-0.5-0.9-0.7-2-0.9-3.1l-0.1-0.7c-0.2-1.2-0.8-2.2-1.4-3.2
				c-0.2-0.3-0.4-0.6-0.5-0.9c-1.1-2-2.4-3.9-3.8-5.9c-8.4-11.3-20.2-17.6-31.8-16.7c-1.7,0.1-3.2,0.5-4.7,1.1
				c-6.9,3.4-11.2,11-12.5,21.7c-0.8,3.8-2.2,7.7-4.1,11.6c-1.2,2.3-2.6,4-4.2,5c-2,1.3-4.4,2-6.4,2.5c-10.9,2.7-21.6,5.3-32.4,7.1
				c-20.3,2.8-37-9.1-53.2-20.6c-1-0.7-2-1.5-3.1-2.2c-3.3-3.3-6.7-6-10.5-9c-0.8-0.6-1.6-1.3-2.4-1.9
				c-14.5-12.9-27.1-27.2-40.4-42.2c-3.1-3.5-6.3-7.1-9.4-10.6c-2.8-3.8-7.7-7.9-13.4-11.3c-3-1.5-5.9-3.2-8.7-4.8
				c-4.8-2.8-9.3-5.4-14.4-7.2c-14.2-5.5-28.1-9.2-41.2-11.1c-3-0.5-6.4-0.8-9.6-1c-3.2-0.2-6.5-0.5-9.4-1l-0.1,0
				c-8.1-0.5-15.9-0.5-23.8-0.4v2c7.8-0.1,15.5-0.1,23.6,0.4c3,0.5,6.3,0.8,9.5,1c3.2,0.2,6.5,0.5,9.4,1c13,1.9,26.7,5.5,40.8,10.9
				c4.9,1.8,9.3,4.4,14.1,7.1c2.8,1.6,5.8,3.3,8.8,4.8c5.4,3.2,10,7.1,12.8,10.8c3.2,3.6,6.4,7.2,9.5,10.7
				c13.4,15.1,26,29.4,40.6,42.4c0.9,0.7,1.7,1.3,2.5,2c3.8,3,7.2,5.7,10.4,8.9l0.1,0.1c1,0.7,2.1,1.5,3.1,2.2
				c16.5,11.7,33.5,23.8,54.6,21c10.9-1.8,21.6-4.4,32.6-7.1c2.2-0.5,4.7-1.3,7-2.8c1.9-1.2,3.6-3.1,4.9-5.8c2.1-4,3.5-8.1,4.3-12.2
				c0.9-7.1,3.6-16.3,11.4-20.2c1.3-0.5,2.6-0.9,4.1-1c10.8-0.8,22.1,5.2,30,15.9c1.4,1.9,2.6,3.7,3.7,5.7c0.2,0.3,0.4,0.7,0.6,1
				c0.5,0.8,1,1.7,1.2,2.5l0.1,0.7c0.2,1.2,0.4,2.5,1.1,3.7c6,11.6,17,18.6,27.8,25.4c2.7,1.7,5.5,3.5,8.2,5.3
				c9.9,6.7,17.5,16.4,24.9,25.7c0.8,1,1.5,1.9,2.3,2.9c3.3,4.1,6.6,8,10,11.9l0.1,0.1c5,4.2,10.1,7,15.5,10
				c1.2,0.7,2.4,1.4,3.7,2.1l0.1,0.1c8.4,3.2,16.4,5.1,25.2,6.1c14.1,2,28.4,1.3,42.2,0.7c6.9-0.3,14-0.7,20.9-0.7
				c23.4,1,49.1,11,51,36.1c0.4,5.3,0.1,10.8-0.2,16.2c-0.4,6.9-0.9,14.1,0.3,20.8c0.8,6.9,3,14.2,5,21.2c5.7,19.4,11,37.8-6.6,51.9
				l-17.9,12c-3.2,1.6-7.2,2.6-10.7,3.4c-0.7,0.2-1.4,0.3-2.1,0.5c-28,9.6-58.7,4-91.1-16.9c-6.1-4.4-12.4-8.2-20.5-12.2
				c-4.8-2.4-10.1-1.2-15.2,0c-1.6,0.4-3.3,0.8-4.9,1c-16.8,2.7-29,0.3-38.4-7.8c-4.8-3.8-7.8-9.8-10.7-15.6
				c-2.7-9-9.5-20.1-20.6-24.6l-0.1,0c-1-0.3-1.9-0.6-2.9-0.9c-11.1-3.5-22.2-9.6-34.1-18.5c-9.8-7.3-19.4-10.1-29.4-8.6
				c-8.8,1.8-16,5-23.6,8.5c-1.2,0.5-2.4,1.1-3.5,1.6c-4,1.3-7.5,1.8-11.3,2.2c-1.8,0.2-3.6,0.4-5.5,0.8c-5.9,1-10.8,1-16.6,0
				c-12.9-3-26.2-6-39.4-4c-7.7,1.4-15.2,3.5-22.5,5.7c-8.9,2.6-18.1,5.2-27.4,6.3c-9.6,0.6-17.3,0.3-24.2-1
				c-13-2.4-24.4-9.7-35.1-16.9c-7.9-5.4-17.5-11.3-29.5-15c-3.7-0.9-7.5-1.6-11.5-2.4c-7.6-1.5-15.4-3-22.4-5.5v2.1
				c7.1,2.5,14.8,4,22,5.4c4,0.8,7.8,1.5,11.4,2.4c11.6,3.6,21.1,9.5,28.9,14.8c10.8,7.3,22.5,14.7,35.8,17.2c7.1,1.3,15,1.7,24.8,1
				c9.5-1.1,18.8-3.8,27.7-6.4c7.3-2.1,14.8-4.3,22.3-5.6c12.8-2,25.9,1.1,38.7,4c6.1,1,11.3,1,17.3,0c1.9-0.3,3.7-0.5,5.5-0.7
				c3.9-0.5,7.5-0.9,11.8-2.3c1.2-0.5,2.4-1.1,3.6-1.6c7.5-3.4,14.7-6.6,23.2-8.3c9.5-1.5,18.6,1.2,27.9,8.2
				c12.1,9.1,23.4,15.2,34.7,18.8c1,0.3,2,0.6,2.9,0.9c10.4,4.2,16.8,14.8,19.4,23.3l0.1,0.2c3,6,6.1,12.2,11.2,16.3
				c12.9,11.1,29,10,40,8.2c1.7-0.3,3.4-0.7,5-1.1c5-1.2,9.7-2.3,13.9-0.2c7.9,4,14.2,7.8,20.2,12.1c33,21.2,64.2,27,92.8,17.1
				c0.6-0.2,1.3-0.3,2-0.5c3.6-0.9,7.7-1.9,11.2-3.6l18.2-12.1C568.3,624.8,562.5,604.9,556.9,585.7z"/>
			<path class="st1" d="M252.1,699.9c-3.2-0.5-6.4-1-9.4-1.8c-5.9-1.6-10.2-4.8-12.7-9.6c-0.4-0.7-0.7-1.5-1-2.3
				c-2.1-6.1-4.6-13.7-11.3-16.5c-5.2-2.2-11.4-1.8-18.8,1.3c-7.8,3.3-14.3,8.9-20.6,14.3c-3.7,3.2-7.6,6.5-11.6,9.3
				c-32.8,22.4-76.6,14.2-104.2,0.5c-5.5-2.9-10.8-6.2-16-9.3C33.8,678,20.7,669.9,4.2,667c-2.8-0.7-5.2-1.9-7.8-3.4
				c-0.9-0.5-1.9-1-2.9-1.5c-4.9-2.9-9.9-6-14.8-9.9c-0.5-0.4-0.9-0.9-1.4-1.3v2.8c0,0,0,0,0.1,0.1c5.1,4,10.2,7.1,15.2,10.1
				c1,0.5,2,1,2.9,1.5c2.7,1.4,5.2,2.8,8.4,3.6c16.1,2.8,29.1,10.8,41.6,18.5c5.2,3.2,10.5,6.5,16.1,9.4
				c16.7,8.3,35.8,13.2,53.9,13.6c20,0.5,38.1-4.4,52.4-14.2c4.2-2.8,8.1-6.2,11.8-9.4c6.2-5.3,12.5-10.8,20.1-13.9
				c6.9-2.9,12.5-3.3,17.2-1.3c5.8,2.5,8.1,9.3,10.2,15.3c0.3,0.9,0.7,1.8,1.1,2.6c2.9,5.3,7.6,8.8,14,10.6c3.1,0.8,6.4,1.4,9.6,1.9
				c7.9,1.3,15.4,2.5,20.4,7.9c10,11.1,12.9,27.8,7,39.6c-3.3,5.6-8.3,9.2-13.5,13.1c-3.9,2.9-7.9,5.9-11.4,9.8
				c-3.6,4.2-5.8,9.2-8,14c-0.4,0.9-0.8,1.8-1.2,2.7c-5.3,11.6-18.9,16.4-31.5,19.5c-8.9,2.2-17.5,4.7-25.1,10.6l-0.1,0.1
				c-4.1,4-7.1,8.1-10.1,12.2c-5,8.1-7,15.9-9.1,25.4c-1.4,8.1-0.9,16.3-0.5,24.2c0.2,3.9,0.4,7.9,0.4,11.9
				c-0.9,8.2-3.2,13.8-6.9,17c-3.7,3.2-9,2.4-12.7,0.6c-15-7.2-22.1-24.2-29-40.6c-1.8-4.4-3.6-8.5-5.5-12.5
				c-1.5-2.4-2.5-4.7-3.4-6.9c-1-2.2-2-4.6-3.6-7.1c-2.2-3.6-4.3-6.2-6.9-9.2c-1-1.2-2.1-2.5-3.2-3.9c-7.5-8.9-16.8-15.4-26.5-22.2
				c-4.5-3.1-9.1-6.4-13.6-9.9c-5.9-4.9-9.7-11.8-10.7-19.4c-1.2-5.6-1.8-11.3-2.3-16.8c-1.3-13.3-2.6-25.9-12-36.7
				c-3.7-3.7-7.8-6.3-12.2-9l-0.7-0.5c-2.7-1.7-5.5-3-9-4.4c-1.1-0.5-2.2-1-3.3-1.6c-1.8-0.9-3.7-1.8-5.7-2.5
				c-2.9-0.9-6-1.6-8.8-2.2c-4-0.9-8.2-1.3-12.1-1.8c-1.1-0.1-2.3-0.3-3.4-0.4v2c1.1,0.1,2.2,0.3,3.2,0.4c3.9,0.4,8,0.9,12,1.7
				c2.8,0.6,5.8,1.3,8.6,2.2c1.9,0.6,3.6,1.4,5.4,2.3c1.1,0.6,2.3,1.1,3.4,1.6c3.4,1.4,6.1,2.7,8.7,4.3l0.7,0.5
				c4.3,2.7,8.3,5.2,11.8,8.7c8.9,10.3,10.1,22.5,11.4,35.5c0.6,5.6,1.1,11.3,2.3,17c1,8.1,5,15.4,11.4,20.7
				c4.5,3.6,9.2,6.8,13.7,10c9.7,6.8,18.8,13.2,26.1,21.9c1.2,1.4,2.2,2.7,3.2,3.9c2.5,2.9,4.6,5.5,6.7,9c1.5,2.4,2.5,4.7,3.4,6.9
				c1,2.2,2,4.6,3.5,7c1.9,3.9,3.6,8,5.4,12.4c7,16.7,14.3,34.1,30,41.6c4.3,2.1,10.5,2.9,14.9-0.9c4.1-3.6,6.6-9.6,7.6-18.4l0-0.1
				c0-4-0.2-8.1-0.4-12.1c-0.4-7.8-0.9-15.9,0.4-23.7c2.1-9.2,4-16.9,8.8-24.6c2.9-3.9,5.9-7.9,9.9-11.8c7.3-5.6,15.7-8,24.4-10.2
				c13-3.3,27.1-8.3,32.8-20.7c0.4-0.9,0.8-1.8,1.2-2.7c2.2-4.9,4.3-9.5,7.7-13.5c3.3-3.8,7.3-6.7,11.1-9.5c5.4-4,10.5-7.7,14-13.7
				c6.3-12.6,3.2-30.2-7.3-41.9C268.2,702.5,260,701.2,252.1,699.9z"/>
		</g>
		<g>
			<path class="st1" d="M150.2-20.7c2.9,0,5.9-0.4,9.1-1.4c11.8-3.5,19.6-9.3,24.8-16.6h-2.6c-5,6.5-12.3,11.6-22.8,14.7
				c-14.5,4.3-26.3-2.7-36-14.7h-2.6C128.5-27.9,138.3-20.7,150.2-20.7z"/>
			<path class="st1" d="M212.6-38.7c-1.5,21.5-8.5,52.3-33.7,72.5c-7,5.6-16.2,6.6-26.8,3c-22.3-7.6-50.1-35.9-69-75.5h-2.2
				c19.1,40.5,47.7,69.6,70.5,77.4c11.2,3.8,21.1,2.7,28.7-3.4c25.8-20.7,32.9-52.1,34.4-74H212.6z"/>
			<path class="st1" d="M785.5,293.7c-1.8-0.5-3.6-0.9-5.2-1.4c-11.1-2.9-21.6-12.6-27.5-25.1c-5.2-11.1-5.9-22.3-1.9-30.8
				c0.5-1.2,1.1-2.4,1.7-3.7c9.9-21,28.3-60,12.8-78c-16.5-19.3-44.1-7.8-68.5,2.4c-25.1,10.4-57,12.9-71.4-11.6
				c-8.4-14.2-6.9-23.8-5.3-34c1.3-8,2.5-16.2-1.3-26.5c-18.6-49.5-11.1-85.2,22.3-106.2c0.2-0.2,9.3-6.9,21.3-17.5h-3
				c-11,9.7-19.2,15.7-19.4,15.8c-34.2,21.5-42,58-23.1,108.5c3.7,9.9,2.5,17.5,1.2,25.5c-1.6,10.1-3.2,20.5,5.5,35.3
				c15.1,25.6,48.1,23.2,73.9,12.4c23.7-9.9,50.6-21.1,66.2-2.9c14.6,17.1-3.4,55.3-13.1,75.9c-0.6,1.3-1.2,2.5-1.7,3.7
				c-4.2,9.1-3.5,20.9,1.9,32.5c6.1,13.1,17.1,23.1,28.8,26.2c1.7,0.4,3.4,0.9,5.2,1.4c22.9,5.9,57.6,14.9,60,36.4
				c1.4,12.8-2.6,19.8-7.3,28c-4,7-8.5,14.9-10.7,27.8c-4.5,27.2-35.9,48.5-36.3,48.7c-27.7,21.4-30.4,41.8-31.7,72.7
				c-0.3,8.2-0.5,15.1-0.6,21.2c-0.4,17.3-0.6,26.9-4.6,35c-15.4,31.5-43.8,26.8-57.4,24.5c-0.8-0.1-1.5-0.3-2.2-0.4
				c-31.5-5-33.5-32.5-35.6-61.7c-1.8-24.7-3.7-50.2-24.7-61.5c-26-14-41.9-39.3-44.8-71.2c-1.6-17.2,10.7-34,23.6-51.7
				c8.8-12.1,18-24.7,23.7-38.4c11.3-27.5-19-49.5-41.2-65.6c-6-4.4-11.7-8.5-15.8-12.2c-7.6-6.8-17-8.8-26.9-10.8
				c-15.8-3.3-32.2-6.7-43.5-30.2c-20.7-42.9,13.4-77.1,20.4-83.5c14.5-13.2,9.4-27.1,0.2-52.4l-1.2-3.4c-9.8-26.7-0.1-55,0-55.2
				c0.1-0.1,4.6-10.3,13.8-30.4h-2.2c-9,19.6-13.4,29.5-13.5,29.7c-0.1,0.3-10,29.3,0,56.7l1.2,3.4c9.3,25.2,13.9,37.9,0.4,50.2
				c-7.2,6.6-42.2,41.6-20.9,85.8c11.7,24.3,29.4,28,44.9,31.3c9.7,2,18.8,3.9,26,10.4c4.2,3.7,9.9,7.9,15.9,12.3
				c22.8,16.6,51.2,37.3,40.5,63.3c-5.6,13.5-14.6,26-23.4,38c-13.2,18.1-25.6,35.2-24,53.1c3,32.6,19.3,58.5,45.9,72.8
				c20.1,10.8,21.9,35.8,23.7,59.9c2.1,28.7,4.3,58.3,37.3,63.5c0.7,0.1,1.4,0.2,2.2,0.4c14.1,2.4,43.4,7.3,59.5-25.6
				c4.2-8.6,4.4-18.3,4.8-35.9c0.1-6.1,0.3-13,0.6-21.2c1.3-30.4,4-50.4,30.9-71.2c1.3-0.9,32.4-21.9,37.1-50
				c2.1-12.5,6.5-20.3,10.4-27.1c4.9-8.5,9-15.8,7.6-29.2C844.4,309,809,299.8,785.5,293.7z"/>
			<path class="st1" d="M1022.7,97.5c-30.2,7.7-64,1.6-92.9-17.8c-19.7-13.2-17.3-28.5-11.8-39c1-1.9,2.2-3.7,3.3-5.5
				c2.5-3.9,5.1-7.9,5.8-12.6c3.3-21.5-19-44.7-40.3-61.4h-3.2c21.5,16.6,44.9,39.9,41.6,61.1c-0.7,4.3-3,7.9-5.5,11.8
				c-1.2,1.8-2.4,3.7-3.4,5.6c-4.8,9.2-9.6,26.8,12.4,41.6c29.2,19.6,63.3,25.8,94,18.2V97.5z"/>
			<path class="st1" d="M-0.1-38.7h-2.1C4.8-19,4.5-0.1-3.4,14c-4.3,7.7-4.7,17.3-5.1,26.6c-0.5,13.2-1,24.6-12.7,27.1
				c-0.5,0.1-1,0.2-1.5,0.3v2c0.6-0.1,1.3-0.2,2-0.3C-7.5,66.8-7,54.1-6.5,40.6c0.4-9,0.7-18.4,4.8-25.7C6.4,0.5,6.9-18.7-0.1-38.7z
				"/>
		</g>
		<g>
			<path class="st1" d="M61.5-38.7c7.8,28.7,10.9,58.9,3.2,69.4c-6.5,9-14.2,10.9-19.4,10.9c-6.1,0-12.4-2.6-16.5-6.8
				c-2.6-2.6-3.9-5.5-3.9-8.2c0.1-5,2.1-7,4.9-9.7c3.4-3.3,7.6-7.4,9.4-18.8c1-6.5-1-12.9-3.1-19.7c-1.6-5.2-3.4-10.8-4.1-17.1h-2
				c0.7,6.6,2.5,12.4,4.2,17.7c2.1,6.8,4,12.8,3.1,18.8c-1.7,10.7-5.4,14.4-8.8,17.7c-2.8,2.7-5.4,5.2-5.5,11.1
				c-0.1,3.2,1.5,6.6,4.4,9.6c4.6,4.7,11.3,7.4,18,7.4c5.7,0,14-2,21.1-11.7c7.9-10.9,5-41.6-2.8-70.6H61.5z"/>
		</g>
		<g>
			<path class="st1" d="M355.4,1042.7c2-8.5,2.4-17.3,2.8-26c0.8-20,1.6-38.9,21.5-52.2c15.7-10.5,29.4-14.3,40.7-11.3
				c13.7,3.6,20,16.1,22,20.3c10,19.9,8.6,43.5,7.2,66.4c-0.1,1-0.1,1.9-0.2,2.9h2c0.1-0.9,0.1-1.8,0.2-2.8
				c1.4-23.1,2.8-47.1-7.4-67.4c-2.2-4.3-8.7-17.4-23.3-21.3c-11.9-3.1-26.2,0.7-42.4,11.6c-20.7,13.9-21.6,34.2-22.4,53.8
				c-0.4,8.8-0.7,17.6-2.8,26.1H355.4z"/>
			<path class="st1" d="M388.8,1042.7c-2.3-27.9-2.6-54.9,6.2-59.4c3.7-1.9,9.1,0.4,16.1,6.7c8.9,8.1,9.9,27.8,8.7,52.7h2
				c1.2-25.3,0.1-45.6-9.4-54.2c-7.8-7-13.8-9.3-18.4-7c-9.9,5-9.8,31.5-7.4,61.2H388.8z"/>
		</g>
		<g>
			<path class="st1" d="M631.6,1042.7c-5.2-32.3,20.8-54,22-55c2.4-1.5,42.4-26.4,56.2-43.1c1.5-1.8,3-3.8,4.6-5.8
				c12.7-16.3,27-34.8,60.1-13c9.9,6.5,24.9,12.1,40.8,17.9c45.6,16.8,102.3,37.8,81.7,97c0,0-0.3,0.8-0.6,2h2.1
				c0.3-0.8,0.4-1.3,0.4-1.3c21.2-61.1-36.6-82.4-82.9-99.5c-15.8-5.8-30.7-11.3-40.4-17.7c-34.7-22.8-50.3-2.7-62.8,13.4
				c-1.6,2-3,3.9-4.5,5.7c-13.7,16.7-55.4,42.5-55.8,42.7l-0.1,0.1c-0.3,0.2-28.1,22.7-22.8,56.6H631.6z"/>
			<path class="st1" d="M227.5,1042.7c2.3-2.4,4.5-4.9,6.6-7.7c17.7-23.9,23-60.2,14.1-97.1c-11.8-48.7,10.9-58,45.4-72.2
				c8.8-3.6,18-7.4,27.6-12.2c24.8-12.4,43.6-15.8,57.6-10.3c11.4,4.5,20,15,26.5,32.2c7.2,19.3,32.5,22.3,57,25.2
				c22.1,2.6,45,5.3,54.1,20c11.5,18.6-1.8,38.1-15,51.2c-11.3,11.2-17.6,22-19.3,33c-1.8,11.7-3.1,26.5-1.3,37.8h2
				c-1.8-11.1-0.5-25.9,1.3-37.5c1.6-10.6,7.7-21,18.7-31.9c13.7-13.6,27.5-33.9,15.3-53.6c-9.6-15.5-33-18.3-55.6-20.9
				c-25-2.9-48.5-5.7-55.3-23.9c-6.7-17.8-15.7-28.7-27.6-33.4c-14.5-5.7-33.9-2.3-59.2,10.3c-9.6,4.8-18.7,8.5-27.5,12.1
				c-34.1,14-58.7,24.2-46.5,74.5c8.8,36.3,3.7,72-13.7,95.5c-2.4,3.2-5,6.2-7.8,8.9H227.5z"/>
		</g>
		<g>
			<path class="st1" d="M287.3,1029.9c-5.1,0-9-1.5-11.5-4.5c-3.2-3.7-4.1-9.6-2.8-17.6c5.3-33.1-2.1-48.4-7.6-59.6
				c-3.9-8-6.9-14.3-4.4-23.5c5.6-20.8,22.2-36.2,49.1-45.7c24.9-8.8,49.2-9.1,51.9-9.1c25.4,0,48.7,20.1,53,45.8
				c3.5,21.3-20,25.2-42.8,29c-4,0.7-8.1,1.4-12,2.1c-12.5,2.5-16.4,17.7-20.6,33.7c-3.8,14.9-7.8,30.3-19.1,37.2
				C308,1025.5,295.9,1029.9,287.3,1029.9z M362,872c-2.6,0-26.6,0.3-51.2,8.9c-26.3,9.3-42.4,24.2-47.8,44.3
				c-2.3,8.5,0.5,14.2,4.3,22.1c5.5,11.4,13.1,27.1,7.7,60.8c-1.2,7.4-0.4,12.7,2.4,16c2.1,2.5,5.5,3.8,10,3.8
				c8.2,0,19.9-4.3,32.1-11.7c10.6-6.4,14.5-21.4,18.2-35.9c4.3-16.7,8.4-32.4,22.1-35.2c3.9-0.8,8-1.5,12-2.1
				c21.8-3.6,44.4-7.4,41.2-26.7C408.9,891.4,386.5,872,362,872z"/>
		</g>
		<g>
			<path class="st1" d="M318.2,948.2c-12,0-23.9-6.2-28.1-14.8c-2.4-4.7-3.6-12.4,3.7-22.1c0.3-0.3,22.1-25.5,55.1-25.5
				c1.2,0,2.5,0,3.8,0.1c18.2,1,30.6,5.3,37,12.6c3.3,3.8,4.9,8.5,4.4,13.4c-0.5,5.8-9.8,8.4-21.7,11.6c-12.5,3.4-28,7.6-35.6,16.9
				C332.7,945.5,326.1,948.2,318.2,948.2z M348.8,887.9c-32,0-53.3,24.5-53.5,24.8c-5.3,7-6.5,13.9-3.5,19.9
				c3.9,7.9,15,13.7,26.4,13.7c7.3,0,13.4-2.4,17-6.9c8-9.8,23.9-14.2,36.6-17.6c10.6-2.9,19.8-5.4,20.2-9.8c0.4-4.5-1-8.5-4-12
				c-5.9-6.8-18.2-11-35.6-11.9C351.2,887.9,350,887.9,348.8,887.9z"/>
		</g>
		<g>
			<path class="st1" d="M343.4-38.7c-2.3,5.6-4,12.2-5.7,18.9c-3.7,14.5-7.6,29.5-18.2,35.9c-12.3,7.5-24,11.7-32.1,11.7
				c-4.5,0-7.8-1.3-10-3.8c-2.8-3.2-3.6-8.6-2.4-16c3.5-22.1,1.5-36.4-1.9-46.8H271c3.4,10.3,5.6,24.5,2,46.5
				c-1.3,8-0.3,13.9,2.8,17.6c2.5,3,6.4,4.5,11.5,4.5c8.5,0,20.6-4.4,33.2-12c11.3-6.9,15.2-22.3,19.1-37.2c1.8-7,3.5-13.7,6-19.4
				H343.4z"/>
		</g>
	</g>
</g>
</svg>
