<?xml version="1.0" encoding="utf-8"?>
<!-- Generator: Adobe Illustrator 19.0.0, SVG Export Plug-In . SVG Version: 6.00 Build 0)  -->
<svg version="1.1" id="Layer_1" xmlns="http://www.w3.org/2000/svg" xmlns:xlink="http://www.w3.org/1999/xlink" x="0px" y="0px"
	 viewBox="0 0 26.327 26.327" enable-background="new 0 0 26.327 26.327" xml:space="preserve">
<rect x="-0.247" y="0.694" fill="#353D4E" width="26.327" height="26.327"/>
<path fill="#FFFFFF" d="M21.497,14.38h-7.081v7.079c0,0.652-0.528,1.18-1.18,1.18c-0.652,0-1.18-0.528-1.18-1.18V14.38H4.976
	c-0.652,0-1.18-0.528-1.18-1.18c0-0.652,0.529-1.18,1.18-1.18h7.079V4.939c0-0.652,0.529-1.18,1.18-1.18
	c0.652,0,1.18,0.529,1.18,1.18v7.081h7.081c0.652,0,1.18,0.529,1.18,1.18C22.677,13.852,22.149,14.38,21.497,14.38z"/>
</svg>
