<?xml version="1.0" encoding="utf-8"?>
<!-- Generator: Adobe Illustrator 20.1.0, SVG Export Plug-In . SVG Version: 6.00 Build 0)  -->
<svg version="1.1" id="Layer_1" xmlns="http://www.w3.org/2000/svg" xmlns:xlink="http://www.w3.org/1999/xlink" x="0px" y="0px"
	 viewBox="0 0 987.9 157.9" style="enable-background:new 0 0 987.9 157.9;" xml:space="preserve">
<style type="text/css">
	.st0{opacity:0.3;fill:url(#XMLID_2_);}
	.st1{opacity:0.3;fill:url(#XMLID_3_);}
	.st2{opacity:0.3;fill:url(#XMLID_4_);}
	.st3{opacity:0.3;fill:url(#XMLID_5_);}
	.st4{fill:none;stroke:#58677D;stroke-width:2;stroke-miterlimit:10;}
	.st5{fill:none;stroke:#58677D;stroke-width:2.6241;stroke-miterlimit:10;}
	.st6{fill:none;stroke:#58677D;stroke-width:2.2707;stroke-miterlimit:10;}
	.st7{fill:#58595B;}
	.st8{font-family:'Lato-Regular';}
	.st9{font-size:16px;}
	.st10{font-family:'Lato-Bold';}
	.st11{font-size:15px;}
	.st12{fill:none;stroke:#58677D;stroke-width:2.9711;stroke-miterlimit:10;}
	.st13{fill:#58677D;}
	.st14{fill:none;stroke:#58677D;stroke-width:2.9503;stroke-miterlimit:10;}
	.st15{fill:#788CA8;}
	.st16{font-family:'Merriweather-Italic';}
	.st17{font-size:11px;}
</style>
<g>
	<linearGradient id="XMLID_2_" gradientUnits="userSpaceOnUse" x1="125.4842" y1="128.1018" x2="125.4842" y2="24.0982">
		<stop  offset="0" style="stop-color:#DCC2B0"/>
		<stop  offset="1" style="stop-color:#FFFFFF"/>
	</linearGradient>
	<rect id="XMLID_56_" x="2.4" y="25.8" class="st0" width="246.2" height="103.7"/>
	<linearGradient id="XMLID_3_" gradientUnits="userSpaceOnUse" x1="371.7342" y1="26.6018" x2="371.7342" y2="127.1031">
		<stop  offset="0" style="stop-color:#FFFFFF"/>
		<stop  offset="1" style="stop-color:#8A9AB4"/>
	</linearGradient>
	<rect id="XMLID_47_" x="248.6" y="25.8" class="st1" width="246.2" height="103.7"/>
	<linearGradient id="XMLID_4_" gradientUnits="userSpaceOnUse" x1="617.9841" y1="128.1018" x2="617.9841" y2="26.1006">
		<stop  offset="0" style="stop-color:#6D9796"/>
		<stop  offset="1" style="stop-color:#FFFFFF"/>
	</linearGradient>
	<rect id="XMLID_57_" x="494.9" y="25.8" class="st2" width="246.2" height="103.7"/>
	<linearGradient id="XMLID_5_" gradientUnits="userSpaceOnUse" x1="864.2341" y1="127.6018" x2="864.2341" y2="27.0571">
		<stop  offset="0" style="stop-color:#536382"/>
		<stop  offset="1" style="stop-color:#FFFFFF"/>
	</linearGradient>
	<rect id="XMLID_58_" x="741.1" y="25.8" class="st3" width="246.2" height="103.7"/>
	<g>
		<line class="st4" x1="2.4" y1="129.1" x2="987.4" y2="129.1"/>
	</g>
	<g>
		<line class="st5" x1="36.6" y1="129.1" x2="36.6" y2="63.1"/>
	</g>
	<path class="st6" d="M2.4,136.7"/>
	<line class="st6" x1="3.5" y1="130.3" x2="3.5" y2="137"/>
	<line class="st6" x1="248.6" y1="130.3" x2="248.6" y2="137"/>
	<line class="st6" x1="494.9" y1="130.3" x2="494.9" y2="137"/>
	<line class="st6" x1="741.1" y1="130.3" x2="741.1" y2="137"/>
	<line class="st6" x1="986.4" y1="130.3" x2="986.4" y2="137"/>
	<g>
		<text transform="matrix(1 0 0 1 221.8098 153.6018)" class="st7 st8 st9">200 CE</text>
	</g>
	<g>
		<text transform="matrix(1 0 0 1 0 153.6018)" class="st7 st8 st9">12,000 BCE</text>
	</g>
	<g>
		<text transform="matrix(1 0 0 1 466.0374 153.6018)" class="st7 st8 st9">1300 CE</text>
	</g>
	<g>
		<text transform="matrix(1 0 0 1 711.3707 153.6018)" class="st7 st8 st9">1914 CE</text>
	</g>
	<g>
		<text transform="matrix(1 0 0 1 933.4396 153.6018)" class="st7 st8 st9">Present</text>
	</g>
	<g>
		<text transform="matrix(1 0 0 1 45.391 72.619)" class="st7 st10 st11">The Birth of Trade</text>
	</g>
	<g>
		<line class="st5" x1="263.8" y1="129.1" x2="263.8" y2="11.8"/>
	</g>
	<g>
		<text transform="matrix(1 0 0 1 273.8761 18.5166)" class="st7 st10 st11">Classical Silk Road</text>
	</g>
	<g>
		<line class="st12" x1="307.3" y1="129.3" x2="307.3" y2="48.4"/>
	</g>
	<g>
		<text transform="matrix(1 0 0 1 315.6566 49.9562)" class="st7 st10 st11">Truncation of Silk Routes</text>
	</g>
	<g>
		<line class="st5" x1="731.3" y1="129.7" x2="731.3" y2="86.3"/>
	</g>
	<g>
		<line class="st5" x1="986.4" y1="129.7" x2="986.4" y2="96.3"/>
	</g>
	<g>
		<text transform="matrix(1 0 0 1 613.0087 93.5009)" class="st7 st10 st11">Technology Gap</text>
	</g>
	<g>
		<line class="st5" x1="487.9" y1="129.7" x2="487.9" y2="100.1"/>
	</g>
	<g>
		<text transform="matrix(1 0 0 1 359.5604 109.9761)" class="st7 st10 st11">Mongol Conquest</text>
	</g>
	<g>
		<line class="st5" x1="350" y1="129.7" x2="350" y2="79.5"/>
	</g>
	<g>
		<text transform="matrix(1 0 0 1 358.1339 81.9525)" class="st7 st10 st11">Islamic Golden Age</text>
	</g>
	<g>
		<line class="st5" x1="752.9" y1="129.1" x2="752.9" y2="3.6"/>
	</g>
	<polygon id="XMLID_40_" class="st13" points="751.7,20.7 751.7,0 758.4,10.5 	"/>
	<g>
		<text transform="matrix(1 0 0 1 761.4188 14.775)" class="st7 st10 st11"> Between World Wars</text>
	</g>
	<g>
		<line class="st12" x1="796.4" y1="129.3" x2="796.4" y2="48.5"/>
	</g>
	<polygon id="XMLID_39_" class="st13" points="794.5,52.8 794.5,32.1 803.1,42.6 	"/>
	<g>
		<text transform="matrix(1 0 0 1 805.5897 46.2898)" class="st7 st10 st11">The Cold War</text>
	</g>
	<polygon id="XMLID_38_" class="st13" points="987.9,82 987.9,102.6 981.2,92.1 	"/>
	<g>
		<line class="st5" x1="839.1" y1="129.7" x2="839.1" y2="77.6"/>
	</g>
	<polygon id="XMLID_35_" class="st13" points="837.8,84 837.8,63.3 844.4,73.8 	"/>
	<g>
		<text transform="matrix(1 0 0 1 845.8451 77.6227)" class="st7 st10 st11">Asia’s Rise</text>
	</g>
	<g>
		<g>
			<line class="st14" x1="515.5" y1="129.1" x2="515.5" y2="11.8"/>
		</g>
	</g>
	<g>
		<text transform="matrix(1 0 0 1 525.4159 22.3236)" class="st7 st10 st11">Enclosure of the Steppe </text>
	</g>
	<text transform="matrix(1 0 0 1 525.4159 36.4411)" class="st15 st16 st17">(1300-1400 CE)</text>
	<text transform="matrix(1 0 0 1 273.8766 32.1417)" class="st15 st16 st17">(200-400 CE)</text>
	<text transform="matrix(1 0 0 1 45.3907 88.859)" class="st15 st16 st17">(10,000 BCE)</text>
	<text transform="matrix(1 0 0 1 315.6563 64.3444)" class="st15 st16 st17">(400-600 CE)</text>
	<text transform="matrix(1 0 0 1 357.1656 93.5012)" class="st15 st16 st17">(700-1200 CE)</text>
	<text transform="matrix(1 0 0 1 397.5892 122.5012)" class="st15 st16 st17">(1200-1300 CE)</text>
	<text transform="matrix(1 0 0 1 595.9537 73.6201)" class="st15 st16 st17">(1500-1900 CE)</text>
	<text transform="matrix(1 0 0 1 638.4613 107.7439)" class="st15 st16 st17">(1850-1914 CE)</text>
	<text transform="matrix(1 0 0 1 931.2733 124.5023)" class="st15 st16 st17">(Present)</text>
	<text transform="matrix(1 0 0 1 841.9379 90.651)" class="st15 st16 st17">(1990-2015 CE)</text>
	<text transform="matrix(1 0 0 1 805.8402 58.6193)" class="st15 st16 st17">(1947-1991 CE)</text>
	<text transform="matrix(1 0 0 1 762.7748 27.6238)" class="st15 st16 st17">(1914-1945 CE)</text>
	<g>
		<line class="st12" x1="586.4" y1="129.7" x2="586.4" y2="50"/>
	</g>
	<polygon id="XMLID_33_" class="st13" points="513.9,26.7 513.9,6 522.4,16.5 	"/>
	<polygon id="XMLID_42_" class="st13" points="348.6,88 348.6,67.3 357.2,77.8 	"/>
	<polygon id="XMLID_43_" class="st13" points="305.9,57.4 305.9,36.8 314.4,47.3 	"/>
	<polygon id="XMLID_44_" class="st13" points="262.4,24.9 262.4,4.3 270.9,14.8 	"/>
	<polygon id="XMLID_45_" class="st13" points="35.3,77.6 35.3,57 43.8,67.5 	"/>
	<polygon id="XMLID_21_" class="st13" points="584.9,64.3 584.9,43.7 593.4,54.2 	"/>
	<polygon id="XMLID_46_" class="st13" points="489.3,96.3 489.3,116.9 480.8,106.4 	"/>
	<polygon id="XMLID_28_" class="st13" points="732.6,79.5 732.6,100.1 724.1,89.6 	"/>
	<g>
		<text transform="matrix(1 0 0 1 595.9537 60.479)" class="st7 st10 st11">The Maritime Shift </text>
	</g>
	<g>
		<text transform="matrix(1 0 0 1 925.6727 97.319)"><tspan x="0" y="0" class="st7 st10 st11">Today’s </tspan><tspan x="-48.1" y="14" class="st7 st10 st11">Supercontinent</tspan></text>
	</g>
</g>
</svg>
